G04 #@! TF.FileFunction,Soldermask,Bot*
%FSLAX46Y46*%
G04 Gerber Fmt 4.6, Leading zero omitted, Abs format (unit mm)*
G04 Created by KiCad (PCBNEW 4.0.7-e2-6376~58~ubuntu17.04.1) date Sat Mar 10 17:53:06 2018*
%MOMM*%
%LPD*%
G01*
G04 APERTURE LIST*
%ADD10C,0.100000*%
%ADD11C,0.150000*%
%ADD12R,2.000000X2.000000*%
%ADD13O,2.000000X2.000000*%
%ADD14R,2.100000X2.400000*%
%ADD15R,2.400000X2.100000*%
%ADD16C,2.000000*%
%ADD17R,2.100000X2.100000*%
%ADD18O,2.100000X2.100000*%
%ADD19C,2.500000*%
%ADD20C,2.150000*%
%ADD21O,3.700000X7.200000*%
%ADD22C,2.400000*%
%ADD23O,2.940000X1.924000*%
G04 APERTURE END LIST*
D10*
D11*
X120396000Y-122428000D02*
X120396000Y-76708000D01*
X183896000Y-122428000D02*
X120396000Y-122428000D01*
X183896000Y-122428000D02*
X183896000Y-76708000D01*
X183896000Y-76708000D02*
X120396000Y-76708000D01*
D12*
X156972000Y-117348000D03*
D13*
X164592000Y-109728000D03*
X159512000Y-117348000D03*
X162052000Y-109728000D03*
X162052000Y-117348000D03*
X159512000Y-109728000D03*
X164592000Y-117348000D03*
X156972000Y-109728000D03*
D14*
X164084000Y-101568000D03*
X164084000Y-97568000D03*
X145796000Y-101568000D03*
X145796000Y-97568000D03*
X130048000Y-101568000D03*
X130048000Y-97568000D03*
X172212000Y-101568000D03*
X172212000Y-97568000D03*
X154940000Y-101568000D03*
X154940000Y-97568000D03*
D15*
X153892000Y-118745000D03*
X149892000Y-118745000D03*
D12*
X149860000Y-111760000D03*
D16*
X149860000Y-114260000D03*
D17*
X129032000Y-81280000D03*
D18*
X131572000Y-81280000D03*
X129032000Y-83820000D03*
X131572000Y-83820000D03*
X129032000Y-86360000D03*
X131572000Y-86360000D03*
D19*
X155747000Y-81357000D03*
D20*
X154487000Y-78867000D03*
X149987000Y-78867000D03*
D19*
X148737000Y-81357000D03*
D21*
X180848000Y-112268000D03*
X170688000Y-112268000D03*
X175768000Y-112268000D03*
D17*
X181483000Y-98044000D03*
D18*
X181483000Y-100584000D03*
D17*
X165989000Y-79502000D03*
D18*
X163449000Y-79502000D03*
D22*
X122936000Y-94768000D03*
X136156000Y-94368000D03*
X136156000Y-104768000D03*
X133096000Y-107068000D03*
X133096000Y-99568000D03*
X133096000Y-92068000D03*
X122936000Y-104368000D03*
D23*
X172974000Y-84328000D03*
X172974000Y-89408000D03*
X179324000Y-84328000D03*
X179324000Y-86868000D03*
X179324000Y-89408000D03*
M02*
