G04 #@! TF.FileFunction,Copper,L1,Top,Signal*
%FSLAX46Y46*%
G04 Gerber Fmt 4.6, Leading zero omitted, Abs format (unit mm)*
G04 Created by KiCad (PCBNEW 4.0.7-e2-6376~58~ubuntu17.04.1) date Sat Mar 10 17:53:06 2018*
%MOMM*%
%LPD*%
G01*
G04 APERTURE LIST*
%ADD10C,0.100000*%
%ADD11C,0.150000*%
%ADD12R,1.600000X1.600000*%
%ADD13O,1.600000X1.600000*%
%ADD14R,1.600000X1.000000*%
%ADD15R,0.550000X1.600000*%
%ADD16R,1.600000X0.550000*%
%ADD17C,1.600000*%
%ADD18R,1.700000X1.700000*%
%ADD19O,1.700000X1.700000*%
%ADD20C,2.100000*%
%ADD21C,1.750000*%
%ADD22R,0.900000X0.400000*%
%ADD23R,0.600000X1.500000*%
%ADD24O,3.300000X6.800000*%
%ADD25C,2.000000*%
%ADD26O,2.540000X1.524000*%
%ADD27R,1.000000X1.600000*%
%ADD28R,1.700000X0.900000*%
%ADD29R,0.900000X1.700000*%
%ADD30R,0.900000X0.800000*%
%ADD31R,1.300000X0.700000*%
%ADD32R,1.000000X1.250000*%
%ADD33R,1.250000X1.000000*%
%ADD34C,0.600000*%
%ADD35C,0.250000*%
%ADD36C,0.254000*%
G04 APERTURE END LIST*
D10*
D11*
X120396000Y-122428000D02*
X120396000Y-76708000D01*
X183896000Y-122428000D02*
X120396000Y-122428000D01*
X183896000Y-122428000D02*
X183896000Y-76708000D01*
X183896000Y-76708000D02*
X120396000Y-76708000D01*
D12*
X156972000Y-117348000D03*
D13*
X164592000Y-109728000D03*
X159512000Y-117348000D03*
X162052000Y-109728000D03*
X162052000Y-117348000D03*
X159512000Y-109728000D03*
X164592000Y-117348000D03*
X156972000Y-109728000D03*
D14*
X174117000Y-97941000D03*
X174117000Y-100941000D03*
D15*
X146552000Y-96706000D03*
X147352000Y-96706000D03*
X148152000Y-96706000D03*
X148952000Y-96706000D03*
X149752000Y-96706000D03*
X150552000Y-96706000D03*
X151352000Y-96706000D03*
X152152000Y-96706000D03*
D16*
X153602000Y-95256000D03*
X153602000Y-94456000D03*
X153602000Y-93656000D03*
X153602000Y-92856000D03*
X153602000Y-92056000D03*
X153602000Y-91256000D03*
X153602000Y-90456000D03*
X153602000Y-89656000D03*
D15*
X152152000Y-88206000D03*
X151352000Y-88206000D03*
X150552000Y-88206000D03*
X149752000Y-88206000D03*
X148952000Y-88206000D03*
X148152000Y-88206000D03*
X147352000Y-88206000D03*
X146552000Y-88206000D03*
D16*
X145102000Y-89656000D03*
X145102000Y-90456000D03*
X145102000Y-91256000D03*
X145102000Y-92056000D03*
X145102000Y-92856000D03*
X145102000Y-93656000D03*
X145102000Y-94456000D03*
X145102000Y-95256000D03*
D12*
X149860000Y-111760000D03*
D17*
X149860000Y-114260000D03*
D18*
X129032000Y-81280000D03*
D19*
X131572000Y-81280000D03*
X129032000Y-83820000D03*
X131572000Y-83820000D03*
X129032000Y-86360000D03*
X131572000Y-86360000D03*
D20*
X155747000Y-81357000D03*
D21*
X154487000Y-78867000D03*
X149987000Y-78867000D03*
D20*
X148737000Y-81357000D03*
D22*
X157138000Y-92564000D03*
X157138000Y-93364000D03*
X157138000Y-91764000D03*
X157138000Y-94164000D03*
X158838000Y-91764000D03*
X158838000Y-92564000D03*
X158838000Y-93364000D03*
X158838000Y-94164000D03*
D23*
X151450000Y-99568000D03*
X153350000Y-99568000D03*
X152400000Y-99568000D03*
D24*
X180848000Y-112268000D03*
X170688000Y-112268000D03*
X175768000Y-112268000D03*
D18*
X181483000Y-98044000D03*
D19*
X181483000Y-100584000D03*
D18*
X165989000Y-79502000D03*
D19*
X163449000Y-79502000D03*
D25*
X122936000Y-94768000D03*
X136156000Y-94368000D03*
X136156000Y-104768000D03*
X133096000Y-107068000D03*
X133096000Y-99568000D03*
X133096000Y-92068000D03*
X122936000Y-104368000D03*
D26*
X172974000Y-84328000D03*
X172974000Y-89408000D03*
X179324000Y-84328000D03*
X179324000Y-86868000D03*
X179324000Y-89408000D03*
D14*
X153924000Y-115292000D03*
X153924000Y-112292000D03*
X163449000Y-82193000D03*
X163449000Y-85193000D03*
D27*
X156996000Y-120015000D03*
X159996000Y-120015000D03*
D14*
X148971000Y-102211000D03*
X148971000Y-99211000D03*
D28*
X144780000Y-102034000D03*
X144780000Y-99134000D03*
D29*
X154358000Y-118872000D03*
X151458000Y-118872000D03*
X143690000Y-104648000D03*
X140790000Y-104648000D03*
X156792000Y-107188000D03*
X159692000Y-107188000D03*
D28*
X161036000Y-82243000D03*
X161036000Y-85143000D03*
D30*
X175768000Y-107222000D03*
X175768000Y-105122000D03*
X180848000Y-105122000D03*
X180848000Y-107222000D03*
D31*
X140081000Y-86172000D03*
X140081000Y-88072000D03*
D32*
X175879000Y-81534000D03*
X173879000Y-81534000D03*
X170069000Y-81534000D03*
X172069000Y-81534000D03*
D33*
X142367000Y-88249000D03*
X142367000Y-86249000D03*
D34*
X145222000Y-106680000D03*
X139700000Y-107696000D03*
X143256000Y-100838000D03*
X149479000Y-92329000D03*
X136906000Y-86360000D03*
X152400000Y-98298000D03*
X160528000Y-91440000D03*
X160528000Y-92456000D03*
X160528000Y-93472000D03*
X160528000Y-94488000D03*
X145796000Y-104648000D03*
X147828000Y-118872000D03*
X154305000Y-120142000D03*
X147320000Y-89408000D03*
X152400000Y-86360000D03*
X153416000Y-87884000D03*
X140208000Y-89916000D03*
X178308000Y-106172000D03*
D35*
X172069000Y-81534000D02*
X172974000Y-82439000D01*
X172974000Y-82439000D02*
X173085000Y-82439000D01*
X173085000Y-82439000D02*
X173101000Y-82423000D01*
X173101000Y-82423000D02*
X173101000Y-82312000D01*
X172974000Y-84328000D02*
X172974000Y-82439000D01*
X172974000Y-82439000D02*
X173101000Y-82312000D01*
X173101000Y-82312000D02*
X173879000Y-81534000D01*
X149860000Y-111760000D02*
X149860000Y-106680000D01*
X156972000Y-109728000D02*
X156972000Y-107368000D01*
X156972000Y-107368000D02*
X156792000Y-107188000D01*
X149733000Y-106680000D02*
X149860000Y-106680000D01*
X149860000Y-106680000D02*
X151257000Y-106680000D01*
X169037000Y-97917000D02*
X169037000Y-88265000D01*
X165481000Y-101473000D02*
X169037000Y-97917000D01*
X156464000Y-101473000D02*
X165481000Y-101473000D01*
X151638000Y-106299000D02*
X156464000Y-101473000D01*
X169037000Y-88265000D02*
X172974000Y-84328000D01*
X151257000Y-106680000D02*
X151638000Y-106299000D01*
X172974000Y-84328000D02*
X172720000Y-84328000D01*
X156972000Y-109728000D02*
X164592000Y-117348000D01*
X153924000Y-111784000D02*
X154916000Y-111784000D01*
X154916000Y-111784000D02*
X156972000Y-109728000D01*
X149860000Y-111760000D02*
X153900000Y-111760000D01*
X153900000Y-111760000D02*
X153924000Y-111784000D01*
X148971000Y-99211000D02*
X147931000Y-99211000D01*
X147447000Y-104394000D02*
X149733000Y-106680000D01*
X147447000Y-99695000D02*
X147447000Y-104394000D01*
X147931000Y-99211000D02*
X147447000Y-99695000D01*
X148952000Y-96706000D02*
X148952000Y-95269000D01*
X150552000Y-95180000D02*
X150552000Y-96706000D01*
X150495000Y-95123000D02*
X150552000Y-95180000D01*
X149098000Y-95123000D02*
X150495000Y-95123000D01*
X148952000Y-95269000D02*
X149098000Y-95123000D01*
X148952000Y-96706000D02*
X148952000Y-99192000D01*
X148952000Y-99192000D02*
X148971000Y-99211000D01*
X142240000Y-86376000D02*
X142240000Y-86360000D01*
X142240000Y-86360000D02*
X142748000Y-85852000D01*
X143690000Y-104648000D02*
X143690000Y-105148000D01*
X143690000Y-105148000D02*
X145222000Y-106680000D01*
X125476000Y-90424000D02*
X134112000Y-90424000D01*
X138684000Y-85852000D02*
X139634000Y-85852000D01*
X137668000Y-86868000D02*
X138684000Y-85852000D01*
X134112000Y-90424000D02*
X137668000Y-86868000D01*
X139634000Y-85852000D02*
X139650000Y-85868000D01*
X139650000Y-85868000D02*
X146796000Y-85868000D01*
X146796000Y-85868000D02*
X146812000Y-85852000D01*
X146812000Y-85852000D02*
X150368000Y-85852000D01*
X150368000Y-85852000D02*
X151352000Y-86836000D01*
X151352000Y-86836000D02*
X151352000Y-88206000D01*
X131572000Y-80264000D02*
X130556000Y-79248000D01*
X130556000Y-79248000D02*
X126492000Y-79248000D01*
X126492000Y-79248000D02*
X125476000Y-80264000D01*
X131572000Y-81280000D02*
X131572000Y-80264000D01*
X149733000Y-106680000D02*
X148844000Y-106680000D01*
X148844000Y-106680000D02*
X145222000Y-106680000D01*
X125476000Y-80264000D02*
X125476000Y-89916000D01*
X125476000Y-89916000D02*
X125476000Y-90424000D01*
X125476000Y-90424000D02*
X125476000Y-90932000D01*
X125476000Y-90932000D02*
X125476000Y-96012000D01*
X125476000Y-96012000D02*
X137160000Y-107696000D01*
X137160000Y-107696000D02*
X139700000Y-107696000D01*
X148952000Y-88206000D02*
X148952000Y-91802000D01*
X148952000Y-91802000D02*
X149479000Y-92329000D01*
X152400000Y-99568000D02*
X152400000Y-98298000D01*
X159512000Y-117348000D02*
X159512000Y-119531000D01*
X159512000Y-119531000D02*
X159996000Y-120015000D01*
X162052000Y-109728000D02*
X164084000Y-111760000D01*
X170019000Y-107222000D02*
X175768000Y-107222000D01*
X165481000Y-111760000D02*
X170019000Y-107222000D01*
X164084000Y-111760000D02*
X165481000Y-111760000D01*
X159512000Y-117348000D02*
X159512000Y-118364000D01*
X175768000Y-107630000D02*
X175768000Y-112268000D01*
X160204000Y-91764000D02*
X158838000Y-91764000D01*
X160528000Y-91440000D02*
X160204000Y-91764000D01*
X159188000Y-91764000D02*
X158838000Y-91764000D01*
X160420000Y-92564000D02*
X158838000Y-92564000D01*
X160528000Y-92456000D02*
X160420000Y-92564000D01*
X160420000Y-93364000D02*
X158838000Y-93364000D01*
X160528000Y-93472000D02*
X160420000Y-93364000D01*
X160528000Y-94488000D02*
X160204000Y-94164000D01*
X160204000Y-94164000D02*
X158838000Y-94164000D01*
X144780000Y-102034000D02*
X144780000Y-103124000D01*
X144780000Y-103124000D02*
X145796000Y-104648000D01*
X151458000Y-118872000D02*
X147828000Y-118872000D01*
X154358000Y-118872000D02*
X154358000Y-120089000D01*
X154358000Y-120089000D02*
X154305000Y-120142000D01*
X154358000Y-119179000D02*
X154358000Y-117782000D01*
X143250000Y-95256000D02*
X145102000Y-95256000D01*
X142240000Y-96266000D02*
X143250000Y-95256000D01*
X142240000Y-112776000D02*
X142240000Y-96266000D01*
X146304000Y-116840000D02*
X142240000Y-112776000D01*
X153416000Y-116840000D02*
X146304000Y-116840000D01*
X154358000Y-117782000D02*
X153416000Y-116840000D01*
X145028000Y-95256000D02*
X145102000Y-95256000D01*
X145102000Y-95256000D02*
X145028000Y-95256000D01*
X151352000Y-96706000D02*
X151352000Y-99470000D01*
X151352000Y-99470000D02*
X151450000Y-99568000D01*
X152152000Y-96706000D02*
X152152000Y-96780000D01*
X152152000Y-96780000D02*
X153350000Y-97978000D01*
X153350000Y-97978000D02*
X153350000Y-99568000D01*
X152152000Y-96706000D02*
X152152000Y-96912000D01*
X147352000Y-88206000D02*
X147352000Y-89376000D01*
X147352000Y-89376000D02*
X147320000Y-89408000D01*
X136156000Y-104768000D02*
X140670000Y-104768000D01*
X140670000Y-104768000D02*
X140790000Y-104648000D01*
X140208000Y-94488000D02*
X142748000Y-94488000D01*
X142174000Y-94488000D02*
X142748000Y-94488000D01*
X142748000Y-94488000D02*
X145070000Y-94488000D01*
X145070000Y-94488000D02*
X145102000Y-94456000D01*
X136906000Y-94488000D02*
X140208000Y-94488000D01*
X140208000Y-94488000D02*
X140274000Y-94488000D01*
X136938000Y-94456000D02*
X136906000Y-94488000D01*
X156146500Y-88963500D02*
X156146500Y-88582500D01*
X132588000Y-82804000D02*
X131572000Y-83820000D01*
X150368000Y-82804000D02*
X132588000Y-82804000D01*
X156146500Y-88582500D02*
X150368000Y-82804000D01*
X161036000Y-85143000D02*
X159967000Y-85143000D01*
X154654000Y-90456000D02*
X153602000Y-90456000D01*
X159967000Y-85143000D02*
X156146500Y-88963500D01*
X156146500Y-88963500D02*
X154654000Y-90456000D01*
X152400000Y-86360000D02*
X150368000Y-84328000D01*
X128016000Y-83820000D02*
X129032000Y-83820000D01*
X127000000Y-84836000D02*
X128016000Y-83820000D01*
X127000000Y-86868000D02*
X127000000Y-84836000D01*
X128524000Y-88900000D02*
X127000000Y-86868000D01*
X133096000Y-88900000D02*
X128524000Y-88900000D01*
X137668000Y-84328000D02*
X133096000Y-88900000D01*
X150368000Y-84328000D02*
X137668000Y-84328000D01*
X150368000Y-84328000D02*
X150368000Y-84328000D01*
X152400000Y-86360000D02*
X152152000Y-86608000D01*
X152152000Y-86608000D02*
X152400000Y-86360000D01*
X152152000Y-88206000D02*
X152152000Y-86608000D01*
X152152000Y-86608000D02*
X152400000Y-86360000D01*
X174117000Y-97941000D02*
X174117000Y-92710000D01*
X172974000Y-91567000D02*
X172974000Y-89408000D01*
X174117000Y-92710000D02*
X172974000Y-91567000D01*
X172744000Y-89638000D02*
X172974000Y-89408000D01*
X153602000Y-88070000D02*
X153416000Y-87884000D01*
X153602000Y-89656000D02*
X153602000Y-88070000D01*
X140081000Y-87945000D02*
X140081000Y-89789000D01*
X140081000Y-89789000D02*
X140208000Y-89916000D01*
X140142000Y-89850000D02*
X143148000Y-92856000D01*
X140208000Y-89916000D02*
X140142000Y-89850000D01*
X143148000Y-92856000D02*
X145102000Y-92856000D01*
X161036000Y-82243000D02*
X163399000Y-82243000D01*
X163399000Y-82243000D02*
X163449000Y-82193000D01*
X163449000Y-82193000D02*
X163449000Y-79502000D01*
X174117000Y-100941000D02*
X181507000Y-100941000D01*
X181507000Y-100941000D02*
X181864000Y-100584000D01*
X153602000Y-92056000D02*
X155556000Y-92056000D01*
X156064000Y-92564000D02*
X157138000Y-92564000D01*
X155556000Y-92056000D02*
X156064000Y-92564000D01*
X153602000Y-95256000D02*
X155188000Y-95256000D01*
X156280000Y-94164000D02*
X157138000Y-94164000D01*
X155188000Y-95256000D02*
X156280000Y-94164000D01*
X153602000Y-95256000D02*
X154184000Y-95256000D01*
X153602000Y-91256000D02*
X156630000Y-91256000D01*
X156630000Y-91256000D02*
X157138000Y-91764000D01*
X153602000Y-94456000D02*
X154972000Y-94456000D01*
X156064000Y-93364000D02*
X157138000Y-93364000D01*
X154972000Y-94456000D02*
X156064000Y-93364000D01*
X159512000Y-109728000D02*
X159512000Y-107368000D01*
X159512000Y-107368000D02*
X159692000Y-107188000D01*
X179358000Y-107222000D02*
X180848000Y-107222000D01*
X178308000Y-106172000D02*
X179358000Y-107222000D01*
X180848000Y-107630000D02*
X180848000Y-112268000D01*
X159512000Y-109220000D02*
X159512000Y-109728000D01*
X146552000Y-96706000D02*
X146118000Y-96706000D01*
X144780000Y-98044000D02*
X144780000Y-99134000D01*
X146118000Y-96706000D02*
X144780000Y-98044000D01*
D36*
G36*
X183294000Y-121826000D02*
X120998000Y-121826000D01*
X120998000Y-107370407D01*
X131568735Y-107370407D01*
X131800717Y-107931846D01*
X132229894Y-108361773D01*
X132790928Y-108594735D01*
X133398407Y-108595265D01*
X133959846Y-108363283D01*
X134389773Y-107934106D01*
X134622735Y-107373072D01*
X134623265Y-106765593D01*
X134391283Y-106204154D01*
X133962106Y-105774227D01*
X133401072Y-105541265D01*
X132793593Y-105540735D01*
X132232154Y-105772717D01*
X131802227Y-106201894D01*
X131569265Y-106762928D01*
X131568735Y-107370407D01*
X120998000Y-107370407D01*
X120998000Y-105520532D01*
X121963073Y-105520532D01*
X122061736Y-105787387D01*
X122671461Y-106013908D01*
X123321460Y-105989856D01*
X123810264Y-105787387D01*
X123908927Y-105520532D01*
X122936000Y-104547605D01*
X121963073Y-105520532D01*
X120998000Y-105520532D01*
X120998000Y-104103461D01*
X121290092Y-104103461D01*
X121314144Y-104753460D01*
X121516613Y-105242264D01*
X121783468Y-105340927D01*
X122756395Y-104368000D01*
X123115605Y-104368000D01*
X124088532Y-105340927D01*
X124355387Y-105242264D01*
X124581908Y-104632539D01*
X124557856Y-103982540D01*
X124355387Y-103493736D01*
X124088532Y-103395073D01*
X123115605Y-104368000D01*
X122756395Y-104368000D01*
X121783468Y-103395073D01*
X121516613Y-103493736D01*
X121290092Y-104103461D01*
X120998000Y-104103461D01*
X120998000Y-103215468D01*
X121963073Y-103215468D01*
X122936000Y-104188395D01*
X123908927Y-103215468D01*
X123810264Y-102948613D01*
X123200539Y-102722092D01*
X122550540Y-102746144D01*
X122061736Y-102948613D01*
X121963073Y-103215468D01*
X120998000Y-103215468D01*
X120998000Y-95920532D01*
X121963073Y-95920532D01*
X122061736Y-96187387D01*
X122671461Y-96413908D01*
X123321460Y-96389856D01*
X123810264Y-96187387D01*
X123908927Y-95920532D01*
X122936000Y-94947605D01*
X121963073Y-95920532D01*
X120998000Y-95920532D01*
X120998000Y-94503461D01*
X121290092Y-94503461D01*
X121314144Y-95153460D01*
X121516613Y-95642264D01*
X121783468Y-95740927D01*
X122756395Y-94768000D01*
X123115605Y-94768000D01*
X124088532Y-95740927D01*
X124355387Y-95642264D01*
X124581908Y-95032539D01*
X124557856Y-94382540D01*
X124355387Y-93893736D01*
X124088532Y-93795073D01*
X123115605Y-94768000D01*
X122756395Y-94768000D01*
X121783468Y-93795073D01*
X121516613Y-93893736D01*
X121290092Y-94503461D01*
X120998000Y-94503461D01*
X120998000Y-93615468D01*
X121963073Y-93615468D01*
X122936000Y-94588395D01*
X123908927Y-93615468D01*
X123810264Y-93348613D01*
X123200539Y-93122092D01*
X122550540Y-93146144D01*
X122061736Y-93348613D01*
X121963073Y-93615468D01*
X120998000Y-93615468D01*
X120998000Y-80264000D01*
X124823999Y-80264000D01*
X124824000Y-80264005D01*
X124824000Y-96011995D01*
X124823999Y-96012000D01*
X124856946Y-96177631D01*
X124873631Y-96261510D01*
X124979697Y-96420250D01*
X125014966Y-96473034D01*
X136698964Y-108157031D01*
X136698966Y-108157034D01*
X136910490Y-108298369D01*
X137160000Y-108348000D01*
X139182327Y-108348000D01*
X139230930Y-108396688D01*
X139534778Y-108522856D01*
X139863779Y-108523143D01*
X140167846Y-108397505D01*
X140400688Y-108165070D01*
X140526856Y-107861222D01*
X140527143Y-107532221D01*
X140401505Y-107228154D01*
X140169070Y-106995312D01*
X139865222Y-106869144D01*
X139536221Y-106868857D01*
X139232154Y-106994495D01*
X139182562Y-107044000D01*
X137430067Y-107044000D01*
X136616153Y-106230086D01*
X137019846Y-106063283D01*
X137449773Y-105634106D01*
X137538678Y-105420000D01*
X139802676Y-105420000D01*
X139802676Y-105498000D01*
X139839423Y-105693294D01*
X139954842Y-105872660D01*
X140130951Y-105992990D01*
X140340000Y-106035324D01*
X141240000Y-106035324D01*
X141435294Y-105998577D01*
X141588000Y-105900313D01*
X141588000Y-112775995D01*
X141587999Y-112776000D01*
X141621648Y-112945158D01*
X141637631Y-113025510D01*
X141778966Y-113237034D01*
X145842966Y-117301034D01*
X146054490Y-117442369D01*
X146095887Y-117450604D01*
X146304000Y-117492001D01*
X146304005Y-117492000D01*
X150969076Y-117492000D01*
X150812706Y-117521423D01*
X150633340Y-117636842D01*
X150513010Y-117812951D01*
X150470676Y-118022000D01*
X150470676Y-118220000D01*
X148345673Y-118220000D01*
X148297070Y-118171312D01*
X147993222Y-118045144D01*
X147664221Y-118044857D01*
X147360154Y-118170495D01*
X147127312Y-118402930D01*
X147001144Y-118706778D01*
X147000857Y-119035779D01*
X147126495Y-119339846D01*
X147358930Y-119572688D01*
X147662778Y-119698856D01*
X147991779Y-119699143D01*
X148295846Y-119573505D01*
X148345438Y-119524000D01*
X150470676Y-119524000D01*
X150470676Y-119722000D01*
X150507423Y-119917294D01*
X150622842Y-120096660D01*
X150798951Y-120216990D01*
X151008000Y-120259324D01*
X151908000Y-120259324D01*
X152103294Y-120222577D01*
X152282660Y-120107158D01*
X152402990Y-119931049D01*
X152445324Y-119722000D01*
X152445324Y-118022000D01*
X152408577Y-117826706D01*
X152293158Y-117647340D01*
X152117049Y-117527010D01*
X151944167Y-117492000D01*
X153145932Y-117492000D01*
X153434878Y-117780946D01*
X153413010Y-117812951D01*
X153370676Y-118022000D01*
X153370676Y-119722000D01*
X153407423Y-119917294D01*
X153478100Y-120027129D01*
X153477857Y-120305779D01*
X153603495Y-120609846D01*
X153835930Y-120842688D01*
X154139778Y-120968856D01*
X154468779Y-120969143D01*
X154772846Y-120843505D01*
X155005688Y-120611070D01*
X155131856Y-120307222D01*
X155131861Y-120300750D01*
X155861000Y-120300750D01*
X155861000Y-120941310D01*
X155957673Y-121174699D01*
X156136302Y-121353327D01*
X156369691Y-121450000D01*
X156710250Y-121450000D01*
X156869000Y-121291250D01*
X156869000Y-120142000D01*
X157123000Y-120142000D01*
X157123000Y-121291250D01*
X157281750Y-121450000D01*
X157622309Y-121450000D01*
X157855698Y-121353327D01*
X158034327Y-121174699D01*
X158131000Y-120941310D01*
X158131000Y-120300750D01*
X157972250Y-120142000D01*
X157123000Y-120142000D01*
X156869000Y-120142000D01*
X156019750Y-120142000D01*
X155861000Y-120300750D01*
X155131861Y-120300750D01*
X155132002Y-120139756D01*
X155182660Y-120107158D01*
X155302990Y-119931049D01*
X155345324Y-119722000D01*
X155345324Y-118022000D01*
X155308577Y-117826706D01*
X155193158Y-117647340D01*
X155173269Y-117633750D01*
X155537000Y-117633750D01*
X155537000Y-118274309D01*
X155633673Y-118507698D01*
X155812301Y-118686327D01*
X156034577Y-118778397D01*
X155957673Y-118855301D01*
X155861000Y-119088690D01*
X155861000Y-119729250D01*
X156019750Y-119888000D01*
X156869000Y-119888000D01*
X156869000Y-118738750D01*
X156799750Y-118669500D01*
X156845000Y-118624250D01*
X156845000Y-117475000D01*
X155695750Y-117475000D01*
X155537000Y-117633750D01*
X155173269Y-117633750D01*
X155017049Y-117527010D01*
X154947265Y-117512878D01*
X154819034Y-117320966D01*
X154819031Y-117320964D01*
X153925068Y-116427000D01*
X154051002Y-116427000D01*
X154051002Y-116268252D01*
X154209750Y-116427000D01*
X154850310Y-116427000D01*
X154863127Y-116421691D01*
X155537000Y-116421691D01*
X155537000Y-117062250D01*
X155695750Y-117221000D01*
X156845000Y-117221000D01*
X156845000Y-116071750D01*
X156686250Y-115913000D01*
X156045690Y-115913000D01*
X155812301Y-116009673D01*
X155633673Y-116188302D01*
X155537000Y-116421691D01*
X154863127Y-116421691D01*
X155083699Y-116330327D01*
X155262327Y-116151698D01*
X155359000Y-115918309D01*
X155359000Y-115577750D01*
X155200250Y-115419000D01*
X154051000Y-115419000D01*
X154051000Y-115439000D01*
X153797000Y-115439000D01*
X153797000Y-115419000D01*
X152647750Y-115419000D01*
X152489000Y-115577750D01*
X152489000Y-115918309D01*
X152585673Y-116151698D01*
X152621975Y-116188000D01*
X146574068Y-116188000D01*
X145653813Y-115267745D01*
X149031861Y-115267745D01*
X149105995Y-115513864D01*
X149643223Y-115706965D01*
X150213454Y-115679778D01*
X150614005Y-115513864D01*
X150688139Y-115267745D01*
X149860000Y-114439605D01*
X149031861Y-115267745D01*
X145653813Y-115267745D01*
X144429291Y-114043223D01*
X148413035Y-114043223D01*
X148440222Y-114613454D01*
X148606136Y-115014005D01*
X148852255Y-115088139D01*
X149680395Y-114260000D01*
X150039605Y-114260000D01*
X150867745Y-115088139D01*
X151113864Y-115014005D01*
X151239061Y-114665691D01*
X152489000Y-114665691D01*
X152489000Y-115006250D01*
X152647750Y-115165000D01*
X153797000Y-115165000D01*
X153797000Y-114315750D01*
X154051000Y-114315750D01*
X154051000Y-115165000D01*
X155200250Y-115165000D01*
X155359000Y-115006250D01*
X155359000Y-114665691D01*
X155262327Y-114432302D01*
X155083699Y-114253673D01*
X154850310Y-114157000D01*
X154209750Y-114157000D01*
X154051000Y-114315750D01*
X153797000Y-114315750D01*
X153638250Y-114157000D01*
X152997690Y-114157000D01*
X152764301Y-114253673D01*
X152585673Y-114432302D01*
X152489000Y-114665691D01*
X151239061Y-114665691D01*
X151306965Y-114476777D01*
X151279778Y-113906546D01*
X151113864Y-113505995D01*
X150867745Y-113431861D01*
X150039605Y-114260000D01*
X149680395Y-114260000D01*
X148852255Y-113431861D01*
X148606136Y-113505995D01*
X148413035Y-114043223D01*
X144429291Y-114043223D01*
X142892000Y-112505932D01*
X142892000Y-105898049D01*
X143030951Y-105992990D01*
X143240000Y-106035324D01*
X143655256Y-106035324D01*
X144394917Y-106774984D01*
X144394857Y-106843779D01*
X144520495Y-107147846D01*
X144752930Y-107380688D01*
X145056778Y-107506856D01*
X145385779Y-107507143D01*
X145689846Y-107381505D01*
X145739438Y-107332000D01*
X149208000Y-107332000D01*
X149208000Y-110422676D01*
X149060000Y-110422676D01*
X148864706Y-110459423D01*
X148685340Y-110574842D01*
X148565010Y-110750951D01*
X148522676Y-110960000D01*
X148522676Y-112560000D01*
X148559423Y-112755294D01*
X148674842Y-112934660D01*
X148850951Y-113054990D01*
X149060000Y-113097324D01*
X149078528Y-113097324D01*
X149031861Y-113252255D01*
X149860000Y-114080395D01*
X150688139Y-113252255D01*
X150641472Y-113097324D01*
X150660000Y-113097324D01*
X150855294Y-113060577D01*
X151034660Y-112945158D01*
X151154990Y-112769049D01*
X151197324Y-112560000D01*
X151197324Y-112412000D01*
X152586676Y-112412000D01*
X152586676Y-112792000D01*
X152623423Y-112987294D01*
X152738842Y-113166660D01*
X152914951Y-113286990D01*
X153124000Y-113329324D01*
X154724000Y-113329324D01*
X154919294Y-113292577D01*
X155098660Y-113177158D01*
X155218990Y-113001049D01*
X155261324Y-112792000D01*
X155261324Y-112322349D01*
X155377034Y-112245034D01*
X156612567Y-111009501D01*
X156972000Y-111080997D01*
X157331433Y-111009501D01*
X162382720Y-116060787D01*
X162052000Y-115995003D01*
X161544179Y-116096015D01*
X161113669Y-116383672D01*
X160826012Y-116814182D01*
X160782000Y-117035445D01*
X160737988Y-116814182D01*
X160450331Y-116383672D01*
X160019821Y-116096015D01*
X159512000Y-115995003D01*
X159004179Y-116096015D01*
X158573669Y-116383672D01*
X158407000Y-116633110D01*
X158407000Y-116421691D01*
X158310327Y-116188302D01*
X158131699Y-116009673D01*
X157898310Y-115913000D01*
X157257750Y-115913000D01*
X157099000Y-116071750D01*
X157099000Y-117221000D01*
X157119000Y-117221000D01*
X157119000Y-117475000D01*
X157099000Y-117475000D01*
X157099000Y-118624250D01*
X157168250Y-118693500D01*
X157123000Y-118738750D01*
X157123000Y-119888000D01*
X157972250Y-119888000D01*
X158131000Y-119729250D01*
X158131000Y-119088690D01*
X158034327Y-118855301D01*
X157943364Y-118764338D01*
X158131699Y-118686327D01*
X158310327Y-118507698D01*
X158407000Y-118274309D01*
X158407000Y-118062890D01*
X158573669Y-118312328D01*
X158860000Y-118503648D01*
X158860000Y-119530995D01*
X158859999Y-119531000D01*
X158899435Y-119729250D01*
X158909631Y-119780510D01*
X158958676Y-119853911D01*
X158958676Y-120815000D01*
X158995423Y-121010294D01*
X159110842Y-121189660D01*
X159286951Y-121309990D01*
X159496000Y-121352324D01*
X160496000Y-121352324D01*
X160691294Y-121315577D01*
X160870660Y-121200158D01*
X160990990Y-121024049D01*
X161033324Y-120815000D01*
X161033324Y-119215000D01*
X160996577Y-119019706D01*
X160881158Y-118840340D01*
X160705049Y-118720010D01*
X160496000Y-118677676D01*
X160164000Y-118677676D01*
X160164000Y-118503648D01*
X160450331Y-118312328D01*
X160737988Y-117881818D01*
X160782000Y-117660555D01*
X160826012Y-117881818D01*
X161113669Y-118312328D01*
X161544179Y-118599985D01*
X162052000Y-118700997D01*
X162559821Y-118599985D01*
X162990331Y-118312328D01*
X163277988Y-117881818D01*
X163322000Y-117660555D01*
X163366012Y-117881818D01*
X163653669Y-118312328D01*
X164084179Y-118599985D01*
X164592000Y-118700997D01*
X165099821Y-118599985D01*
X165530331Y-118312328D01*
X165817988Y-117881818D01*
X165919000Y-117373997D01*
X165919000Y-117322003D01*
X165817988Y-116814182D01*
X165530331Y-116383672D01*
X165099821Y-116096015D01*
X164592000Y-115995003D01*
X164232566Y-116066499D01*
X159181280Y-111015213D01*
X159512000Y-111080997D01*
X160019821Y-110979985D01*
X160450331Y-110692328D01*
X160737988Y-110261818D01*
X160782000Y-110040555D01*
X160826012Y-110261818D01*
X161113669Y-110692328D01*
X161544179Y-110979985D01*
X162052000Y-111080997D01*
X162411433Y-111009501D01*
X163622966Y-112221034D01*
X163834490Y-112362369D01*
X163875887Y-112370604D01*
X164084000Y-112412001D01*
X164084005Y-112412000D01*
X165480995Y-112412000D01*
X165481000Y-112412001D01*
X165689113Y-112370604D01*
X165730510Y-112362369D01*
X165942034Y-112221034D01*
X168921598Y-109241470D01*
X168676714Y-109607964D01*
X168511000Y-110441066D01*
X168511000Y-114094934D01*
X168676714Y-114928036D01*
X169148629Y-115634305D01*
X169854898Y-116106220D01*
X170688000Y-116271934D01*
X171521102Y-116106220D01*
X172227371Y-115634305D01*
X172699286Y-114928036D01*
X172865000Y-114094934D01*
X172865000Y-110441066D01*
X172699286Y-109607964D01*
X172227371Y-108901695D01*
X171521102Y-108429780D01*
X170688000Y-108264066D01*
X169854898Y-108429780D01*
X169488404Y-108674664D01*
X170289068Y-107874000D01*
X174853912Y-107874000D01*
X174932842Y-107996660D01*
X175108951Y-108116990D01*
X175116000Y-108118417D01*
X175116000Y-108393757D01*
X174934898Y-108429780D01*
X174228629Y-108901695D01*
X173756714Y-109607964D01*
X173591000Y-110441066D01*
X173591000Y-114094934D01*
X173756714Y-114928036D01*
X174228629Y-115634305D01*
X174934898Y-116106220D01*
X175768000Y-116271934D01*
X176601102Y-116106220D01*
X177307371Y-115634305D01*
X177779286Y-114928036D01*
X177945000Y-114094934D01*
X177945000Y-110441066D01*
X177779286Y-109607964D01*
X177307371Y-108901695D01*
X176601102Y-108429780D01*
X176420000Y-108393757D01*
X176420000Y-108118262D01*
X176592660Y-108007158D01*
X176712990Y-107831049D01*
X176755324Y-107622000D01*
X176755324Y-106822000D01*
X176718577Y-106626706D01*
X176603158Y-106447340D01*
X176439883Y-106335779D01*
X177480857Y-106335779D01*
X177606495Y-106639846D01*
X177838930Y-106872688D01*
X178142778Y-106998856D01*
X178212849Y-106998917D01*
X178896964Y-107683031D01*
X178896966Y-107683034D01*
X179108490Y-107824369D01*
X179358000Y-107874000D01*
X179933912Y-107874000D01*
X180012842Y-107996660D01*
X180188951Y-108116990D01*
X180196000Y-108118417D01*
X180196000Y-108393757D01*
X180014898Y-108429780D01*
X179308629Y-108901695D01*
X178836714Y-109607964D01*
X178671000Y-110441066D01*
X178671000Y-114094934D01*
X178836714Y-114928036D01*
X179308629Y-115634305D01*
X180014898Y-116106220D01*
X180848000Y-116271934D01*
X181681102Y-116106220D01*
X182387371Y-115634305D01*
X182859286Y-114928036D01*
X183025000Y-114094934D01*
X183025000Y-110441066D01*
X182859286Y-109607964D01*
X182387371Y-108901695D01*
X181681102Y-108429780D01*
X181500000Y-108393757D01*
X181500000Y-108118262D01*
X181672660Y-108007158D01*
X181792990Y-107831049D01*
X181835324Y-107622000D01*
X181835324Y-106822000D01*
X181798577Y-106626706D01*
X181683158Y-106447340D01*
X181507049Y-106327010D01*
X181298000Y-106284676D01*
X180398000Y-106284676D01*
X180202706Y-106321423D01*
X180023340Y-106436842D01*
X179932357Y-106570000D01*
X179628067Y-106570000D01*
X179135083Y-106077015D01*
X179135143Y-106008221D01*
X179009505Y-105704154D01*
X178777070Y-105471312D01*
X178623995Y-105407750D01*
X179763000Y-105407750D01*
X179763000Y-105648309D01*
X179859673Y-105881698D01*
X180038301Y-106060327D01*
X180271690Y-106157000D01*
X180562250Y-106157000D01*
X180721000Y-105998250D01*
X180721000Y-105249000D01*
X180975000Y-105249000D01*
X180975000Y-105998250D01*
X181133750Y-106157000D01*
X181424310Y-106157000D01*
X181657699Y-106060327D01*
X181836327Y-105881698D01*
X181933000Y-105648309D01*
X181933000Y-105407750D01*
X181774250Y-105249000D01*
X180975000Y-105249000D01*
X180721000Y-105249000D01*
X179921750Y-105249000D01*
X179763000Y-105407750D01*
X178623995Y-105407750D01*
X178473222Y-105345144D01*
X178144221Y-105344857D01*
X177840154Y-105470495D01*
X177607312Y-105702930D01*
X177481144Y-106006778D01*
X177480857Y-106335779D01*
X176439883Y-106335779D01*
X176427049Y-106327010D01*
X176218000Y-106284676D01*
X175318000Y-106284676D01*
X175122706Y-106321423D01*
X174943340Y-106436842D01*
X174852357Y-106570000D01*
X170019000Y-106570000D01*
X169769490Y-106619631D01*
X169559361Y-106760034D01*
X169557966Y-106760966D01*
X165210932Y-111108000D01*
X164354068Y-111108000D01*
X164261281Y-111015213D01*
X164592000Y-111080997D01*
X165099821Y-110979985D01*
X165530331Y-110692328D01*
X165817988Y-110261818D01*
X165919000Y-109753997D01*
X165919000Y-109702003D01*
X165817988Y-109194182D01*
X165530331Y-108763672D01*
X165099821Y-108476015D01*
X164592000Y-108375003D01*
X164084179Y-108476015D01*
X163653669Y-108763672D01*
X163366012Y-109194182D01*
X163322000Y-109415445D01*
X163277988Y-109194182D01*
X162990331Y-108763672D01*
X162559821Y-108476015D01*
X162052000Y-108375003D01*
X161544179Y-108476015D01*
X161113669Y-108763672D01*
X160826012Y-109194182D01*
X160782000Y-109415445D01*
X160737988Y-109194182D01*
X160450331Y-108763672D01*
X160164000Y-108572352D01*
X160164000Y-108571184D01*
X160337294Y-108538577D01*
X160516660Y-108423158D01*
X160636990Y-108247049D01*
X160679324Y-108038000D01*
X160679324Y-106338000D01*
X160642577Y-106142706D01*
X160527158Y-105963340D01*
X160351049Y-105843010D01*
X160142000Y-105800676D01*
X159242000Y-105800676D01*
X159046706Y-105837423D01*
X158867340Y-105952842D01*
X158747010Y-106128951D01*
X158704676Y-106338000D01*
X158704676Y-108038000D01*
X158741423Y-108233294D01*
X158856842Y-108412660D01*
X158860000Y-108414818D01*
X158860000Y-108572352D01*
X158573669Y-108763672D01*
X158286012Y-109194182D01*
X158242000Y-109415445D01*
X158197988Y-109194182D01*
X157910331Y-108763672D01*
X157624000Y-108572352D01*
X157624000Y-108412416D01*
X157736990Y-108247049D01*
X157779324Y-108038000D01*
X157779324Y-106338000D01*
X157742577Y-106142706D01*
X157627158Y-105963340D01*
X157451049Y-105843010D01*
X157242000Y-105800676D01*
X156342000Y-105800676D01*
X156146706Y-105837423D01*
X155967340Y-105952842D01*
X155847010Y-106128951D01*
X155804676Y-106338000D01*
X155804676Y-108038000D01*
X155841423Y-108233294D01*
X155956842Y-108412660D01*
X156132951Y-108532990D01*
X156320000Y-108570869D01*
X156320000Y-108572352D01*
X156033669Y-108763672D01*
X155746012Y-109194182D01*
X155645000Y-109702003D01*
X155645000Y-109753997D01*
X155707869Y-110070063D01*
X154645932Y-111132000D01*
X154020657Y-111132000D01*
X153900000Y-111107999D01*
X153899995Y-111108000D01*
X151197324Y-111108000D01*
X151197324Y-110960000D01*
X151160577Y-110764706D01*
X151045158Y-110585340D01*
X150869049Y-110465010D01*
X150660000Y-110422676D01*
X150512000Y-110422676D01*
X150512000Y-107332000D01*
X151256995Y-107332000D01*
X151257000Y-107332001D01*
X151465113Y-107290604D01*
X151506510Y-107282369D01*
X151718034Y-107141034D01*
X151718035Y-107141033D01*
X152099031Y-106760036D01*
X152099034Y-106760034D01*
X153451317Y-105407750D01*
X174683000Y-105407750D01*
X174683000Y-105648309D01*
X174779673Y-105881698D01*
X174958301Y-106060327D01*
X175191690Y-106157000D01*
X175482250Y-106157000D01*
X175641000Y-105998250D01*
X175641000Y-105249000D01*
X175895000Y-105249000D01*
X175895000Y-105998250D01*
X176053750Y-106157000D01*
X176344310Y-106157000D01*
X176577699Y-106060327D01*
X176756327Y-105881698D01*
X176853000Y-105648309D01*
X176853000Y-105407750D01*
X176694250Y-105249000D01*
X175895000Y-105249000D01*
X175641000Y-105249000D01*
X174841750Y-105249000D01*
X174683000Y-105407750D01*
X153451317Y-105407750D01*
X154263376Y-104595691D01*
X174683000Y-104595691D01*
X174683000Y-104836250D01*
X174841750Y-104995000D01*
X175641000Y-104995000D01*
X175641000Y-104245750D01*
X175895000Y-104245750D01*
X175895000Y-104995000D01*
X176694250Y-104995000D01*
X176853000Y-104836250D01*
X176853000Y-104595691D01*
X179763000Y-104595691D01*
X179763000Y-104836250D01*
X179921750Y-104995000D01*
X180721000Y-104995000D01*
X180721000Y-104245750D01*
X180975000Y-104245750D01*
X180975000Y-104995000D01*
X181774250Y-104995000D01*
X181933000Y-104836250D01*
X181933000Y-104595691D01*
X181836327Y-104362302D01*
X181657699Y-104183673D01*
X181424310Y-104087000D01*
X181133750Y-104087000D01*
X180975000Y-104245750D01*
X180721000Y-104245750D01*
X180562250Y-104087000D01*
X180271690Y-104087000D01*
X180038301Y-104183673D01*
X179859673Y-104362302D01*
X179763000Y-104595691D01*
X176853000Y-104595691D01*
X176756327Y-104362302D01*
X176577699Y-104183673D01*
X176344310Y-104087000D01*
X176053750Y-104087000D01*
X175895000Y-104245750D01*
X175641000Y-104245750D01*
X175482250Y-104087000D01*
X175191690Y-104087000D01*
X174958301Y-104183673D01*
X174779673Y-104362302D01*
X174683000Y-104595691D01*
X154263376Y-104595691D01*
X156734067Y-102125000D01*
X165480995Y-102125000D01*
X165481000Y-102125001D01*
X165689113Y-102083604D01*
X165730510Y-102075369D01*
X165942034Y-101934034D01*
X165942035Y-101934033D01*
X167435067Y-100441000D01*
X172779676Y-100441000D01*
X172779676Y-101441000D01*
X172816423Y-101636294D01*
X172931842Y-101815660D01*
X173107951Y-101935990D01*
X173317000Y-101978324D01*
X174917000Y-101978324D01*
X175112294Y-101941577D01*
X175291660Y-101826158D01*
X175411990Y-101650049D01*
X175423543Y-101593000D01*
X180535188Y-101593000D01*
X180929068Y-101856182D01*
X181456023Y-101961000D01*
X181509977Y-101961000D01*
X182036932Y-101856182D01*
X182483663Y-101557686D01*
X182782159Y-101110955D01*
X182886977Y-100584000D01*
X182782159Y-100057045D01*
X182483663Y-99610314D01*
X182361968Y-99529000D01*
X182459309Y-99529000D01*
X182692698Y-99432327D01*
X182871327Y-99253699D01*
X182968000Y-99020310D01*
X182968000Y-98329750D01*
X182809250Y-98171000D01*
X181610000Y-98171000D01*
X181610000Y-98191000D01*
X181356000Y-98191000D01*
X181356000Y-98171000D01*
X180156750Y-98171000D01*
X179998000Y-98329750D01*
X179998000Y-99020310D01*
X180094673Y-99253699D01*
X180273302Y-99432327D01*
X180506691Y-99529000D01*
X180604032Y-99529000D01*
X180482337Y-99610314D01*
X180183841Y-100057045D01*
X180137702Y-100289000D01*
X175425723Y-100289000D01*
X175417577Y-100245706D01*
X175302158Y-100066340D01*
X175126049Y-99946010D01*
X174917000Y-99903676D01*
X173317000Y-99903676D01*
X173121706Y-99940423D01*
X172942340Y-100055842D01*
X172822010Y-100231951D01*
X172779676Y-100441000D01*
X167435067Y-100441000D01*
X169498031Y-98378036D01*
X169498034Y-98378034D01*
X169639369Y-98166510D01*
X169689000Y-97917000D01*
X169689000Y-89408000D01*
X171141795Y-89408000D01*
X171239914Y-89901279D01*
X171519334Y-90319461D01*
X171937516Y-90598881D01*
X172322000Y-90675359D01*
X172322000Y-91566995D01*
X172321999Y-91567000D01*
X172351844Y-91717034D01*
X172371631Y-91816510D01*
X172468597Y-91961631D01*
X172512966Y-92028034D01*
X173465000Y-92980068D01*
X173465000Y-96903676D01*
X173317000Y-96903676D01*
X173121706Y-96940423D01*
X172942340Y-97055842D01*
X172822010Y-97231951D01*
X172779676Y-97441000D01*
X172779676Y-98441000D01*
X172816423Y-98636294D01*
X172931842Y-98815660D01*
X173107951Y-98935990D01*
X173317000Y-98978324D01*
X174917000Y-98978324D01*
X175112294Y-98941577D01*
X175291660Y-98826158D01*
X175411990Y-98650049D01*
X175454324Y-98441000D01*
X175454324Y-97441000D01*
X175417577Y-97245706D01*
X175303027Y-97067690D01*
X179998000Y-97067690D01*
X179998000Y-97758250D01*
X180156750Y-97917000D01*
X181356000Y-97917000D01*
X181356000Y-96717750D01*
X181610000Y-96717750D01*
X181610000Y-97917000D01*
X182809250Y-97917000D01*
X182968000Y-97758250D01*
X182968000Y-97067690D01*
X182871327Y-96834301D01*
X182692698Y-96655673D01*
X182459309Y-96559000D01*
X181768750Y-96559000D01*
X181610000Y-96717750D01*
X181356000Y-96717750D01*
X181197250Y-96559000D01*
X180506691Y-96559000D01*
X180273302Y-96655673D01*
X180094673Y-96834301D01*
X179998000Y-97067690D01*
X175303027Y-97067690D01*
X175302158Y-97066340D01*
X175126049Y-96946010D01*
X174917000Y-96903676D01*
X174769000Y-96903676D01*
X174769000Y-92710000D01*
X174719369Y-92460490D01*
X174578034Y-92248966D01*
X173626000Y-91296932D01*
X173626000Y-90675359D01*
X174010484Y-90598881D01*
X174428666Y-90319461D01*
X174708086Y-89901279D01*
X174737964Y-89751070D01*
X177461780Y-89751070D01*
X177476740Y-89825277D01*
X177738370Y-90306026D01*
X178164059Y-90650059D01*
X178689000Y-90805000D01*
X179197000Y-90805000D01*
X179197000Y-89535000D01*
X179451000Y-89535000D01*
X179451000Y-90805000D01*
X179959000Y-90805000D01*
X180483941Y-90650059D01*
X180909630Y-90306026D01*
X181171260Y-89825277D01*
X181186220Y-89751070D01*
X181063720Y-89535000D01*
X179451000Y-89535000D01*
X179197000Y-89535000D01*
X177584280Y-89535000D01*
X177461780Y-89751070D01*
X174737964Y-89751070D01*
X174806205Y-89408000D01*
X174737965Y-89064930D01*
X177461780Y-89064930D01*
X177584280Y-89281000D01*
X179197000Y-89281000D01*
X179197000Y-89261000D01*
X179451000Y-89261000D01*
X179451000Y-89281000D01*
X181063720Y-89281000D01*
X181186220Y-89064930D01*
X181171260Y-88990723D01*
X180909630Y-88509974D01*
X180483941Y-88165941D01*
X180217548Y-88087313D01*
X180360484Y-88058881D01*
X180778666Y-87779461D01*
X181058086Y-87361279D01*
X181156205Y-86868000D01*
X181058086Y-86374721D01*
X180778666Y-85956539D01*
X180360484Y-85677119D01*
X179962725Y-85598000D01*
X180360484Y-85518881D01*
X180778666Y-85239461D01*
X181058086Y-84821279D01*
X181156205Y-84328000D01*
X181058086Y-83834721D01*
X180778666Y-83416539D01*
X180360484Y-83137119D01*
X179867205Y-83039000D01*
X178780795Y-83039000D01*
X178287516Y-83137119D01*
X177869334Y-83416539D01*
X177589914Y-83834721D01*
X177491795Y-84328000D01*
X177589914Y-84821279D01*
X177869334Y-85239461D01*
X178287516Y-85518881D01*
X178685275Y-85598000D01*
X178287516Y-85677119D01*
X177869334Y-85956539D01*
X177589914Y-86374721D01*
X177491795Y-86868000D01*
X177589914Y-87361279D01*
X177869334Y-87779461D01*
X178287516Y-88058881D01*
X178430452Y-88087313D01*
X178164059Y-88165941D01*
X177738370Y-88509974D01*
X177476740Y-88990723D01*
X177461780Y-89064930D01*
X174737965Y-89064930D01*
X174708086Y-88914721D01*
X174428666Y-88496539D01*
X174010484Y-88217119D01*
X173517205Y-88119000D01*
X172430795Y-88119000D01*
X171937516Y-88217119D01*
X171519334Y-88496539D01*
X171239914Y-88914721D01*
X171141795Y-89408000D01*
X169689000Y-89408000D01*
X169689000Y-88535068D01*
X172607067Y-85617000D01*
X173517205Y-85617000D01*
X174010484Y-85518881D01*
X174428666Y-85239461D01*
X174708086Y-84821279D01*
X174806205Y-84328000D01*
X174708086Y-83834721D01*
X174428666Y-83416539D01*
X174010484Y-83137119D01*
X173626000Y-83060641D01*
X173626000Y-82788302D01*
X173687457Y-82696324D01*
X174379000Y-82696324D01*
X174574294Y-82659577D01*
X174753660Y-82544158D01*
X174814398Y-82455265D01*
X174840673Y-82518699D01*
X175019302Y-82697327D01*
X175252691Y-82794000D01*
X175593250Y-82794000D01*
X175752000Y-82635250D01*
X175752000Y-81661000D01*
X176006000Y-81661000D01*
X176006000Y-82635250D01*
X176164750Y-82794000D01*
X176505309Y-82794000D01*
X176738698Y-82697327D01*
X176917327Y-82518699D01*
X177014000Y-82285310D01*
X177014000Y-81819750D01*
X176855250Y-81661000D01*
X176006000Y-81661000D01*
X175752000Y-81661000D01*
X175732000Y-81661000D01*
X175732000Y-81407000D01*
X175752000Y-81407000D01*
X175752000Y-80432750D01*
X176006000Y-80432750D01*
X176006000Y-81407000D01*
X176855250Y-81407000D01*
X177014000Y-81248250D01*
X177014000Y-80782690D01*
X176917327Y-80549301D01*
X176738698Y-80370673D01*
X176505309Y-80274000D01*
X176164750Y-80274000D01*
X176006000Y-80432750D01*
X175752000Y-80432750D01*
X175593250Y-80274000D01*
X175252691Y-80274000D01*
X175019302Y-80370673D01*
X174840673Y-80549301D01*
X174814478Y-80612540D01*
X174764158Y-80534340D01*
X174588049Y-80414010D01*
X174379000Y-80371676D01*
X173379000Y-80371676D01*
X173183706Y-80408423D01*
X173004340Y-80523842D01*
X172975018Y-80566757D01*
X172954158Y-80534340D01*
X172778049Y-80414010D01*
X172569000Y-80371676D01*
X171569000Y-80371676D01*
X171373706Y-80408423D01*
X171194340Y-80523842D01*
X171133602Y-80612735D01*
X171107327Y-80549301D01*
X170928698Y-80370673D01*
X170695309Y-80274000D01*
X170354750Y-80274000D01*
X170196000Y-80432750D01*
X170196000Y-81407000D01*
X170216000Y-81407000D01*
X170216000Y-81661000D01*
X170196000Y-81661000D01*
X170196000Y-82635250D01*
X170354750Y-82794000D01*
X170695309Y-82794000D01*
X170928698Y-82697327D01*
X171107327Y-82518699D01*
X171133522Y-82455460D01*
X171183842Y-82533660D01*
X171359951Y-82653990D01*
X171569000Y-82696324D01*
X172309257Y-82696324D01*
X172322000Y-82709067D01*
X172322000Y-83060641D01*
X171937516Y-83137119D01*
X171519334Y-83416539D01*
X171239914Y-83834721D01*
X171141795Y-84328000D01*
X171239914Y-84821279D01*
X171367583Y-85012350D01*
X168575966Y-87803966D01*
X168434631Y-88015490D01*
X168434631Y-88015491D01*
X168384999Y-88265000D01*
X168385000Y-88265005D01*
X168385000Y-97646933D01*
X165210932Y-100821000D01*
X156464005Y-100821000D01*
X156464000Y-100820999D01*
X156214491Y-100870630D01*
X156214489Y-100870631D01*
X156214490Y-100870631D01*
X156002966Y-101011966D01*
X156002964Y-101011969D01*
X151176966Y-105837966D01*
X151176964Y-105837969D01*
X150986933Y-106028000D01*
X150003067Y-106028000D01*
X148099000Y-104123932D01*
X148099000Y-103346000D01*
X148685250Y-103346000D01*
X148844000Y-103187250D01*
X148844000Y-102338000D01*
X149098000Y-102338000D01*
X149098000Y-103187250D01*
X149256750Y-103346000D01*
X149897310Y-103346000D01*
X150130699Y-103249327D01*
X150309327Y-103070698D01*
X150406000Y-102837309D01*
X150406000Y-102496750D01*
X150247250Y-102338000D01*
X149098000Y-102338000D01*
X148844000Y-102338000D01*
X148824000Y-102338000D01*
X148824000Y-102084000D01*
X148844000Y-102084000D01*
X148844000Y-101234750D01*
X149098000Y-101234750D01*
X149098000Y-102084000D01*
X150247250Y-102084000D01*
X150406000Y-101925250D01*
X150406000Y-101584691D01*
X150309327Y-101351302D01*
X150130699Y-101172673D01*
X149897310Y-101076000D01*
X149256750Y-101076000D01*
X149098000Y-101234750D01*
X148844000Y-101234750D01*
X148685250Y-101076000D01*
X148099000Y-101076000D01*
X148099000Y-100233743D01*
X148171000Y-100248324D01*
X149771000Y-100248324D01*
X149966294Y-100211577D01*
X150145660Y-100096158D01*
X150265990Y-99920049D01*
X150308324Y-99711000D01*
X150308324Y-98711000D01*
X150271577Y-98515706D01*
X150156158Y-98336340D01*
X149980049Y-98216010D01*
X149771000Y-98173676D01*
X149604000Y-98173676D01*
X149604000Y-98003250D01*
X149625000Y-97982250D01*
X149625000Y-97856999D01*
X149721990Y-97715049D01*
X149751547Y-97569092D01*
X149776423Y-97701294D01*
X149879000Y-97860703D01*
X149879000Y-97982250D01*
X150037750Y-98141000D01*
X150153310Y-98141000D01*
X150386699Y-98044327D01*
X150387702Y-98043324D01*
X150700000Y-98043324D01*
X150700000Y-98543106D01*
X150655010Y-98608951D01*
X150612676Y-98818000D01*
X150612676Y-100318000D01*
X150649423Y-100513294D01*
X150764842Y-100692660D01*
X150940951Y-100812990D01*
X151150000Y-100855324D01*
X151739299Y-100855324D01*
X151740302Y-100856327D01*
X151973691Y-100953000D01*
X152114250Y-100953000D01*
X152273000Y-100794250D01*
X152273000Y-100388733D01*
X152287324Y-100318000D01*
X152287324Y-98818000D01*
X152273000Y-98741874D01*
X152273000Y-98341750D01*
X152114250Y-98183000D01*
X152004000Y-98183000D01*
X152004000Y-98043324D01*
X152427000Y-98043324D01*
X152482763Y-98032831D01*
X152659341Y-98209409D01*
X152527000Y-98341750D01*
X152527000Y-98747267D01*
X152512676Y-98818000D01*
X152512676Y-100318000D01*
X152527000Y-100394126D01*
X152527000Y-100794250D01*
X152685750Y-100953000D01*
X152826309Y-100953000D01*
X153059698Y-100856327D01*
X153060701Y-100855324D01*
X153650000Y-100855324D01*
X153845294Y-100818577D01*
X154024660Y-100703158D01*
X154144990Y-100527049D01*
X154187324Y-100318000D01*
X154187324Y-98818000D01*
X154150577Y-98622706D01*
X154035158Y-98443340D01*
X154002000Y-98420684D01*
X154002000Y-97978005D01*
X154002001Y-97978000D01*
X153952370Y-97728491D01*
X153811034Y-97516966D01*
X152964324Y-96670256D01*
X152964324Y-96068324D01*
X154402000Y-96068324D01*
X154597294Y-96031577D01*
X154776660Y-95916158D01*
X154782234Y-95908000D01*
X155187995Y-95908000D01*
X155188000Y-95908001D01*
X155396113Y-95866604D01*
X155437510Y-95858369D01*
X155649034Y-95717034D01*
X156502341Y-94863727D01*
X156688000Y-94901324D01*
X157588000Y-94901324D01*
X157783294Y-94864577D01*
X157962660Y-94749158D01*
X157986832Y-94713780D01*
X158002842Y-94738660D01*
X158178951Y-94858990D01*
X158388000Y-94901324D01*
X159288000Y-94901324D01*
X159483294Y-94864577D01*
X159558785Y-94816000D01*
X159768712Y-94816000D01*
X159826495Y-94955846D01*
X160058930Y-95188688D01*
X160362778Y-95314856D01*
X160691779Y-95315143D01*
X160995846Y-95189505D01*
X161228688Y-94957070D01*
X161354856Y-94653222D01*
X161355143Y-94324221D01*
X161229505Y-94020154D01*
X161189555Y-93980134D01*
X161228688Y-93941070D01*
X161354856Y-93637222D01*
X161355143Y-93308221D01*
X161229505Y-93004154D01*
X161189555Y-92964134D01*
X161228688Y-92925070D01*
X161354856Y-92621222D01*
X161355143Y-92292221D01*
X161229505Y-91988154D01*
X161189555Y-91948134D01*
X161228688Y-91909070D01*
X161354856Y-91605222D01*
X161355143Y-91276221D01*
X161229505Y-90972154D01*
X160997070Y-90739312D01*
X160693222Y-90613144D01*
X160364221Y-90612857D01*
X160060154Y-90738495D01*
X159827312Y-90970930D01*
X159768735Y-91112000D01*
X159559967Y-91112000D01*
X159497049Y-91069010D01*
X159288000Y-91026676D01*
X158388000Y-91026676D01*
X158192706Y-91063423D01*
X158013340Y-91178842D01*
X157989168Y-91214220D01*
X157973158Y-91189340D01*
X157797049Y-91069010D01*
X157588000Y-91026676D01*
X157322744Y-91026676D01*
X157091034Y-90794966D01*
X157007741Y-90739312D01*
X156879510Y-90653631D01*
X156838113Y-90645396D01*
X156630000Y-90603999D01*
X156629995Y-90604000D01*
X155428068Y-90604000D01*
X156607531Y-89424536D01*
X156607534Y-89424534D01*
X159957422Y-86074646D01*
X159976951Y-86087990D01*
X160186000Y-86130324D01*
X161886000Y-86130324D01*
X162081294Y-86093577D01*
X162124043Y-86066068D01*
X162289301Y-86231327D01*
X162522690Y-86328000D01*
X163163250Y-86328000D01*
X163322000Y-86169250D01*
X163322000Y-85320000D01*
X163576000Y-85320000D01*
X163576000Y-86169250D01*
X163734750Y-86328000D01*
X164375310Y-86328000D01*
X164608699Y-86231327D01*
X164787327Y-86052698D01*
X164884000Y-85819309D01*
X164884000Y-85478750D01*
X164725250Y-85320000D01*
X163576000Y-85320000D01*
X163322000Y-85320000D01*
X163302000Y-85320000D01*
X163302000Y-85066000D01*
X163322000Y-85066000D01*
X163322000Y-84216750D01*
X163576000Y-84216750D01*
X163576000Y-85066000D01*
X164725250Y-85066000D01*
X164884000Y-84907250D01*
X164884000Y-84566691D01*
X164787327Y-84333302D01*
X164608699Y-84154673D01*
X164375310Y-84058000D01*
X163734750Y-84058000D01*
X163576000Y-84216750D01*
X163322000Y-84216750D01*
X163163250Y-84058000D01*
X162522690Y-84058000D01*
X162289301Y-84154673D01*
X162184705Y-84259269D01*
X162095049Y-84198010D01*
X161886000Y-84155676D01*
X160186000Y-84155676D01*
X159990706Y-84192423D01*
X159811340Y-84307842D01*
X159691010Y-84483951D01*
X159673592Y-84569963D01*
X159505966Y-84681966D01*
X156337000Y-87850932D01*
X150829034Y-82342966D01*
X150692092Y-82251465D01*
X150617510Y-82201631D01*
X150556474Y-82189490D01*
X150368000Y-82151999D01*
X150367995Y-82152000D01*
X150114437Y-82152000D01*
X150313725Y-81672061D01*
X150314273Y-81044692D01*
X150074695Y-80464868D01*
X149879075Y-80268906D01*
X150264652Y-80269243D01*
X150780132Y-80056251D01*
X150907545Y-79929060D01*
X153604545Y-79929060D01*
X153687884Y-80182953D01*
X154252306Y-80388590D01*
X154495497Y-80378050D01*
X154410864Y-80462535D01*
X154170275Y-81041939D01*
X154169727Y-81669308D01*
X154409305Y-82249132D01*
X154852535Y-82693136D01*
X155431939Y-82933725D01*
X156059308Y-82934273D01*
X156639132Y-82694695D01*
X157083136Y-82251465D01*
X157273506Y-81793000D01*
X159648676Y-81793000D01*
X159648676Y-82693000D01*
X159685423Y-82888294D01*
X159800842Y-83067660D01*
X159976951Y-83187990D01*
X160186000Y-83230324D01*
X161886000Y-83230324D01*
X162081294Y-83193577D01*
X162260660Y-83078158D01*
X162266563Y-83069519D01*
X162439951Y-83187990D01*
X162649000Y-83230324D01*
X164249000Y-83230324D01*
X164444294Y-83193577D01*
X164623660Y-83078158D01*
X164743990Y-82902049D01*
X164786324Y-82693000D01*
X164786324Y-81819750D01*
X168934000Y-81819750D01*
X168934000Y-82285310D01*
X169030673Y-82518699D01*
X169209302Y-82697327D01*
X169442691Y-82794000D01*
X169783250Y-82794000D01*
X169942000Y-82635250D01*
X169942000Y-81661000D01*
X169092750Y-81661000D01*
X168934000Y-81819750D01*
X164786324Y-81819750D01*
X164786324Y-81693000D01*
X164749577Y-81497706D01*
X164634158Y-81318340D01*
X164458049Y-81198010D01*
X164249000Y-81155676D01*
X164101000Y-81155676D01*
X164101000Y-80717607D01*
X164422686Y-80502663D01*
X164504000Y-80380968D01*
X164504000Y-80478309D01*
X164600673Y-80711698D01*
X164779301Y-80890327D01*
X165012690Y-80987000D01*
X165703250Y-80987000D01*
X165862000Y-80828250D01*
X165862000Y-79629000D01*
X166116000Y-79629000D01*
X166116000Y-80828250D01*
X166274750Y-80987000D01*
X166965310Y-80987000D01*
X167198699Y-80890327D01*
X167306335Y-80782690D01*
X168934000Y-80782690D01*
X168934000Y-81248250D01*
X169092750Y-81407000D01*
X169942000Y-81407000D01*
X169942000Y-80432750D01*
X169783250Y-80274000D01*
X169442691Y-80274000D01*
X169209302Y-80370673D01*
X169030673Y-80549301D01*
X168934000Y-80782690D01*
X167306335Y-80782690D01*
X167377327Y-80711698D01*
X167474000Y-80478309D01*
X167474000Y-79787750D01*
X167315250Y-79629000D01*
X166116000Y-79629000D01*
X165862000Y-79629000D01*
X165842000Y-79629000D01*
X165842000Y-79375000D01*
X165862000Y-79375000D01*
X165862000Y-78175750D01*
X166116000Y-78175750D01*
X166116000Y-79375000D01*
X167315250Y-79375000D01*
X167474000Y-79216250D01*
X167474000Y-78525691D01*
X167377327Y-78292302D01*
X167198699Y-78113673D01*
X166965310Y-78017000D01*
X166274750Y-78017000D01*
X166116000Y-78175750D01*
X165862000Y-78175750D01*
X165703250Y-78017000D01*
X165012690Y-78017000D01*
X164779301Y-78113673D01*
X164600673Y-78292302D01*
X164504000Y-78525691D01*
X164504000Y-78623032D01*
X164422686Y-78501337D01*
X163975955Y-78202841D01*
X163449000Y-78098023D01*
X162922045Y-78202841D01*
X162475314Y-78501337D01*
X162176818Y-78948068D01*
X162072000Y-79475023D01*
X162072000Y-79528977D01*
X162176818Y-80055932D01*
X162475314Y-80502663D01*
X162797000Y-80717607D01*
X162797000Y-81155676D01*
X162649000Y-81155676D01*
X162453706Y-81192423D01*
X162274340Y-81307842D01*
X162221857Y-81384654D01*
X162095049Y-81298010D01*
X161886000Y-81255676D01*
X160186000Y-81255676D01*
X159990706Y-81292423D01*
X159811340Y-81407842D01*
X159691010Y-81583951D01*
X159648676Y-81793000D01*
X157273506Y-81793000D01*
X157323725Y-81672061D01*
X157324273Y-81044692D01*
X157084695Y-80464868D01*
X156641465Y-80020864D01*
X156062061Y-79780275D01*
X155579461Y-79779853D01*
X155549062Y-79749454D01*
X155802953Y-79666116D01*
X156008590Y-79101694D01*
X155982579Y-78501542D01*
X155802953Y-78067884D01*
X155549060Y-77984545D01*
X154666605Y-78867000D01*
X154680748Y-78881143D01*
X154501143Y-79060748D01*
X154487000Y-79046605D01*
X153604545Y-79929060D01*
X150907545Y-79929060D01*
X151174865Y-79662206D01*
X151388756Y-79147099D01*
X151389205Y-78632306D01*
X152965410Y-78632306D01*
X152991421Y-79232458D01*
X153171047Y-79666116D01*
X153424940Y-79749455D01*
X154307395Y-78867000D01*
X153424940Y-77984545D01*
X153171047Y-78067884D01*
X152965410Y-78632306D01*
X151389205Y-78632306D01*
X151389243Y-78589348D01*
X151176251Y-78073868D01*
X150907792Y-77804940D01*
X153604545Y-77804940D01*
X154487000Y-78687395D01*
X155369455Y-77804940D01*
X155286116Y-77551047D01*
X154721694Y-77345410D01*
X154121542Y-77371421D01*
X153687884Y-77551047D01*
X153604545Y-77804940D01*
X150907792Y-77804940D01*
X150782206Y-77679135D01*
X150267099Y-77465244D01*
X149709348Y-77464757D01*
X149193868Y-77677749D01*
X148799135Y-78071794D01*
X148585244Y-78586901D01*
X148584757Y-79144652D01*
X148797749Y-79660132D01*
X148917565Y-79780158D01*
X148424692Y-79779727D01*
X147844868Y-80019305D01*
X147400864Y-80462535D01*
X147160275Y-81041939D01*
X147159727Y-81669308D01*
X147359171Y-82152000D01*
X132640607Y-82152000D01*
X132871159Y-81806955D01*
X132975977Y-81280000D01*
X132871159Y-80753045D01*
X132572663Y-80306314D01*
X132180263Y-80044121D01*
X132174369Y-80014491D01*
X132174369Y-80014490D01*
X132033034Y-79802966D01*
X131017034Y-78786966D01*
X130805510Y-78645631D01*
X130764113Y-78637396D01*
X130556000Y-78595999D01*
X130555995Y-78596000D01*
X126492005Y-78596000D01*
X126492000Y-78595999D01*
X126283887Y-78637396D01*
X126242490Y-78645631D01*
X126030966Y-78786966D01*
X125014966Y-79802966D01*
X124873631Y-80014490D01*
X124873631Y-80014491D01*
X124823999Y-80264000D01*
X120998000Y-80264000D01*
X120998000Y-77310000D01*
X183294000Y-77310000D01*
X183294000Y-121826000D01*
X183294000Y-121826000D01*
G37*
X183294000Y-121826000D02*
X120998000Y-121826000D01*
X120998000Y-107370407D01*
X131568735Y-107370407D01*
X131800717Y-107931846D01*
X132229894Y-108361773D01*
X132790928Y-108594735D01*
X133398407Y-108595265D01*
X133959846Y-108363283D01*
X134389773Y-107934106D01*
X134622735Y-107373072D01*
X134623265Y-106765593D01*
X134391283Y-106204154D01*
X133962106Y-105774227D01*
X133401072Y-105541265D01*
X132793593Y-105540735D01*
X132232154Y-105772717D01*
X131802227Y-106201894D01*
X131569265Y-106762928D01*
X131568735Y-107370407D01*
X120998000Y-107370407D01*
X120998000Y-105520532D01*
X121963073Y-105520532D01*
X122061736Y-105787387D01*
X122671461Y-106013908D01*
X123321460Y-105989856D01*
X123810264Y-105787387D01*
X123908927Y-105520532D01*
X122936000Y-104547605D01*
X121963073Y-105520532D01*
X120998000Y-105520532D01*
X120998000Y-104103461D01*
X121290092Y-104103461D01*
X121314144Y-104753460D01*
X121516613Y-105242264D01*
X121783468Y-105340927D01*
X122756395Y-104368000D01*
X123115605Y-104368000D01*
X124088532Y-105340927D01*
X124355387Y-105242264D01*
X124581908Y-104632539D01*
X124557856Y-103982540D01*
X124355387Y-103493736D01*
X124088532Y-103395073D01*
X123115605Y-104368000D01*
X122756395Y-104368000D01*
X121783468Y-103395073D01*
X121516613Y-103493736D01*
X121290092Y-104103461D01*
X120998000Y-104103461D01*
X120998000Y-103215468D01*
X121963073Y-103215468D01*
X122936000Y-104188395D01*
X123908927Y-103215468D01*
X123810264Y-102948613D01*
X123200539Y-102722092D01*
X122550540Y-102746144D01*
X122061736Y-102948613D01*
X121963073Y-103215468D01*
X120998000Y-103215468D01*
X120998000Y-95920532D01*
X121963073Y-95920532D01*
X122061736Y-96187387D01*
X122671461Y-96413908D01*
X123321460Y-96389856D01*
X123810264Y-96187387D01*
X123908927Y-95920532D01*
X122936000Y-94947605D01*
X121963073Y-95920532D01*
X120998000Y-95920532D01*
X120998000Y-94503461D01*
X121290092Y-94503461D01*
X121314144Y-95153460D01*
X121516613Y-95642264D01*
X121783468Y-95740927D01*
X122756395Y-94768000D01*
X123115605Y-94768000D01*
X124088532Y-95740927D01*
X124355387Y-95642264D01*
X124581908Y-95032539D01*
X124557856Y-94382540D01*
X124355387Y-93893736D01*
X124088532Y-93795073D01*
X123115605Y-94768000D01*
X122756395Y-94768000D01*
X121783468Y-93795073D01*
X121516613Y-93893736D01*
X121290092Y-94503461D01*
X120998000Y-94503461D01*
X120998000Y-93615468D01*
X121963073Y-93615468D01*
X122936000Y-94588395D01*
X123908927Y-93615468D01*
X123810264Y-93348613D01*
X123200539Y-93122092D01*
X122550540Y-93146144D01*
X122061736Y-93348613D01*
X121963073Y-93615468D01*
X120998000Y-93615468D01*
X120998000Y-80264000D01*
X124823999Y-80264000D01*
X124824000Y-80264005D01*
X124824000Y-96011995D01*
X124823999Y-96012000D01*
X124856946Y-96177631D01*
X124873631Y-96261510D01*
X124979697Y-96420250D01*
X125014966Y-96473034D01*
X136698964Y-108157031D01*
X136698966Y-108157034D01*
X136910490Y-108298369D01*
X137160000Y-108348000D01*
X139182327Y-108348000D01*
X139230930Y-108396688D01*
X139534778Y-108522856D01*
X139863779Y-108523143D01*
X140167846Y-108397505D01*
X140400688Y-108165070D01*
X140526856Y-107861222D01*
X140527143Y-107532221D01*
X140401505Y-107228154D01*
X140169070Y-106995312D01*
X139865222Y-106869144D01*
X139536221Y-106868857D01*
X139232154Y-106994495D01*
X139182562Y-107044000D01*
X137430067Y-107044000D01*
X136616153Y-106230086D01*
X137019846Y-106063283D01*
X137449773Y-105634106D01*
X137538678Y-105420000D01*
X139802676Y-105420000D01*
X139802676Y-105498000D01*
X139839423Y-105693294D01*
X139954842Y-105872660D01*
X140130951Y-105992990D01*
X140340000Y-106035324D01*
X141240000Y-106035324D01*
X141435294Y-105998577D01*
X141588000Y-105900313D01*
X141588000Y-112775995D01*
X141587999Y-112776000D01*
X141621648Y-112945158D01*
X141637631Y-113025510D01*
X141778966Y-113237034D01*
X145842966Y-117301034D01*
X146054490Y-117442369D01*
X146095887Y-117450604D01*
X146304000Y-117492001D01*
X146304005Y-117492000D01*
X150969076Y-117492000D01*
X150812706Y-117521423D01*
X150633340Y-117636842D01*
X150513010Y-117812951D01*
X150470676Y-118022000D01*
X150470676Y-118220000D01*
X148345673Y-118220000D01*
X148297070Y-118171312D01*
X147993222Y-118045144D01*
X147664221Y-118044857D01*
X147360154Y-118170495D01*
X147127312Y-118402930D01*
X147001144Y-118706778D01*
X147000857Y-119035779D01*
X147126495Y-119339846D01*
X147358930Y-119572688D01*
X147662778Y-119698856D01*
X147991779Y-119699143D01*
X148295846Y-119573505D01*
X148345438Y-119524000D01*
X150470676Y-119524000D01*
X150470676Y-119722000D01*
X150507423Y-119917294D01*
X150622842Y-120096660D01*
X150798951Y-120216990D01*
X151008000Y-120259324D01*
X151908000Y-120259324D01*
X152103294Y-120222577D01*
X152282660Y-120107158D01*
X152402990Y-119931049D01*
X152445324Y-119722000D01*
X152445324Y-118022000D01*
X152408577Y-117826706D01*
X152293158Y-117647340D01*
X152117049Y-117527010D01*
X151944167Y-117492000D01*
X153145932Y-117492000D01*
X153434878Y-117780946D01*
X153413010Y-117812951D01*
X153370676Y-118022000D01*
X153370676Y-119722000D01*
X153407423Y-119917294D01*
X153478100Y-120027129D01*
X153477857Y-120305779D01*
X153603495Y-120609846D01*
X153835930Y-120842688D01*
X154139778Y-120968856D01*
X154468779Y-120969143D01*
X154772846Y-120843505D01*
X155005688Y-120611070D01*
X155131856Y-120307222D01*
X155131861Y-120300750D01*
X155861000Y-120300750D01*
X155861000Y-120941310D01*
X155957673Y-121174699D01*
X156136302Y-121353327D01*
X156369691Y-121450000D01*
X156710250Y-121450000D01*
X156869000Y-121291250D01*
X156869000Y-120142000D01*
X157123000Y-120142000D01*
X157123000Y-121291250D01*
X157281750Y-121450000D01*
X157622309Y-121450000D01*
X157855698Y-121353327D01*
X158034327Y-121174699D01*
X158131000Y-120941310D01*
X158131000Y-120300750D01*
X157972250Y-120142000D01*
X157123000Y-120142000D01*
X156869000Y-120142000D01*
X156019750Y-120142000D01*
X155861000Y-120300750D01*
X155131861Y-120300750D01*
X155132002Y-120139756D01*
X155182660Y-120107158D01*
X155302990Y-119931049D01*
X155345324Y-119722000D01*
X155345324Y-118022000D01*
X155308577Y-117826706D01*
X155193158Y-117647340D01*
X155173269Y-117633750D01*
X155537000Y-117633750D01*
X155537000Y-118274309D01*
X155633673Y-118507698D01*
X155812301Y-118686327D01*
X156034577Y-118778397D01*
X155957673Y-118855301D01*
X155861000Y-119088690D01*
X155861000Y-119729250D01*
X156019750Y-119888000D01*
X156869000Y-119888000D01*
X156869000Y-118738750D01*
X156799750Y-118669500D01*
X156845000Y-118624250D01*
X156845000Y-117475000D01*
X155695750Y-117475000D01*
X155537000Y-117633750D01*
X155173269Y-117633750D01*
X155017049Y-117527010D01*
X154947265Y-117512878D01*
X154819034Y-117320966D01*
X154819031Y-117320964D01*
X153925068Y-116427000D01*
X154051002Y-116427000D01*
X154051002Y-116268252D01*
X154209750Y-116427000D01*
X154850310Y-116427000D01*
X154863127Y-116421691D01*
X155537000Y-116421691D01*
X155537000Y-117062250D01*
X155695750Y-117221000D01*
X156845000Y-117221000D01*
X156845000Y-116071750D01*
X156686250Y-115913000D01*
X156045690Y-115913000D01*
X155812301Y-116009673D01*
X155633673Y-116188302D01*
X155537000Y-116421691D01*
X154863127Y-116421691D01*
X155083699Y-116330327D01*
X155262327Y-116151698D01*
X155359000Y-115918309D01*
X155359000Y-115577750D01*
X155200250Y-115419000D01*
X154051000Y-115419000D01*
X154051000Y-115439000D01*
X153797000Y-115439000D01*
X153797000Y-115419000D01*
X152647750Y-115419000D01*
X152489000Y-115577750D01*
X152489000Y-115918309D01*
X152585673Y-116151698D01*
X152621975Y-116188000D01*
X146574068Y-116188000D01*
X145653813Y-115267745D01*
X149031861Y-115267745D01*
X149105995Y-115513864D01*
X149643223Y-115706965D01*
X150213454Y-115679778D01*
X150614005Y-115513864D01*
X150688139Y-115267745D01*
X149860000Y-114439605D01*
X149031861Y-115267745D01*
X145653813Y-115267745D01*
X144429291Y-114043223D01*
X148413035Y-114043223D01*
X148440222Y-114613454D01*
X148606136Y-115014005D01*
X148852255Y-115088139D01*
X149680395Y-114260000D01*
X150039605Y-114260000D01*
X150867745Y-115088139D01*
X151113864Y-115014005D01*
X151239061Y-114665691D01*
X152489000Y-114665691D01*
X152489000Y-115006250D01*
X152647750Y-115165000D01*
X153797000Y-115165000D01*
X153797000Y-114315750D01*
X154051000Y-114315750D01*
X154051000Y-115165000D01*
X155200250Y-115165000D01*
X155359000Y-115006250D01*
X155359000Y-114665691D01*
X155262327Y-114432302D01*
X155083699Y-114253673D01*
X154850310Y-114157000D01*
X154209750Y-114157000D01*
X154051000Y-114315750D01*
X153797000Y-114315750D01*
X153638250Y-114157000D01*
X152997690Y-114157000D01*
X152764301Y-114253673D01*
X152585673Y-114432302D01*
X152489000Y-114665691D01*
X151239061Y-114665691D01*
X151306965Y-114476777D01*
X151279778Y-113906546D01*
X151113864Y-113505995D01*
X150867745Y-113431861D01*
X150039605Y-114260000D01*
X149680395Y-114260000D01*
X148852255Y-113431861D01*
X148606136Y-113505995D01*
X148413035Y-114043223D01*
X144429291Y-114043223D01*
X142892000Y-112505932D01*
X142892000Y-105898049D01*
X143030951Y-105992990D01*
X143240000Y-106035324D01*
X143655256Y-106035324D01*
X144394917Y-106774984D01*
X144394857Y-106843779D01*
X144520495Y-107147846D01*
X144752930Y-107380688D01*
X145056778Y-107506856D01*
X145385779Y-107507143D01*
X145689846Y-107381505D01*
X145739438Y-107332000D01*
X149208000Y-107332000D01*
X149208000Y-110422676D01*
X149060000Y-110422676D01*
X148864706Y-110459423D01*
X148685340Y-110574842D01*
X148565010Y-110750951D01*
X148522676Y-110960000D01*
X148522676Y-112560000D01*
X148559423Y-112755294D01*
X148674842Y-112934660D01*
X148850951Y-113054990D01*
X149060000Y-113097324D01*
X149078528Y-113097324D01*
X149031861Y-113252255D01*
X149860000Y-114080395D01*
X150688139Y-113252255D01*
X150641472Y-113097324D01*
X150660000Y-113097324D01*
X150855294Y-113060577D01*
X151034660Y-112945158D01*
X151154990Y-112769049D01*
X151197324Y-112560000D01*
X151197324Y-112412000D01*
X152586676Y-112412000D01*
X152586676Y-112792000D01*
X152623423Y-112987294D01*
X152738842Y-113166660D01*
X152914951Y-113286990D01*
X153124000Y-113329324D01*
X154724000Y-113329324D01*
X154919294Y-113292577D01*
X155098660Y-113177158D01*
X155218990Y-113001049D01*
X155261324Y-112792000D01*
X155261324Y-112322349D01*
X155377034Y-112245034D01*
X156612567Y-111009501D01*
X156972000Y-111080997D01*
X157331433Y-111009501D01*
X162382720Y-116060787D01*
X162052000Y-115995003D01*
X161544179Y-116096015D01*
X161113669Y-116383672D01*
X160826012Y-116814182D01*
X160782000Y-117035445D01*
X160737988Y-116814182D01*
X160450331Y-116383672D01*
X160019821Y-116096015D01*
X159512000Y-115995003D01*
X159004179Y-116096015D01*
X158573669Y-116383672D01*
X158407000Y-116633110D01*
X158407000Y-116421691D01*
X158310327Y-116188302D01*
X158131699Y-116009673D01*
X157898310Y-115913000D01*
X157257750Y-115913000D01*
X157099000Y-116071750D01*
X157099000Y-117221000D01*
X157119000Y-117221000D01*
X157119000Y-117475000D01*
X157099000Y-117475000D01*
X157099000Y-118624250D01*
X157168250Y-118693500D01*
X157123000Y-118738750D01*
X157123000Y-119888000D01*
X157972250Y-119888000D01*
X158131000Y-119729250D01*
X158131000Y-119088690D01*
X158034327Y-118855301D01*
X157943364Y-118764338D01*
X158131699Y-118686327D01*
X158310327Y-118507698D01*
X158407000Y-118274309D01*
X158407000Y-118062890D01*
X158573669Y-118312328D01*
X158860000Y-118503648D01*
X158860000Y-119530995D01*
X158859999Y-119531000D01*
X158899435Y-119729250D01*
X158909631Y-119780510D01*
X158958676Y-119853911D01*
X158958676Y-120815000D01*
X158995423Y-121010294D01*
X159110842Y-121189660D01*
X159286951Y-121309990D01*
X159496000Y-121352324D01*
X160496000Y-121352324D01*
X160691294Y-121315577D01*
X160870660Y-121200158D01*
X160990990Y-121024049D01*
X161033324Y-120815000D01*
X161033324Y-119215000D01*
X160996577Y-119019706D01*
X160881158Y-118840340D01*
X160705049Y-118720010D01*
X160496000Y-118677676D01*
X160164000Y-118677676D01*
X160164000Y-118503648D01*
X160450331Y-118312328D01*
X160737988Y-117881818D01*
X160782000Y-117660555D01*
X160826012Y-117881818D01*
X161113669Y-118312328D01*
X161544179Y-118599985D01*
X162052000Y-118700997D01*
X162559821Y-118599985D01*
X162990331Y-118312328D01*
X163277988Y-117881818D01*
X163322000Y-117660555D01*
X163366012Y-117881818D01*
X163653669Y-118312328D01*
X164084179Y-118599985D01*
X164592000Y-118700997D01*
X165099821Y-118599985D01*
X165530331Y-118312328D01*
X165817988Y-117881818D01*
X165919000Y-117373997D01*
X165919000Y-117322003D01*
X165817988Y-116814182D01*
X165530331Y-116383672D01*
X165099821Y-116096015D01*
X164592000Y-115995003D01*
X164232566Y-116066499D01*
X159181280Y-111015213D01*
X159512000Y-111080997D01*
X160019821Y-110979985D01*
X160450331Y-110692328D01*
X160737988Y-110261818D01*
X160782000Y-110040555D01*
X160826012Y-110261818D01*
X161113669Y-110692328D01*
X161544179Y-110979985D01*
X162052000Y-111080997D01*
X162411433Y-111009501D01*
X163622966Y-112221034D01*
X163834490Y-112362369D01*
X163875887Y-112370604D01*
X164084000Y-112412001D01*
X164084005Y-112412000D01*
X165480995Y-112412000D01*
X165481000Y-112412001D01*
X165689113Y-112370604D01*
X165730510Y-112362369D01*
X165942034Y-112221034D01*
X168921598Y-109241470D01*
X168676714Y-109607964D01*
X168511000Y-110441066D01*
X168511000Y-114094934D01*
X168676714Y-114928036D01*
X169148629Y-115634305D01*
X169854898Y-116106220D01*
X170688000Y-116271934D01*
X171521102Y-116106220D01*
X172227371Y-115634305D01*
X172699286Y-114928036D01*
X172865000Y-114094934D01*
X172865000Y-110441066D01*
X172699286Y-109607964D01*
X172227371Y-108901695D01*
X171521102Y-108429780D01*
X170688000Y-108264066D01*
X169854898Y-108429780D01*
X169488404Y-108674664D01*
X170289068Y-107874000D01*
X174853912Y-107874000D01*
X174932842Y-107996660D01*
X175108951Y-108116990D01*
X175116000Y-108118417D01*
X175116000Y-108393757D01*
X174934898Y-108429780D01*
X174228629Y-108901695D01*
X173756714Y-109607964D01*
X173591000Y-110441066D01*
X173591000Y-114094934D01*
X173756714Y-114928036D01*
X174228629Y-115634305D01*
X174934898Y-116106220D01*
X175768000Y-116271934D01*
X176601102Y-116106220D01*
X177307371Y-115634305D01*
X177779286Y-114928036D01*
X177945000Y-114094934D01*
X177945000Y-110441066D01*
X177779286Y-109607964D01*
X177307371Y-108901695D01*
X176601102Y-108429780D01*
X176420000Y-108393757D01*
X176420000Y-108118262D01*
X176592660Y-108007158D01*
X176712990Y-107831049D01*
X176755324Y-107622000D01*
X176755324Y-106822000D01*
X176718577Y-106626706D01*
X176603158Y-106447340D01*
X176439883Y-106335779D01*
X177480857Y-106335779D01*
X177606495Y-106639846D01*
X177838930Y-106872688D01*
X178142778Y-106998856D01*
X178212849Y-106998917D01*
X178896964Y-107683031D01*
X178896966Y-107683034D01*
X179108490Y-107824369D01*
X179358000Y-107874000D01*
X179933912Y-107874000D01*
X180012842Y-107996660D01*
X180188951Y-108116990D01*
X180196000Y-108118417D01*
X180196000Y-108393757D01*
X180014898Y-108429780D01*
X179308629Y-108901695D01*
X178836714Y-109607964D01*
X178671000Y-110441066D01*
X178671000Y-114094934D01*
X178836714Y-114928036D01*
X179308629Y-115634305D01*
X180014898Y-116106220D01*
X180848000Y-116271934D01*
X181681102Y-116106220D01*
X182387371Y-115634305D01*
X182859286Y-114928036D01*
X183025000Y-114094934D01*
X183025000Y-110441066D01*
X182859286Y-109607964D01*
X182387371Y-108901695D01*
X181681102Y-108429780D01*
X181500000Y-108393757D01*
X181500000Y-108118262D01*
X181672660Y-108007158D01*
X181792990Y-107831049D01*
X181835324Y-107622000D01*
X181835324Y-106822000D01*
X181798577Y-106626706D01*
X181683158Y-106447340D01*
X181507049Y-106327010D01*
X181298000Y-106284676D01*
X180398000Y-106284676D01*
X180202706Y-106321423D01*
X180023340Y-106436842D01*
X179932357Y-106570000D01*
X179628067Y-106570000D01*
X179135083Y-106077015D01*
X179135143Y-106008221D01*
X179009505Y-105704154D01*
X178777070Y-105471312D01*
X178623995Y-105407750D01*
X179763000Y-105407750D01*
X179763000Y-105648309D01*
X179859673Y-105881698D01*
X180038301Y-106060327D01*
X180271690Y-106157000D01*
X180562250Y-106157000D01*
X180721000Y-105998250D01*
X180721000Y-105249000D01*
X180975000Y-105249000D01*
X180975000Y-105998250D01*
X181133750Y-106157000D01*
X181424310Y-106157000D01*
X181657699Y-106060327D01*
X181836327Y-105881698D01*
X181933000Y-105648309D01*
X181933000Y-105407750D01*
X181774250Y-105249000D01*
X180975000Y-105249000D01*
X180721000Y-105249000D01*
X179921750Y-105249000D01*
X179763000Y-105407750D01*
X178623995Y-105407750D01*
X178473222Y-105345144D01*
X178144221Y-105344857D01*
X177840154Y-105470495D01*
X177607312Y-105702930D01*
X177481144Y-106006778D01*
X177480857Y-106335779D01*
X176439883Y-106335779D01*
X176427049Y-106327010D01*
X176218000Y-106284676D01*
X175318000Y-106284676D01*
X175122706Y-106321423D01*
X174943340Y-106436842D01*
X174852357Y-106570000D01*
X170019000Y-106570000D01*
X169769490Y-106619631D01*
X169559361Y-106760034D01*
X169557966Y-106760966D01*
X165210932Y-111108000D01*
X164354068Y-111108000D01*
X164261281Y-111015213D01*
X164592000Y-111080997D01*
X165099821Y-110979985D01*
X165530331Y-110692328D01*
X165817988Y-110261818D01*
X165919000Y-109753997D01*
X165919000Y-109702003D01*
X165817988Y-109194182D01*
X165530331Y-108763672D01*
X165099821Y-108476015D01*
X164592000Y-108375003D01*
X164084179Y-108476015D01*
X163653669Y-108763672D01*
X163366012Y-109194182D01*
X163322000Y-109415445D01*
X163277988Y-109194182D01*
X162990331Y-108763672D01*
X162559821Y-108476015D01*
X162052000Y-108375003D01*
X161544179Y-108476015D01*
X161113669Y-108763672D01*
X160826012Y-109194182D01*
X160782000Y-109415445D01*
X160737988Y-109194182D01*
X160450331Y-108763672D01*
X160164000Y-108572352D01*
X160164000Y-108571184D01*
X160337294Y-108538577D01*
X160516660Y-108423158D01*
X160636990Y-108247049D01*
X160679324Y-108038000D01*
X160679324Y-106338000D01*
X160642577Y-106142706D01*
X160527158Y-105963340D01*
X160351049Y-105843010D01*
X160142000Y-105800676D01*
X159242000Y-105800676D01*
X159046706Y-105837423D01*
X158867340Y-105952842D01*
X158747010Y-106128951D01*
X158704676Y-106338000D01*
X158704676Y-108038000D01*
X158741423Y-108233294D01*
X158856842Y-108412660D01*
X158860000Y-108414818D01*
X158860000Y-108572352D01*
X158573669Y-108763672D01*
X158286012Y-109194182D01*
X158242000Y-109415445D01*
X158197988Y-109194182D01*
X157910331Y-108763672D01*
X157624000Y-108572352D01*
X157624000Y-108412416D01*
X157736990Y-108247049D01*
X157779324Y-108038000D01*
X157779324Y-106338000D01*
X157742577Y-106142706D01*
X157627158Y-105963340D01*
X157451049Y-105843010D01*
X157242000Y-105800676D01*
X156342000Y-105800676D01*
X156146706Y-105837423D01*
X155967340Y-105952842D01*
X155847010Y-106128951D01*
X155804676Y-106338000D01*
X155804676Y-108038000D01*
X155841423Y-108233294D01*
X155956842Y-108412660D01*
X156132951Y-108532990D01*
X156320000Y-108570869D01*
X156320000Y-108572352D01*
X156033669Y-108763672D01*
X155746012Y-109194182D01*
X155645000Y-109702003D01*
X155645000Y-109753997D01*
X155707869Y-110070063D01*
X154645932Y-111132000D01*
X154020657Y-111132000D01*
X153900000Y-111107999D01*
X153899995Y-111108000D01*
X151197324Y-111108000D01*
X151197324Y-110960000D01*
X151160577Y-110764706D01*
X151045158Y-110585340D01*
X150869049Y-110465010D01*
X150660000Y-110422676D01*
X150512000Y-110422676D01*
X150512000Y-107332000D01*
X151256995Y-107332000D01*
X151257000Y-107332001D01*
X151465113Y-107290604D01*
X151506510Y-107282369D01*
X151718034Y-107141034D01*
X151718035Y-107141033D01*
X152099031Y-106760036D01*
X152099034Y-106760034D01*
X153451317Y-105407750D01*
X174683000Y-105407750D01*
X174683000Y-105648309D01*
X174779673Y-105881698D01*
X174958301Y-106060327D01*
X175191690Y-106157000D01*
X175482250Y-106157000D01*
X175641000Y-105998250D01*
X175641000Y-105249000D01*
X175895000Y-105249000D01*
X175895000Y-105998250D01*
X176053750Y-106157000D01*
X176344310Y-106157000D01*
X176577699Y-106060327D01*
X176756327Y-105881698D01*
X176853000Y-105648309D01*
X176853000Y-105407750D01*
X176694250Y-105249000D01*
X175895000Y-105249000D01*
X175641000Y-105249000D01*
X174841750Y-105249000D01*
X174683000Y-105407750D01*
X153451317Y-105407750D01*
X154263376Y-104595691D01*
X174683000Y-104595691D01*
X174683000Y-104836250D01*
X174841750Y-104995000D01*
X175641000Y-104995000D01*
X175641000Y-104245750D01*
X175895000Y-104245750D01*
X175895000Y-104995000D01*
X176694250Y-104995000D01*
X176853000Y-104836250D01*
X176853000Y-104595691D01*
X179763000Y-104595691D01*
X179763000Y-104836250D01*
X179921750Y-104995000D01*
X180721000Y-104995000D01*
X180721000Y-104245750D01*
X180975000Y-104245750D01*
X180975000Y-104995000D01*
X181774250Y-104995000D01*
X181933000Y-104836250D01*
X181933000Y-104595691D01*
X181836327Y-104362302D01*
X181657699Y-104183673D01*
X181424310Y-104087000D01*
X181133750Y-104087000D01*
X180975000Y-104245750D01*
X180721000Y-104245750D01*
X180562250Y-104087000D01*
X180271690Y-104087000D01*
X180038301Y-104183673D01*
X179859673Y-104362302D01*
X179763000Y-104595691D01*
X176853000Y-104595691D01*
X176756327Y-104362302D01*
X176577699Y-104183673D01*
X176344310Y-104087000D01*
X176053750Y-104087000D01*
X175895000Y-104245750D01*
X175641000Y-104245750D01*
X175482250Y-104087000D01*
X175191690Y-104087000D01*
X174958301Y-104183673D01*
X174779673Y-104362302D01*
X174683000Y-104595691D01*
X154263376Y-104595691D01*
X156734067Y-102125000D01*
X165480995Y-102125000D01*
X165481000Y-102125001D01*
X165689113Y-102083604D01*
X165730510Y-102075369D01*
X165942034Y-101934034D01*
X165942035Y-101934033D01*
X167435067Y-100441000D01*
X172779676Y-100441000D01*
X172779676Y-101441000D01*
X172816423Y-101636294D01*
X172931842Y-101815660D01*
X173107951Y-101935990D01*
X173317000Y-101978324D01*
X174917000Y-101978324D01*
X175112294Y-101941577D01*
X175291660Y-101826158D01*
X175411990Y-101650049D01*
X175423543Y-101593000D01*
X180535188Y-101593000D01*
X180929068Y-101856182D01*
X181456023Y-101961000D01*
X181509977Y-101961000D01*
X182036932Y-101856182D01*
X182483663Y-101557686D01*
X182782159Y-101110955D01*
X182886977Y-100584000D01*
X182782159Y-100057045D01*
X182483663Y-99610314D01*
X182361968Y-99529000D01*
X182459309Y-99529000D01*
X182692698Y-99432327D01*
X182871327Y-99253699D01*
X182968000Y-99020310D01*
X182968000Y-98329750D01*
X182809250Y-98171000D01*
X181610000Y-98171000D01*
X181610000Y-98191000D01*
X181356000Y-98191000D01*
X181356000Y-98171000D01*
X180156750Y-98171000D01*
X179998000Y-98329750D01*
X179998000Y-99020310D01*
X180094673Y-99253699D01*
X180273302Y-99432327D01*
X180506691Y-99529000D01*
X180604032Y-99529000D01*
X180482337Y-99610314D01*
X180183841Y-100057045D01*
X180137702Y-100289000D01*
X175425723Y-100289000D01*
X175417577Y-100245706D01*
X175302158Y-100066340D01*
X175126049Y-99946010D01*
X174917000Y-99903676D01*
X173317000Y-99903676D01*
X173121706Y-99940423D01*
X172942340Y-100055842D01*
X172822010Y-100231951D01*
X172779676Y-100441000D01*
X167435067Y-100441000D01*
X169498031Y-98378036D01*
X169498034Y-98378034D01*
X169639369Y-98166510D01*
X169689000Y-97917000D01*
X169689000Y-89408000D01*
X171141795Y-89408000D01*
X171239914Y-89901279D01*
X171519334Y-90319461D01*
X171937516Y-90598881D01*
X172322000Y-90675359D01*
X172322000Y-91566995D01*
X172321999Y-91567000D01*
X172351844Y-91717034D01*
X172371631Y-91816510D01*
X172468597Y-91961631D01*
X172512966Y-92028034D01*
X173465000Y-92980068D01*
X173465000Y-96903676D01*
X173317000Y-96903676D01*
X173121706Y-96940423D01*
X172942340Y-97055842D01*
X172822010Y-97231951D01*
X172779676Y-97441000D01*
X172779676Y-98441000D01*
X172816423Y-98636294D01*
X172931842Y-98815660D01*
X173107951Y-98935990D01*
X173317000Y-98978324D01*
X174917000Y-98978324D01*
X175112294Y-98941577D01*
X175291660Y-98826158D01*
X175411990Y-98650049D01*
X175454324Y-98441000D01*
X175454324Y-97441000D01*
X175417577Y-97245706D01*
X175303027Y-97067690D01*
X179998000Y-97067690D01*
X179998000Y-97758250D01*
X180156750Y-97917000D01*
X181356000Y-97917000D01*
X181356000Y-96717750D01*
X181610000Y-96717750D01*
X181610000Y-97917000D01*
X182809250Y-97917000D01*
X182968000Y-97758250D01*
X182968000Y-97067690D01*
X182871327Y-96834301D01*
X182692698Y-96655673D01*
X182459309Y-96559000D01*
X181768750Y-96559000D01*
X181610000Y-96717750D01*
X181356000Y-96717750D01*
X181197250Y-96559000D01*
X180506691Y-96559000D01*
X180273302Y-96655673D01*
X180094673Y-96834301D01*
X179998000Y-97067690D01*
X175303027Y-97067690D01*
X175302158Y-97066340D01*
X175126049Y-96946010D01*
X174917000Y-96903676D01*
X174769000Y-96903676D01*
X174769000Y-92710000D01*
X174719369Y-92460490D01*
X174578034Y-92248966D01*
X173626000Y-91296932D01*
X173626000Y-90675359D01*
X174010484Y-90598881D01*
X174428666Y-90319461D01*
X174708086Y-89901279D01*
X174737964Y-89751070D01*
X177461780Y-89751070D01*
X177476740Y-89825277D01*
X177738370Y-90306026D01*
X178164059Y-90650059D01*
X178689000Y-90805000D01*
X179197000Y-90805000D01*
X179197000Y-89535000D01*
X179451000Y-89535000D01*
X179451000Y-90805000D01*
X179959000Y-90805000D01*
X180483941Y-90650059D01*
X180909630Y-90306026D01*
X181171260Y-89825277D01*
X181186220Y-89751070D01*
X181063720Y-89535000D01*
X179451000Y-89535000D01*
X179197000Y-89535000D01*
X177584280Y-89535000D01*
X177461780Y-89751070D01*
X174737964Y-89751070D01*
X174806205Y-89408000D01*
X174737965Y-89064930D01*
X177461780Y-89064930D01*
X177584280Y-89281000D01*
X179197000Y-89281000D01*
X179197000Y-89261000D01*
X179451000Y-89261000D01*
X179451000Y-89281000D01*
X181063720Y-89281000D01*
X181186220Y-89064930D01*
X181171260Y-88990723D01*
X180909630Y-88509974D01*
X180483941Y-88165941D01*
X180217548Y-88087313D01*
X180360484Y-88058881D01*
X180778666Y-87779461D01*
X181058086Y-87361279D01*
X181156205Y-86868000D01*
X181058086Y-86374721D01*
X180778666Y-85956539D01*
X180360484Y-85677119D01*
X179962725Y-85598000D01*
X180360484Y-85518881D01*
X180778666Y-85239461D01*
X181058086Y-84821279D01*
X181156205Y-84328000D01*
X181058086Y-83834721D01*
X180778666Y-83416539D01*
X180360484Y-83137119D01*
X179867205Y-83039000D01*
X178780795Y-83039000D01*
X178287516Y-83137119D01*
X177869334Y-83416539D01*
X177589914Y-83834721D01*
X177491795Y-84328000D01*
X177589914Y-84821279D01*
X177869334Y-85239461D01*
X178287516Y-85518881D01*
X178685275Y-85598000D01*
X178287516Y-85677119D01*
X177869334Y-85956539D01*
X177589914Y-86374721D01*
X177491795Y-86868000D01*
X177589914Y-87361279D01*
X177869334Y-87779461D01*
X178287516Y-88058881D01*
X178430452Y-88087313D01*
X178164059Y-88165941D01*
X177738370Y-88509974D01*
X177476740Y-88990723D01*
X177461780Y-89064930D01*
X174737965Y-89064930D01*
X174708086Y-88914721D01*
X174428666Y-88496539D01*
X174010484Y-88217119D01*
X173517205Y-88119000D01*
X172430795Y-88119000D01*
X171937516Y-88217119D01*
X171519334Y-88496539D01*
X171239914Y-88914721D01*
X171141795Y-89408000D01*
X169689000Y-89408000D01*
X169689000Y-88535068D01*
X172607067Y-85617000D01*
X173517205Y-85617000D01*
X174010484Y-85518881D01*
X174428666Y-85239461D01*
X174708086Y-84821279D01*
X174806205Y-84328000D01*
X174708086Y-83834721D01*
X174428666Y-83416539D01*
X174010484Y-83137119D01*
X173626000Y-83060641D01*
X173626000Y-82788302D01*
X173687457Y-82696324D01*
X174379000Y-82696324D01*
X174574294Y-82659577D01*
X174753660Y-82544158D01*
X174814398Y-82455265D01*
X174840673Y-82518699D01*
X175019302Y-82697327D01*
X175252691Y-82794000D01*
X175593250Y-82794000D01*
X175752000Y-82635250D01*
X175752000Y-81661000D01*
X176006000Y-81661000D01*
X176006000Y-82635250D01*
X176164750Y-82794000D01*
X176505309Y-82794000D01*
X176738698Y-82697327D01*
X176917327Y-82518699D01*
X177014000Y-82285310D01*
X177014000Y-81819750D01*
X176855250Y-81661000D01*
X176006000Y-81661000D01*
X175752000Y-81661000D01*
X175732000Y-81661000D01*
X175732000Y-81407000D01*
X175752000Y-81407000D01*
X175752000Y-80432750D01*
X176006000Y-80432750D01*
X176006000Y-81407000D01*
X176855250Y-81407000D01*
X177014000Y-81248250D01*
X177014000Y-80782690D01*
X176917327Y-80549301D01*
X176738698Y-80370673D01*
X176505309Y-80274000D01*
X176164750Y-80274000D01*
X176006000Y-80432750D01*
X175752000Y-80432750D01*
X175593250Y-80274000D01*
X175252691Y-80274000D01*
X175019302Y-80370673D01*
X174840673Y-80549301D01*
X174814478Y-80612540D01*
X174764158Y-80534340D01*
X174588049Y-80414010D01*
X174379000Y-80371676D01*
X173379000Y-80371676D01*
X173183706Y-80408423D01*
X173004340Y-80523842D01*
X172975018Y-80566757D01*
X172954158Y-80534340D01*
X172778049Y-80414010D01*
X172569000Y-80371676D01*
X171569000Y-80371676D01*
X171373706Y-80408423D01*
X171194340Y-80523842D01*
X171133602Y-80612735D01*
X171107327Y-80549301D01*
X170928698Y-80370673D01*
X170695309Y-80274000D01*
X170354750Y-80274000D01*
X170196000Y-80432750D01*
X170196000Y-81407000D01*
X170216000Y-81407000D01*
X170216000Y-81661000D01*
X170196000Y-81661000D01*
X170196000Y-82635250D01*
X170354750Y-82794000D01*
X170695309Y-82794000D01*
X170928698Y-82697327D01*
X171107327Y-82518699D01*
X171133522Y-82455460D01*
X171183842Y-82533660D01*
X171359951Y-82653990D01*
X171569000Y-82696324D01*
X172309257Y-82696324D01*
X172322000Y-82709067D01*
X172322000Y-83060641D01*
X171937516Y-83137119D01*
X171519334Y-83416539D01*
X171239914Y-83834721D01*
X171141795Y-84328000D01*
X171239914Y-84821279D01*
X171367583Y-85012350D01*
X168575966Y-87803966D01*
X168434631Y-88015490D01*
X168434631Y-88015491D01*
X168384999Y-88265000D01*
X168385000Y-88265005D01*
X168385000Y-97646933D01*
X165210932Y-100821000D01*
X156464005Y-100821000D01*
X156464000Y-100820999D01*
X156214491Y-100870630D01*
X156214489Y-100870631D01*
X156214490Y-100870631D01*
X156002966Y-101011966D01*
X156002964Y-101011969D01*
X151176966Y-105837966D01*
X151176964Y-105837969D01*
X150986933Y-106028000D01*
X150003067Y-106028000D01*
X148099000Y-104123932D01*
X148099000Y-103346000D01*
X148685250Y-103346000D01*
X148844000Y-103187250D01*
X148844000Y-102338000D01*
X149098000Y-102338000D01*
X149098000Y-103187250D01*
X149256750Y-103346000D01*
X149897310Y-103346000D01*
X150130699Y-103249327D01*
X150309327Y-103070698D01*
X150406000Y-102837309D01*
X150406000Y-102496750D01*
X150247250Y-102338000D01*
X149098000Y-102338000D01*
X148844000Y-102338000D01*
X148824000Y-102338000D01*
X148824000Y-102084000D01*
X148844000Y-102084000D01*
X148844000Y-101234750D01*
X149098000Y-101234750D01*
X149098000Y-102084000D01*
X150247250Y-102084000D01*
X150406000Y-101925250D01*
X150406000Y-101584691D01*
X150309327Y-101351302D01*
X150130699Y-101172673D01*
X149897310Y-101076000D01*
X149256750Y-101076000D01*
X149098000Y-101234750D01*
X148844000Y-101234750D01*
X148685250Y-101076000D01*
X148099000Y-101076000D01*
X148099000Y-100233743D01*
X148171000Y-100248324D01*
X149771000Y-100248324D01*
X149966294Y-100211577D01*
X150145660Y-100096158D01*
X150265990Y-99920049D01*
X150308324Y-99711000D01*
X150308324Y-98711000D01*
X150271577Y-98515706D01*
X150156158Y-98336340D01*
X149980049Y-98216010D01*
X149771000Y-98173676D01*
X149604000Y-98173676D01*
X149604000Y-98003250D01*
X149625000Y-97982250D01*
X149625000Y-97856999D01*
X149721990Y-97715049D01*
X149751547Y-97569092D01*
X149776423Y-97701294D01*
X149879000Y-97860703D01*
X149879000Y-97982250D01*
X150037750Y-98141000D01*
X150153310Y-98141000D01*
X150386699Y-98044327D01*
X150387702Y-98043324D01*
X150700000Y-98043324D01*
X150700000Y-98543106D01*
X150655010Y-98608951D01*
X150612676Y-98818000D01*
X150612676Y-100318000D01*
X150649423Y-100513294D01*
X150764842Y-100692660D01*
X150940951Y-100812990D01*
X151150000Y-100855324D01*
X151739299Y-100855324D01*
X151740302Y-100856327D01*
X151973691Y-100953000D01*
X152114250Y-100953000D01*
X152273000Y-100794250D01*
X152273000Y-100388733D01*
X152287324Y-100318000D01*
X152287324Y-98818000D01*
X152273000Y-98741874D01*
X152273000Y-98341750D01*
X152114250Y-98183000D01*
X152004000Y-98183000D01*
X152004000Y-98043324D01*
X152427000Y-98043324D01*
X152482763Y-98032831D01*
X152659341Y-98209409D01*
X152527000Y-98341750D01*
X152527000Y-98747267D01*
X152512676Y-98818000D01*
X152512676Y-100318000D01*
X152527000Y-100394126D01*
X152527000Y-100794250D01*
X152685750Y-100953000D01*
X152826309Y-100953000D01*
X153059698Y-100856327D01*
X153060701Y-100855324D01*
X153650000Y-100855324D01*
X153845294Y-100818577D01*
X154024660Y-100703158D01*
X154144990Y-100527049D01*
X154187324Y-100318000D01*
X154187324Y-98818000D01*
X154150577Y-98622706D01*
X154035158Y-98443340D01*
X154002000Y-98420684D01*
X154002000Y-97978005D01*
X154002001Y-97978000D01*
X153952370Y-97728491D01*
X153811034Y-97516966D01*
X152964324Y-96670256D01*
X152964324Y-96068324D01*
X154402000Y-96068324D01*
X154597294Y-96031577D01*
X154776660Y-95916158D01*
X154782234Y-95908000D01*
X155187995Y-95908000D01*
X155188000Y-95908001D01*
X155396113Y-95866604D01*
X155437510Y-95858369D01*
X155649034Y-95717034D01*
X156502341Y-94863727D01*
X156688000Y-94901324D01*
X157588000Y-94901324D01*
X157783294Y-94864577D01*
X157962660Y-94749158D01*
X157986832Y-94713780D01*
X158002842Y-94738660D01*
X158178951Y-94858990D01*
X158388000Y-94901324D01*
X159288000Y-94901324D01*
X159483294Y-94864577D01*
X159558785Y-94816000D01*
X159768712Y-94816000D01*
X159826495Y-94955846D01*
X160058930Y-95188688D01*
X160362778Y-95314856D01*
X160691779Y-95315143D01*
X160995846Y-95189505D01*
X161228688Y-94957070D01*
X161354856Y-94653222D01*
X161355143Y-94324221D01*
X161229505Y-94020154D01*
X161189555Y-93980134D01*
X161228688Y-93941070D01*
X161354856Y-93637222D01*
X161355143Y-93308221D01*
X161229505Y-93004154D01*
X161189555Y-92964134D01*
X161228688Y-92925070D01*
X161354856Y-92621222D01*
X161355143Y-92292221D01*
X161229505Y-91988154D01*
X161189555Y-91948134D01*
X161228688Y-91909070D01*
X161354856Y-91605222D01*
X161355143Y-91276221D01*
X161229505Y-90972154D01*
X160997070Y-90739312D01*
X160693222Y-90613144D01*
X160364221Y-90612857D01*
X160060154Y-90738495D01*
X159827312Y-90970930D01*
X159768735Y-91112000D01*
X159559967Y-91112000D01*
X159497049Y-91069010D01*
X159288000Y-91026676D01*
X158388000Y-91026676D01*
X158192706Y-91063423D01*
X158013340Y-91178842D01*
X157989168Y-91214220D01*
X157973158Y-91189340D01*
X157797049Y-91069010D01*
X157588000Y-91026676D01*
X157322744Y-91026676D01*
X157091034Y-90794966D01*
X157007741Y-90739312D01*
X156879510Y-90653631D01*
X156838113Y-90645396D01*
X156630000Y-90603999D01*
X156629995Y-90604000D01*
X155428068Y-90604000D01*
X156607531Y-89424536D01*
X156607534Y-89424534D01*
X159957422Y-86074646D01*
X159976951Y-86087990D01*
X160186000Y-86130324D01*
X161886000Y-86130324D01*
X162081294Y-86093577D01*
X162124043Y-86066068D01*
X162289301Y-86231327D01*
X162522690Y-86328000D01*
X163163250Y-86328000D01*
X163322000Y-86169250D01*
X163322000Y-85320000D01*
X163576000Y-85320000D01*
X163576000Y-86169250D01*
X163734750Y-86328000D01*
X164375310Y-86328000D01*
X164608699Y-86231327D01*
X164787327Y-86052698D01*
X164884000Y-85819309D01*
X164884000Y-85478750D01*
X164725250Y-85320000D01*
X163576000Y-85320000D01*
X163322000Y-85320000D01*
X163302000Y-85320000D01*
X163302000Y-85066000D01*
X163322000Y-85066000D01*
X163322000Y-84216750D01*
X163576000Y-84216750D01*
X163576000Y-85066000D01*
X164725250Y-85066000D01*
X164884000Y-84907250D01*
X164884000Y-84566691D01*
X164787327Y-84333302D01*
X164608699Y-84154673D01*
X164375310Y-84058000D01*
X163734750Y-84058000D01*
X163576000Y-84216750D01*
X163322000Y-84216750D01*
X163163250Y-84058000D01*
X162522690Y-84058000D01*
X162289301Y-84154673D01*
X162184705Y-84259269D01*
X162095049Y-84198010D01*
X161886000Y-84155676D01*
X160186000Y-84155676D01*
X159990706Y-84192423D01*
X159811340Y-84307842D01*
X159691010Y-84483951D01*
X159673592Y-84569963D01*
X159505966Y-84681966D01*
X156337000Y-87850932D01*
X150829034Y-82342966D01*
X150692092Y-82251465D01*
X150617510Y-82201631D01*
X150556474Y-82189490D01*
X150368000Y-82151999D01*
X150367995Y-82152000D01*
X150114437Y-82152000D01*
X150313725Y-81672061D01*
X150314273Y-81044692D01*
X150074695Y-80464868D01*
X149879075Y-80268906D01*
X150264652Y-80269243D01*
X150780132Y-80056251D01*
X150907545Y-79929060D01*
X153604545Y-79929060D01*
X153687884Y-80182953D01*
X154252306Y-80388590D01*
X154495497Y-80378050D01*
X154410864Y-80462535D01*
X154170275Y-81041939D01*
X154169727Y-81669308D01*
X154409305Y-82249132D01*
X154852535Y-82693136D01*
X155431939Y-82933725D01*
X156059308Y-82934273D01*
X156639132Y-82694695D01*
X157083136Y-82251465D01*
X157273506Y-81793000D01*
X159648676Y-81793000D01*
X159648676Y-82693000D01*
X159685423Y-82888294D01*
X159800842Y-83067660D01*
X159976951Y-83187990D01*
X160186000Y-83230324D01*
X161886000Y-83230324D01*
X162081294Y-83193577D01*
X162260660Y-83078158D01*
X162266563Y-83069519D01*
X162439951Y-83187990D01*
X162649000Y-83230324D01*
X164249000Y-83230324D01*
X164444294Y-83193577D01*
X164623660Y-83078158D01*
X164743990Y-82902049D01*
X164786324Y-82693000D01*
X164786324Y-81819750D01*
X168934000Y-81819750D01*
X168934000Y-82285310D01*
X169030673Y-82518699D01*
X169209302Y-82697327D01*
X169442691Y-82794000D01*
X169783250Y-82794000D01*
X169942000Y-82635250D01*
X169942000Y-81661000D01*
X169092750Y-81661000D01*
X168934000Y-81819750D01*
X164786324Y-81819750D01*
X164786324Y-81693000D01*
X164749577Y-81497706D01*
X164634158Y-81318340D01*
X164458049Y-81198010D01*
X164249000Y-81155676D01*
X164101000Y-81155676D01*
X164101000Y-80717607D01*
X164422686Y-80502663D01*
X164504000Y-80380968D01*
X164504000Y-80478309D01*
X164600673Y-80711698D01*
X164779301Y-80890327D01*
X165012690Y-80987000D01*
X165703250Y-80987000D01*
X165862000Y-80828250D01*
X165862000Y-79629000D01*
X166116000Y-79629000D01*
X166116000Y-80828250D01*
X166274750Y-80987000D01*
X166965310Y-80987000D01*
X167198699Y-80890327D01*
X167306335Y-80782690D01*
X168934000Y-80782690D01*
X168934000Y-81248250D01*
X169092750Y-81407000D01*
X169942000Y-81407000D01*
X169942000Y-80432750D01*
X169783250Y-80274000D01*
X169442691Y-80274000D01*
X169209302Y-80370673D01*
X169030673Y-80549301D01*
X168934000Y-80782690D01*
X167306335Y-80782690D01*
X167377327Y-80711698D01*
X167474000Y-80478309D01*
X167474000Y-79787750D01*
X167315250Y-79629000D01*
X166116000Y-79629000D01*
X165862000Y-79629000D01*
X165842000Y-79629000D01*
X165842000Y-79375000D01*
X165862000Y-79375000D01*
X165862000Y-78175750D01*
X166116000Y-78175750D01*
X166116000Y-79375000D01*
X167315250Y-79375000D01*
X167474000Y-79216250D01*
X167474000Y-78525691D01*
X167377327Y-78292302D01*
X167198699Y-78113673D01*
X166965310Y-78017000D01*
X166274750Y-78017000D01*
X166116000Y-78175750D01*
X165862000Y-78175750D01*
X165703250Y-78017000D01*
X165012690Y-78017000D01*
X164779301Y-78113673D01*
X164600673Y-78292302D01*
X164504000Y-78525691D01*
X164504000Y-78623032D01*
X164422686Y-78501337D01*
X163975955Y-78202841D01*
X163449000Y-78098023D01*
X162922045Y-78202841D01*
X162475314Y-78501337D01*
X162176818Y-78948068D01*
X162072000Y-79475023D01*
X162072000Y-79528977D01*
X162176818Y-80055932D01*
X162475314Y-80502663D01*
X162797000Y-80717607D01*
X162797000Y-81155676D01*
X162649000Y-81155676D01*
X162453706Y-81192423D01*
X162274340Y-81307842D01*
X162221857Y-81384654D01*
X162095049Y-81298010D01*
X161886000Y-81255676D01*
X160186000Y-81255676D01*
X159990706Y-81292423D01*
X159811340Y-81407842D01*
X159691010Y-81583951D01*
X159648676Y-81793000D01*
X157273506Y-81793000D01*
X157323725Y-81672061D01*
X157324273Y-81044692D01*
X157084695Y-80464868D01*
X156641465Y-80020864D01*
X156062061Y-79780275D01*
X155579461Y-79779853D01*
X155549062Y-79749454D01*
X155802953Y-79666116D01*
X156008590Y-79101694D01*
X155982579Y-78501542D01*
X155802953Y-78067884D01*
X155549060Y-77984545D01*
X154666605Y-78867000D01*
X154680748Y-78881143D01*
X154501143Y-79060748D01*
X154487000Y-79046605D01*
X153604545Y-79929060D01*
X150907545Y-79929060D01*
X151174865Y-79662206D01*
X151388756Y-79147099D01*
X151389205Y-78632306D01*
X152965410Y-78632306D01*
X152991421Y-79232458D01*
X153171047Y-79666116D01*
X153424940Y-79749455D01*
X154307395Y-78867000D01*
X153424940Y-77984545D01*
X153171047Y-78067884D01*
X152965410Y-78632306D01*
X151389205Y-78632306D01*
X151389243Y-78589348D01*
X151176251Y-78073868D01*
X150907792Y-77804940D01*
X153604545Y-77804940D01*
X154487000Y-78687395D01*
X155369455Y-77804940D01*
X155286116Y-77551047D01*
X154721694Y-77345410D01*
X154121542Y-77371421D01*
X153687884Y-77551047D01*
X153604545Y-77804940D01*
X150907792Y-77804940D01*
X150782206Y-77679135D01*
X150267099Y-77465244D01*
X149709348Y-77464757D01*
X149193868Y-77677749D01*
X148799135Y-78071794D01*
X148585244Y-78586901D01*
X148584757Y-79144652D01*
X148797749Y-79660132D01*
X148917565Y-79780158D01*
X148424692Y-79779727D01*
X147844868Y-80019305D01*
X147400864Y-80462535D01*
X147160275Y-81041939D01*
X147159727Y-81669308D01*
X147359171Y-82152000D01*
X132640607Y-82152000D01*
X132871159Y-81806955D01*
X132975977Y-81280000D01*
X132871159Y-80753045D01*
X132572663Y-80306314D01*
X132180263Y-80044121D01*
X132174369Y-80014491D01*
X132174369Y-80014490D01*
X132033034Y-79802966D01*
X131017034Y-78786966D01*
X130805510Y-78645631D01*
X130764113Y-78637396D01*
X130556000Y-78595999D01*
X130555995Y-78596000D01*
X126492005Y-78596000D01*
X126492000Y-78595999D01*
X126283887Y-78637396D01*
X126242490Y-78645631D01*
X126030966Y-78786966D01*
X125014966Y-79802966D01*
X124873631Y-80014490D01*
X124873631Y-80014491D01*
X124823999Y-80264000D01*
X120998000Y-80264000D01*
X120998000Y-77310000D01*
X183294000Y-77310000D01*
X183294000Y-121826000D01*
G36*
X144092951Y-96025990D02*
X144302000Y-96068324D01*
X145739676Y-96068324D01*
X145739676Y-96189701D01*
X145656966Y-96244966D01*
X145656964Y-96244969D01*
X144318966Y-97582966D01*
X144177631Y-97794490D01*
X144177631Y-97794491D01*
X144127999Y-98044000D01*
X144128000Y-98044005D01*
X144128000Y-98146676D01*
X143930000Y-98146676D01*
X143734706Y-98183423D01*
X143555340Y-98298842D01*
X143435010Y-98474951D01*
X143392676Y-98684000D01*
X143392676Y-99584000D01*
X143429423Y-99779294D01*
X143544842Y-99958660D01*
X143720951Y-100078990D01*
X143930000Y-100121324D01*
X145630000Y-100121324D01*
X145825294Y-100084577D01*
X146004660Y-99969158D01*
X146124990Y-99793049D01*
X146167324Y-99584000D01*
X146167324Y-98684000D01*
X146130577Y-98488706D01*
X146015158Y-98309340D01*
X145839049Y-98189010D01*
X145630000Y-98146676D01*
X145599392Y-98146676D01*
X145881492Y-97864576D01*
X145891842Y-97880660D01*
X146067951Y-98000990D01*
X146277000Y-98043324D01*
X146827000Y-98043324D01*
X146956590Y-98018940D01*
X147077000Y-98043324D01*
X147516298Y-98043324D01*
X147517301Y-98044327D01*
X147750690Y-98141000D01*
X147866250Y-98141000D01*
X148025000Y-97982250D01*
X148025000Y-97856999D01*
X148121990Y-97715049D01*
X148151547Y-97569092D01*
X148176423Y-97701294D01*
X148279000Y-97860703D01*
X148279000Y-97982250D01*
X148300000Y-98003250D01*
X148300000Y-98173676D01*
X148171000Y-98173676D01*
X147975706Y-98210423D01*
X147796340Y-98325842D01*
X147676010Y-98501951D01*
X147650168Y-98629559D01*
X147469966Y-98749966D01*
X147469964Y-98749969D01*
X146985966Y-99233966D01*
X146844631Y-99445490D01*
X146844631Y-99445491D01*
X146794999Y-99695000D01*
X146795000Y-99695005D01*
X146795000Y-104393995D01*
X146794999Y-104394000D01*
X146825554Y-104547605D01*
X146844631Y-104643510D01*
X146957064Y-104811779D01*
X146985966Y-104855034D01*
X148158933Y-106028000D01*
X145739673Y-106028000D01*
X145691070Y-105979312D01*
X145387222Y-105853144D01*
X145317150Y-105853083D01*
X144677324Y-105213256D01*
X144677324Y-104145396D01*
X144969057Y-104582995D01*
X144968857Y-104811779D01*
X145094495Y-105115846D01*
X145326930Y-105348688D01*
X145630778Y-105474856D01*
X145959779Y-105475143D01*
X146263846Y-105349505D01*
X146496688Y-105117070D01*
X146622856Y-104813222D01*
X146623143Y-104484221D01*
X146497505Y-104180154D01*
X146265070Y-103947312D01*
X146054073Y-103859699D01*
X145495156Y-103021324D01*
X145630000Y-103021324D01*
X145825294Y-102984577D01*
X146004660Y-102869158D01*
X146124990Y-102693049D01*
X146167324Y-102484000D01*
X146167324Y-101584000D01*
X146130577Y-101388706D01*
X146015158Y-101209340D01*
X145839049Y-101089010D01*
X145630000Y-101046676D01*
X143930000Y-101046676D01*
X143734706Y-101083423D01*
X143555340Y-101198842D01*
X143435010Y-101374951D01*
X143392676Y-101584000D01*
X143392676Y-102484000D01*
X143429423Y-102679294D01*
X143544842Y-102858660D01*
X143720951Y-102978990D01*
X143930000Y-103021324D01*
X144128000Y-103021324D01*
X144128000Y-103124000D01*
X144140462Y-103186649D01*
X144140395Y-103250529D01*
X144145004Y-103261689D01*
X144140000Y-103260676D01*
X143240000Y-103260676D01*
X143044706Y-103297423D01*
X142892000Y-103395687D01*
X142892000Y-96536068D01*
X143520067Y-95908000D01*
X143920267Y-95908000D01*
X144092951Y-96025990D01*
X144092951Y-96025990D01*
G37*
X144092951Y-96025990D02*
X144302000Y-96068324D01*
X145739676Y-96068324D01*
X145739676Y-96189701D01*
X145656966Y-96244966D01*
X145656964Y-96244969D01*
X144318966Y-97582966D01*
X144177631Y-97794490D01*
X144177631Y-97794491D01*
X144127999Y-98044000D01*
X144128000Y-98044005D01*
X144128000Y-98146676D01*
X143930000Y-98146676D01*
X143734706Y-98183423D01*
X143555340Y-98298842D01*
X143435010Y-98474951D01*
X143392676Y-98684000D01*
X143392676Y-99584000D01*
X143429423Y-99779294D01*
X143544842Y-99958660D01*
X143720951Y-100078990D01*
X143930000Y-100121324D01*
X145630000Y-100121324D01*
X145825294Y-100084577D01*
X146004660Y-99969158D01*
X146124990Y-99793049D01*
X146167324Y-99584000D01*
X146167324Y-98684000D01*
X146130577Y-98488706D01*
X146015158Y-98309340D01*
X145839049Y-98189010D01*
X145630000Y-98146676D01*
X145599392Y-98146676D01*
X145881492Y-97864576D01*
X145891842Y-97880660D01*
X146067951Y-98000990D01*
X146277000Y-98043324D01*
X146827000Y-98043324D01*
X146956590Y-98018940D01*
X147077000Y-98043324D01*
X147516298Y-98043324D01*
X147517301Y-98044327D01*
X147750690Y-98141000D01*
X147866250Y-98141000D01*
X148025000Y-97982250D01*
X148025000Y-97856999D01*
X148121990Y-97715049D01*
X148151547Y-97569092D01*
X148176423Y-97701294D01*
X148279000Y-97860703D01*
X148279000Y-97982250D01*
X148300000Y-98003250D01*
X148300000Y-98173676D01*
X148171000Y-98173676D01*
X147975706Y-98210423D01*
X147796340Y-98325842D01*
X147676010Y-98501951D01*
X147650168Y-98629559D01*
X147469966Y-98749966D01*
X147469964Y-98749969D01*
X146985966Y-99233966D01*
X146844631Y-99445490D01*
X146844631Y-99445491D01*
X146794999Y-99695000D01*
X146795000Y-99695005D01*
X146795000Y-104393995D01*
X146794999Y-104394000D01*
X146825554Y-104547605D01*
X146844631Y-104643510D01*
X146957064Y-104811779D01*
X146985966Y-104855034D01*
X148158933Y-106028000D01*
X145739673Y-106028000D01*
X145691070Y-105979312D01*
X145387222Y-105853144D01*
X145317150Y-105853083D01*
X144677324Y-105213256D01*
X144677324Y-104145396D01*
X144969057Y-104582995D01*
X144968857Y-104811779D01*
X145094495Y-105115846D01*
X145326930Y-105348688D01*
X145630778Y-105474856D01*
X145959779Y-105475143D01*
X146263846Y-105349505D01*
X146496688Y-105117070D01*
X146622856Y-104813222D01*
X146623143Y-104484221D01*
X146497505Y-104180154D01*
X146265070Y-103947312D01*
X146054073Y-103859699D01*
X145495156Y-103021324D01*
X145630000Y-103021324D01*
X145825294Y-102984577D01*
X146004660Y-102869158D01*
X146124990Y-102693049D01*
X146167324Y-102484000D01*
X146167324Y-101584000D01*
X146130577Y-101388706D01*
X146015158Y-101209340D01*
X145839049Y-101089010D01*
X145630000Y-101046676D01*
X143930000Y-101046676D01*
X143734706Y-101083423D01*
X143555340Y-101198842D01*
X143435010Y-101374951D01*
X143392676Y-101584000D01*
X143392676Y-102484000D01*
X143429423Y-102679294D01*
X143544842Y-102858660D01*
X143720951Y-102978990D01*
X143930000Y-103021324D01*
X144128000Y-103021324D01*
X144128000Y-103124000D01*
X144140462Y-103186649D01*
X144140395Y-103250529D01*
X144145004Y-103261689D01*
X144140000Y-103260676D01*
X143240000Y-103260676D01*
X143044706Y-103297423D01*
X142892000Y-103395687D01*
X142892000Y-96536068D01*
X143520067Y-95908000D01*
X143920267Y-95908000D01*
X144092951Y-96025990D01*
G36*
X138930423Y-86717294D02*
X139045842Y-86896660D01*
X139221951Y-87016990D01*
X139431000Y-87059324D01*
X140731000Y-87059324D01*
X140926294Y-87022577D01*
X141105660Y-86907158D01*
X141206630Y-86759384D01*
X141241423Y-86944294D01*
X141356842Y-87123660D01*
X141445735Y-87184398D01*
X141382301Y-87210673D01*
X141203673Y-87389302D01*
X141179975Y-87446514D01*
X141116158Y-87347340D01*
X140940049Y-87227010D01*
X140731000Y-87184676D01*
X139431000Y-87184676D01*
X139235706Y-87221423D01*
X139056340Y-87336842D01*
X138936010Y-87512951D01*
X138893676Y-87722000D01*
X138893676Y-88422000D01*
X138930423Y-88617294D01*
X139045842Y-88796660D01*
X139221951Y-88916990D01*
X139429000Y-88958919D01*
X139429000Y-89635527D01*
X139381144Y-89750778D01*
X139380857Y-90079779D01*
X139506495Y-90383846D01*
X139738930Y-90616688D01*
X140042778Y-90742856D01*
X140112849Y-90742917D01*
X142686966Y-93317034D01*
X142898490Y-93458369D01*
X142923898Y-93463423D01*
X143148000Y-93508001D01*
X143148005Y-93508000D01*
X143764676Y-93508000D01*
X143764676Y-93836000D01*
X137588399Y-93836000D01*
X137451283Y-93504154D01*
X137022106Y-93074227D01*
X136461072Y-92841265D01*
X135853593Y-92840735D01*
X135292154Y-93072717D01*
X134862227Y-93501894D01*
X134629265Y-94062928D01*
X134628735Y-94670407D01*
X134860717Y-95231846D01*
X135289894Y-95661773D01*
X135850928Y-95894735D01*
X136458407Y-95895265D01*
X137019846Y-95663283D01*
X137449773Y-95234106D01*
X137488849Y-95140000D01*
X142443933Y-95140000D01*
X141778966Y-95804966D01*
X141637631Y-96016490D01*
X141637631Y-96016491D01*
X141587999Y-96266000D01*
X141588000Y-96266005D01*
X141588000Y-103397951D01*
X141449049Y-103303010D01*
X141240000Y-103260676D01*
X140340000Y-103260676D01*
X140144706Y-103297423D01*
X139965340Y-103412842D01*
X139845010Y-103588951D01*
X139802676Y-103798000D01*
X139802676Y-104116000D01*
X137538816Y-104116000D01*
X137451283Y-103904154D01*
X137022106Y-103474227D01*
X136461072Y-103241265D01*
X135853593Y-103240735D01*
X135292154Y-103472717D01*
X134862227Y-103901894D01*
X134693735Y-104307668D01*
X131106600Y-100720532D01*
X132123073Y-100720532D01*
X132221736Y-100987387D01*
X132831461Y-101213908D01*
X133481460Y-101189856D01*
X133970264Y-100987387D01*
X134068927Y-100720532D01*
X133096000Y-99747605D01*
X132123073Y-100720532D01*
X131106600Y-100720532D01*
X129689529Y-99303461D01*
X131450092Y-99303461D01*
X131474144Y-99953460D01*
X131676613Y-100442264D01*
X131943468Y-100540927D01*
X132916395Y-99568000D01*
X133275605Y-99568000D01*
X134248532Y-100540927D01*
X134515387Y-100442264D01*
X134741908Y-99832539D01*
X134717856Y-99182540D01*
X134515387Y-98693736D01*
X134248532Y-98595073D01*
X133275605Y-99568000D01*
X132916395Y-99568000D01*
X131943468Y-98595073D01*
X131676613Y-98693736D01*
X131450092Y-99303461D01*
X129689529Y-99303461D01*
X128801536Y-98415468D01*
X132123073Y-98415468D01*
X133096000Y-99388395D01*
X134068927Y-98415468D01*
X133970264Y-98148613D01*
X133360539Y-97922092D01*
X132710540Y-97946144D01*
X132221736Y-98148613D01*
X132123073Y-98415468D01*
X128801536Y-98415468D01*
X126128000Y-95741932D01*
X126128000Y-91076000D01*
X131928341Y-91076000D01*
X131802227Y-91201894D01*
X131569265Y-91762928D01*
X131568735Y-92370407D01*
X131800717Y-92931846D01*
X132229894Y-93361773D01*
X132790928Y-93594735D01*
X133398407Y-93595265D01*
X133959846Y-93363283D01*
X134389773Y-92934106D01*
X134622735Y-92373072D01*
X134623265Y-91765593D01*
X134391283Y-91204154D01*
X134238278Y-91050882D01*
X134320113Y-91034604D01*
X134361510Y-91026369D01*
X134573034Y-90885034D01*
X138129031Y-87329036D01*
X138129034Y-87329034D01*
X138900389Y-86557679D01*
X138930423Y-86717294D01*
X138930423Y-86717294D01*
G37*
X138930423Y-86717294D02*
X139045842Y-86896660D01*
X139221951Y-87016990D01*
X139431000Y-87059324D01*
X140731000Y-87059324D01*
X140926294Y-87022577D01*
X141105660Y-86907158D01*
X141206630Y-86759384D01*
X141241423Y-86944294D01*
X141356842Y-87123660D01*
X141445735Y-87184398D01*
X141382301Y-87210673D01*
X141203673Y-87389302D01*
X141179975Y-87446514D01*
X141116158Y-87347340D01*
X140940049Y-87227010D01*
X140731000Y-87184676D01*
X139431000Y-87184676D01*
X139235706Y-87221423D01*
X139056340Y-87336842D01*
X138936010Y-87512951D01*
X138893676Y-87722000D01*
X138893676Y-88422000D01*
X138930423Y-88617294D01*
X139045842Y-88796660D01*
X139221951Y-88916990D01*
X139429000Y-88958919D01*
X139429000Y-89635527D01*
X139381144Y-89750778D01*
X139380857Y-90079779D01*
X139506495Y-90383846D01*
X139738930Y-90616688D01*
X140042778Y-90742856D01*
X140112849Y-90742917D01*
X142686966Y-93317034D01*
X142898490Y-93458369D01*
X142923898Y-93463423D01*
X143148000Y-93508001D01*
X143148005Y-93508000D01*
X143764676Y-93508000D01*
X143764676Y-93836000D01*
X137588399Y-93836000D01*
X137451283Y-93504154D01*
X137022106Y-93074227D01*
X136461072Y-92841265D01*
X135853593Y-92840735D01*
X135292154Y-93072717D01*
X134862227Y-93501894D01*
X134629265Y-94062928D01*
X134628735Y-94670407D01*
X134860717Y-95231846D01*
X135289894Y-95661773D01*
X135850928Y-95894735D01*
X136458407Y-95895265D01*
X137019846Y-95663283D01*
X137449773Y-95234106D01*
X137488849Y-95140000D01*
X142443933Y-95140000D01*
X141778966Y-95804966D01*
X141637631Y-96016490D01*
X141637631Y-96016491D01*
X141587999Y-96266000D01*
X141588000Y-96266005D01*
X141588000Y-103397951D01*
X141449049Y-103303010D01*
X141240000Y-103260676D01*
X140340000Y-103260676D01*
X140144706Y-103297423D01*
X139965340Y-103412842D01*
X139845010Y-103588951D01*
X139802676Y-103798000D01*
X139802676Y-104116000D01*
X137538816Y-104116000D01*
X137451283Y-103904154D01*
X137022106Y-103474227D01*
X136461072Y-103241265D01*
X135853593Y-103240735D01*
X135292154Y-103472717D01*
X134862227Y-103901894D01*
X134693735Y-104307668D01*
X131106600Y-100720532D01*
X132123073Y-100720532D01*
X132221736Y-100987387D01*
X132831461Y-101213908D01*
X133481460Y-101189856D01*
X133970264Y-100987387D01*
X134068927Y-100720532D01*
X133096000Y-99747605D01*
X132123073Y-100720532D01*
X131106600Y-100720532D01*
X129689529Y-99303461D01*
X131450092Y-99303461D01*
X131474144Y-99953460D01*
X131676613Y-100442264D01*
X131943468Y-100540927D01*
X132916395Y-99568000D01*
X133275605Y-99568000D01*
X134248532Y-100540927D01*
X134515387Y-100442264D01*
X134741908Y-99832539D01*
X134717856Y-99182540D01*
X134515387Y-98693736D01*
X134248532Y-98595073D01*
X133275605Y-99568000D01*
X132916395Y-99568000D01*
X131943468Y-98595073D01*
X131676613Y-98693736D01*
X131450092Y-99303461D01*
X129689529Y-99303461D01*
X128801536Y-98415468D01*
X132123073Y-98415468D01*
X133096000Y-99388395D01*
X134068927Y-98415468D01*
X133970264Y-98148613D01*
X133360539Y-97922092D01*
X132710540Y-97946144D01*
X132221736Y-98148613D01*
X132123073Y-98415468D01*
X128801536Y-98415468D01*
X126128000Y-95741932D01*
X126128000Y-91076000D01*
X131928341Y-91076000D01*
X131802227Y-91201894D01*
X131569265Y-91762928D01*
X131568735Y-92370407D01*
X131800717Y-92931846D01*
X132229894Y-93361773D01*
X132790928Y-93594735D01*
X133398407Y-93595265D01*
X133959846Y-93363283D01*
X134389773Y-92934106D01*
X134622735Y-92373072D01*
X134623265Y-91765593D01*
X134391283Y-91204154D01*
X134238278Y-91050882D01*
X134320113Y-91034604D01*
X134361510Y-91026369D01*
X134573034Y-90885034D01*
X138129031Y-87329036D01*
X138129034Y-87329034D01*
X138900389Y-86557679D01*
X138930423Y-86717294D01*
G36*
X148976423Y-89201294D02*
X149079000Y-89360703D01*
X149079000Y-89482250D01*
X149237750Y-89641000D01*
X149353310Y-89641000D01*
X149586699Y-89544327D01*
X149587702Y-89543324D01*
X150027000Y-89543324D01*
X150156590Y-89518940D01*
X150277000Y-89543324D01*
X150827000Y-89543324D01*
X150956590Y-89518940D01*
X151077000Y-89543324D01*
X151627000Y-89543324D01*
X151756590Y-89518940D01*
X151877000Y-89543324D01*
X152264676Y-89543324D01*
X152264676Y-89931000D01*
X152289060Y-90060590D01*
X152264676Y-90181000D01*
X152264676Y-90731000D01*
X152289060Y-90860590D01*
X152264676Y-90981000D01*
X152264676Y-91531000D01*
X152289060Y-91660590D01*
X152264676Y-91781000D01*
X152264676Y-92331000D01*
X152289060Y-92460590D01*
X152264676Y-92581000D01*
X152264676Y-93131000D01*
X152289060Y-93260590D01*
X152264676Y-93381000D01*
X152264676Y-93931000D01*
X152289060Y-94060590D01*
X152264676Y-94181000D01*
X152264676Y-94731000D01*
X152289060Y-94860590D01*
X152264676Y-94981000D01*
X152264676Y-95368676D01*
X151877000Y-95368676D01*
X151747410Y-95393060D01*
X151627000Y-95368676D01*
X151204000Y-95368676D01*
X151204000Y-95180000D01*
X151154369Y-94930490D01*
X151013034Y-94718966D01*
X151013031Y-94718964D01*
X150956034Y-94661966D01*
X150869281Y-94604000D01*
X150744510Y-94520631D01*
X150703113Y-94512396D01*
X150495000Y-94470999D01*
X150494995Y-94471000D01*
X149098000Y-94471000D01*
X148848490Y-94520631D01*
X148636966Y-94661966D01*
X148636964Y-94661969D01*
X148490966Y-94807966D01*
X148349631Y-95019490D01*
X148341897Y-95058369D01*
X148299999Y-95269000D01*
X148300000Y-95269005D01*
X148300000Y-95408750D01*
X148279000Y-95429750D01*
X148279000Y-95555001D01*
X148182010Y-95696951D01*
X148152453Y-95842908D01*
X148127577Y-95710706D01*
X148025000Y-95551297D01*
X148025000Y-95429750D01*
X147866250Y-95271000D01*
X147750690Y-95271000D01*
X147517301Y-95367673D01*
X147516298Y-95368676D01*
X147077000Y-95368676D01*
X146947410Y-95393060D01*
X146827000Y-95368676D01*
X146439324Y-95368676D01*
X146439324Y-94981000D01*
X146414940Y-94851410D01*
X146439324Y-94731000D01*
X146439324Y-94181000D01*
X146414940Y-94051410D01*
X146439324Y-93931000D01*
X146439324Y-93381000D01*
X146414940Y-93251410D01*
X146439324Y-93131000D01*
X146439324Y-92581000D01*
X146414940Y-92451410D01*
X146439324Y-92331000D01*
X146439324Y-91781000D01*
X146414940Y-91651410D01*
X146439324Y-91531000D01*
X146439324Y-90981000D01*
X146414940Y-90851410D01*
X146439324Y-90731000D01*
X146439324Y-90181000D01*
X146414940Y-90051410D01*
X146439324Y-89931000D01*
X146439324Y-89543324D01*
X146492882Y-89543324D01*
X146492857Y-89571779D01*
X146618495Y-89875846D01*
X146850930Y-90108688D01*
X147154778Y-90234856D01*
X147483779Y-90235143D01*
X147787846Y-90109505D01*
X148020688Y-89877070D01*
X148146856Y-89573222D01*
X148146882Y-89543324D01*
X148316298Y-89543324D01*
X148317301Y-89544327D01*
X148550690Y-89641000D01*
X148666250Y-89641000D01*
X148825000Y-89482250D01*
X148825000Y-89356999D01*
X148921990Y-89215049D01*
X148951547Y-89069092D01*
X148976423Y-89201294D01*
X148976423Y-89201294D01*
G37*
X148976423Y-89201294D02*
X149079000Y-89360703D01*
X149079000Y-89482250D01*
X149237750Y-89641000D01*
X149353310Y-89641000D01*
X149586699Y-89544327D01*
X149587702Y-89543324D01*
X150027000Y-89543324D01*
X150156590Y-89518940D01*
X150277000Y-89543324D01*
X150827000Y-89543324D01*
X150956590Y-89518940D01*
X151077000Y-89543324D01*
X151627000Y-89543324D01*
X151756590Y-89518940D01*
X151877000Y-89543324D01*
X152264676Y-89543324D01*
X152264676Y-89931000D01*
X152289060Y-90060590D01*
X152264676Y-90181000D01*
X152264676Y-90731000D01*
X152289060Y-90860590D01*
X152264676Y-90981000D01*
X152264676Y-91531000D01*
X152289060Y-91660590D01*
X152264676Y-91781000D01*
X152264676Y-92331000D01*
X152289060Y-92460590D01*
X152264676Y-92581000D01*
X152264676Y-93131000D01*
X152289060Y-93260590D01*
X152264676Y-93381000D01*
X152264676Y-93931000D01*
X152289060Y-94060590D01*
X152264676Y-94181000D01*
X152264676Y-94731000D01*
X152289060Y-94860590D01*
X152264676Y-94981000D01*
X152264676Y-95368676D01*
X151877000Y-95368676D01*
X151747410Y-95393060D01*
X151627000Y-95368676D01*
X151204000Y-95368676D01*
X151204000Y-95180000D01*
X151154369Y-94930490D01*
X151013034Y-94718966D01*
X151013031Y-94718964D01*
X150956034Y-94661966D01*
X150869281Y-94604000D01*
X150744510Y-94520631D01*
X150703113Y-94512396D01*
X150495000Y-94470999D01*
X150494995Y-94471000D01*
X149098000Y-94471000D01*
X148848490Y-94520631D01*
X148636966Y-94661966D01*
X148636964Y-94661969D01*
X148490966Y-94807966D01*
X148349631Y-95019490D01*
X148341897Y-95058369D01*
X148299999Y-95269000D01*
X148300000Y-95269005D01*
X148300000Y-95408750D01*
X148279000Y-95429750D01*
X148279000Y-95555001D01*
X148182010Y-95696951D01*
X148152453Y-95842908D01*
X148127577Y-95710706D01*
X148025000Y-95551297D01*
X148025000Y-95429750D01*
X147866250Y-95271000D01*
X147750690Y-95271000D01*
X147517301Y-95367673D01*
X147516298Y-95368676D01*
X147077000Y-95368676D01*
X146947410Y-95393060D01*
X146827000Y-95368676D01*
X146439324Y-95368676D01*
X146439324Y-94981000D01*
X146414940Y-94851410D01*
X146439324Y-94731000D01*
X146439324Y-94181000D01*
X146414940Y-94051410D01*
X146439324Y-93931000D01*
X146439324Y-93381000D01*
X146414940Y-93251410D01*
X146439324Y-93131000D01*
X146439324Y-92581000D01*
X146414940Y-92451410D01*
X146439324Y-92331000D01*
X146439324Y-91781000D01*
X146414940Y-91651410D01*
X146439324Y-91531000D01*
X146439324Y-90981000D01*
X146414940Y-90851410D01*
X146439324Y-90731000D01*
X146439324Y-90181000D01*
X146414940Y-90051410D01*
X146439324Y-89931000D01*
X146439324Y-89543324D01*
X146492882Y-89543324D01*
X146492857Y-89571779D01*
X146618495Y-89875846D01*
X146850930Y-90108688D01*
X147154778Y-90234856D01*
X147483779Y-90235143D01*
X147787846Y-90109505D01*
X148020688Y-89877070D01*
X148146856Y-89573222D01*
X148146882Y-89543324D01*
X148316298Y-89543324D01*
X148317301Y-89544327D01*
X148550690Y-89641000D01*
X148666250Y-89641000D01*
X148825000Y-89482250D01*
X148825000Y-89356999D01*
X148921990Y-89215049D01*
X148951547Y-89069092D01*
X148976423Y-89201294D01*
G36*
X150462608Y-86868676D02*
X150277000Y-86868676D01*
X150147410Y-86893060D01*
X150027000Y-86868676D01*
X149587702Y-86868676D01*
X149586699Y-86867673D01*
X149353310Y-86771000D01*
X149237750Y-86771000D01*
X149079000Y-86929750D01*
X149079000Y-87055001D01*
X148982010Y-87196951D01*
X148952453Y-87342908D01*
X148927577Y-87210706D01*
X148825000Y-87051297D01*
X148825000Y-86929750D01*
X148666250Y-86771000D01*
X148550690Y-86771000D01*
X148317301Y-86867673D01*
X148316298Y-86868676D01*
X147877000Y-86868676D01*
X147747410Y-86893060D01*
X147627000Y-86868676D01*
X147077000Y-86868676D01*
X146947410Y-86893060D01*
X146827000Y-86868676D01*
X146277000Y-86868676D01*
X146081706Y-86905423D01*
X145902340Y-87020842D01*
X145782010Y-87196951D01*
X145739676Y-87406000D01*
X145739676Y-88843676D01*
X144302000Y-88843676D01*
X144106706Y-88880423D01*
X143927340Y-88995842D01*
X143807010Y-89171951D01*
X143764676Y-89381000D01*
X143764676Y-89931000D01*
X143789060Y-90060590D01*
X143764676Y-90181000D01*
X143764676Y-90731000D01*
X143789060Y-90860590D01*
X143764676Y-90981000D01*
X143764676Y-91531000D01*
X143789060Y-91660590D01*
X143764676Y-91781000D01*
X143764676Y-92204000D01*
X143418068Y-92204000D01*
X141035083Y-89821015D01*
X141035143Y-89752221D01*
X140909505Y-89448154D01*
X140733000Y-89271340D01*
X140733000Y-88958948D01*
X140926294Y-88922577D01*
X141105660Y-88807158D01*
X141107000Y-88805197D01*
X141107000Y-88875309D01*
X141203673Y-89108698D01*
X141382301Y-89287327D01*
X141615690Y-89384000D01*
X142081250Y-89384000D01*
X142240000Y-89225250D01*
X142240000Y-88376000D01*
X142494000Y-88376000D01*
X142494000Y-89225250D01*
X142652750Y-89384000D01*
X143118310Y-89384000D01*
X143351699Y-89287327D01*
X143530327Y-89108698D01*
X143627000Y-88875309D01*
X143627000Y-88534750D01*
X143468250Y-88376000D01*
X142494000Y-88376000D01*
X142240000Y-88376000D01*
X142220000Y-88376000D01*
X142220000Y-88122000D01*
X142240000Y-88122000D01*
X142240000Y-88102000D01*
X142494000Y-88102000D01*
X142494000Y-88122000D01*
X143468250Y-88122000D01*
X143627000Y-87963250D01*
X143627000Y-87622691D01*
X143530327Y-87389302D01*
X143351699Y-87210673D01*
X143288460Y-87184478D01*
X143366660Y-87134158D01*
X143486990Y-86958049D01*
X143529324Y-86749000D01*
X143529324Y-86520000D01*
X146795995Y-86520000D01*
X146796000Y-86520001D01*
X146876440Y-86504000D01*
X150097932Y-86504000D01*
X150462608Y-86868676D01*
X150462608Y-86868676D01*
G37*
X150462608Y-86868676D02*
X150277000Y-86868676D01*
X150147410Y-86893060D01*
X150027000Y-86868676D01*
X149587702Y-86868676D01*
X149586699Y-86867673D01*
X149353310Y-86771000D01*
X149237750Y-86771000D01*
X149079000Y-86929750D01*
X149079000Y-87055001D01*
X148982010Y-87196951D01*
X148952453Y-87342908D01*
X148927577Y-87210706D01*
X148825000Y-87051297D01*
X148825000Y-86929750D01*
X148666250Y-86771000D01*
X148550690Y-86771000D01*
X148317301Y-86867673D01*
X148316298Y-86868676D01*
X147877000Y-86868676D01*
X147747410Y-86893060D01*
X147627000Y-86868676D01*
X147077000Y-86868676D01*
X146947410Y-86893060D01*
X146827000Y-86868676D01*
X146277000Y-86868676D01*
X146081706Y-86905423D01*
X145902340Y-87020842D01*
X145782010Y-87196951D01*
X145739676Y-87406000D01*
X145739676Y-88843676D01*
X144302000Y-88843676D01*
X144106706Y-88880423D01*
X143927340Y-88995842D01*
X143807010Y-89171951D01*
X143764676Y-89381000D01*
X143764676Y-89931000D01*
X143789060Y-90060590D01*
X143764676Y-90181000D01*
X143764676Y-90731000D01*
X143789060Y-90860590D01*
X143764676Y-90981000D01*
X143764676Y-91531000D01*
X143789060Y-91660590D01*
X143764676Y-91781000D01*
X143764676Y-92204000D01*
X143418068Y-92204000D01*
X141035083Y-89821015D01*
X141035143Y-89752221D01*
X140909505Y-89448154D01*
X140733000Y-89271340D01*
X140733000Y-88958948D01*
X140926294Y-88922577D01*
X141105660Y-88807158D01*
X141107000Y-88805197D01*
X141107000Y-88875309D01*
X141203673Y-89108698D01*
X141382301Y-89287327D01*
X141615690Y-89384000D01*
X142081250Y-89384000D01*
X142240000Y-89225250D01*
X142240000Y-88376000D01*
X142494000Y-88376000D01*
X142494000Y-89225250D01*
X142652750Y-89384000D01*
X143118310Y-89384000D01*
X143351699Y-89287327D01*
X143530327Y-89108698D01*
X143627000Y-88875309D01*
X143627000Y-88534750D01*
X143468250Y-88376000D01*
X142494000Y-88376000D01*
X142240000Y-88376000D01*
X142220000Y-88376000D01*
X142220000Y-88122000D01*
X142240000Y-88122000D01*
X142240000Y-88102000D01*
X142494000Y-88102000D01*
X142494000Y-88122000D01*
X143468250Y-88122000D01*
X143627000Y-87963250D01*
X143627000Y-87622691D01*
X143530327Y-87389302D01*
X143351699Y-87210673D01*
X143288460Y-87184478D01*
X143366660Y-87134158D01*
X143486990Y-86958049D01*
X143529324Y-86749000D01*
X143529324Y-86520000D01*
X146795995Y-86520000D01*
X146796000Y-86520001D01*
X146876440Y-86504000D01*
X150097932Y-86504000D01*
X150462608Y-86868676D01*
G36*
X127986706Y-79929423D02*
X127807340Y-80044842D01*
X127687010Y-80220951D01*
X127644676Y-80430000D01*
X127644676Y-82130000D01*
X127681423Y-82325294D01*
X127796842Y-82504660D01*
X127972951Y-82624990D01*
X128182000Y-82667324D01*
X128299215Y-82667324D01*
X128031337Y-82846314D01*
X127785797Y-83213791D01*
X127766490Y-83217631D01*
X127554966Y-83358966D01*
X126538966Y-84374966D01*
X126397631Y-84586490D01*
X126397631Y-84586491D01*
X126347999Y-84836000D01*
X126348000Y-84836005D01*
X126348000Y-86868000D01*
X126363949Y-86948181D01*
X126368399Y-87029813D01*
X126388542Y-87071818D01*
X126397631Y-87117510D01*
X126443051Y-87185487D01*
X126478400Y-87259200D01*
X128002400Y-89291200D01*
X128037083Y-89322298D01*
X128062966Y-89361034D01*
X128130946Y-89406457D01*
X128191811Y-89461029D01*
X128235755Y-89476487D01*
X128274490Y-89502369D01*
X128354668Y-89518317D01*
X128431793Y-89545448D01*
X128478313Y-89542912D01*
X128524000Y-89552000D01*
X133095995Y-89552000D01*
X133096000Y-89552001D01*
X133324355Y-89506577D01*
X133345510Y-89502369D01*
X133557034Y-89361034D01*
X137938067Y-84980000D01*
X150097932Y-84980000D01*
X150317932Y-85200000D01*
X146812000Y-85200000D01*
X146731563Y-85216000D01*
X143013352Y-85216000D01*
X142992000Y-85211676D01*
X142806699Y-85211676D01*
X142748000Y-85200000D01*
X142689301Y-85211676D01*
X141742000Y-85211676D01*
X141719020Y-85216000D01*
X139714440Y-85216000D01*
X139634000Y-85199999D01*
X139633995Y-85200000D01*
X138684005Y-85200000D01*
X138684000Y-85199999D01*
X138475887Y-85241396D01*
X138434490Y-85249631D01*
X138263560Y-85363842D01*
X138222966Y-85390966D01*
X137206966Y-86406966D01*
X137206964Y-86406969D01*
X133841932Y-89772000D01*
X126128000Y-89772000D01*
X126128000Y-80534068D01*
X126762068Y-79900000D01*
X128143076Y-79900000D01*
X127986706Y-79929423D01*
X127986706Y-79929423D01*
G37*
X127986706Y-79929423D02*
X127807340Y-80044842D01*
X127687010Y-80220951D01*
X127644676Y-80430000D01*
X127644676Y-82130000D01*
X127681423Y-82325294D01*
X127796842Y-82504660D01*
X127972951Y-82624990D01*
X128182000Y-82667324D01*
X128299215Y-82667324D01*
X128031337Y-82846314D01*
X127785797Y-83213791D01*
X127766490Y-83217631D01*
X127554966Y-83358966D01*
X126538966Y-84374966D01*
X126397631Y-84586490D01*
X126397631Y-84586491D01*
X126347999Y-84836000D01*
X126348000Y-84836005D01*
X126348000Y-86868000D01*
X126363949Y-86948181D01*
X126368399Y-87029813D01*
X126388542Y-87071818D01*
X126397631Y-87117510D01*
X126443051Y-87185487D01*
X126478400Y-87259200D01*
X128002400Y-89291200D01*
X128037083Y-89322298D01*
X128062966Y-89361034D01*
X128130946Y-89406457D01*
X128191811Y-89461029D01*
X128235755Y-89476487D01*
X128274490Y-89502369D01*
X128354668Y-89518317D01*
X128431793Y-89545448D01*
X128478313Y-89542912D01*
X128524000Y-89552000D01*
X133095995Y-89552000D01*
X133096000Y-89552001D01*
X133324355Y-89506577D01*
X133345510Y-89502369D01*
X133557034Y-89361034D01*
X137938067Y-84980000D01*
X150097932Y-84980000D01*
X150317932Y-85200000D01*
X146812000Y-85200000D01*
X146731563Y-85216000D01*
X143013352Y-85216000D01*
X142992000Y-85211676D01*
X142806699Y-85211676D01*
X142748000Y-85200000D01*
X142689301Y-85211676D01*
X141742000Y-85211676D01*
X141719020Y-85216000D01*
X139714440Y-85216000D01*
X139634000Y-85199999D01*
X139633995Y-85200000D01*
X138684005Y-85200000D01*
X138684000Y-85199999D01*
X138475887Y-85241396D01*
X138434490Y-85249631D01*
X138263560Y-85363842D01*
X138222966Y-85390966D01*
X137206966Y-86406966D01*
X137206964Y-86406969D01*
X133841932Y-89772000D01*
X126128000Y-89772000D01*
X126128000Y-80534068D01*
X126762068Y-79900000D01*
X128143076Y-79900000D01*
X127986706Y-79929423D01*
G36*
X150317932Y-83676000D02*
X137668000Y-83676000D01*
X137418490Y-83725631D01*
X137206966Y-83866966D01*
X137206964Y-83866969D01*
X132825932Y-88248000D01*
X128850000Y-88248000D01*
X128297796Y-87511728D01*
X128478068Y-87632182D01*
X129005023Y-87737000D01*
X129058977Y-87737000D01*
X129585932Y-87632182D01*
X130032663Y-87333686D01*
X130250785Y-87007244D01*
X130300355Y-87126924D01*
X130690642Y-87555183D01*
X131215108Y-87801486D01*
X131445000Y-87680819D01*
X131445000Y-86487000D01*
X131699000Y-86487000D01*
X131699000Y-87680819D01*
X131928892Y-87801486D01*
X132453358Y-87555183D01*
X132843645Y-87126924D01*
X133013476Y-86716890D01*
X132892155Y-86487000D01*
X131699000Y-86487000D01*
X131445000Y-86487000D01*
X131425000Y-86487000D01*
X131425000Y-86233000D01*
X131445000Y-86233000D01*
X131445000Y-86213000D01*
X131699000Y-86213000D01*
X131699000Y-86233000D01*
X132892155Y-86233000D01*
X133013476Y-86003110D01*
X132843645Y-85593076D01*
X132453358Y-85164817D01*
X132197238Y-85044537D01*
X132572663Y-84793686D01*
X132871159Y-84346955D01*
X132975977Y-83820000D01*
X132903573Y-83456000D01*
X150097932Y-83456000D01*
X150317932Y-83676000D01*
X150317932Y-83676000D01*
G37*
X150317932Y-83676000D02*
X137668000Y-83676000D01*
X137418490Y-83725631D01*
X137206966Y-83866966D01*
X137206964Y-83866969D01*
X132825932Y-88248000D01*
X128850000Y-88248000D01*
X128297796Y-87511728D01*
X128478068Y-87632182D01*
X129005023Y-87737000D01*
X129058977Y-87737000D01*
X129585932Y-87632182D01*
X130032663Y-87333686D01*
X130250785Y-87007244D01*
X130300355Y-87126924D01*
X130690642Y-87555183D01*
X131215108Y-87801486D01*
X131445000Y-87680819D01*
X131445000Y-86487000D01*
X131699000Y-86487000D01*
X131699000Y-87680819D01*
X131928892Y-87801486D01*
X132453358Y-87555183D01*
X132843645Y-87126924D01*
X133013476Y-86716890D01*
X132892155Y-86487000D01*
X131699000Y-86487000D01*
X131445000Y-86487000D01*
X131425000Y-86487000D01*
X131425000Y-86233000D01*
X131445000Y-86233000D01*
X131445000Y-86213000D01*
X131699000Y-86213000D01*
X131699000Y-86233000D01*
X132892155Y-86233000D01*
X133013476Y-86003110D01*
X132843645Y-85593076D01*
X132453358Y-85164817D01*
X132197238Y-85044537D01*
X132572663Y-84793686D01*
X132871159Y-84346955D01*
X132975977Y-83820000D01*
X132903573Y-83456000D01*
X150097932Y-83456000D01*
X150317932Y-83676000D01*
M02*
