M48
;DRILL file {KiCad 4.0.7-e2-6376~58~ubuntu17.04.1} date Sat Mar 10 17:53:12 2018
;FORMAT={-:-/ absolute / metric / decimal}
FMAT,2
METRIC,TZ
T1C0.400
T2C0.800
T3C0.990
T4C1.000
T5C1.270
T6C1.300
T7C2.100
%
G90
G05
M71
T1
X136.906Y-86.36
X139.7Y-107.696
X140.208Y-89.916
X143.256Y-100.838
X145.222Y-106.68
X145.796Y-104.648
X147.32Y-89.408
X147.828Y-118.872
X149.479Y-92.329
X152.4Y-86.36
X152.4Y-98.298
X153.416Y-87.884
X154.305Y-120.142
X160.528Y-91.44
X160.528Y-92.456
X160.528Y-93.472
X160.528Y-94.488
X178.308Y-106.172
T2
X149.86Y-111.76
X149.86Y-114.26
X156.972Y-109.728
X156.972Y-117.348
X159.512Y-109.728
X159.512Y-117.348
X162.052Y-109.728
X162.052Y-117.348
X164.592Y-109.728
X164.592Y-117.348
T3
X149.987Y-78.867
X154.487Y-78.867
T4
X129.032Y-81.28
X129.032Y-83.82
X129.032Y-86.36
X131.572Y-81.28
X131.572Y-83.82
X131.572Y-86.36
X163.449Y-79.502
X165.989Y-79.502
X172.974Y-84.328
X172.974Y-89.408
X179.324Y-84.328
X179.324Y-86.868
X179.324Y-89.408
X181.483Y-98.044
X181.483Y-100.584
T5
X122.936Y-94.768
X122.936Y-104.368
X133.096Y-92.068
X133.096Y-99.568
X133.096Y-107.068
X136.156Y-94.368
X136.156Y-104.768
T6
X148.737Y-81.357
X155.747Y-81.357
T7
X170.688Y-112.268
X175.768Y-112.268
X180.848Y-112.268
T0
M30
