G04 #@! TF.FileFunction,Legend,Top*
%FSLAX46Y46*%
G04 Gerber Fmt 4.6, Leading zero omitted, Abs format (unit mm)*
G04 Created by KiCad (PCBNEW 4.0.7-e2-6376~58~ubuntu17.04.1) date Sat Mar 10 17:53:06 2018*
%MOMM*%
%LPD*%
G01*
G04 APERTURE LIST*
%ADD10C,0.100000*%
%ADD11C,0.300000*%
%ADD12C,0.200000*%
%ADD13C,0.250000*%
%ADD14C,0.150000*%
%ADD15C,0.120000*%
%ADD16C,0.010000*%
G04 APERTURE END LIST*
D10*
D11*
X177292857Y-101958429D02*
X176092857Y-101958429D01*
X176092857Y-101501286D01*
X176150000Y-101387000D01*
X176207143Y-101329857D01*
X176321429Y-101272714D01*
X176492857Y-101272714D01*
X176607143Y-101329857D01*
X176664286Y-101387000D01*
X176721429Y-101501286D01*
X176721429Y-101958429D01*
X176092857Y-100529857D02*
X176092857Y-100301286D01*
X176150000Y-100187000D01*
X176264286Y-100072714D01*
X176492857Y-100015572D01*
X176892857Y-100015572D01*
X177121429Y-100072714D01*
X177235714Y-100187000D01*
X177292857Y-100301286D01*
X177292857Y-100529857D01*
X177235714Y-100644143D01*
X177121429Y-100758429D01*
X176892857Y-100815572D01*
X176492857Y-100815572D01*
X176264286Y-100758429D01*
X176150000Y-100644143D01*
X176092857Y-100529857D01*
X176092857Y-99615571D02*
X177292857Y-99329857D01*
X176435714Y-99101286D01*
X177292857Y-98872714D01*
X176092857Y-98587000D01*
X176664286Y-98129857D02*
X176664286Y-97729857D01*
X177292857Y-97558428D02*
X177292857Y-98129857D01*
X176092857Y-98129857D01*
X176092857Y-97558428D01*
X177292857Y-96358428D02*
X176721429Y-96758428D01*
X177292857Y-97044143D02*
X176092857Y-97044143D01*
X176092857Y-96587000D01*
X176150000Y-96472714D01*
X176207143Y-96415571D01*
X176321429Y-96358428D01*
X176492857Y-96358428D01*
X176607143Y-96415571D01*
X176664286Y-96472714D01*
X176721429Y-96587000D01*
X176721429Y-97044143D01*
X178935714Y-100787000D02*
X178935714Y-99872714D01*
X179392857Y-100329857D02*
X178478571Y-100329857D01*
X178992857Y-98101285D02*
X178992857Y-98558428D01*
X178992857Y-97415571D02*
X178992857Y-97872714D01*
D12*
X147066000Y-94996000D02*
G75*
G03X147066000Y-94996000I-254000J0D01*
G01*
D11*
X159968429Y-80037714D02*
X159897000Y-80109143D01*
X159682714Y-80180571D01*
X159539857Y-80180571D01*
X159325572Y-80109143D01*
X159182714Y-79966286D01*
X159111286Y-79823429D01*
X159039857Y-79537714D01*
X159039857Y-79323429D01*
X159111286Y-79037714D01*
X159182714Y-78894857D01*
X159325572Y-78752000D01*
X159539857Y-78680571D01*
X159682714Y-78680571D01*
X159897000Y-78752000D01*
X159968429Y-78823429D01*
X160397000Y-78680571D02*
X160897000Y-80180571D01*
X161397000Y-78680571D01*
D12*
X175387000Y-102489000D02*
X175387000Y-96012000D01*
X183261000Y-102489000D02*
X175387000Y-102489000D01*
X183261000Y-96012000D02*
X183261000Y-102489000D01*
X175387000Y-96012000D02*
X183261000Y-96012000D01*
D13*
X133699238Y-80732381D02*
X134032571Y-81732381D01*
X134365905Y-80732381D01*
X135270667Y-81637143D02*
X135223048Y-81684762D01*
X135080191Y-81732381D01*
X134984953Y-81732381D01*
X134842095Y-81684762D01*
X134746857Y-81589524D01*
X134699238Y-81494286D01*
X134651619Y-81303810D01*
X134651619Y-81160952D01*
X134699238Y-80970476D01*
X134746857Y-80875238D01*
X134842095Y-80780000D01*
X134984953Y-80732381D01*
X135080191Y-80732381D01*
X135223048Y-80780000D01*
X135270667Y-80827619D01*
X136270667Y-81637143D02*
X136223048Y-81684762D01*
X136080191Y-81732381D01*
X135984953Y-81732381D01*
X135842095Y-81684762D01*
X135746857Y-81589524D01*
X135699238Y-81494286D01*
X135651619Y-81303810D01*
X135651619Y-81160952D01*
X135699238Y-80970476D01*
X135746857Y-80875238D01*
X135842095Y-80780000D01*
X135984953Y-80732381D01*
X136080191Y-80732381D01*
X136223048Y-80780000D01*
X136270667Y-80827619D01*
X133842095Y-84272381D02*
X133842095Y-83272381D01*
X134175429Y-83986667D01*
X134508762Y-83272381D01*
X134508762Y-84272381D01*
X135175428Y-83272381D02*
X135365905Y-83272381D01*
X135461143Y-83320000D01*
X135556381Y-83415238D01*
X135604000Y-83605714D01*
X135604000Y-83939048D01*
X135556381Y-84129524D01*
X135461143Y-84224762D01*
X135365905Y-84272381D01*
X135175428Y-84272381D01*
X135080190Y-84224762D01*
X134984952Y-84129524D01*
X134937333Y-83939048D01*
X134937333Y-83605714D01*
X134984952Y-83415238D01*
X135080190Y-83320000D01*
X135175428Y-83272381D01*
X135984952Y-84224762D02*
X136127809Y-84272381D01*
X136365905Y-84272381D01*
X136461143Y-84224762D01*
X136508762Y-84177143D01*
X136556381Y-84081905D01*
X136556381Y-83986667D01*
X136508762Y-83891429D01*
X136461143Y-83843810D01*
X136365905Y-83796190D01*
X136175428Y-83748571D01*
X136080190Y-83700952D01*
X136032571Y-83653333D01*
X135984952Y-83558095D01*
X135984952Y-83462857D01*
X136032571Y-83367619D01*
X136080190Y-83320000D01*
X136175428Y-83272381D01*
X136413524Y-83272381D01*
X136556381Y-83320000D01*
X136984952Y-84272381D02*
X136984952Y-83272381D01*
X134365905Y-85860000D02*
X134270667Y-85812381D01*
X134127810Y-85812381D01*
X133984952Y-85860000D01*
X133889714Y-85955238D01*
X133842095Y-86050476D01*
X133794476Y-86240952D01*
X133794476Y-86383810D01*
X133842095Y-86574286D01*
X133889714Y-86669524D01*
X133984952Y-86764762D01*
X134127810Y-86812381D01*
X134223048Y-86812381D01*
X134365905Y-86764762D01*
X134413524Y-86717143D01*
X134413524Y-86383810D01*
X134223048Y-86383810D01*
X134842095Y-86812381D02*
X134842095Y-85812381D01*
X135413524Y-86812381D01*
X135413524Y-85812381D01*
X135889714Y-86812381D02*
X135889714Y-85812381D01*
X136127809Y-85812381D01*
X136270667Y-85860000D01*
X136365905Y-85955238D01*
X136413524Y-86050476D01*
X136461143Y-86240952D01*
X136461143Y-86383810D01*
X136413524Y-86574286D01*
X136365905Y-86669524D01*
X136270667Y-86764762D01*
X136127809Y-86812381D01*
X135889714Y-86812381D01*
X123285714Y-86812381D02*
X122952380Y-86336190D01*
X122714285Y-86812381D02*
X122714285Y-85812381D01*
X123095238Y-85812381D01*
X123190476Y-85860000D01*
X123238095Y-85907619D01*
X123285714Y-86002857D01*
X123285714Y-86145714D01*
X123238095Y-86240952D01*
X123190476Y-86288571D01*
X123095238Y-86336190D01*
X122714285Y-86336190D01*
X123714285Y-86288571D02*
X124047619Y-86288571D01*
X124190476Y-86812381D02*
X123714285Y-86812381D01*
X123714285Y-85812381D01*
X124190476Y-85812381D01*
X124571428Y-86764762D02*
X124714285Y-86812381D01*
X124952381Y-86812381D01*
X125047619Y-86764762D01*
X125095238Y-86717143D01*
X125142857Y-86621905D01*
X125142857Y-86526667D01*
X125095238Y-86431429D01*
X125047619Y-86383810D01*
X124952381Y-86336190D01*
X124761904Y-86288571D01*
X124666666Y-86240952D01*
X124619047Y-86193333D01*
X124571428Y-86098095D01*
X124571428Y-86002857D01*
X124619047Y-85907619D01*
X124666666Y-85860000D01*
X124761904Y-85812381D01*
X125000000Y-85812381D01*
X125142857Y-85860000D01*
X125571428Y-86288571D02*
X125904762Y-86288571D01*
X126047619Y-86812381D02*
X125571428Y-86812381D01*
X125571428Y-85812381D01*
X126047619Y-85812381D01*
X126333333Y-85812381D02*
X126904762Y-85812381D01*
X126619047Y-86812381D02*
X126619047Y-85812381D01*
X124238095Y-84224762D02*
X124380952Y-84272381D01*
X124619048Y-84272381D01*
X124714286Y-84224762D01*
X124761905Y-84177143D01*
X124809524Y-84081905D01*
X124809524Y-83986667D01*
X124761905Y-83891429D01*
X124714286Y-83843810D01*
X124619048Y-83796190D01*
X124428571Y-83748571D01*
X124333333Y-83700952D01*
X124285714Y-83653333D01*
X124238095Y-83558095D01*
X124238095Y-83462857D01*
X124285714Y-83367619D01*
X124333333Y-83320000D01*
X124428571Y-83272381D01*
X124666667Y-83272381D01*
X124809524Y-83320000D01*
X125809524Y-84177143D02*
X125761905Y-84224762D01*
X125619048Y-84272381D01*
X125523810Y-84272381D01*
X125380952Y-84224762D01*
X125285714Y-84129524D01*
X125238095Y-84034286D01*
X125190476Y-83843810D01*
X125190476Y-83700952D01*
X125238095Y-83510476D01*
X125285714Y-83415238D01*
X125380952Y-83320000D01*
X125523810Y-83272381D01*
X125619048Y-83272381D01*
X125761905Y-83320000D01*
X125809524Y-83367619D01*
X126238095Y-84272381D02*
X126238095Y-83272381D01*
X126809524Y-84272381D02*
X126380952Y-83700952D01*
X126809524Y-83272381D02*
X126238095Y-83843810D01*
X123619048Y-81732381D02*
X123619048Y-80732381D01*
X123952382Y-81446667D01*
X124285715Y-80732381D01*
X124285715Y-81732381D01*
X124761905Y-81732381D02*
X124761905Y-80732381D01*
X125190476Y-81684762D02*
X125333333Y-81732381D01*
X125571429Y-81732381D01*
X125666667Y-81684762D01*
X125714286Y-81637143D01*
X125761905Y-81541905D01*
X125761905Y-81446667D01*
X125714286Y-81351429D01*
X125666667Y-81303810D01*
X125571429Y-81256190D01*
X125380952Y-81208571D01*
X125285714Y-81160952D01*
X125238095Y-81113333D01*
X125190476Y-81018095D01*
X125190476Y-80922857D01*
X125238095Y-80827619D01*
X125285714Y-80780000D01*
X125380952Y-80732381D01*
X125619048Y-80732381D01*
X125761905Y-80780000D01*
X126380952Y-80732381D02*
X126571429Y-80732381D01*
X126666667Y-80780000D01*
X126761905Y-80875238D01*
X126809524Y-81065714D01*
X126809524Y-81399048D01*
X126761905Y-81589524D01*
X126666667Y-81684762D01*
X126571429Y-81732381D01*
X126380952Y-81732381D01*
X126285714Y-81684762D01*
X126190476Y-81589524D01*
X126142857Y-81399048D01*
X126142857Y-81065714D01*
X126190476Y-80875238D01*
X126285714Y-80780000D01*
X126380952Y-80732381D01*
D14*
X120396000Y-122428000D02*
X120396000Y-76708000D01*
X183896000Y-122428000D02*
X120396000Y-122428000D01*
X183896000Y-122428000D02*
X183896000Y-76708000D01*
X183896000Y-76708000D02*
X120396000Y-76708000D01*
D15*
X155582000Y-114538000D02*
X155582000Y-116308000D01*
X155582000Y-116308000D02*
X165982000Y-116308000D01*
X165982000Y-116308000D02*
X165982000Y-110768000D01*
X165982000Y-110768000D02*
X155582000Y-110768000D01*
X155582000Y-110768000D02*
X155582000Y-112538000D01*
X155582000Y-112538000D02*
G75*
G02X155582000Y-114538000I0J-1000000D01*
G01*
X175177000Y-97241000D02*
X173057000Y-97241000D01*
X175177000Y-100441000D02*
X175177000Y-97241000D01*
X173057000Y-97241000D02*
X173057000Y-100441000D01*
D14*
X145727000Y-96081000D02*
X145952000Y-96081000D01*
X145727000Y-88831000D02*
X146052000Y-88831000D01*
X152977000Y-88831000D02*
X152652000Y-88831000D01*
X152977000Y-96081000D02*
X152652000Y-96081000D01*
X145727000Y-96081000D02*
X145727000Y-95756000D01*
X152977000Y-96081000D02*
X152977000Y-95756000D01*
X152977000Y-88831000D02*
X152977000Y-89156000D01*
X145727000Y-88831000D02*
X145727000Y-89156000D01*
X145952000Y-96081000D02*
X145952000Y-97506000D01*
D15*
X151039723Y-115315722D02*
G75*
G03X151040000Y-110704420I-1179723J2305722D01*
G01*
X148680277Y-115315722D02*
G75*
G02X148680000Y-110704420I1179723J2305722D01*
G01*
X148680277Y-115315722D02*
G75*
G03X151040000Y-115315580I1179723J2305722D01*
G01*
X152410000Y-113010000D02*
X147310000Y-113010000D01*
X152410000Y-113050000D02*
X147310000Y-113050000D01*
X152409000Y-113090000D02*
X147311000Y-113090000D01*
X152408000Y-113130000D02*
X147312000Y-113130000D01*
X152406000Y-113170000D02*
X147314000Y-113170000D01*
X152403000Y-113210000D02*
X147317000Y-113210000D01*
X152399000Y-113250000D02*
X147321000Y-113250000D01*
X152395000Y-113290000D02*
X150840000Y-113290000D01*
X148880000Y-113290000D02*
X147325000Y-113290000D01*
X152391000Y-113330000D02*
X150840000Y-113330000D01*
X148880000Y-113330000D02*
X147329000Y-113330000D01*
X152385000Y-113370000D02*
X150840000Y-113370000D01*
X148880000Y-113370000D02*
X147335000Y-113370000D01*
X152379000Y-113410000D02*
X150840000Y-113410000D01*
X148880000Y-113410000D02*
X147341000Y-113410000D01*
X152373000Y-113450000D02*
X150840000Y-113450000D01*
X148880000Y-113450000D02*
X147347000Y-113450000D01*
X152366000Y-113490000D02*
X150840000Y-113490000D01*
X148880000Y-113490000D02*
X147354000Y-113490000D01*
X152358000Y-113530000D02*
X150840000Y-113530000D01*
X148880000Y-113530000D02*
X147362000Y-113530000D01*
X152349000Y-113570000D02*
X150840000Y-113570000D01*
X148880000Y-113570000D02*
X147371000Y-113570000D01*
X152340000Y-113610000D02*
X150840000Y-113610000D01*
X148880000Y-113610000D02*
X147380000Y-113610000D01*
X152330000Y-113650000D02*
X150840000Y-113650000D01*
X148880000Y-113650000D02*
X147390000Y-113650000D01*
X152320000Y-113690000D02*
X150840000Y-113690000D01*
X148880000Y-113690000D02*
X147400000Y-113690000D01*
X152308000Y-113731000D02*
X150840000Y-113731000D01*
X148880000Y-113731000D02*
X147412000Y-113731000D01*
X152296000Y-113771000D02*
X150840000Y-113771000D01*
X148880000Y-113771000D02*
X147424000Y-113771000D01*
X152284000Y-113811000D02*
X150840000Y-113811000D01*
X148880000Y-113811000D02*
X147436000Y-113811000D01*
X152270000Y-113851000D02*
X150840000Y-113851000D01*
X148880000Y-113851000D02*
X147450000Y-113851000D01*
X152256000Y-113891000D02*
X150840000Y-113891000D01*
X148880000Y-113891000D02*
X147464000Y-113891000D01*
X152242000Y-113931000D02*
X150840000Y-113931000D01*
X148880000Y-113931000D02*
X147478000Y-113931000D01*
X152226000Y-113971000D02*
X150840000Y-113971000D01*
X148880000Y-113971000D02*
X147494000Y-113971000D01*
X152210000Y-114011000D02*
X150840000Y-114011000D01*
X148880000Y-114011000D02*
X147510000Y-114011000D01*
X152193000Y-114051000D02*
X150840000Y-114051000D01*
X148880000Y-114051000D02*
X147527000Y-114051000D01*
X152175000Y-114091000D02*
X150840000Y-114091000D01*
X148880000Y-114091000D02*
X147545000Y-114091000D01*
X152156000Y-114131000D02*
X150840000Y-114131000D01*
X148880000Y-114131000D02*
X147564000Y-114131000D01*
X152136000Y-114171000D02*
X150840000Y-114171000D01*
X148880000Y-114171000D02*
X147584000Y-114171000D01*
X152116000Y-114211000D02*
X150840000Y-114211000D01*
X148880000Y-114211000D02*
X147604000Y-114211000D01*
X152094000Y-114251000D02*
X150840000Y-114251000D01*
X148880000Y-114251000D02*
X147626000Y-114251000D01*
X152072000Y-114291000D02*
X150840000Y-114291000D01*
X148880000Y-114291000D02*
X147648000Y-114291000D01*
X152049000Y-114331000D02*
X150840000Y-114331000D01*
X148880000Y-114331000D02*
X147671000Y-114331000D01*
X152025000Y-114371000D02*
X150840000Y-114371000D01*
X148880000Y-114371000D02*
X147695000Y-114371000D01*
X152000000Y-114411000D02*
X150840000Y-114411000D01*
X148880000Y-114411000D02*
X147720000Y-114411000D01*
X151973000Y-114451000D02*
X150840000Y-114451000D01*
X148880000Y-114451000D02*
X147747000Y-114451000D01*
X151946000Y-114491000D02*
X150840000Y-114491000D01*
X148880000Y-114491000D02*
X147774000Y-114491000D01*
X151918000Y-114531000D02*
X150840000Y-114531000D01*
X148880000Y-114531000D02*
X147802000Y-114531000D01*
X151888000Y-114571000D02*
X150840000Y-114571000D01*
X148880000Y-114571000D02*
X147832000Y-114571000D01*
X151857000Y-114611000D02*
X150840000Y-114611000D01*
X148880000Y-114611000D02*
X147863000Y-114611000D01*
X151825000Y-114651000D02*
X150840000Y-114651000D01*
X148880000Y-114651000D02*
X147895000Y-114651000D01*
X151792000Y-114691000D02*
X150840000Y-114691000D01*
X148880000Y-114691000D02*
X147928000Y-114691000D01*
X151757000Y-114731000D02*
X150840000Y-114731000D01*
X148880000Y-114731000D02*
X147963000Y-114731000D01*
X151721000Y-114771000D02*
X150840000Y-114771000D01*
X148880000Y-114771000D02*
X147999000Y-114771000D01*
X151683000Y-114811000D02*
X150840000Y-114811000D01*
X148880000Y-114811000D02*
X148037000Y-114811000D01*
X151643000Y-114851000D02*
X150840000Y-114851000D01*
X148880000Y-114851000D02*
X148077000Y-114851000D01*
X151602000Y-114891000D02*
X150840000Y-114891000D01*
X148880000Y-114891000D02*
X148118000Y-114891000D01*
X151559000Y-114931000D02*
X150840000Y-114931000D01*
X148880000Y-114931000D02*
X148161000Y-114931000D01*
X151514000Y-114971000D02*
X150840000Y-114971000D01*
X148880000Y-114971000D02*
X148206000Y-114971000D01*
X151466000Y-115011000D02*
X150840000Y-115011000D01*
X148880000Y-115011000D02*
X148254000Y-115011000D01*
X151416000Y-115051000D02*
X150840000Y-115051000D01*
X148880000Y-115051000D02*
X148304000Y-115051000D01*
X151364000Y-115091000D02*
X150840000Y-115091000D01*
X148880000Y-115091000D02*
X148356000Y-115091000D01*
X151308000Y-115131000D02*
X150840000Y-115131000D01*
X148880000Y-115131000D02*
X148412000Y-115131000D01*
X151250000Y-115171000D02*
X150840000Y-115171000D01*
X148880000Y-115171000D02*
X148470000Y-115171000D01*
X151187000Y-115211000D02*
X150840000Y-115211000D01*
X148880000Y-115211000D02*
X148533000Y-115211000D01*
X151121000Y-115251000D02*
X148599000Y-115251000D01*
X151049000Y-115291000D02*
X148671000Y-115291000D01*
X150972000Y-115331000D02*
X148748000Y-115331000D01*
X150888000Y-115371000D02*
X148832000Y-115371000D01*
X150794000Y-115411000D02*
X148926000Y-115411000D01*
X150689000Y-115451000D02*
X149031000Y-115451000D01*
X150567000Y-115491000D02*
X149153000Y-115491000D01*
X150419000Y-115531000D02*
X149301000Y-115531000D01*
X150214000Y-115571000D02*
X149506000Y-115571000D01*
X149860000Y-109560000D02*
X149860000Y-110760000D01*
X150510000Y-110160000D02*
X149210000Y-110160000D01*
X127702000Y-87690000D02*
X132902000Y-87690000D01*
X127702000Y-82550000D02*
X127702000Y-87690000D01*
X132902000Y-79950000D02*
X132902000Y-87690000D01*
X127702000Y-82550000D02*
X130302000Y-82550000D01*
X130302000Y-82550000D02*
X130302000Y-79950000D01*
X130302000Y-79950000D02*
X132902000Y-79950000D01*
X127702000Y-81280000D02*
X127702000Y-79950000D01*
X127702000Y-79950000D02*
X129032000Y-79950000D01*
X148590000Y-77597000D02*
X155887000Y-77597000D01*
X155887000Y-77597000D02*
X155887000Y-80167000D01*
X149987000Y-81897000D02*
X154487000Y-81897000D01*
X148590000Y-77597000D02*
X148590000Y-80167000D01*
X158388000Y-94684000D02*
X157588000Y-94684000D01*
X158388000Y-91244000D02*
X157588000Y-91244000D01*
D16*
G36*
X127140257Y-112789689D02*
X127404780Y-112789725D01*
X127527912Y-112789730D01*
X129498811Y-112789730D01*
X129498811Y-112905910D01*
X129511211Y-113047291D01*
X129548636Y-113177684D01*
X129611423Y-113297862D01*
X129699906Y-113408602D01*
X129729843Y-113438511D01*
X129837534Y-113523348D01*
X129956275Y-113585221D01*
X130082540Y-113624159D01*
X130212803Y-113640190D01*
X130343535Y-113633342D01*
X130471212Y-113603643D01*
X130592305Y-113551120D01*
X130703288Y-113475803D01*
X130753132Y-113430363D01*
X130846017Y-113318952D01*
X130914127Y-113196435D01*
X130956871Y-113064215D01*
X130973653Y-112923692D01*
X130973876Y-112909867D01*
X130974756Y-112789734D01*
X131027557Y-112789732D01*
X131074396Y-112796089D01*
X131117183Y-112811556D01*
X131120011Y-112813154D01*
X131129675Y-112818168D01*
X131138549Y-112822073D01*
X131146665Y-112826007D01*
X131154057Y-112831106D01*
X131160755Y-112838508D01*
X131166792Y-112849351D01*
X131172199Y-112864772D01*
X131177010Y-112885909D01*
X131181255Y-112913899D01*
X131184968Y-112949879D01*
X131188179Y-112994987D01*
X131190922Y-113050360D01*
X131193228Y-113117137D01*
X131195129Y-113196453D01*
X131196658Y-113289447D01*
X131197846Y-113397257D01*
X131198726Y-113521019D01*
X131199330Y-113661871D01*
X131199689Y-113820950D01*
X131199835Y-113999395D01*
X131199802Y-114198342D01*
X131199620Y-114418929D01*
X131199323Y-114662293D01*
X131198941Y-114929572D01*
X131198508Y-115221903D01*
X131198055Y-115540424D01*
X131198002Y-115579230D01*
X131197596Y-115899782D01*
X131197251Y-116194012D01*
X131196931Y-116463056D01*
X131196600Y-116708052D01*
X131196221Y-116930137D01*
X131195757Y-117130447D01*
X131195172Y-117310119D01*
X131194430Y-117470290D01*
X131193494Y-117612098D01*
X131192327Y-117736679D01*
X131190893Y-117845170D01*
X131189156Y-117938707D01*
X131187078Y-118018429D01*
X131184624Y-118085472D01*
X131181756Y-118140973D01*
X131178439Y-118186068D01*
X131174636Y-118221895D01*
X131170310Y-118249591D01*
X131165425Y-118270293D01*
X131159945Y-118285137D01*
X131153832Y-118295260D01*
X131147050Y-118301800D01*
X131139563Y-118305893D01*
X131131334Y-118308676D01*
X131122327Y-118311287D01*
X131112505Y-118314862D01*
X131110106Y-118315950D01*
X131102565Y-118318396D01*
X131089944Y-118320642D01*
X131071141Y-118322698D01*
X131045053Y-118324572D01*
X131010578Y-118326271D01*
X130966615Y-118327803D01*
X130912061Y-118329177D01*
X130845815Y-118330400D01*
X130766774Y-118331481D01*
X130673837Y-118332427D01*
X130565901Y-118333247D01*
X130441864Y-118333947D01*
X130300624Y-118334538D01*
X130141079Y-118335025D01*
X129962128Y-118335419D01*
X129762668Y-118335725D01*
X129541596Y-118335953D01*
X129297812Y-118336110D01*
X129030213Y-118336205D01*
X128737697Y-118336245D01*
X128419161Y-118336238D01*
X128315979Y-118336228D01*
X127990377Y-118336176D01*
X127691119Y-118336091D01*
X127417091Y-118335963D01*
X127167176Y-118335785D01*
X126940260Y-118335548D01*
X126735227Y-118335242D01*
X126550962Y-118334860D01*
X126386350Y-118334392D01*
X126240275Y-118333830D01*
X126111624Y-118333165D01*
X125999279Y-118332388D01*
X125902126Y-118331491D01*
X125819050Y-118330465D01*
X125748936Y-118329301D01*
X125690668Y-118327991D01*
X125643131Y-118326525D01*
X125605210Y-118324896D01*
X125575790Y-118323093D01*
X125553755Y-118321110D01*
X125537990Y-118318936D01*
X125527380Y-118316563D01*
X125521596Y-118314391D01*
X125511316Y-118310056D01*
X125501878Y-118306859D01*
X125493245Y-118303665D01*
X125485381Y-118299338D01*
X125478252Y-118292744D01*
X125471821Y-118282747D01*
X125466053Y-118268212D01*
X125460911Y-118248003D01*
X125456360Y-118220985D01*
X125452365Y-118186023D01*
X125448889Y-118141981D01*
X125445898Y-118087724D01*
X125443354Y-118022117D01*
X125441223Y-117944024D01*
X125439468Y-117852310D01*
X125438055Y-117745840D01*
X125437685Y-117704973D01*
X125804116Y-117704973D01*
X127099266Y-117704973D01*
X127074345Y-117667217D01*
X127049553Y-117628417D01*
X127028560Y-117591469D01*
X127011065Y-117553788D01*
X126996770Y-117512788D01*
X126985377Y-117465883D01*
X126976587Y-117410487D01*
X126970102Y-117344016D01*
X126965623Y-117263883D01*
X126962850Y-117167502D01*
X126961487Y-117052289D01*
X126961233Y-116915657D01*
X126961791Y-116755020D01*
X126962107Y-116695382D01*
X126965675Y-116056041D01*
X127370702Y-116607449D01*
X127485446Y-116763876D01*
X127584857Y-116900088D01*
X127670010Y-117017890D01*
X127741978Y-117119084D01*
X127801834Y-117205477D01*
X127850652Y-117278874D01*
X127889505Y-117341077D01*
X127919466Y-117393893D01*
X127941609Y-117439125D01*
X127957007Y-117478578D01*
X127966734Y-117514058D01*
X127971863Y-117547368D01*
X127973468Y-117580313D01*
X127972621Y-117614697D01*
X127972405Y-117619019D01*
X127967946Y-117705031D01*
X129387308Y-117704973D01*
X129281735Y-117598522D01*
X129253087Y-117569406D01*
X129225910Y-117541076D01*
X129199011Y-117511968D01*
X129171197Y-117480520D01*
X129141275Y-117445169D01*
X129108054Y-117404354D01*
X129070339Y-117356511D01*
X129026940Y-117300079D01*
X128976662Y-117233494D01*
X128918312Y-117155195D01*
X128850700Y-117063619D01*
X128772631Y-116957204D01*
X128682912Y-116834387D01*
X128580352Y-116693605D01*
X128463758Y-116533297D01*
X128368191Y-116401798D01*
X128248251Y-116236596D01*
X128143620Y-116092152D01*
X128053352Y-115967094D01*
X127976497Y-115860052D01*
X127912109Y-115769654D01*
X127859239Y-115694529D01*
X127816940Y-115633304D01*
X127784264Y-115584610D01*
X127760262Y-115547074D01*
X127743987Y-115519325D01*
X127734492Y-115499992D01*
X127730827Y-115487703D01*
X127731929Y-115481242D01*
X127745276Y-115464048D01*
X127774134Y-115427655D01*
X127816760Y-115374224D01*
X127871415Y-115305919D01*
X127936356Y-115224903D01*
X128009842Y-115133340D01*
X128090132Y-115033392D01*
X128175485Y-114927224D01*
X128264160Y-114816997D01*
X128354414Y-114704876D01*
X128404056Y-114643244D01*
X129636627Y-114643244D01*
X129687854Y-114735919D01*
X129739081Y-114828595D01*
X129739081Y-117519622D01*
X129687854Y-117612298D01*
X129636627Y-117704973D01*
X130242604Y-117704973D01*
X130387266Y-117704931D01*
X130506756Y-117704741D01*
X130603358Y-117704308D01*
X130679358Y-117703536D01*
X130737043Y-117702330D01*
X130778699Y-117700594D01*
X130806611Y-117698232D01*
X130823065Y-117695150D01*
X130830348Y-117691251D01*
X130830745Y-117686440D01*
X130826542Y-117680622D01*
X130826499Y-117680574D01*
X130809187Y-117655532D01*
X130786264Y-117614815D01*
X130766019Y-117574168D01*
X130727621Y-117492162D01*
X130719789Y-114643244D01*
X129636627Y-114643244D01*
X128404056Y-114643244D01*
X128444507Y-114593024D01*
X128532698Y-114483604D01*
X128617246Y-114378778D01*
X128696408Y-114280711D01*
X128768444Y-114191566D01*
X128831613Y-114113505D01*
X128884173Y-114048692D01*
X128924383Y-113999290D01*
X128948000Y-113970487D01*
X129039710Y-113862778D01*
X129127940Y-113765580D01*
X129209597Y-113682076D01*
X129281590Y-113615448D01*
X129332681Y-113574599D01*
X129393093Y-113531135D01*
X128003702Y-113531135D01*
X128004092Y-113612666D01*
X128000209Y-113672606D01*
X127985610Y-113728177D01*
X127963012Y-113780855D01*
X127948322Y-113810615D01*
X127932528Y-113840103D01*
X127914186Y-113871276D01*
X127891855Y-113906093D01*
X127864091Y-113946510D01*
X127829451Y-113994486D01*
X127786493Y-114051978D01*
X127733773Y-114120943D01*
X127669849Y-114203339D01*
X127593279Y-114301124D01*
X127502619Y-114416255D01*
X127396426Y-114550690D01*
X127384432Y-114565859D01*
X126965675Y-115095412D01*
X126961622Y-114508922D01*
X126960805Y-114333251D01*
X126960979Y-114184532D01*
X126962151Y-114062275D01*
X126964331Y-113965989D01*
X126967526Y-113895183D01*
X126971744Y-113849369D01*
X126973162Y-113840679D01*
X126995409Y-113749135D01*
X127024557Y-113666608D01*
X127057818Y-113600253D01*
X127077800Y-113572110D01*
X127112278Y-113531135D01*
X126458086Y-113531135D01*
X126302031Y-113531269D01*
X126171533Y-113531703D01*
X126064690Y-113532489D01*
X125979602Y-113533676D01*
X125914365Y-113535317D01*
X125867079Y-113537461D01*
X125835843Y-113540159D01*
X125818754Y-113543462D01*
X125813912Y-113547421D01*
X125814247Y-113548298D01*
X125828115Y-113569231D01*
X125851268Y-113602412D01*
X125863246Y-113619193D01*
X125875631Y-113635940D01*
X125886763Y-113650915D01*
X125896712Y-113665594D01*
X125905549Y-113681449D01*
X125913343Y-113699955D01*
X125920165Y-113722585D01*
X125926084Y-113750813D01*
X125931171Y-113786113D01*
X125935496Y-113829958D01*
X125939129Y-113883822D01*
X125942140Y-113949180D01*
X125944599Y-114027504D01*
X125946577Y-114120268D01*
X125948142Y-114228947D01*
X125949366Y-114355013D01*
X125950319Y-114499942D01*
X125951070Y-114665206D01*
X125951689Y-114852279D01*
X125952248Y-115062635D01*
X125952815Y-115297748D01*
X125953345Y-115513741D01*
X125953845Y-115754535D01*
X125954105Y-115984274D01*
X125954132Y-116201493D01*
X125953933Y-116404722D01*
X125953514Y-116592496D01*
X125952882Y-116763345D01*
X125952044Y-116915803D01*
X125951008Y-117048403D01*
X125949780Y-117159676D01*
X125948367Y-117248156D01*
X125946775Y-117312375D01*
X125945013Y-117350865D01*
X125944679Y-117354933D01*
X125932534Y-117448248D01*
X125913573Y-117523190D01*
X125884698Y-117588594D01*
X125842810Y-117653293D01*
X125837571Y-117660352D01*
X125804116Y-117704973D01*
X125437685Y-117704973D01*
X125436946Y-117623479D01*
X125436107Y-117484090D01*
X125435502Y-117326539D01*
X125435095Y-117149691D01*
X125434850Y-116952410D01*
X125434733Y-116733560D01*
X125434705Y-116492007D01*
X125434733Y-116226615D01*
X125434780Y-115936249D01*
X125434810Y-115619773D01*
X125434811Y-115556946D01*
X125434828Y-115237137D01*
X125434888Y-114943661D01*
X125434998Y-114675390D01*
X125435167Y-114431198D01*
X125435403Y-114209957D01*
X125435716Y-114010540D01*
X125436115Y-113831820D01*
X125436607Y-113672671D01*
X125437203Y-113531966D01*
X125437910Y-113408576D01*
X125438737Y-113301376D01*
X125439693Y-113209238D01*
X125440787Y-113131035D01*
X125442027Y-113065641D01*
X125443422Y-113011928D01*
X125444982Y-112968769D01*
X125446714Y-112935037D01*
X125448628Y-112909605D01*
X125450732Y-112891347D01*
X125453034Y-112879134D01*
X125455545Y-112871841D01*
X125455637Y-112871659D01*
X125460808Y-112860518D01*
X125465115Y-112850431D01*
X125469879Y-112841346D01*
X125476422Y-112833212D01*
X125486065Y-112825976D01*
X125500129Y-112819586D01*
X125519937Y-112813989D01*
X125546809Y-112809133D01*
X125582067Y-112804966D01*
X125627032Y-112801436D01*
X125683026Y-112798491D01*
X125751371Y-112796077D01*
X125833386Y-112794144D01*
X125930395Y-112792638D01*
X126043718Y-112791508D01*
X126174677Y-112790702D01*
X126324593Y-112790166D01*
X126494787Y-112789849D01*
X126686582Y-112789699D01*
X126901298Y-112789663D01*
X127140257Y-112789689D01*
X127140257Y-112789689D01*
G37*
X127140257Y-112789689D02*
X127404780Y-112789725D01*
X127527912Y-112789730D01*
X129498811Y-112789730D01*
X129498811Y-112905910D01*
X129511211Y-113047291D01*
X129548636Y-113177684D01*
X129611423Y-113297862D01*
X129699906Y-113408602D01*
X129729843Y-113438511D01*
X129837534Y-113523348D01*
X129956275Y-113585221D01*
X130082540Y-113624159D01*
X130212803Y-113640190D01*
X130343535Y-113633342D01*
X130471212Y-113603643D01*
X130592305Y-113551120D01*
X130703288Y-113475803D01*
X130753132Y-113430363D01*
X130846017Y-113318952D01*
X130914127Y-113196435D01*
X130956871Y-113064215D01*
X130973653Y-112923692D01*
X130973876Y-112909867D01*
X130974756Y-112789734D01*
X131027557Y-112789732D01*
X131074396Y-112796089D01*
X131117183Y-112811556D01*
X131120011Y-112813154D01*
X131129675Y-112818168D01*
X131138549Y-112822073D01*
X131146665Y-112826007D01*
X131154057Y-112831106D01*
X131160755Y-112838508D01*
X131166792Y-112849351D01*
X131172199Y-112864772D01*
X131177010Y-112885909D01*
X131181255Y-112913899D01*
X131184968Y-112949879D01*
X131188179Y-112994987D01*
X131190922Y-113050360D01*
X131193228Y-113117137D01*
X131195129Y-113196453D01*
X131196658Y-113289447D01*
X131197846Y-113397257D01*
X131198726Y-113521019D01*
X131199330Y-113661871D01*
X131199689Y-113820950D01*
X131199835Y-113999395D01*
X131199802Y-114198342D01*
X131199620Y-114418929D01*
X131199323Y-114662293D01*
X131198941Y-114929572D01*
X131198508Y-115221903D01*
X131198055Y-115540424D01*
X131198002Y-115579230D01*
X131197596Y-115899782D01*
X131197251Y-116194012D01*
X131196931Y-116463056D01*
X131196600Y-116708052D01*
X131196221Y-116930137D01*
X131195757Y-117130447D01*
X131195172Y-117310119D01*
X131194430Y-117470290D01*
X131193494Y-117612098D01*
X131192327Y-117736679D01*
X131190893Y-117845170D01*
X131189156Y-117938707D01*
X131187078Y-118018429D01*
X131184624Y-118085472D01*
X131181756Y-118140973D01*
X131178439Y-118186068D01*
X131174636Y-118221895D01*
X131170310Y-118249591D01*
X131165425Y-118270293D01*
X131159945Y-118285137D01*
X131153832Y-118295260D01*
X131147050Y-118301800D01*
X131139563Y-118305893D01*
X131131334Y-118308676D01*
X131122327Y-118311287D01*
X131112505Y-118314862D01*
X131110106Y-118315950D01*
X131102565Y-118318396D01*
X131089944Y-118320642D01*
X131071141Y-118322698D01*
X131045053Y-118324572D01*
X131010578Y-118326271D01*
X130966615Y-118327803D01*
X130912061Y-118329177D01*
X130845815Y-118330400D01*
X130766774Y-118331481D01*
X130673837Y-118332427D01*
X130565901Y-118333247D01*
X130441864Y-118333947D01*
X130300624Y-118334538D01*
X130141079Y-118335025D01*
X129962128Y-118335419D01*
X129762668Y-118335725D01*
X129541596Y-118335953D01*
X129297812Y-118336110D01*
X129030213Y-118336205D01*
X128737697Y-118336245D01*
X128419161Y-118336238D01*
X128315979Y-118336228D01*
X127990377Y-118336176D01*
X127691119Y-118336091D01*
X127417091Y-118335963D01*
X127167176Y-118335785D01*
X126940260Y-118335548D01*
X126735227Y-118335242D01*
X126550962Y-118334860D01*
X126386350Y-118334392D01*
X126240275Y-118333830D01*
X126111624Y-118333165D01*
X125999279Y-118332388D01*
X125902126Y-118331491D01*
X125819050Y-118330465D01*
X125748936Y-118329301D01*
X125690668Y-118327991D01*
X125643131Y-118326525D01*
X125605210Y-118324896D01*
X125575790Y-118323093D01*
X125553755Y-118321110D01*
X125537990Y-118318936D01*
X125527380Y-118316563D01*
X125521596Y-118314391D01*
X125511316Y-118310056D01*
X125501878Y-118306859D01*
X125493245Y-118303665D01*
X125485381Y-118299338D01*
X125478252Y-118292744D01*
X125471821Y-118282747D01*
X125466053Y-118268212D01*
X125460911Y-118248003D01*
X125456360Y-118220985D01*
X125452365Y-118186023D01*
X125448889Y-118141981D01*
X125445898Y-118087724D01*
X125443354Y-118022117D01*
X125441223Y-117944024D01*
X125439468Y-117852310D01*
X125438055Y-117745840D01*
X125437685Y-117704973D01*
X125804116Y-117704973D01*
X127099266Y-117704973D01*
X127074345Y-117667217D01*
X127049553Y-117628417D01*
X127028560Y-117591469D01*
X127011065Y-117553788D01*
X126996770Y-117512788D01*
X126985377Y-117465883D01*
X126976587Y-117410487D01*
X126970102Y-117344016D01*
X126965623Y-117263883D01*
X126962850Y-117167502D01*
X126961487Y-117052289D01*
X126961233Y-116915657D01*
X126961791Y-116755020D01*
X126962107Y-116695382D01*
X126965675Y-116056041D01*
X127370702Y-116607449D01*
X127485446Y-116763876D01*
X127584857Y-116900088D01*
X127670010Y-117017890D01*
X127741978Y-117119084D01*
X127801834Y-117205477D01*
X127850652Y-117278874D01*
X127889505Y-117341077D01*
X127919466Y-117393893D01*
X127941609Y-117439125D01*
X127957007Y-117478578D01*
X127966734Y-117514058D01*
X127971863Y-117547368D01*
X127973468Y-117580313D01*
X127972621Y-117614697D01*
X127972405Y-117619019D01*
X127967946Y-117705031D01*
X129387308Y-117704973D01*
X129281735Y-117598522D01*
X129253087Y-117569406D01*
X129225910Y-117541076D01*
X129199011Y-117511968D01*
X129171197Y-117480520D01*
X129141275Y-117445169D01*
X129108054Y-117404354D01*
X129070339Y-117356511D01*
X129026940Y-117300079D01*
X128976662Y-117233494D01*
X128918312Y-117155195D01*
X128850700Y-117063619D01*
X128772631Y-116957204D01*
X128682912Y-116834387D01*
X128580352Y-116693605D01*
X128463758Y-116533297D01*
X128368191Y-116401798D01*
X128248251Y-116236596D01*
X128143620Y-116092152D01*
X128053352Y-115967094D01*
X127976497Y-115860052D01*
X127912109Y-115769654D01*
X127859239Y-115694529D01*
X127816940Y-115633304D01*
X127784264Y-115584610D01*
X127760262Y-115547074D01*
X127743987Y-115519325D01*
X127734492Y-115499992D01*
X127730827Y-115487703D01*
X127731929Y-115481242D01*
X127745276Y-115464048D01*
X127774134Y-115427655D01*
X127816760Y-115374224D01*
X127871415Y-115305919D01*
X127936356Y-115224903D01*
X128009842Y-115133340D01*
X128090132Y-115033392D01*
X128175485Y-114927224D01*
X128264160Y-114816997D01*
X128354414Y-114704876D01*
X128404056Y-114643244D01*
X129636627Y-114643244D01*
X129687854Y-114735919D01*
X129739081Y-114828595D01*
X129739081Y-117519622D01*
X129687854Y-117612298D01*
X129636627Y-117704973D01*
X130242604Y-117704973D01*
X130387266Y-117704931D01*
X130506756Y-117704741D01*
X130603358Y-117704308D01*
X130679358Y-117703536D01*
X130737043Y-117702330D01*
X130778699Y-117700594D01*
X130806611Y-117698232D01*
X130823065Y-117695150D01*
X130830348Y-117691251D01*
X130830745Y-117686440D01*
X130826542Y-117680622D01*
X130826499Y-117680574D01*
X130809187Y-117655532D01*
X130786264Y-117614815D01*
X130766019Y-117574168D01*
X130727621Y-117492162D01*
X130719789Y-114643244D01*
X129636627Y-114643244D01*
X128404056Y-114643244D01*
X128444507Y-114593024D01*
X128532698Y-114483604D01*
X128617246Y-114378778D01*
X128696408Y-114280711D01*
X128768444Y-114191566D01*
X128831613Y-114113505D01*
X128884173Y-114048692D01*
X128924383Y-113999290D01*
X128948000Y-113970487D01*
X129039710Y-113862778D01*
X129127940Y-113765580D01*
X129209597Y-113682076D01*
X129281590Y-113615448D01*
X129332681Y-113574599D01*
X129393093Y-113531135D01*
X128003702Y-113531135D01*
X128004092Y-113612666D01*
X128000209Y-113672606D01*
X127985610Y-113728177D01*
X127963012Y-113780855D01*
X127948322Y-113810615D01*
X127932528Y-113840103D01*
X127914186Y-113871276D01*
X127891855Y-113906093D01*
X127864091Y-113946510D01*
X127829451Y-113994486D01*
X127786493Y-114051978D01*
X127733773Y-114120943D01*
X127669849Y-114203339D01*
X127593279Y-114301124D01*
X127502619Y-114416255D01*
X127396426Y-114550690D01*
X127384432Y-114565859D01*
X126965675Y-115095412D01*
X126961622Y-114508922D01*
X126960805Y-114333251D01*
X126960979Y-114184532D01*
X126962151Y-114062275D01*
X126964331Y-113965989D01*
X126967526Y-113895183D01*
X126971744Y-113849369D01*
X126973162Y-113840679D01*
X126995409Y-113749135D01*
X127024557Y-113666608D01*
X127057818Y-113600253D01*
X127077800Y-113572110D01*
X127112278Y-113531135D01*
X126458086Y-113531135D01*
X126302031Y-113531269D01*
X126171533Y-113531703D01*
X126064690Y-113532489D01*
X125979602Y-113533676D01*
X125914365Y-113535317D01*
X125867079Y-113537461D01*
X125835843Y-113540159D01*
X125818754Y-113543462D01*
X125813912Y-113547421D01*
X125814247Y-113548298D01*
X125828115Y-113569231D01*
X125851268Y-113602412D01*
X125863246Y-113619193D01*
X125875631Y-113635940D01*
X125886763Y-113650915D01*
X125896712Y-113665594D01*
X125905549Y-113681449D01*
X125913343Y-113699955D01*
X125920165Y-113722585D01*
X125926084Y-113750813D01*
X125931171Y-113786113D01*
X125935496Y-113829958D01*
X125939129Y-113883822D01*
X125942140Y-113949180D01*
X125944599Y-114027504D01*
X125946577Y-114120268D01*
X125948142Y-114228947D01*
X125949366Y-114355013D01*
X125950319Y-114499942D01*
X125951070Y-114665206D01*
X125951689Y-114852279D01*
X125952248Y-115062635D01*
X125952815Y-115297748D01*
X125953345Y-115513741D01*
X125953845Y-115754535D01*
X125954105Y-115984274D01*
X125954132Y-116201493D01*
X125953933Y-116404722D01*
X125953514Y-116592496D01*
X125952882Y-116763345D01*
X125952044Y-116915803D01*
X125951008Y-117048403D01*
X125949780Y-117159676D01*
X125948367Y-117248156D01*
X125946775Y-117312375D01*
X125945013Y-117350865D01*
X125944679Y-117354933D01*
X125932534Y-117448248D01*
X125913573Y-117523190D01*
X125884698Y-117588594D01*
X125842810Y-117653293D01*
X125837571Y-117660352D01*
X125804116Y-117704973D01*
X125437685Y-117704973D01*
X125436946Y-117623479D01*
X125436107Y-117484090D01*
X125435502Y-117326539D01*
X125435095Y-117149691D01*
X125434850Y-116952410D01*
X125434733Y-116733560D01*
X125434705Y-116492007D01*
X125434733Y-116226615D01*
X125434780Y-115936249D01*
X125434810Y-115619773D01*
X125434811Y-115556946D01*
X125434828Y-115237137D01*
X125434888Y-114943661D01*
X125434998Y-114675390D01*
X125435167Y-114431198D01*
X125435403Y-114209957D01*
X125435716Y-114010540D01*
X125436115Y-113831820D01*
X125436607Y-113672671D01*
X125437203Y-113531966D01*
X125437910Y-113408576D01*
X125438737Y-113301376D01*
X125439693Y-113209238D01*
X125440787Y-113131035D01*
X125442027Y-113065641D01*
X125443422Y-113011928D01*
X125444982Y-112968769D01*
X125446714Y-112935037D01*
X125448628Y-112909605D01*
X125450732Y-112891347D01*
X125453034Y-112879134D01*
X125455545Y-112871841D01*
X125455637Y-112871659D01*
X125460808Y-112860518D01*
X125465115Y-112850431D01*
X125469879Y-112841346D01*
X125476422Y-112833212D01*
X125486065Y-112825976D01*
X125500129Y-112819586D01*
X125519937Y-112813989D01*
X125546809Y-112809133D01*
X125582067Y-112804966D01*
X125627032Y-112801436D01*
X125683026Y-112798491D01*
X125751371Y-112796077D01*
X125833386Y-112794144D01*
X125930395Y-112792638D01*
X126043718Y-112791508D01*
X126174677Y-112790702D01*
X126324593Y-112790166D01*
X126494787Y-112789849D01*
X126686582Y-112789699D01*
X126901298Y-112789663D01*
X127140257Y-112789689D01*
G36*
X133535962Y-113476499D02*
X133684014Y-113492707D01*
X133827452Y-113521718D01*
X133972110Y-113565045D01*
X134123824Y-113624201D01*
X134288428Y-113700700D01*
X134318071Y-113715517D01*
X134386098Y-113749031D01*
X134450256Y-113779208D01*
X134504215Y-113803166D01*
X134541640Y-113818024D01*
X134547389Y-113819895D01*
X134602486Y-113836402D01*
X134355851Y-114195201D01*
X134295552Y-114282893D01*
X134240422Y-114363012D01*
X134192336Y-114432836D01*
X134153168Y-114489647D01*
X134124794Y-114530723D01*
X134109087Y-114553346D01*
X134106536Y-114556928D01*
X134096171Y-114549438D01*
X134070660Y-114526918D01*
X134034563Y-114493461D01*
X134014642Y-114474550D01*
X133901773Y-114384778D01*
X133775014Y-114316561D01*
X133665783Y-114279195D01*
X133600214Y-114267460D01*
X133518116Y-114260308D01*
X133429144Y-114257874D01*
X133342956Y-114260288D01*
X133269205Y-114267683D01*
X133239776Y-114273347D01*
X133107133Y-114318982D01*
X132987606Y-114388663D01*
X132881283Y-114482260D01*
X132788253Y-114599649D01*
X132708605Y-114740700D01*
X132642426Y-114905286D01*
X132589806Y-115093280D01*
X132558533Y-115254217D01*
X132550374Y-115325263D01*
X132544815Y-115417046D01*
X132541802Y-115522968D01*
X132541281Y-115636434D01*
X132543200Y-115750849D01*
X132547503Y-115859617D01*
X132554137Y-115956143D01*
X132563049Y-116033831D01*
X132564979Y-116045817D01*
X132607499Y-116238892D01*
X132665433Y-116409773D01*
X132739133Y-116559224D01*
X132828951Y-116688011D01*
X132892707Y-116757639D01*
X133007286Y-116852173D01*
X133132942Y-116922246D01*
X133267557Y-116967477D01*
X133409011Y-116987484D01*
X133555183Y-116981885D01*
X133703955Y-116950300D01*
X133791911Y-116919394D01*
X133913629Y-116857506D01*
X134039080Y-116768729D01*
X134109353Y-116708694D01*
X134148811Y-116673947D01*
X134179812Y-116648454D01*
X134197458Y-116636170D01*
X134199648Y-116635795D01*
X134207524Y-116648347D01*
X134227932Y-116681516D01*
X134259132Y-116732458D01*
X134299386Y-116798331D01*
X134346957Y-116876289D01*
X134400104Y-116963490D01*
X134429687Y-117012067D01*
X134655648Y-117383215D01*
X134373527Y-117522639D01*
X134271522Y-117572719D01*
X134188889Y-117612210D01*
X134120578Y-117643073D01*
X134061537Y-117667268D01*
X134006714Y-117686758D01*
X133951060Y-117703503D01*
X133889523Y-117719465D01*
X133830540Y-117733482D01*
X133778115Y-117744329D01*
X133723288Y-117752526D01*
X133660572Y-117758528D01*
X133584477Y-117762790D01*
X133489516Y-117765767D01*
X133425513Y-117767052D01*
X133334192Y-117767930D01*
X133246627Y-117767487D01*
X133168612Y-117765852D01*
X133105942Y-117763149D01*
X133064413Y-117759505D01*
X133061952Y-117759142D01*
X132846303Y-117712487D01*
X132643793Y-117641729D01*
X132454495Y-117546914D01*
X132278479Y-117428089D01*
X132115816Y-117285300D01*
X131966578Y-117118594D01*
X131858496Y-116970433D01*
X131743434Y-116776502D01*
X131650423Y-116571699D01*
X131579013Y-116354383D01*
X131528756Y-116122912D01*
X131499201Y-115875643D01*
X131489889Y-115624559D01*
X131497548Y-115381670D01*
X131521613Y-115157570D01*
X131562852Y-114948477D01*
X131622027Y-114750613D01*
X131699904Y-114560196D01*
X131709203Y-114540468D01*
X131811648Y-114356059D01*
X131937472Y-114180576D01*
X132083112Y-114017650D01*
X132245001Y-113870914D01*
X132419576Y-113744001D01*
X132582244Y-113650905D01*
X132746573Y-113577991D01*
X132911251Y-113525174D01*
X133082652Y-113491015D01*
X133267153Y-113474078D01*
X133377459Y-113471580D01*
X133535962Y-113476499D01*
X133535962Y-113476499D01*
G37*
X133535962Y-113476499D02*
X133684014Y-113492707D01*
X133827452Y-113521718D01*
X133972110Y-113565045D01*
X134123824Y-113624201D01*
X134288428Y-113700700D01*
X134318071Y-113715517D01*
X134386098Y-113749031D01*
X134450256Y-113779208D01*
X134504215Y-113803166D01*
X134541640Y-113818024D01*
X134547389Y-113819895D01*
X134602486Y-113836402D01*
X134355851Y-114195201D01*
X134295552Y-114282893D01*
X134240422Y-114363012D01*
X134192336Y-114432836D01*
X134153168Y-114489647D01*
X134124794Y-114530723D01*
X134109087Y-114553346D01*
X134106536Y-114556928D01*
X134096171Y-114549438D01*
X134070660Y-114526918D01*
X134034563Y-114493461D01*
X134014642Y-114474550D01*
X133901773Y-114384778D01*
X133775014Y-114316561D01*
X133665783Y-114279195D01*
X133600214Y-114267460D01*
X133518116Y-114260308D01*
X133429144Y-114257874D01*
X133342956Y-114260288D01*
X133269205Y-114267683D01*
X133239776Y-114273347D01*
X133107133Y-114318982D01*
X132987606Y-114388663D01*
X132881283Y-114482260D01*
X132788253Y-114599649D01*
X132708605Y-114740700D01*
X132642426Y-114905286D01*
X132589806Y-115093280D01*
X132558533Y-115254217D01*
X132550374Y-115325263D01*
X132544815Y-115417046D01*
X132541802Y-115522968D01*
X132541281Y-115636434D01*
X132543200Y-115750849D01*
X132547503Y-115859617D01*
X132554137Y-115956143D01*
X132563049Y-116033831D01*
X132564979Y-116045817D01*
X132607499Y-116238892D01*
X132665433Y-116409773D01*
X132739133Y-116559224D01*
X132828951Y-116688011D01*
X132892707Y-116757639D01*
X133007286Y-116852173D01*
X133132942Y-116922246D01*
X133267557Y-116967477D01*
X133409011Y-116987484D01*
X133555183Y-116981885D01*
X133703955Y-116950300D01*
X133791911Y-116919394D01*
X133913629Y-116857506D01*
X134039080Y-116768729D01*
X134109353Y-116708694D01*
X134148811Y-116673947D01*
X134179812Y-116648454D01*
X134197458Y-116636170D01*
X134199648Y-116635795D01*
X134207524Y-116648347D01*
X134227932Y-116681516D01*
X134259132Y-116732458D01*
X134299386Y-116798331D01*
X134346957Y-116876289D01*
X134400104Y-116963490D01*
X134429687Y-117012067D01*
X134655648Y-117383215D01*
X134373527Y-117522639D01*
X134271522Y-117572719D01*
X134188889Y-117612210D01*
X134120578Y-117643073D01*
X134061537Y-117667268D01*
X134006714Y-117686758D01*
X133951060Y-117703503D01*
X133889523Y-117719465D01*
X133830540Y-117733482D01*
X133778115Y-117744329D01*
X133723288Y-117752526D01*
X133660572Y-117758528D01*
X133584477Y-117762790D01*
X133489516Y-117765767D01*
X133425513Y-117767052D01*
X133334192Y-117767930D01*
X133246627Y-117767487D01*
X133168612Y-117765852D01*
X133105942Y-117763149D01*
X133064413Y-117759505D01*
X133061952Y-117759142D01*
X132846303Y-117712487D01*
X132643793Y-117641729D01*
X132454495Y-117546914D01*
X132278479Y-117428089D01*
X132115816Y-117285300D01*
X131966578Y-117118594D01*
X131858496Y-116970433D01*
X131743434Y-116776502D01*
X131650423Y-116571699D01*
X131579013Y-116354383D01*
X131528756Y-116122912D01*
X131499201Y-115875643D01*
X131489889Y-115624559D01*
X131497548Y-115381670D01*
X131521613Y-115157570D01*
X131562852Y-114948477D01*
X131622027Y-114750613D01*
X131699904Y-114560196D01*
X131709203Y-114540468D01*
X131811648Y-114356059D01*
X131937472Y-114180576D01*
X132083112Y-114017650D01*
X132245001Y-113870914D01*
X132419576Y-113744001D01*
X132582244Y-113650905D01*
X132746573Y-113577991D01*
X132911251Y-113525174D01*
X133082652Y-113491015D01*
X133267153Y-113474078D01*
X133377459Y-113471580D01*
X133535962Y-113476499D01*
G36*
X136263505Y-114580229D02*
X136331531Y-114585378D01*
X136526163Y-114611273D01*
X136698529Y-114652575D01*
X136849470Y-114709853D01*
X136979825Y-114783674D01*
X137090434Y-114874608D01*
X137182135Y-114983222D01*
X137255770Y-115110085D01*
X137309539Y-115247352D01*
X137323187Y-115291137D01*
X137335073Y-115332141D01*
X137345334Y-115372569D01*
X137354113Y-115414630D01*
X137361548Y-115460531D01*
X137367780Y-115512480D01*
X137372950Y-115572685D01*
X137377196Y-115643352D01*
X137380660Y-115726689D01*
X137383481Y-115824905D01*
X137385800Y-115940205D01*
X137387757Y-116074799D01*
X137389491Y-116230893D01*
X137391143Y-116410695D01*
X137392324Y-116551676D01*
X137400270Y-117519622D01*
X137451756Y-117612770D01*
X137476137Y-117657645D01*
X137494280Y-117692501D01*
X137502935Y-117711054D01*
X137503243Y-117712311D01*
X137490014Y-117713749D01*
X137452326Y-117715074D01*
X137393183Y-117716249D01*
X137315586Y-117717237D01*
X137222536Y-117717999D01*
X137117035Y-117718500D01*
X137002084Y-117718701D01*
X136988378Y-117718703D01*
X136473513Y-117718703D01*
X136473513Y-117602000D01*
X136472635Y-117549260D01*
X136470292Y-117508926D01*
X136466921Y-117487300D01*
X136465431Y-117485298D01*
X136451804Y-117493683D01*
X136423757Y-117515692D01*
X136387303Y-117546601D01*
X136386485Y-117547316D01*
X136319962Y-117596843D01*
X136235948Y-117646575D01*
X136143937Y-117691626D01*
X136053421Y-117727110D01*
X136013567Y-117739236D01*
X135934255Y-117754637D01*
X135836935Y-117764465D01*
X135730516Y-117768580D01*
X135623907Y-117766841D01*
X135526017Y-117759108D01*
X135457513Y-117747981D01*
X135289520Y-117698648D01*
X135138281Y-117628342D01*
X135004782Y-117537933D01*
X134890006Y-117428295D01*
X134794937Y-117300299D01*
X134720560Y-117154818D01*
X134688474Y-117066541D01*
X134668365Y-116980739D01*
X134655038Y-116877736D01*
X134648872Y-116767034D01*
X134649074Y-116750925D01*
X135577648Y-116750925D01*
X135585348Y-116833184D01*
X135610989Y-116901546D01*
X135658378Y-116964970D01*
X135676579Y-116983567D01*
X135741282Y-117033846D01*
X135816066Y-117066056D01*
X135905662Y-117081648D01*
X136000012Y-117082796D01*
X136089501Y-117075216D01*
X136158018Y-117060389D01*
X136187775Y-117049253D01*
X136241408Y-117018904D01*
X136298235Y-116976221D01*
X136350082Y-116928317D01*
X136388778Y-116882301D01*
X136399054Y-116865421D01*
X136407042Y-116841782D01*
X136412721Y-116804168D01*
X136416356Y-116748985D01*
X136418211Y-116672640D01*
X136418594Y-116599981D01*
X136418335Y-116515270D01*
X136417287Y-116454018D01*
X136415045Y-116412227D01*
X136411206Y-116385899D01*
X136405365Y-116371035D01*
X136397118Y-116363639D01*
X136394567Y-116362461D01*
X136372400Y-116358833D01*
X136328680Y-116355866D01*
X136269311Y-116353827D01*
X136200196Y-116352983D01*
X136185189Y-116352982D01*
X136092805Y-116354457D01*
X136021432Y-116358842D01*
X135964719Y-116366738D01*
X135917872Y-116378270D01*
X135801669Y-116422215D01*
X135710543Y-116476243D01*
X135643705Y-116541219D01*
X135600365Y-116618005D01*
X135579734Y-116707467D01*
X135577648Y-116750925D01*
X134649074Y-116750925D01*
X134650244Y-116658133D01*
X134659532Y-116560536D01*
X134666777Y-116521105D01*
X134713039Y-116374701D01*
X134783384Y-116239995D01*
X134876484Y-116118280D01*
X134991012Y-116010847D01*
X135125640Y-115918988D01*
X135279040Y-115843996D01*
X135409459Y-115798458D01*
X135496623Y-115774533D01*
X135579996Y-115755943D01*
X135664976Y-115742084D01*
X135756965Y-115732351D01*
X135861362Y-115726141D01*
X135983568Y-115722851D01*
X136094055Y-115721924D01*
X136421677Y-115721027D01*
X136415401Y-115622547D01*
X136397579Y-115515695D01*
X136359667Y-115423852D01*
X136303280Y-115349310D01*
X136230031Y-115294364D01*
X136165535Y-115267552D01*
X136073123Y-115250654D01*
X135963111Y-115248227D01*
X135840656Y-115259378D01*
X135710914Y-115283210D01*
X135579042Y-115318830D01*
X135450198Y-115365343D01*
X135356566Y-115407883D01*
X135311517Y-115429728D01*
X135277156Y-115444984D01*
X135259681Y-115450937D01*
X135258733Y-115450746D01*
X135252703Y-115437412D01*
X135237645Y-115402068D01*
X135214977Y-115348101D01*
X135186115Y-115278896D01*
X135152477Y-115197840D01*
X135118284Y-115115118D01*
X134981586Y-114783803D01*
X135078820Y-114767833D01*
X135120964Y-114759820D01*
X135184319Y-114746361D01*
X135263457Y-114728679D01*
X135352951Y-114707996D01*
X135447373Y-114685532D01*
X135484973Y-114676403D01*
X135647637Y-114638674D01*
X135790050Y-114610388D01*
X135917527Y-114590972D01*
X136035384Y-114579854D01*
X136148938Y-114576464D01*
X136263505Y-114580229D01*
X136263505Y-114580229D01*
G37*
X136263505Y-114580229D02*
X136331531Y-114585378D01*
X136526163Y-114611273D01*
X136698529Y-114652575D01*
X136849470Y-114709853D01*
X136979825Y-114783674D01*
X137090434Y-114874608D01*
X137182135Y-114983222D01*
X137255770Y-115110085D01*
X137309539Y-115247352D01*
X137323187Y-115291137D01*
X137335073Y-115332141D01*
X137345334Y-115372569D01*
X137354113Y-115414630D01*
X137361548Y-115460531D01*
X137367780Y-115512480D01*
X137372950Y-115572685D01*
X137377196Y-115643352D01*
X137380660Y-115726689D01*
X137383481Y-115824905D01*
X137385800Y-115940205D01*
X137387757Y-116074799D01*
X137389491Y-116230893D01*
X137391143Y-116410695D01*
X137392324Y-116551676D01*
X137400270Y-117519622D01*
X137451756Y-117612770D01*
X137476137Y-117657645D01*
X137494280Y-117692501D01*
X137502935Y-117711054D01*
X137503243Y-117712311D01*
X137490014Y-117713749D01*
X137452326Y-117715074D01*
X137393183Y-117716249D01*
X137315586Y-117717237D01*
X137222536Y-117717999D01*
X137117035Y-117718500D01*
X137002084Y-117718701D01*
X136988378Y-117718703D01*
X136473513Y-117718703D01*
X136473513Y-117602000D01*
X136472635Y-117549260D01*
X136470292Y-117508926D01*
X136466921Y-117487300D01*
X136465431Y-117485298D01*
X136451804Y-117493683D01*
X136423757Y-117515692D01*
X136387303Y-117546601D01*
X136386485Y-117547316D01*
X136319962Y-117596843D01*
X136235948Y-117646575D01*
X136143937Y-117691626D01*
X136053421Y-117727110D01*
X136013567Y-117739236D01*
X135934255Y-117754637D01*
X135836935Y-117764465D01*
X135730516Y-117768580D01*
X135623907Y-117766841D01*
X135526017Y-117759108D01*
X135457513Y-117747981D01*
X135289520Y-117698648D01*
X135138281Y-117628342D01*
X135004782Y-117537933D01*
X134890006Y-117428295D01*
X134794937Y-117300299D01*
X134720560Y-117154818D01*
X134688474Y-117066541D01*
X134668365Y-116980739D01*
X134655038Y-116877736D01*
X134648872Y-116767034D01*
X134649074Y-116750925D01*
X135577648Y-116750925D01*
X135585348Y-116833184D01*
X135610989Y-116901546D01*
X135658378Y-116964970D01*
X135676579Y-116983567D01*
X135741282Y-117033846D01*
X135816066Y-117066056D01*
X135905662Y-117081648D01*
X136000012Y-117082796D01*
X136089501Y-117075216D01*
X136158018Y-117060389D01*
X136187775Y-117049253D01*
X136241408Y-117018904D01*
X136298235Y-116976221D01*
X136350082Y-116928317D01*
X136388778Y-116882301D01*
X136399054Y-116865421D01*
X136407042Y-116841782D01*
X136412721Y-116804168D01*
X136416356Y-116748985D01*
X136418211Y-116672640D01*
X136418594Y-116599981D01*
X136418335Y-116515270D01*
X136417287Y-116454018D01*
X136415045Y-116412227D01*
X136411206Y-116385899D01*
X136405365Y-116371035D01*
X136397118Y-116363639D01*
X136394567Y-116362461D01*
X136372400Y-116358833D01*
X136328680Y-116355866D01*
X136269311Y-116353827D01*
X136200196Y-116352983D01*
X136185189Y-116352982D01*
X136092805Y-116354457D01*
X136021432Y-116358842D01*
X135964719Y-116366738D01*
X135917872Y-116378270D01*
X135801669Y-116422215D01*
X135710543Y-116476243D01*
X135643705Y-116541219D01*
X135600365Y-116618005D01*
X135579734Y-116707467D01*
X135577648Y-116750925D01*
X134649074Y-116750925D01*
X134650244Y-116658133D01*
X134659532Y-116560536D01*
X134666777Y-116521105D01*
X134713039Y-116374701D01*
X134783384Y-116239995D01*
X134876484Y-116118280D01*
X134991012Y-116010847D01*
X135125640Y-115918988D01*
X135279040Y-115843996D01*
X135409459Y-115798458D01*
X135496623Y-115774533D01*
X135579996Y-115755943D01*
X135664976Y-115742084D01*
X135756965Y-115732351D01*
X135861362Y-115726141D01*
X135983568Y-115722851D01*
X136094055Y-115721924D01*
X136421677Y-115721027D01*
X136415401Y-115622547D01*
X136397579Y-115515695D01*
X136359667Y-115423852D01*
X136303280Y-115349310D01*
X136230031Y-115294364D01*
X136165535Y-115267552D01*
X136073123Y-115250654D01*
X135963111Y-115248227D01*
X135840656Y-115259378D01*
X135710914Y-115283210D01*
X135579042Y-115318830D01*
X135450198Y-115365343D01*
X135356566Y-115407883D01*
X135311517Y-115429728D01*
X135277156Y-115444984D01*
X135259681Y-115450937D01*
X135258733Y-115450746D01*
X135252703Y-115437412D01*
X135237645Y-115402068D01*
X135214977Y-115348101D01*
X135186115Y-115278896D01*
X135152477Y-115197840D01*
X135118284Y-115115118D01*
X134981586Y-114783803D01*
X135078820Y-114767833D01*
X135120964Y-114759820D01*
X135184319Y-114746361D01*
X135263457Y-114728679D01*
X135352951Y-114707996D01*
X135447373Y-114685532D01*
X135484973Y-114676403D01*
X135647637Y-114638674D01*
X135790050Y-114610388D01*
X135917527Y-114590972D01*
X136035384Y-114579854D01*
X136148938Y-114576464D01*
X136263505Y-114580229D01*
G36*
X139938270Y-113272825D02*
X140055041Y-113273304D01*
X140094729Y-113273545D01*
X140640486Y-113277135D01*
X140647351Y-115370919D01*
X140648258Y-115654842D01*
X140649062Y-115912640D01*
X140649815Y-116145646D01*
X140650569Y-116355194D01*
X140651375Y-116542618D01*
X140652285Y-116709250D01*
X140653351Y-116856425D01*
X140654624Y-116985477D01*
X140656156Y-117097739D01*
X140657998Y-117194544D01*
X140660203Y-117277226D01*
X140662822Y-117347119D01*
X140665906Y-117405557D01*
X140669508Y-117453872D01*
X140673678Y-117493400D01*
X140678469Y-117525473D01*
X140683931Y-117551424D01*
X140690118Y-117572589D01*
X140697080Y-117590299D01*
X140704869Y-117605889D01*
X140713537Y-117620693D01*
X140723135Y-117636044D01*
X140733715Y-117653276D01*
X140735884Y-117656946D01*
X140772268Y-117719031D01*
X140246431Y-117715434D01*
X139720594Y-117711838D01*
X139713729Y-117596331D01*
X139709992Y-117540899D01*
X139706097Y-117508851D01*
X139700811Y-117496135D01*
X139692903Y-117498696D01*
X139686270Y-117506024D01*
X139657374Y-117532714D01*
X139610279Y-117567021D01*
X139551620Y-117604846D01*
X139488031Y-117642090D01*
X139426149Y-117674653D01*
X139378634Y-117696077D01*
X139267316Y-117731283D01*
X139139596Y-117756222D01*
X139004901Y-117769941D01*
X138872663Y-117771486D01*
X138752308Y-117759906D01*
X138750326Y-117759574D01*
X138585641Y-117718250D01*
X138431479Y-117652412D01*
X138289328Y-117563474D01*
X138160675Y-117452852D01*
X138047007Y-117321961D01*
X137949810Y-117172216D01*
X137870572Y-117005033D01*
X137827430Y-116881190D01*
X137798979Y-116777581D01*
X137777880Y-116677252D01*
X137763488Y-116574109D01*
X137755158Y-116462057D01*
X137752245Y-116335001D01*
X137753535Y-116231252D01*
X138766650Y-116231252D01*
X138771444Y-116405222D01*
X138786568Y-116554895D01*
X138812485Y-116681597D01*
X138849663Y-116786658D01*
X138898565Y-116871406D01*
X138959658Y-116937169D01*
X139030177Y-116983659D01*
X139066871Y-117001014D01*
X139098696Y-117011419D01*
X139134177Y-117016179D01*
X139181841Y-117016601D01*
X139233189Y-117014748D01*
X139334169Y-117005841D01*
X139414035Y-116988398D01*
X139439135Y-116979661D01*
X139496448Y-116953857D01*
X139556897Y-116921453D01*
X139583297Y-116905233D01*
X139651946Y-116860205D01*
X139651946Y-115432982D01*
X139576432Y-115387718D01*
X139471121Y-115336572D01*
X139363525Y-115306324D01*
X139257581Y-115296795D01*
X139157224Y-115307807D01*
X139066387Y-115339181D01*
X138989007Y-115390740D01*
X138964039Y-115415488D01*
X138903856Y-115496577D01*
X138855145Y-115594734D01*
X138817499Y-115711643D01*
X138790512Y-115848985D01*
X138773775Y-116008444D01*
X138766883Y-116191700D01*
X138766650Y-116231252D01*
X137753535Y-116231252D01*
X137754073Y-116188067D01*
X137765647Y-115962053D01*
X137788920Y-115758192D01*
X137824504Y-115573513D01*
X137873013Y-115405048D01*
X137935060Y-115249826D01*
X137957201Y-115203808D01*
X138046385Y-115053739D01*
X138154159Y-114920377D01*
X138277990Y-114805877D01*
X138415342Y-114712389D01*
X138563683Y-114642068D01*
X138652604Y-114613060D01*
X138739933Y-114595840D01*
X138845011Y-114585594D01*
X138959029Y-114582318D01*
X139073177Y-114586009D01*
X139178648Y-114596660D01*
X139263334Y-114613370D01*
X139364128Y-114646140D01*
X139461822Y-114688279D01*
X139547296Y-114735519D01*
X139592789Y-114767581D01*
X139624169Y-114791422D01*
X139646142Y-114805939D01*
X139651141Y-114808000D01*
X139652690Y-114794718D01*
X139654135Y-114756663D01*
X139655443Y-114696519D01*
X139656583Y-114616973D01*
X139657521Y-114520711D01*
X139658226Y-114410419D01*
X139658667Y-114288781D01*
X139658811Y-114164885D01*
X139658730Y-114006196D01*
X139658335Y-113872408D01*
X139657395Y-113760960D01*
X139655680Y-113669295D01*
X139652957Y-113594853D01*
X139648997Y-113535075D01*
X139643569Y-113487402D01*
X139636441Y-113449274D01*
X139627384Y-113418134D01*
X139616167Y-113391421D01*
X139602558Y-113366577D01*
X139586328Y-113341043D01*
X139584240Y-113337881D01*
X139563306Y-113304810D01*
X139550667Y-113282069D01*
X139548973Y-113277272D01*
X139562216Y-113275759D01*
X139600002Y-113274528D01*
X139659416Y-113273599D01*
X139737542Y-113272992D01*
X139831465Y-113272727D01*
X139938270Y-113272825D01*
X139938270Y-113272825D01*
G37*
X139938270Y-113272825D02*
X140055041Y-113273304D01*
X140094729Y-113273545D01*
X140640486Y-113277135D01*
X140647351Y-115370919D01*
X140648258Y-115654842D01*
X140649062Y-115912640D01*
X140649815Y-116145646D01*
X140650569Y-116355194D01*
X140651375Y-116542618D01*
X140652285Y-116709250D01*
X140653351Y-116856425D01*
X140654624Y-116985477D01*
X140656156Y-117097739D01*
X140657998Y-117194544D01*
X140660203Y-117277226D01*
X140662822Y-117347119D01*
X140665906Y-117405557D01*
X140669508Y-117453872D01*
X140673678Y-117493400D01*
X140678469Y-117525473D01*
X140683931Y-117551424D01*
X140690118Y-117572589D01*
X140697080Y-117590299D01*
X140704869Y-117605889D01*
X140713537Y-117620693D01*
X140723135Y-117636044D01*
X140733715Y-117653276D01*
X140735884Y-117656946D01*
X140772268Y-117719031D01*
X140246431Y-117715434D01*
X139720594Y-117711838D01*
X139713729Y-117596331D01*
X139709992Y-117540899D01*
X139706097Y-117508851D01*
X139700811Y-117496135D01*
X139692903Y-117498696D01*
X139686270Y-117506024D01*
X139657374Y-117532714D01*
X139610279Y-117567021D01*
X139551620Y-117604846D01*
X139488031Y-117642090D01*
X139426149Y-117674653D01*
X139378634Y-117696077D01*
X139267316Y-117731283D01*
X139139596Y-117756222D01*
X139004901Y-117769941D01*
X138872663Y-117771486D01*
X138752308Y-117759906D01*
X138750326Y-117759574D01*
X138585641Y-117718250D01*
X138431479Y-117652412D01*
X138289328Y-117563474D01*
X138160675Y-117452852D01*
X138047007Y-117321961D01*
X137949810Y-117172216D01*
X137870572Y-117005033D01*
X137827430Y-116881190D01*
X137798979Y-116777581D01*
X137777880Y-116677252D01*
X137763488Y-116574109D01*
X137755158Y-116462057D01*
X137752245Y-116335001D01*
X137753535Y-116231252D01*
X138766650Y-116231252D01*
X138771444Y-116405222D01*
X138786568Y-116554895D01*
X138812485Y-116681597D01*
X138849663Y-116786658D01*
X138898565Y-116871406D01*
X138959658Y-116937169D01*
X139030177Y-116983659D01*
X139066871Y-117001014D01*
X139098696Y-117011419D01*
X139134177Y-117016179D01*
X139181841Y-117016601D01*
X139233189Y-117014748D01*
X139334169Y-117005841D01*
X139414035Y-116988398D01*
X139439135Y-116979661D01*
X139496448Y-116953857D01*
X139556897Y-116921453D01*
X139583297Y-116905233D01*
X139651946Y-116860205D01*
X139651946Y-115432982D01*
X139576432Y-115387718D01*
X139471121Y-115336572D01*
X139363525Y-115306324D01*
X139257581Y-115296795D01*
X139157224Y-115307807D01*
X139066387Y-115339181D01*
X138989007Y-115390740D01*
X138964039Y-115415488D01*
X138903856Y-115496577D01*
X138855145Y-115594734D01*
X138817499Y-115711643D01*
X138790512Y-115848985D01*
X138773775Y-116008444D01*
X138766883Y-116191700D01*
X138766650Y-116231252D01*
X137753535Y-116231252D01*
X137754073Y-116188067D01*
X137765647Y-115962053D01*
X137788920Y-115758192D01*
X137824504Y-115573513D01*
X137873013Y-115405048D01*
X137935060Y-115249826D01*
X137957201Y-115203808D01*
X138046385Y-115053739D01*
X138154159Y-114920377D01*
X138277990Y-114805877D01*
X138415342Y-114712389D01*
X138563683Y-114642068D01*
X138652604Y-114613060D01*
X138739933Y-114595840D01*
X138845011Y-114585594D01*
X138959029Y-114582318D01*
X139073177Y-114586009D01*
X139178648Y-114596660D01*
X139263334Y-114613370D01*
X139364128Y-114646140D01*
X139461822Y-114688279D01*
X139547296Y-114735519D01*
X139592789Y-114767581D01*
X139624169Y-114791422D01*
X139646142Y-114805939D01*
X139651141Y-114808000D01*
X139652690Y-114794718D01*
X139654135Y-114756663D01*
X139655443Y-114696519D01*
X139656583Y-114616973D01*
X139657521Y-114520711D01*
X139658226Y-114410419D01*
X139658667Y-114288781D01*
X139658811Y-114164885D01*
X139658730Y-114006196D01*
X139658335Y-113872408D01*
X139657395Y-113760960D01*
X139655680Y-113669295D01*
X139652957Y-113594853D01*
X139648997Y-113535075D01*
X139643569Y-113487402D01*
X139636441Y-113449274D01*
X139627384Y-113418134D01*
X139616167Y-113391421D01*
X139602558Y-113366577D01*
X139586328Y-113341043D01*
X139584240Y-113337881D01*
X139563306Y-113304810D01*
X139550667Y-113282069D01*
X139548973Y-113277272D01*
X139562216Y-113275759D01*
X139600002Y-113274528D01*
X139659416Y-113273599D01*
X139737542Y-113272992D01*
X139831465Y-113272727D01*
X139938270Y-113272825D01*
G36*
X130369921Y-112352490D02*
X130473027Y-112388238D01*
X130569022Y-112444507D01*
X130654753Y-112521288D01*
X130727070Y-112618573D01*
X130759555Y-112679892D01*
X130787668Y-112765660D01*
X130801295Y-112864677D01*
X130799786Y-112966471D01*
X130783031Y-113058714D01*
X130737237Y-113171432D01*
X130670832Y-113269207D01*
X130587191Y-113350115D01*
X130489688Y-113412232D01*
X130381700Y-113453634D01*
X130266601Y-113472397D01*
X130147766Y-113466598D01*
X130089189Y-113454206D01*
X129975028Y-113409797D01*
X129873635Y-113342033D01*
X129787455Y-113253001D01*
X129718934Y-113144791D01*
X129713136Y-113132973D01*
X129693096Y-113088628D01*
X129680513Y-113051280D01*
X129673681Y-113011880D01*
X129670895Y-112961381D01*
X129670432Y-112906433D01*
X129671197Y-112840415D01*
X129674648Y-112792689D01*
X129682523Y-112754103D01*
X129696557Y-112715506D01*
X129713880Y-112677426D01*
X129778495Y-112569328D01*
X129858066Y-112481803D01*
X129949440Y-112414841D01*
X130049464Y-112368436D01*
X130154988Y-112342581D01*
X130262858Y-112337268D01*
X130369921Y-112352490D01*
X130369921Y-112352490D01*
G37*
X130369921Y-112352490D02*
X130473027Y-112388238D01*
X130569022Y-112444507D01*
X130654753Y-112521288D01*
X130727070Y-112618573D01*
X130759555Y-112679892D01*
X130787668Y-112765660D01*
X130801295Y-112864677D01*
X130799786Y-112966471D01*
X130783031Y-113058714D01*
X130737237Y-113171432D01*
X130670832Y-113269207D01*
X130587191Y-113350115D01*
X130489688Y-113412232D01*
X130381700Y-113453634D01*
X130266601Y-113472397D01*
X130147766Y-113466598D01*
X130089189Y-113454206D01*
X129975028Y-113409797D01*
X129873635Y-113342033D01*
X129787455Y-113253001D01*
X129718934Y-113144791D01*
X129713136Y-113132973D01*
X129693096Y-113088628D01*
X129680513Y-113051280D01*
X129673681Y-113011880D01*
X129670895Y-112961381D01*
X129670432Y-112906433D01*
X129671197Y-112840415D01*
X129674648Y-112792689D01*
X129682523Y-112754103D01*
X129696557Y-112715506D01*
X129713880Y-112677426D01*
X129778495Y-112569328D01*
X129858066Y-112481803D01*
X129949440Y-112414841D01*
X130049464Y-112368436D01*
X130154988Y-112342581D01*
X130262858Y-112337268D01*
X130369921Y-112352490D01*
D14*
X182118000Y-108458000D02*
X169418000Y-108458000D01*
X169418000Y-108458000D02*
X169418000Y-116078000D01*
X169418000Y-116078000D02*
X182118000Y-116078000D01*
X182118000Y-116078000D02*
X182118000Y-108458000D01*
D15*
X180153000Y-101914000D02*
X182813000Y-101914000D01*
X180153000Y-99314000D02*
X180153000Y-101914000D01*
X182813000Y-99314000D02*
X182813000Y-101914000D01*
X180153000Y-99314000D02*
X182813000Y-99314000D01*
X180153000Y-98044000D02*
X180153000Y-96714000D01*
X180153000Y-96714000D02*
X181483000Y-96714000D01*
X162119000Y-78172000D02*
X162119000Y-80832000D01*
X164719000Y-78172000D02*
X162119000Y-78172000D01*
X164719000Y-80832000D02*
X162119000Y-80832000D01*
X164719000Y-78172000D02*
X164719000Y-80832000D01*
X165989000Y-78172000D02*
X167319000Y-78172000D01*
X167319000Y-78172000D02*
X167319000Y-79502000D01*
D14*
X120396000Y-109728000D02*
X122936000Y-109728000D01*
X122936000Y-89408000D02*
X120396000Y-89408000D01*
X139446000Y-89408000D02*
X139446000Y-109728000D01*
X139446000Y-109728000D02*
X122936000Y-109728000D01*
X120396000Y-109728000D02*
X120396000Y-89408000D01*
X122936000Y-89408000D02*
X139446000Y-89408000D01*
X171704000Y-83058000D02*
X180594000Y-83058000D01*
X180594000Y-83058000D02*
X180594000Y-90678000D01*
X180594000Y-90678000D02*
X171704000Y-90678000D01*
X171704000Y-90678000D02*
X171704000Y-83058000D01*
D15*
X152904000Y-112792000D02*
X152904000Y-114792000D01*
X154944000Y-114792000D02*
X154944000Y-112792000D01*
X164469000Y-84693000D02*
X164469000Y-82693000D01*
X162429000Y-82693000D02*
X162429000Y-84693000D01*
X159496000Y-118995000D02*
X157496000Y-118995000D01*
X157496000Y-121035000D02*
X159496000Y-121035000D01*
X147951000Y-99711000D02*
X147951000Y-101711000D01*
X149991000Y-101711000D02*
X149991000Y-99711000D01*
X145850000Y-99584000D02*
X145850000Y-101584000D01*
X143710000Y-101584000D02*
X143710000Y-99584000D01*
X151908000Y-117802000D02*
X153908000Y-117802000D01*
X153908000Y-119942000D02*
X151908000Y-119942000D01*
X141240000Y-103578000D02*
X143240000Y-103578000D01*
X143240000Y-105718000D02*
X141240000Y-105718000D01*
X159242000Y-108258000D02*
X157242000Y-108258000D01*
X157242000Y-106118000D02*
X159242000Y-106118000D01*
X159966000Y-84693000D02*
X159966000Y-82693000D01*
X162106000Y-82693000D02*
X162106000Y-84693000D01*
X174968000Y-107772000D02*
X176568000Y-107772000D01*
X176568000Y-107772000D02*
X176568000Y-105172000D01*
X174968000Y-107772000D02*
X174968000Y-105172000D01*
X181648000Y-104572000D02*
X180048000Y-104572000D01*
X180048000Y-104572000D02*
X180048000Y-107172000D01*
X181648000Y-104572000D02*
X181648000Y-107172000D01*
X139201000Y-87722000D02*
X139201000Y-86522000D01*
X140961000Y-86522000D02*
X140961000Y-87722000D01*
X174379000Y-82384000D02*
X175379000Y-82384000D01*
X175379000Y-80684000D02*
X174379000Y-80684000D01*
X171569000Y-80684000D02*
X170569000Y-80684000D01*
X170569000Y-82384000D02*
X171569000Y-82384000D01*
X141517000Y-86749000D02*
X141517000Y-87749000D01*
X143217000Y-87749000D02*
X143217000Y-86749000D01*
D14*
X166330381Y-114045905D02*
X167139905Y-114045905D01*
X167235143Y-113998286D01*
X167282762Y-113950667D01*
X167330381Y-113855429D01*
X167330381Y-113664952D01*
X167282762Y-113569714D01*
X167235143Y-113522095D01*
X167139905Y-113474476D01*
X166330381Y-113474476D01*
X166330381Y-113093524D02*
X166330381Y-112474476D01*
X166711333Y-112807810D01*
X166711333Y-112664952D01*
X166758952Y-112569714D01*
X166806571Y-112522095D01*
X166901810Y-112474476D01*
X167139905Y-112474476D01*
X167235143Y-112522095D01*
X167282762Y-112569714D01*
X167330381Y-112664952D01*
X167330381Y-112950667D01*
X167282762Y-113045905D01*
X167235143Y-113093524D01*
X172918381Y-100052095D02*
X171918381Y-100052095D01*
X171918381Y-99814000D01*
X171966000Y-99671142D01*
X172061238Y-99575904D01*
X172156476Y-99528285D01*
X172346952Y-99480666D01*
X172489810Y-99480666D01*
X172680286Y-99528285D01*
X172775524Y-99575904D01*
X172870762Y-99671142D01*
X172918381Y-99814000D01*
X172918381Y-100052095D01*
X172918381Y-98528285D02*
X172918381Y-99099714D01*
X172918381Y-98814000D02*
X171918381Y-98814000D01*
X172061238Y-98909238D01*
X172156476Y-99004476D01*
X172204095Y-99099714D01*
X142754381Y-93217905D02*
X143563905Y-93217905D01*
X143659143Y-93170286D01*
X143706762Y-93122667D01*
X143754381Y-93027429D01*
X143754381Y-92836952D01*
X143706762Y-92741714D01*
X143659143Y-92694095D01*
X143563905Y-92646476D01*
X142754381Y-92646476D01*
X143754381Y-91646476D02*
X143754381Y-92217905D01*
X143754381Y-91932191D02*
X142754381Y-91932191D01*
X142897238Y-92027429D01*
X142992476Y-92122667D01*
X143040095Y-92217905D01*
X154408143Y-110529666D02*
X154455762Y-110577285D01*
X154503381Y-110720142D01*
X154503381Y-110815380D01*
X154455762Y-110958238D01*
X154360524Y-111053476D01*
X154265286Y-111101095D01*
X154074810Y-111148714D01*
X153931952Y-111148714D01*
X153741476Y-111101095D01*
X153646238Y-111053476D01*
X153551000Y-110958238D01*
X153503381Y-110815380D01*
X153503381Y-110720142D01*
X153551000Y-110577285D01*
X153598619Y-110529666D01*
X153503381Y-109624904D02*
X153503381Y-110101095D01*
X153979571Y-110148714D01*
X153931952Y-110101095D01*
X153884333Y-110005857D01*
X153884333Y-109767761D01*
X153931952Y-109672523D01*
X153979571Y-109624904D01*
X154074810Y-109577285D01*
X154312905Y-109577285D01*
X154408143Y-109624904D01*
X154455762Y-109672523D01*
X154503381Y-109767761D01*
X154503381Y-110005857D01*
X154455762Y-110101095D01*
X154408143Y-110148714D01*
X128849619Y-79402381D02*
X128849619Y-78402381D01*
X129278190Y-79354762D02*
X129421047Y-79402381D01*
X129659143Y-79402381D01*
X129754381Y-79354762D01*
X129802000Y-79307143D01*
X129849619Y-79211905D01*
X129849619Y-79116667D01*
X129802000Y-79021429D01*
X129754381Y-78973810D01*
X129659143Y-78926190D01*
X129468666Y-78878571D01*
X129373428Y-78830952D01*
X129325809Y-78783333D01*
X129278190Y-78688095D01*
X129278190Y-78592857D01*
X129325809Y-78497619D01*
X129373428Y-78450000D01*
X129468666Y-78402381D01*
X129706762Y-78402381D01*
X129849619Y-78450000D01*
X130278190Y-79402381D02*
X130278190Y-78402381D01*
X130659143Y-78402381D01*
X130754381Y-78450000D01*
X130802000Y-78497619D01*
X130849619Y-78592857D01*
X130849619Y-78735714D01*
X130802000Y-78830952D01*
X130754381Y-78878571D01*
X130659143Y-78926190D01*
X130278190Y-78926190D01*
X131802000Y-79402381D02*
X131230571Y-79402381D01*
X131516285Y-79402381D02*
X131516285Y-78402381D01*
X131421047Y-78545238D01*
X131325809Y-78640476D01*
X131230571Y-78688095D01*
X151153667Y-83921762D02*
X151296524Y-83969381D01*
X151534620Y-83969381D01*
X151629858Y-83921762D01*
X151677477Y-83874143D01*
X151725096Y-83778905D01*
X151725096Y-83683667D01*
X151677477Y-83588429D01*
X151629858Y-83540810D01*
X151534620Y-83493190D01*
X151344143Y-83445571D01*
X151248905Y-83397952D01*
X151201286Y-83350333D01*
X151153667Y-83255095D01*
X151153667Y-83159857D01*
X151201286Y-83064619D01*
X151248905Y-83017000D01*
X151344143Y-82969381D01*
X151582239Y-82969381D01*
X151725096Y-83017000D01*
X152058429Y-82969381D02*
X152296524Y-83969381D01*
X152487001Y-83255095D01*
X152677477Y-83969381D01*
X152915572Y-82969381D01*
X153820334Y-83969381D02*
X153248905Y-83969381D01*
X153534619Y-83969381D02*
X153534619Y-82969381D01*
X153439381Y-83112238D01*
X153344143Y-83207476D01*
X153248905Y-83255095D01*
X157297524Y-90816381D02*
X156964190Y-90340190D01*
X156726095Y-90816381D02*
X156726095Y-89816381D01*
X157107048Y-89816381D01*
X157202286Y-89864000D01*
X157249905Y-89911619D01*
X157297524Y-90006857D01*
X157297524Y-90149714D01*
X157249905Y-90244952D01*
X157202286Y-90292571D01*
X157107048Y-90340190D01*
X156726095Y-90340190D01*
X157726095Y-90816381D02*
X157726095Y-89816381D01*
X158297524Y-90816381D01*
X158297524Y-89816381D01*
X159297524Y-90816381D02*
X158726095Y-90816381D01*
X159011809Y-90816381D02*
X159011809Y-89816381D01*
X158916571Y-89959238D01*
X158821333Y-90054476D01*
X158726095Y-90102095D01*
X152177809Y-101322190D02*
X152177809Y-101798381D01*
X151844476Y-100798381D02*
X152177809Y-101322190D01*
X152511143Y-100798381D01*
X153368286Y-101798381D02*
X152796857Y-101798381D01*
X153082571Y-101798381D02*
X153082571Y-100798381D01*
X152987333Y-100941238D01*
X152892095Y-101036476D01*
X152796857Y-101084095D01*
X175434667Y-112220381D02*
X175434667Y-112934667D01*
X175387047Y-113077524D01*
X175291809Y-113172762D01*
X175148952Y-113220381D01*
X175053714Y-113220381D01*
X175863238Y-112315619D02*
X175910857Y-112268000D01*
X176006095Y-112220381D01*
X176244191Y-112220381D01*
X176339429Y-112268000D01*
X176387048Y-112315619D01*
X176434667Y-112410857D01*
X176434667Y-112506095D01*
X176387048Y-112648952D01*
X175815619Y-113220381D01*
X176434667Y-113220381D01*
X181149667Y-95166381D02*
X181149667Y-95880667D01*
X181102047Y-96023524D01*
X181006809Y-96118762D01*
X180863952Y-96166381D01*
X180768714Y-96166381D01*
X181530619Y-95166381D02*
X182149667Y-95166381D01*
X181816333Y-95547333D01*
X181959191Y-95547333D01*
X182054429Y-95594952D01*
X182102048Y-95642571D01*
X182149667Y-95737810D01*
X182149667Y-95975905D01*
X182102048Y-96071143D01*
X182054429Y-96118762D01*
X181959191Y-96166381D01*
X181673476Y-96166381D01*
X181578238Y-96118762D01*
X181530619Y-96071143D01*
X168108381Y-79708333D02*
X168822667Y-79708333D01*
X168965524Y-79755953D01*
X169060762Y-79851191D01*
X169108381Y-79994048D01*
X169108381Y-80089286D01*
X168441714Y-78803571D02*
X169108381Y-78803571D01*
X168060762Y-79041667D02*
X168775048Y-79279762D01*
X168775048Y-78660714D01*
X130222667Y-99520381D02*
X130222667Y-100234667D01*
X130175047Y-100377524D01*
X130079809Y-100472762D01*
X129936952Y-100520381D01*
X129841714Y-100520381D01*
X131222667Y-100520381D02*
X130651238Y-100520381D01*
X130936952Y-100520381D02*
X130936952Y-99520381D01*
X130841714Y-99663238D01*
X130746476Y-99758476D01*
X130651238Y-99806095D01*
X176022095Y-86820381D02*
X176022095Y-87629905D01*
X176069714Y-87725143D01*
X176117333Y-87772762D01*
X176212571Y-87820381D01*
X176403048Y-87820381D01*
X176498286Y-87772762D01*
X176545905Y-87725143D01*
X176593524Y-87629905D01*
X176593524Y-86820381D01*
X177022095Y-86915619D02*
X177069714Y-86868000D01*
X177164952Y-86820381D01*
X177403048Y-86820381D01*
X177498286Y-86868000D01*
X177545905Y-86915619D01*
X177593524Y-87010857D01*
X177593524Y-87106095D01*
X177545905Y-87248952D01*
X176974476Y-87820381D01*
X177593524Y-87820381D01*
X146915143Y-112942666D02*
X146962762Y-112990285D01*
X147010381Y-113133142D01*
X147010381Y-113228380D01*
X146962762Y-113371238D01*
X146867524Y-113466476D01*
X146772286Y-113514095D01*
X146581810Y-113561714D01*
X146438952Y-113561714D01*
X146248476Y-113514095D01*
X146153238Y-113466476D01*
X146058000Y-113371238D01*
X146010381Y-113228380D01*
X146010381Y-113133142D01*
X146058000Y-112990285D01*
X146105619Y-112942666D01*
X147010381Y-111990285D02*
X147010381Y-112561714D01*
X147010381Y-112276000D02*
X146010381Y-112276000D01*
X146153238Y-112371238D01*
X146248476Y-112466476D01*
X146296095Y-112561714D01*
X165556143Y-83859666D02*
X165603762Y-83907285D01*
X165651381Y-84050142D01*
X165651381Y-84145380D01*
X165603762Y-84288238D01*
X165508524Y-84383476D01*
X165413286Y-84431095D01*
X165222810Y-84478714D01*
X165079952Y-84478714D01*
X164889476Y-84431095D01*
X164794238Y-84383476D01*
X164699000Y-84288238D01*
X164651381Y-84145380D01*
X164651381Y-84050142D01*
X164699000Y-83907285D01*
X164746619Y-83859666D01*
X164746619Y-83478714D02*
X164699000Y-83431095D01*
X164651381Y-83335857D01*
X164651381Y-83097761D01*
X164699000Y-83002523D01*
X164746619Y-82954904D01*
X164841857Y-82907285D01*
X164937095Y-82907285D01*
X165079952Y-82954904D01*
X165651381Y-83526333D01*
X165651381Y-82907285D01*
X161631334Y-120372143D02*
X161583715Y-120419762D01*
X161440858Y-120467381D01*
X161345620Y-120467381D01*
X161202762Y-120419762D01*
X161107524Y-120324524D01*
X161059905Y-120229286D01*
X161012286Y-120038810D01*
X161012286Y-119895952D01*
X161059905Y-119705476D01*
X161107524Y-119610238D01*
X161202762Y-119515000D01*
X161345620Y-119467381D01*
X161440858Y-119467381D01*
X161583715Y-119515000D01*
X161631334Y-119562619D01*
X161964667Y-119467381D02*
X162583715Y-119467381D01*
X162250381Y-119848333D01*
X162393239Y-119848333D01*
X162488477Y-119895952D01*
X162536096Y-119943571D01*
X162583715Y-120038810D01*
X162583715Y-120276905D01*
X162536096Y-120372143D01*
X162488477Y-120419762D01*
X162393239Y-120467381D01*
X162107524Y-120467381D01*
X162012286Y-120419762D01*
X161964667Y-120372143D01*
X147578143Y-100877666D02*
X147625762Y-100925285D01*
X147673381Y-101068142D01*
X147673381Y-101163380D01*
X147625762Y-101306238D01*
X147530524Y-101401476D01*
X147435286Y-101449095D01*
X147244810Y-101496714D01*
X147101952Y-101496714D01*
X146911476Y-101449095D01*
X146816238Y-101401476D01*
X146721000Y-101306238D01*
X146673381Y-101163380D01*
X146673381Y-101068142D01*
X146721000Y-100925285D01*
X146768619Y-100877666D01*
X147006714Y-100020523D02*
X147673381Y-100020523D01*
X146625762Y-100258619D02*
X147340048Y-100496714D01*
X147340048Y-99877666D01*
X143382381Y-100750666D02*
X142906190Y-101084000D01*
X143382381Y-101322095D02*
X142382381Y-101322095D01*
X142382381Y-100941142D01*
X142430000Y-100845904D01*
X142477619Y-100798285D01*
X142572857Y-100750666D01*
X142715714Y-100750666D01*
X142810952Y-100798285D01*
X142858571Y-100845904D01*
X142906190Y-100941142D01*
X142906190Y-101322095D01*
X143382381Y-99798285D02*
X143382381Y-100369714D01*
X143382381Y-100084000D02*
X142382381Y-100084000D01*
X142525238Y-100179238D01*
X142620476Y-100274476D01*
X142668095Y-100369714D01*
X152741334Y-121174381D02*
X152408000Y-120698190D01*
X152169905Y-121174381D02*
X152169905Y-120174381D01*
X152550858Y-120174381D01*
X152646096Y-120222000D01*
X152693715Y-120269619D01*
X152741334Y-120364857D01*
X152741334Y-120507714D01*
X152693715Y-120602952D01*
X152646096Y-120650571D01*
X152550858Y-120698190D01*
X152169905Y-120698190D01*
X153122286Y-120269619D02*
X153169905Y-120222000D01*
X153265143Y-120174381D01*
X153503239Y-120174381D01*
X153598477Y-120222000D01*
X153646096Y-120269619D01*
X153693715Y-120364857D01*
X153693715Y-120460095D01*
X153646096Y-120602952D01*
X153074667Y-121174381D01*
X153693715Y-121174381D01*
X142073334Y-106950381D02*
X141740000Y-106474190D01*
X141501905Y-106950381D02*
X141501905Y-105950381D01*
X141882858Y-105950381D01*
X141978096Y-105998000D01*
X142025715Y-106045619D01*
X142073334Y-106140857D01*
X142073334Y-106283714D01*
X142025715Y-106378952D01*
X141978096Y-106426571D01*
X141882858Y-106474190D01*
X141501905Y-106474190D01*
X142406667Y-105950381D02*
X143025715Y-105950381D01*
X142692381Y-106331333D01*
X142835239Y-106331333D01*
X142930477Y-106378952D01*
X142978096Y-106426571D01*
X143025715Y-106521810D01*
X143025715Y-106759905D01*
X142978096Y-106855143D01*
X142930477Y-106902762D01*
X142835239Y-106950381D01*
X142549524Y-106950381D01*
X142454286Y-106902762D01*
X142406667Y-106855143D01*
X158075334Y-105790381D02*
X157742000Y-105314190D01*
X157503905Y-105790381D02*
X157503905Y-104790381D01*
X157884858Y-104790381D01*
X157980096Y-104838000D01*
X158027715Y-104885619D01*
X158075334Y-104980857D01*
X158075334Y-105123714D01*
X158027715Y-105218952D01*
X157980096Y-105266571D01*
X157884858Y-105314190D01*
X157503905Y-105314190D01*
X158932477Y-104790381D02*
X158742000Y-104790381D01*
X158646762Y-104838000D01*
X158599143Y-104885619D01*
X158503905Y-105028476D01*
X158456286Y-105218952D01*
X158456286Y-105599905D01*
X158503905Y-105695143D01*
X158551524Y-105742762D01*
X158646762Y-105790381D01*
X158837239Y-105790381D01*
X158932477Y-105742762D01*
X158980096Y-105695143D01*
X159027715Y-105599905D01*
X159027715Y-105361810D01*
X158980096Y-105266571D01*
X158932477Y-105218952D01*
X158837239Y-105171333D01*
X158646762Y-105171333D01*
X158551524Y-105218952D01*
X158503905Y-105266571D01*
X158456286Y-105361810D01*
X159837381Y-83859666D02*
X159361190Y-84193000D01*
X159837381Y-84431095D02*
X158837381Y-84431095D01*
X158837381Y-84050142D01*
X158885000Y-83954904D01*
X158932619Y-83907285D01*
X159027857Y-83859666D01*
X159170714Y-83859666D01*
X159265952Y-83907285D01*
X159313571Y-83954904D01*
X159361190Y-84050142D01*
X159361190Y-84431095D01*
X158837381Y-83526333D02*
X158837381Y-82859666D01*
X159837381Y-83288238D01*
X177744381Y-106910095D02*
X176744381Y-106910095D01*
X176744381Y-106672000D01*
X176792000Y-106529142D01*
X176887238Y-106433904D01*
X176982476Y-106386285D01*
X177172952Y-106338666D01*
X177315810Y-106338666D01*
X177506286Y-106386285D01*
X177601524Y-106433904D01*
X177696762Y-106529142D01*
X177744381Y-106672000D01*
X177744381Y-106910095D01*
X177172952Y-105767238D02*
X177125333Y-105862476D01*
X177077714Y-105910095D01*
X176982476Y-105957714D01*
X176934857Y-105957714D01*
X176839619Y-105910095D01*
X176792000Y-105862476D01*
X176744381Y-105767238D01*
X176744381Y-105576761D01*
X176792000Y-105481523D01*
X176839619Y-105433904D01*
X176934857Y-105386285D01*
X176982476Y-105386285D01*
X177077714Y-105433904D01*
X177125333Y-105481523D01*
X177172952Y-105576761D01*
X177172952Y-105767238D01*
X177220571Y-105862476D01*
X177268190Y-105910095D01*
X177363429Y-105957714D01*
X177553905Y-105957714D01*
X177649143Y-105910095D01*
X177696762Y-105862476D01*
X177744381Y-105767238D01*
X177744381Y-105576761D01*
X177696762Y-105481523D01*
X177649143Y-105433904D01*
X177553905Y-105386285D01*
X177363429Y-105386285D01*
X177268190Y-105433904D01*
X177220571Y-105481523D01*
X177172952Y-105576761D01*
X182900381Y-106910095D02*
X181900381Y-106910095D01*
X181900381Y-106672000D01*
X181948000Y-106529142D01*
X182043238Y-106433904D01*
X182138476Y-106386285D01*
X182328952Y-106338666D01*
X182471810Y-106338666D01*
X182662286Y-106386285D01*
X182757524Y-106433904D01*
X182852762Y-106529142D01*
X182900381Y-106672000D01*
X182900381Y-106910095D01*
X182900381Y-105862476D02*
X182900381Y-105672000D01*
X182852762Y-105576761D01*
X182805143Y-105529142D01*
X182662286Y-105433904D01*
X182471810Y-105386285D01*
X182090857Y-105386285D01*
X181995619Y-105433904D01*
X181948000Y-105481523D01*
X181900381Y-105576761D01*
X181900381Y-105767238D01*
X181948000Y-105862476D01*
X181995619Y-105910095D01*
X182090857Y-105957714D01*
X182328952Y-105957714D01*
X182424190Y-105910095D01*
X182471810Y-105862476D01*
X182519429Y-105767238D01*
X182519429Y-105576761D01*
X182471810Y-105481523D01*
X182424190Y-105433904D01*
X182328952Y-105386285D01*
X139009381Y-87415666D02*
X138533190Y-87749000D01*
X139009381Y-87987095D02*
X138009381Y-87987095D01*
X138009381Y-87606142D01*
X138057000Y-87510904D01*
X138104619Y-87463285D01*
X138199857Y-87415666D01*
X138342714Y-87415666D01*
X138437952Y-87463285D01*
X138485571Y-87510904D01*
X138533190Y-87606142D01*
X138533190Y-87987095D01*
X138009381Y-86510904D02*
X138009381Y-86987095D01*
X138485571Y-87034714D01*
X138437952Y-86987095D01*
X138390333Y-86891857D01*
X138390333Y-86653761D01*
X138437952Y-86558523D01*
X138485571Y-86510904D01*
X138580810Y-86463285D01*
X138818905Y-86463285D01*
X138914143Y-86510904D01*
X138961762Y-86558523D01*
X139009381Y-86653761D01*
X139009381Y-86891857D01*
X138961762Y-86987095D01*
X138914143Y-87034714D01*
X174712334Y-80367143D02*
X174664715Y-80414762D01*
X174521858Y-80462381D01*
X174426620Y-80462381D01*
X174283762Y-80414762D01*
X174188524Y-80319524D01*
X174140905Y-80224286D01*
X174093286Y-80033810D01*
X174093286Y-79890952D01*
X174140905Y-79700476D01*
X174188524Y-79605238D01*
X174283762Y-79510000D01*
X174426620Y-79462381D01*
X174521858Y-79462381D01*
X174664715Y-79510000D01*
X174712334Y-79557619D01*
X175045667Y-79462381D02*
X175712334Y-79462381D01*
X175283762Y-80462381D01*
X170902334Y-80391143D02*
X170854715Y-80438762D01*
X170711858Y-80486381D01*
X170616620Y-80486381D01*
X170473762Y-80438762D01*
X170378524Y-80343524D01*
X170330905Y-80248286D01*
X170283286Y-80057810D01*
X170283286Y-79914952D01*
X170330905Y-79724476D01*
X170378524Y-79629238D01*
X170473762Y-79534000D01*
X170616620Y-79486381D01*
X170711858Y-79486381D01*
X170854715Y-79534000D01*
X170902334Y-79581619D01*
X171473762Y-79914952D02*
X171378524Y-79867333D01*
X171330905Y-79819714D01*
X171283286Y-79724476D01*
X171283286Y-79676857D01*
X171330905Y-79581619D01*
X171378524Y-79534000D01*
X171473762Y-79486381D01*
X171664239Y-79486381D01*
X171759477Y-79534000D01*
X171807096Y-79581619D01*
X171854715Y-79676857D01*
X171854715Y-79724476D01*
X171807096Y-79819714D01*
X171759477Y-79867333D01*
X171664239Y-79914952D01*
X171473762Y-79914952D01*
X171378524Y-79962571D01*
X171330905Y-80010190D01*
X171283286Y-80105429D01*
X171283286Y-80295905D01*
X171330905Y-80391143D01*
X171378524Y-80438762D01*
X171473762Y-80486381D01*
X171664239Y-80486381D01*
X171759477Y-80438762D01*
X171807096Y-80391143D01*
X171854715Y-80295905D01*
X171854715Y-80105429D01*
X171807096Y-80010190D01*
X171759477Y-79962571D01*
X171664239Y-79914952D01*
X144375143Y-87288666D02*
X144422762Y-87336285D01*
X144470381Y-87479142D01*
X144470381Y-87574380D01*
X144422762Y-87717238D01*
X144327524Y-87812476D01*
X144232286Y-87860095D01*
X144041810Y-87907714D01*
X143898952Y-87907714D01*
X143708476Y-87860095D01*
X143613238Y-87812476D01*
X143518000Y-87717238D01*
X143470381Y-87574380D01*
X143470381Y-87479142D01*
X143518000Y-87336285D01*
X143565619Y-87288666D01*
X143470381Y-86431523D02*
X143470381Y-86622000D01*
X143518000Y-86717238D01*
X143565619Y-86764857D01*
X143708476Y-86860095D01*
X143898952Y-86907714D01*
X144279905Y-86907714D01*
X144375143Y-86860095D01*
X144422762Y-86812476D01*
X144470381Y-86717238D01*
X144470381Y-86526761D01*
X144422762Y-86431523D01*
X144375143Y-86383904D01*
X144279905Y-86336285D01*
X144041810Y-86336285D01*
X143946571Y-86383904D01*
X143898952Y-86431523D01*
X143851333Y-86526761D01*
X143851333Y-86717238D01*
X143898952Y-86812476D01*
X143946571Y-86860095D01*
X144041810Y-86907714D01*
M02*
