G04 #@! TF.FileFunction,Soldermask,Top*
%FSLAX46Y46*%
G04 Gerber Fmt 4.6, Leading zero omitted, Abs format (unit mm)*
G04 Created by KiCad (PCBNEW 4.0.7-e2-6376~61~ubuntu18.04.1) date Wed Jul 18 23:52:16 2018*
%MOMM*%
%LPD*%
G01*
G04 APERTURE LIST*
%ADD10C,0.100000*%
%ADD11C,0.150000*%
%ADD12R,2.000000X2.000000*%
%ADD13O,2.000000X2.000000*%
%ADD14R,2.000000X1.400000*%
%ADD15R,0.950000X2.000000*%
%ADD16R,2.000000X0.950000*%
%ADD17C,2.000000*%
%ADD18R,2.100000X2.100000*%
%ADD19O,2.100000X2.100000*%
%ADD20C,2.500000*%
%ADD21C,2.150000*%
%ADD22R,1.300000X0.800000*%
%ADD23R,1.000000X1.900000*%
%ADD24O,3.700000X7.200000*%
%ADD25O,2.940000X1.924000*%
%ADD26R,1.400000X2.000000*%
%ADD27R,2.100000X1.300000*%
%ADD28R,1.300000X2.100000*%
%ADD29R,1.300000X1.200000*%
%ADD30R,1.700000X1.100000*%
%ADD31R,1.400000X1.650000*%
%ADD32R,1.650000X1.400000*%
%ADD33C,2.400000*%
%ADD34C,2.540000*%
G04 APERTURE END LIST*
D10*
D11*
X0Y127000D02*
X0Y45847000D01*
X63500000Y127000D02*
X0Y127000D01*
X63500000Y127000D02*
X63500000Y45847000D01*
X63500000Y45847000D02*
X0Y45847000D01*
D12*
X36576000Y5207000D03*
D13*
X44196000Y12827000D03*
X39116000Y5207000D03*
X41656000Y12827000D03*
X41656000Y5207000D03*
X39116000Y12827000D03*
X44196000Y5207000D03*
X36576000Y12827000D03*
D14*
X53721000Y24614000D03*
X53721000Y21614000D03*
D15*
X26156000Y25849000D03*
X26956000Y25849000D03*
X27756000Y25849000D03*
X28556000Y25849000D03*
X29356000Y25849000D03*
X30156000Y25849000D03*
X30956000Y25849000D03*
X31756000Y25849000D03*
D16*
X33206000Y27299000D03*
X33206000Y28099000D03*
X33206000Y28899000D03*
X33206000Y29699000D03*
X33206000Y30499000D03*
X33206000Y31299000D03*
X33206000Y32099000D03*
X33206000Y32899000D03*
D15*
X31756000Y34349000D03*
X30956000Y34349000D03*
X30156000Y34349000D03*
X29356000Y34349000D03*
X28556000Y34349000D03*
X27756000Y34349000D03*
X26956000Y34349000D03*
X26156000Y34349000D03*
D16*
X24706000Y32899000D03*
X24706000Y32099000D03*
X24706000Y31299000D03*
X24706000Y30499000D03*
X24706000Y29699000D03*
X24706000Y28899000D03*
X24706000Y28099000D03*
X24706000Y27299000D03*
D12*
X29464000Y10795000D03*
D17*
X29464000Y8295000D03*
D18*
X8636000Y41275000D03*
D19*
X11176000Y41275000D03*
X8636000Y38735000D03*
X11176000Y38735000D03*
X8636000Y36195000D03*
X11176000Y36195000D03*
D20*
X35351000Y41198000D03*
D21*
X34091000Y43688000D03*
X29591000Y43688000D03*
D20*
X28341000Y41198000D03*
D22*
X36742000Y29991000D03*
X36742000Y29191000D03*
X36742000Y30791000D03*
X36742000Y28391000D03*
X38442000Y30791000D03*
X38442000Y29991000D03*
X38442000Y29191000D03*
X38442000Y28391000D03*
D23*
X31054000Y22987000D03*
X32954000Y22987000D03*
X32004000Y22987000D03*
D24*
X60452000Y10287000D03*
X50292000Y10287000D03*
X55372000Y10287000D03*
D18*
X61087000Y24511000D03*
D19*
X61087000Y21971000D03*
D18*
X45593000Y43053000D03*
D19*
X43053000Y43053000D03*
D25*
X52578000Y38227000D03*
X52578000Y33147000D03*
X58928000Y38227000D03*
X58928000Y35687000D03*
X58928000Y33147000D03*
D14*
X33528000Y7263000D03*
X33528000Y10263000D03*
X43053000Y40362000D03*
X43053000Y37362000D03*
D26*
X36600000Y2540000D03*
X39600000Y2540000D03*
D14*
X28575000Y20344000D03*
X28575000Y23344000D03*
D27*
X24384000Y20521000D03*
X24384000Y23421000D03*
D28*
X33962000Y3683000D03*
X31062000Y3683000D03*
X23294000Y17907000D03*
X20394000Y17907000D03*
X36396000Y15367000D03*
X39296000Y15367000D03*
D27*
X40640000Y40312000D03*
X40640000Y37412000D03*
D29*
X55372000Y15333000D03*
X55372000Y17433000D03*
X60452000Y17433000D03*
X60452000Y15333000D03*
D30*
X19685000Y36383000D03*
X19685000Y34483000D03*
D31*
X55483000Y41021000D03*
X53483000Y41021000D03*
X49673000Y41021000D03*
X51673000Y41021000D03*
D32*
X21971000Y34306000D03*
X21971000Y36306000D03*
D33*
X2540000Y27787000D03*
X15367000Y28194000D03*
X15367000Y17780000D03*
X12700000Y15487000D03*
X12700000Y22987000D03*
X12700000Y30487000D03*
X2540000Y18187000D03*
D34*
X2921000Y43053000D03*
X2921000Y2667000D03*
X60706000Y3175000D03*
X60452000Y42545000D03*
M02*
