G04 #@! TF.FileFunction,Soldermask,Bot*
%FSLAX46Y46*%
G04 Gerber Fmt 4.6, Leading zero omitted, Abs format (unit mm)*
G04 Created by KiCad (PCBNEW 4.0.7-e2-6376~61~ubuntu18.04.1) date Wed Jul 18 23:52:16 2018*
%MOMM*%
%LPD*%
G01*
G04 APERTURE LIST*
%ADD10C,0.100000*%
%ADD11C,0.150000*%
%ADD12R,2.000000X2.000000*%
%ADD13O,2.000000X2.000000*%
%ADD14R,2.100000X2.400000*%
%ADD15R,2.400000X2.100000*%
%ADD16C,2.000000*%
%ADD17R,2.100000X2.100000*%
%ADD18O,2.100000X2.100000*%
%ADD19C,2.500000*%
%ADD20C,2.150000*%
%ADD21O,3.700000X7.200000*%
%ADD22O,2.940000X1.924000*%
%ADD23C,2.400000*%
%ADD24C,2.540000*%
G04 APERTURE END LIST*
D10*
D11*
X0Y127000D02*
X0Y45847000D01*
X63500000Y127000D02*
X0Y127000D01*
X63500000Y127000D02*
X63500000Y45847000D01*
X63500000Y45847000D02*
X0Y45847000D01*
D12*
X36576000Y5207000D03*
D13*
X44196000Y12827000D03*
X39116000Y5207000D03*
X41656000Y12827000D03*
X41656000Y5207000D03*
X39116000Y12827000D03*
X44196000Y5207000D03*
X36576000Y12827000D03*
D14*
X43688000Y20987000D03*
X43688000Y24987000D03*
X25400000Y20987000D03*
X25400000Y24987000D03*
X9652000Y20987000D03*
X9652000Y24987000D03*
X51816000Y20987000D03*
X51816000Y24987000D03*
X34544000Y20987000D03*
X34544000Y24987000D03*
D15*
X33496000Y3810000D03*
X29496000Y3810000D03*
D12*
X29464000Y10795000D03*
D16*
X29464000Y8295000D03*
D17*
X8636000Y41275000D03*
D18*
X11176000Y41275000D03*
X8636000Y38735000D03*
X11176000Y38735000D03*
X8636000Y36195000D03*
X11176000Y36195000D03*
D19*
X35351000Y41198000D03*
D20*
X34091000Y43688000D03*
X29591000Y43688000D03*
D19*
X28341000Y41198000D03*
D21*
X60452000Y10287000D03*
X50292000Y10287000D03*
X55372000Y10287000D03*
D17*
X61087000Y24511000D03*
D18*
X61087000Y21971000D03*
D17*
X45593000Y43053000D03*
D18*
X43053000Y43053000D03*
D22*
X52578000Y38227000D03*
X52578000Y33147000D03*
X58928000Y38227000D03*
X58928000Y35687000D03*
X58928000Y33147000D03*
D23*
X2540000Y27787000D03*
X15367000Y28194000D03*
X15367000Y17780000D03*
X12700000Y15487000D03*
X12700000Y22987000D03*
X12700000Y30487000D03*
X2540000Y18187000D03*
D24*
X5461000Y4445000D03*
X2921000Y43053000D03*
X60452000Y42545000D03*
X60706000Y3175000D03*
M02*
