M48
;DRILL file {KiCad 4.0.7-e2-6376~61~ubuntu18.04.1} date Wed Jul 18 23:49:10 2018
;FORMAT={-:-/ absolute / metric / decimal}
FMAT,2
METRIC,TZ
T1C0.400
T2C0.800
T3C0.990
T4C1.000
T5C1.270
T6C1.300
T7C2.100
%
G90
G05
M71
T1
X16.51Y36.195
X19.304Y14.859
X19.812Y32.639
X22.86Y21.717
X24.826Y15.875
X25.4Y17.907
X26.924Y33.147
X27.432Y3.683
X29.083Y30.226
X32.004Y36.195
X32.004Y24.257
X33.02Y34.671
X33.909Y2.413
X40.132Y31.115
X40.132Y30.099
X40.132Y29.083
X40.132Y28.067
X57.912Y16.383
T2
X29.464Y10.795
X29.464Y8.295
X36.576Y12.827
X36.576Y5.207
X39.116Y12.827
X39.116Y5.207
X41.656Y12.827
X41.656Y5.207
X44.196Y12.827
X44.196Y5.207
T3
X29.591Y43.688
X34.091Y43.688
T4
X8.636Y41.275
X8.636Y38.735
X8.636Y36.195
X11.176Y41.275
X11.176Y38.735
X11.176Y36.195
X43.053Y43.053
X45.593Y43.053
X52.578Y38.227
X52.578Y33.147
X58.928Y38.227
X58.928Y35.687
X58.928Y33.147
X61.087Y24.511
X61.087Y21.971
T5
X2.54Y27.787
X2.54Y18.187
X12.7Y30.487
X12.7Y22.987
X12.7Y15.487
X15.367Y28.194
X15.367Y17.78
T6
X28.341Y41.198
X35.351Y41.198
T7
X50.292Y10.287
X55.372Y10.287
X60.452Y10.287
T0
M30
