G04 #@! TF.FileFunction,Copper,L1,Top,Signal*
%FSLAX46Y46*%
G04 Gerber Fmt 4.6, Leading zero omitted, Abs format (unit mm)*
G04 Created by KiCad (PCBNEW 4.0.7-e2-6376~58~ubuntu17.04.1) date Sun Jan  7 16:58:37 2018*
%MOMM*%
%LPD*%
G01*
G04 APERTURE LIST*
%ADD10C,0.100000*%
%ADD11R,1.600000X1.600000*%
%ADD12O,1.600000X1.600000*%
%ADD13R,1.000000X1.600000*%
%ADD14R,0.550000X1.600000*%
%ADD15R,1.600000X0.550000*%
%ADD16R,1.250000X1.000000*%
%ADD17R,1.000000X1.250000*%
%ADD18C,1.600000*%
%ADD19R,1.300000X0.700000*%
%ADD20R,0.700000X1.300000*%
%ADD21R,1.700000X1.700000*%
%ADD22O,1.700000X1.700000*%
%ADD23C,2.100000*%
%ADD24C,1.750000*%
%ADD25R,0.900000X0.400000*%
%ADD26R,0.600000X1.500000*%
%ADD27O,3.300000X6.800000*%
%ADD28R,1.000000X1.000000*%
%ADD29C,2.000000*%
%ADD30O,2.540000X1.524000*%
%ADD31C,0.600000*%
%ADD32C,0.250000*%
%ADD33C,0.254000*%
G04 APERTURE END LIST*
D10*
D11*
X156972000Y-116332000D03*
D12*
X164592000Y-108712000D03*
X159512000Y-116332000D03*
X162052000Y-108712000D03*
X162052000Y-116332000D03*
X159512000Y-108712000D03*
X164592000Y-116332000D03*
X156972000Y-108712000D03*
D13*
X172744000Y-93980000D03*
X175744000Y-93980000D03*
D14*
X146552000Y-96706000D03*
X147352000Y-96706000D03*
X148152000Y-96706000D03*
X148952000Y-96706000D03*
X149752000Y-96706000D03*
X150552000Y-96706000D03*
X151352000Y-96706000D03*
X152152000Y-96706000D03*
D15*
X153602000Y-95256000D03*
X153602000Y-94456000D03*
X153602000Y-93656000D03*
X153602000Y-92856000D03*
X153602000Y-92056000D03*
X153602000Y-91256000D03*
X153602000Y-90456000D03*
X153602000Y-89656000D03*
D14*
X152152000Y-88206000D03*
X151352000Y-88206000D03*
X150552000Y-88206000D03*
X149752000Y-88206000D03*
X148952000Y-88206000D03*
X148152000Y-88206000D03*
X147352000Y-88206000D03*
X146552000Y-88206000D03*
D15*
X145102000Y-89656000D03*
X145102000Y-90456000D03*
X145102000Y-91256000D03*
X145102000Y-92056000D03*
X145102000Y-92856000D03*
X145102000Y-93656000D03*
X145102000Y-94456000D03*
X145102000Y-95256000D03*
D16*
X153924000Y-110728000D03*
X153924000Y-108728000D03*
X153924000Y-81264000D03*
X153924000Y-79264000D03*
D17*
X147336000Y-100076000D03*
X149336000Y-100076000D03*
D11*
X150876000Y-109728000D03*
D18*
X148376000Y-109728000D03*
D19*
X139700000Y-85918000D03*
X139700000Y-87818000D03*
X144780000Y-101534000D03*
X144780000Y-99634000D03*
D20*
X143190000Y-104648000D03*
X141290000Y-104648000D03*
D19*
X153924000Y-83378000D03*
X153924000Y-85278000D03*
D20*
X149794000Y-118872000D03*
X147894000Y-118872000D03*
D21*
X129032000Y-81280000D03*
D22*
X131572000Y-81280000D03*
X129032000Y-83820000D03*
X131572000Y-83820000D03*
X129032000Y-86360000D03*
X131572000Y-86360000D03*
D23*
X170860000Y-81230000D03*
D24*
X169600000Y-78740000D03*
X165100000Y-78740000D03*
D23*
X163850000Y-81230000D03*
D25*
X157138000Y-92564000D03*
X157138000Y-93364000D03*
X157138000Y-91764000D03*
X157138000Y-94164000D03*
X158838000Y-91764000D03*
X158838000Y-92564000D03*
X158838000Y-93364000D03*
X158838000Y-94164000D03*
D19*
X180848000Y-107630000D03*
X180848000Y-105730000D03*
X175768000Y-105730000D03*
X175768000Y-107630000D03*
D26*
X151450000Y-99568000D03*
X153350000Y-99568000D03*
X152400000Y-99568000D03*
D27*
X180848000Y-112268000D03*
X170688000Y-112268000D03*
X175768000Y-112268000D03*
D20*
X140274000Y-94488000D03*
X142174000Y-94488000D03*
D28*
X142113000Y-88122000D03*
D16*
X142113000Y-86122000D03*
D21*
X181864000Y-98044000D03*
D22*
X181864000Y-100584000D03*
D21*
X146812000Y-79756000D03*
D22*
X149352000Y-79756000D03*
D29*
X122936000Y-94768000D03*
X136156000Y-94368000D03*
X136156000Y-104768000D03*
X133096000Y-107068000D03*
X133096000Y-99568000D03*
X133096000Y-92068000D03*
X122936000Y-104368000D03*
D30*
X172974000Y-84328000D03*
X172974000Y-89408000D03*
X179324000Y-84328000D03*
X179324000Y-86868000D03*
X179324000Y-89408000D03*
D31*
X145222000Y-106680000D03*
X139700000Y-107696000D03*
X149479000Y-92329000D03*
X136906000Y-86360000D03*
X152400000Y-98044000D03*
X149860000Y-98552000D03*
X147828000Y-98552000D03*
X160528000Y-91440000D03*
X160528000Y-92456000D03*
X160528000Y-93472000D03*
X160528000Y-94488000D03*
X146304000Y-104648000D03*
X146304000Y-118872000D03*
X147320000Y-89408000D03*
X152400000Y-86360000D03*
X153416000Y-87884000D03*
X140208000Y-89916000D03*
D32*
X125476000Y-90424000D02*
X134112000Y-90424000D01*
X138684000Y-85852000D02*
X139634000Y-85852000D01*
X137668000Y-86868000D02*
X138684000Y-85852000D01*
X134112000Y-90424000D02*
X137668000Y-86868000D01*
X139634000Y-85852000D02*
X139650000Y-85868000D01*
X139650000Y-85868000D02*
X146796000Y-85868000D01*
X146796000Y-85868000D02*
X146812000Y-85852000D01*
X146812000Y-85852000D02*
X150368000Y-85852000D01*
X150368000Y-85852000D02*
X151352000Y-86836000D01*
X151352000Y-86836000D02*
X151352000Y-88206000D01*
X142240000Y-86376000D02*
X142240000Y-86360000D01*
X142240000Y-86360000D02*
X142748000Y-85852000D01*
X150552000Y-96706000D02*
X150552000Y-98860000D01*
X150552000Y-98860000D02*
X149336000Y-100076000D01*
X156972000Y-108712000D02*
X164592000Y-116332000D01*
X149336000Y-100076000D02*
X149336000Y-102600000D01*
X149336000Y-102600000D02*
X153416000Y-106680000D01*
X148952000Y-96706000D02*
X148952000Y-100492000D01*
X148952000Y-100492000D02*
X148844000Y-100600000D01*
X145288000Y-106746000D02*
X145222000Y-106680000D01*
X131572000Y-80264000D02*
X130556000Y-79248000D01*
X130556000Y-79248000D02*
X126492000Y-79248000D01*
X126492000Y-79248000D02*
X125476000Y-80264000D01*
X131572000Y-81280000D02*
X131572000Y-80264000D01*
X153924000Y-108728000D02*
X156956000Y-108728000D01*
X156956000Y-108728000D02*
X156972000Y-108712000D01*
X150876000Y-109728000D02*
X152924000Y-109728000D01*
X152924000Y-109728000D02*
X153924000Y-108728000D01*
X150876000Y-109728000D02*
X150876000Y-109220000D01*
X150876000Y-109220000D02*
X153416000Y-106680000D01*
X172974000Y-84328000D02*
X171704000Y-84328000D01*
X171704000Y-84328000D02*
X168656000Y-87376000D01*
X168656000Y-87376000D02*
X168656000Y-103632000D01*
X168656000Y-103632000D02*
X165608000Y-106680000D01*
X165608000Y-106680000D02*
X155448000Y-106680000D01*
X145288000Y-106746000D02*
X143190000Y-104648000D01*
X154432000Y-106680000D02*
X153416000Y-106680000D01*
X155448000Y-106680000D02*
X154432000Y-106680000D01*
X153416000Y-106680000D02*
X148844000Y-106680000D01*
X148844000Y-106680000D02*
X145222000Y-106680000D01*
X125476000Y-80264000D02*
X125476000Y-89916000D01*
X125476000Y-89916000D02*
X125476000Y-90424000D01*
X125476000Y-90424000D02*
X125476000Y-90932000D01*
X125476000Y-90932000D02*
X125476000Y-96012000D01*
X125476000Y-96012000D02*
X137160000Y-107696000D01*
X137160000Y-107696000D02*
X139700000Y-107696000D01*
X148952000Y-88206000D02*
X148952000Y-91802000D01*
X148952000Y-91802000D02*
X149479000Y-92329000D01*
X152400000Y-99568000D02*
X152400000Y-98044000D01*
X149752000Y-96706000D02*
X149752000Y-98444000D01*
X149752000Y-98444000D02*
X149860000Y-98552000D01*
X147336000Y-100076000D02*
X147336000Y-99044000D01*
X147336000Y-99044000D02*
X147828000Y-98552000D01*
X180848000Y-107630000D02*
X180848000Y-112268000D01*
X160204000Y-91764000D02*
X158838000Y-91764000D01*
X160528000Y-91440000D02*
X160204000Y-91764000D01*
X159188000Y-91764000D02*
X158838000Y-91764000D01*
X160420000Y-92564000D02*
X158838000Y-92564000D01*
X160528000Y-92456000D02*
X160420000Y-92564000D01*
X160420000Y-93364000D02*
X158838000Y-93364000D01*
X160528000Y-93472000D02*
X160420000Y-93364000D01*
X160528000Y-94488000D02*
X160204000Y-94164000D01*
X160204000Y-94164000D02*
X158838000Y-94164000D01*
X146304000Y-104648000D02*
X144780000Y-103124000D01*
X144780000Y-103124000D02*
X144780000Y-101534000D01*
X147894000Y-118872000D02*
X146304000Y-118872000D01*
X142174000Y-94488000D02*
X145070000Y-94488000D01*
X145070000Y-94488000D02*
X145102000Y-94456000D01*
X145102000Y-95256000D02*
X145028000Y-95256000D01*
X145028000Y-95256000D02*
X142240000Y-98044000D01*
X142240000Y-98044000D02*
X142240000Y-109728000D01*
X142240000Y-109728000D02*
X149794000Y-117282000D01*
X149794000Y-117282000D02*
X149794000Y-118872000D01*
X162052000Y-116332000D02*
X161544000Y-116332000D01*
X161544000Y-116332000D02*
X159004000Y-118872000D01*
X159004000Y-118872000D02*
X149794000Y-118872000D01*
X151352000Y-96706000D02*
X151352000Y-99470000D01*
X151352000Y-99470000D02*
X151450000Y-99568000D01*
X152152000Y-96706000D02*
X152152000Y-96780000D01*
X152152000Y-96780000D02*
X153350000Y-97978000D01*
X153350000Y-97978000D02*
X153350000Y-99568000D01*
X152152000Y-96706000D02*
X152152000Y-96912000D01*
X147352000Y-88206000D02*
X147352000Y-89376000D01*
X147352000Y-89376000D02*
X147320000Y-89408000D01*
X141290000Y-104648000D02*
X136906000Y-104648000D01*
X136906000Y-94488000D02*
X140274000Y-94488000D01*
X136938000Y-94456000D02*
X136906000Y-94488000D01*
X153924000Y-85278000D02*
X152842000Y-85278000D01*
X132588000Y-82804000D02*
X131572000Y-83820000D01*
X150368000Y-82804000D02*
X132588000Y-82804000D01*
X152842000Y-85278000D02*
X150368000Y-82804000D01*
X153602000Y-90456000D02*
X154908000Y-90456000D01*
X155956000Y-87310000D02*
X153924000Y-85278000D01*
X155956000Y-89408000D02*
X155956000Y-87310000D01*
X154908000Y-90456000D02*
X155956000Y-89408000D01*
X152400000Y-86360000D02*
X150368000Y-84328000D01*
X128016000Y-83820000D02*
X129032000Y-83820000D01*
X127000000Y-84836000D02*
X128016000Y-83820000D01*
X127000000Y-86868000D02*
X127000000Y-84836000D01*
X128524000Y-88900000D02*
X127000000Y-86868000D01*
X133096000Y-88900000D02*
X128524000Y-88900000D01*
X137668000Y-84328000D02*
X133096000Y-88900000D01*
X150368000Y-84328000D02*
X137668000Y-84328000D01*
X150368000Y-84328000D02*
X150368000Y-84328000D01*
X152400000Y-86360000D02*
X152152000Y-86608000D01*
X152152000Y-86608000D02*
X152400000Y-86360000D01*
X152152000Y-88206000D02*
X152152000Y-86608000D01*
X152152000Y-86608000D02*
X152400000Y-86360000D01*
X172744000Y-93980000D02*
X172744000Y-89638000D01*
X172744000Y-89638000D02*
X172974000Y-89408000D01*
X153602000Y-88070000D02*
X153416000Y-87884000D01*
X153602000Y-89656000D02*
X153602000Y-88070000D01*
X140142000Y-87884000D02*
X140142000Y-89850000D01*
X140142000Y-89850000D02*
X143148000Y-92856000D01*
X140208000Y-89916000D02*
X140142000Y-89850000D01*
X143148000Y-92856000D02*
X145102000Y-92856000D01*
X153924000Y-83378000D02*
X153924000Y-81264000D01*
X153924000Y-81264000D02*
X153908000Y-81280000D01*
X153908000Y-81280000D02*
X150876000Y-81280000D01*
X150876000Y-81280000D02*
X149352000Y-79756000D01*
X181864000Y-100584000D02*
X179324000Y-100584000D01*
X175744000Y-97004000D02*
X175744000Y-93980000D01*
X179324000Y-100584000D02*
X175744000Y-97004000D01*
X153602000Y-92056000D02*
X155556000Y-92056000D01*
X156064000Y-92564000D02*
X157138000Y-92564000D01*
X155556000Y-92056000D02*
X156064000Y-92564000D01*
X153602000Y-95256000D02*
X155188000Y-95256000D01*
X156280000Y-94164000D02*
X157138000Y-94164000D01*
X155188000Y-95256000D02*
X156280000Y-94164000D01*
X153602000Y-95256000D02*
X154184000Y-95256000D01*
X153602000Y-91256000D02*
X156630000Y-91256000D01*
X156630000Y-91256000D02*
X157138000Y-91764000D01*
X153602000Y-94456000D02*
X154972000Y-94456000D01*
X156064000Y-93364000D02*
X157138000Y-93364000D01*
X154972000Y-94456000D02*
X156064000Y-93364000D01*
X175768000Y-107630000D02*
X175768000Y-112268000D01*
X146552000Y-96706000D02*
X146118000Y-96706000D01*
X144780000Y-98044000D02*
X144780000Y-99634000D01*
X146118000Y-96706000D02*
X144780000Y-98044000D01*
D33*
G36*
X168800884Y-77424047D02*
X168717545Y-77677940D01*
X169600000Y-78560395D01*
X170482455Y-77677940D01*
X170399116Y-77424047D01*
X170086086Y-77310000D01*
X171577000Y-77310000D01*
X171577000Y-77724000D01*
X171587006Y-77773410D01*
X171615447Y-77815035D01*
X171657841Y-77842315D01*
X171704000Y-77851000D01*
X182753000Y-77851000D01*
X182753000Y-96559000D01*
X182149750Y-96559000D01*
X181991000Y-96717750D01*
X181991000Y-97917000D01*
X182011000Y-97917000D01*
X182011000Y-98171000D01*
X181991000Y-98171000D01*
X181991000Y-98191000D01*
X181737000Y-98191000D01*
X181737000Y-98171000D01*
X180537750Y-98171000D01*
X180379000Y-98329750D01*
X180379000Y-99020310D01*
X180475673Y-99253699D01*
X180654302Y-99432327D01*
X180887691Y-99529000D01*
X180985032Y-99529000D01*
X180863337Y-99610314D01*
X180648393Y-99932000D01*
X179594067Y-99932000D01*
X176729758Y-97067690D01*
X180379000Y-97067690D01*
X180379000Y-97758250D01*
X180537750Y-97917000D01*
X181737000Y-97917000D01*
X181737000Y-96717750D01*
X181578250Y-96559000D01*
X180887691Y-96559000D01*
X180654302Y-96655673D01*
X180475673Y-96834301D01*
X180379000Y-97067690D01*
X176729758Y-97067690D01*
X176396000Y-96733932D01*
X176396000Y-95288723D01*
X176439294Y-95280577D01*
X176618660Y-95165158D01*
X176738990Y-94989049D01*
X176781324Y-94780000D01*
X176781324Y-93180000D01*
X176744577Y-92984706D01*
X176629158Y-92805340D01*
X176453049Y-92685010D01*
X176244000Y-92642676D01*
X175244000Y-92642676D01*
X175048706Y-92679423D01*
X174869340Y-92794842D01*
X174749010Y-92970951D01*
X174706676Y-93180000D01*
X174706676Y-94780000D01*
X174743423Y-94975294D01*
X174858842Y-95154660D01*
X175034951Y-95274990D01*
X175092000Y-95286543D01*
X175092000Y-97003995D01*
X175091999Y-97004000D01*
X175124430Y-97167034D01*
X175141631Y-97253510D01*
X175234167Y-97392000D01*
X175282966Y-97465034D01*
X178862964Y-101045031D01*
X178862966Y-101045034D01*
X179004302Y-101139471D01*
X179074491Y-101186370D01*
X179324000Y-101236001D01*
X179324005Y-101236000D01*
X180648393Y-101236000D01*
X180863337Y-101557686D01*
X181310068Y-101856182D01*
X181837023Y-101961000D01*
X181890977Y-101961000D01*
X182417932Y-101856182D01*
X182753000Y-101632297D01*
X182753000Y-109448896D01*
X182387371Y-108901695D01*
X181725810Y-108459653D01*
X181872660Y-108365158D01*
X181992990Y-108189049D01*
X182035324Y-107980000D01*
X182035324Y-107280000D01*
X181998577Y-107084706D01*
X181883158Y-106905340D01*
X181707049Y-106785010D01*
X181498000Y-106742676D01*
X180198000Y-106742676D01*
X180002706Y-106779423D01*
X179823340Y-106894842D01*
X179703010Y-107070951D01*
X179660676Y-107280000D01*
X179660676Y-107980000D01*
X179697423Y-108175294D01*
X179812842Y-108354660D01*
X179968327Y-108460898D01*
X179308629Y-108901695D01*
X178836714Y-109607964D01*
X178671000Y-110441066D01*
X178671000Y-114094934D01*
X178836714Y-114928036D01*
X179308629Y-115634305D01*
X180014898Y-116106220D01*
X180848000Y-116271934D01*
X181681102Y-116106220D01*
X182387371Y-115634305D01*
X182753000Y-115087104D01*
X182753000Y-121285000D01*
X121539000Y-121285000D01*
X121539000Y-119035779D01*
X145476857Y-119035779D01*
X145602495Y-119339846D01*
X145834930Y-119572688D01*
X146138778Y-119698856D01*
X146467779Y-119699143D01*
X146771846Y-119573505D01*
X146821438Y-119524000D01*
X147007052Y-119524000D01*
X147043423Y-119717294D01*
X147158842Y-119896660D01*
X147334951Y-120016990D01*
X147544000Y-120059324D01*
X148244000Y-120059324D01*
X148439294Y-120022577D01*
X148618660Y-119907158D01*
X148738990Y-119731049D01*
X148781324Y-119522000D01*
X148781324Y-118222000D01*
X148744577Y-118026706D01*
X148629158Y-117847340D01*
X148453049Y-117727010D01*
X148244000Y-117684676D01*
X147544000Y-117684676D01*
X147348706Y-117721423D01*
X147169340Y-117836842D01*
X147049010Y-118012951D01*
X147007081Y-118220000D01*
X146821673Y-118220000D01*
X146773070Y-118171312D01*
X146469222Y-118045144D01*
X146140221Y-118044857D01*
X145836154Y-118170495D01*
X145603312Y-118402930D01*
X145477144Y-118706778D01*
X145476857Y-119035779D01*
X121539000Y-119035779D01*
X121539000Y-107370407D01*
X131568735Y-107370407D01*
X131800717Y-107931846D01*
X132229894Y-108361773D01*
X132790928Y-108594735D01*
X133398407Y-108595265D01*
X133959846Y-108363283D01*
X134389773Y-107934106D01*
X134622735Y-107373072D01*
X134623265Y-106765593D01*
X134391283Y-106204154D01*
X133962106Y-105774227D01*
X133401072Y-105541265D01*
X132793593Y-105540735D01*
X132232154Y-105772717D01*
X131802227Y-106201894D01*
X131569265Y-106762928D01*
X131568735Y-107370407D01*
X121539000Y-107370407D01*
X121539000Y-105520532D01*
X121963073Y-105520532D01*
X122061736Y-105787387D01*
X122671461Y-106013908D01*
X123321460Y-105989856D01*
X123810264Y-105787387D01*
X123908927Y-105520532D01*
X122936000Y-104547605D01*
X121963073Y-105520532D01*
X121539000Y-105520532D01*
X121539000Y-105250541D01*
X121783468Y-105340927D01*
X122756395Y-104368000D01*
X123115605Y-104368000D01*
X124088532Y-105340927D01*
X124355387Y-105242264D01*
X124581908Y-104632539D01*
X124557856Y-103982540D01*
X124355387Y-103493736D01*
X124088532Y-103395073D01*
X123115605Y-104368000D01*
X122756395Y-104368000D01*
X121783468Y-103395073D01*
X121539000Y-103485459D01*
X121539000Y-103215468D01*
X121963073Y-103215468D01*
X122936000Y-104188395D01*
X123908927Y-103215468D01*
X123810264Y-102948613D01*
X123200539Y-102722092D01*
X122550540Y-102746144D01*
X122061736Y-102948613D01*
X121963073Y-103215468D01*
X121539000Y-103215468D01*
X121539000Y-95920532D01*
X121963073Y-95920532D01*
X122061736Y-96187387D01*
X122671461Y-96413908D01*
X123321460Y-96389856D01*
X123810264Y-96187387D01*
X123908927Y-95920532D01*
X122936000Y-94947605D01*
X121963073Y-95920532D01*
X121539000Y-95920532D01*
X121539000Y-95650541D01*
X121783468Y-95740927D01*
X122756395Y-94768000D01*
X123115605Y-94768000D01*
X124088532Y-95740927D01*
X124355387Y-95642264D01*
X124581908Y-95032539D01*
X124557856Y-94382540D01*
X124355387Y-93893736D01*
X124088532Y-93795073D01*
X123115605Y-94768000D01*
X122756395Y-94768000D01*
X121783468Y-93795073D01*
X121539000Y-93885459D01*
X121539000Y-93615468D01*
X121963073Y-93615468D01*
X122936000Y-94588395D01*
X123908927Y-93615468D01*
X123810264Y-93348613D01*
X123200539Y-93122092D01*
X122550540Y-93146144D01*
X122061736Y-93348613D01*
X121963073Y-93615468D01*
X121539000Y-93615468D01*
X121539000Y-80264000D01*
X124823999Y-80264000D01*
X124824000Y-80264005D01*
X124824000Y-96011995D01*
X124823999Y-96012000D01*
X124856946Y-96177631D01*
X124873631Y-96261510D01*
X124979697Y-96420250D01*
X125014966Y-96473034D01*
X136698964Y-108157031D01*
X136698966Y-108157034D01*
X136910490Y-108298369D01*
X137160000Y-108348000D01*
X139182327Y-108348000D01*
X139230930Y-108396688D01*
X139534778Y-108522856D01*
X139863779Y-108523143D01*
X140167846Y-108397505D01*
X140400688Y-108165070D01*
X140526856Y-107861222D01*
X140527143Y-107532221D01*
X140401505Y-107228154D01*
X140169070Y-106995312D01*
X139865222Y-106869144D01*
X139536221Y-106868857D01*
X139232154Y-106994495D01*
X139182562Y-107044000D01*
X137430067Y-107044000D01*
X136616153Y-106230086D01*
X137019846Y-106063283D01*
X137449773Y-105634106D01*
X137588506Y-105300000D01*
X140403052Y-105300000D01*
X140439423Y-105493294D01*
X140554842Y-105672660D01*
X140730951Y-105792990D01*
X140940000Y-105835324D01*
X141588000Y-105835324D01*
X141588000Y-109727995D01*
X141587999Y-109728000D01*
X141623726Y-109907605D01*
X141637631Y-109977510D01*
X141696088Y-110064997D01*
X141778966Y-110189034D01*
X149142000Y-117552067D01*
X149142000Y-117790087D01*
X149069340Y-117836842D01*
X148949010Y-118012951D01*
X148906676Y-118222000D01*
X148906676Y-119522000D01*
X148943423Y-119717294D01*
X149058842Y-119896660D01*
X149234951Y-120016990D01*
X149444000Y-120059324D01*
X150144000Y-120059324D01*
X150339294Y-120022577D01*
X150518660Y-119907158D01*
X150638990Y-119731049D01*
X150680919Y-119524000D01*
X159003995Y-119524000D01*
X159004000Y-119524001D01*
X159212113Y-119482604D01*
X159253510Y-119474369D01*
X159465034Y-119333034D01*
X161346300Y-117451767D01*
X161544179Y-117583985D01*
X162052000Y-117684997D01*
X162559821Y-117583985D01*
X162990331Y-117296328D01*
X163277988Y-116865818D01*
X163322000Y-116644555D01*
X163366012Y-116865818D01*
X163653669Y-117296328D01*
X164084179Y-117583985D01*
X164592000Y-117684997D01*
X165099821Y-117583985D01*
X165530331Y-117296328D01*
X165817988Y-116865818D01*
X165919000Y-116357997D01*
X165919000Y-116306003D01*
X165817988Y-115798182D01*
X165530331Y-115367672D01*
X165099821Y-115080015D01*
X164592000Y-114979003D01*
X164232566Y-115050499D01*
X159623133Y-110441066D01*
X168511000Y-110441066D01*
X168511000Y-114094934D01*
X168676714Y-114928036D01*
X169148629Y-115634305D01*
X169854898Y-116106220D01*
X170688000Y-116271934D01*
X171521102Y-116106220D01*
X172227371Y-115634305D01*
X172699286Y-114928036D01*
X172865000Y-114094934D01*
X172865000Y-110441066D01*
X173591000Y-110441066D01*
X173591000Y-114094934D01*
X173756714Y-114928036D01*
X174228629Y-115634305D01*
X174934898Y-116106220D01*
X175768000Y-116271934D01*
X176601102Y-116106220D01*
X177307371Y-115634305D01*
X177779286Y-114928036D01*
X177945000Y-114094934D01*
X177945000Y-110441066D01*
X177779286Y-109607964D01*
X177307371Y-108901695D01*
X176645810Y-108459653D01*
X176792660Y-108365158D01*
X176912990Y-108189049D01*
X176955324Y-107980000D01*
X176955324Y-107280000D01*
X176918577Y-107084706D01*
X176803158Y-106905340D01*
X176627049Y-106785010D01*
X176418000Y-106742676D01*
X175118000Y-106742676D01*
X174922706Y-106779423D01*
X174743340Y-106894842D01*
X174623010Y-107070951D01*
X174580676Y-107280000D01*
X174580676Y-107980000D01*
X174617423Y-108175294D01*
X174732842Y-108354660D01*
X174888327Y-108460898D01*
X174228629Y-108901695D01*
X173756714Y-109607964D01*
X173591000Y-110441066D01*
X172865000Y-110441066D01*
X172699286Y-109607964D01*
X172227371Y-108901695D01*
X171521102Y-108429780D01*
X170688000Y-108264066D01*
X169854898Y-108429780D01*
X169148629Y-108901695D01*
X168676714Y-109607964D01*
X168511000Y-110441066D01*
X159623133Y-110441066D01*
X159181280Y-109999213D01*
X159512000Y-110064997D01*
X160019821Y-109963985D01*
X160450331Y-109676328D01*
X160737988Y-109245818D01*
X160782000Y-109024555D01*
X160826012Y-109245818D01*
X161113669Y-109676328D01*
X161544179Y-109963985D01*
X162052000Y-110064997D01*
X162559821Y-109963985D01*
X162990331Y-109676328D01*
X163277988Y-109245818D01*
X163322000Y-109024555D01*
X163366012Y-109245818D01*
X163653669Y-109676328D01*
X164084179Y-109963985D01*
X164592000Y-110064997D01*
X165099821Y-109963985D01*
X165530331Y-109676328D01*
X165817988Y-109245818D01*
X165919000Y-108737997D01*
X165919000Y-108686003D01*
X165817988Y-108178182D01*
X165530331Y-107747672D01*
X165099821Y-107460015D01*
X164592000Y-107359003D01*
X164084179Y-107460015D01*
X163653669Y-107747672D01*
X163366012Y-108178182D01*
X163322000Y-108399445D01*
X163277988Y-108178182D01*
X162990331Y-107747672D01*
X162559821Y-107460015D01*
X162052000Y-107359003D01*
X161544179Y-107460015D01*
X161113669Y-107747672D01*
X160826012Y-108178182D01*
X160782000Y-108399445D01*
X160737988Y-108178182D01*
X160450331Y-107747672D01*
X160019821Y-107460015D01*
X159512000Y-107359003D01*
X159004179Y-107460015D01*
X158573669Y-107747672D01*
X158286012Y-108178182D01*
X158242000Y-108399445D01*
X158197988Y-108178182D01*
X157910331Y-107747672D01*
X157479821Y-107460015D01*
X156972000Y-107359003D01*
X156464179Y-107460015D01*
X156033669Y-107747672D01*
X155814288Y-108076000D01*
X155057723Y-108076000D01*
X155049577Y-108032706D01*
X154934158Y-107853340D01*
X154758049Y-107733010D01*
X154549000Y-107690676D01*
X153327391Y-107690676D01*
X153686067Y-107332000D01*
X165607995Y-107332000D01*
X165608000Y-107332001D01*
X165816113Y-107290604D01*
X165857510Y-107282369D01*
X166069034Y-107141034D01*
X167194318Y-106015750D01*
X174483000Y-106015750D01*
X174483000Y-106206309D01*
X174579673Y-106439698D01*
X174758301Y-106618327D01*
X174991690Y-106715000D01*
X175482250Y-106715000D01*
X175641000Y-106556250D01*
X175641000Y-105857000D01*
X175895000Y-105857000D01*
X175895000Y-106556250D01*
X176053750Y-106715000D01*
X176544310Y-106715000D01*
X176777699Y-106618327D01*
X176956327Y-106439698D01*
X177053000Y-106206309D01*
X177053000Y-106015750D01*
X179563000Y-106015750D01*
X179563000Y-106206309D01*
X179659673Y-106439698D01*
X179838301Y-106618327D01*
X180071690Y-106715000D01*
X180562250Y-106715000D01*
X180721000Y-106556250D01*
X180721000Y-105857000D01*
X180975000Y-105857000D01*
X180975000Y-106556250D01*
X181133750Y-106715000D01*
X181624310Y-106715000D01*
X181857699Y-106618327D01*
X182036327Y-106439698D01*
X182133000Y-106206309D01*
X182133000Y-106015750D01*
X181974250Y-105857000D01*
X180975000Y-105857000D01*
X180721000Y-105857000D01*
X179721750Y-105857000D01*
X179563000Y-106015750D01*
X177053000Y-106015750D01*
X176894250Y-105857000D01*
X175895000Y-105857000D01*
X175641000Y-105857000D01*
X174641750Y-105857000D01*
X174483000Y-106015750D01*
X167194318Y-106015750D01*
X167956377Y-105253691D01*
X174483000Y-105253691D01*
X174483000Y-105444250D01*
X174641750Y-105603000D01*
X175641000Y-105603000D01*
X175641000Y-104903750D01*
X175895000Y-104903750D01*
X175895000Y-105603000D01*
X176894250Y-105603000D01*
X177053000Y-105444250D01*
X177053000Y-105253691D01*
X179563000Y-105253691D01*
X179563000Y-105444250D01*
X179721750Y-105603000D01*
X180721000Y-105603000D01*
X180721000Y-104903750D01*
X180975000Y-104903750D01*
X180975000Y-105603000D01*
X181974250Y-105603000D01*
X182133000Y-105444250D01*
X182133000Y-105253691D01*
X182036327Y-105020302D01*
X181857699Y-104841673D01*
X181624310Y-104745000D01*
X181133750Y-104745000D01*
X180975000Y-104903750D01*
X180721000Y-104903750D01*
X180562250Y-104745000D01*
X180071690Y-104745000D01*
X179838301Y-104841673D01*
X179659673Y-105020302D01*
X179563000Y-105253691D01*
X177053000Y-105253691D01*
X176956327Y-105020302D01*
X176777699Y-104841673D01*
X176544310Y-104745000D01*
X176053750Y-104745000D01*
X175895000Y-104903750D01*
X175641000Y-104903750D01*
X175482250Y-104745000D01*
X174991690Y-104745000D01*
X174758301Y-104841673D01*
X174579673Y-105020302D01*
X174483000Y-105253691D01*
X167956377Y-105253691D01*
X169117034Y-104093034D01*
X169180533Y-103998000D01*
X169258369Y-103881510D01*
X169274044Y-103802706D01*
X169308001Y-103632000D01*
X169308000Y-103631995D01*
X169308000Y-89408000D01*
X171141795Y-89408000D01*
X171239914Y-89901279D01*
X171519334Y-90319461D01*
X171937516Y-90598881D01*
X172092000Y-90629610D01*
X172092000Y-92671277D01*
X172048706Y-92679423D01*
X171869340Y-92794842D01*
X171749010Y-92970951D01*
X171706676Y-93180000D01*
X171706676Y-94780000D01*
X171743423Y-94975294D01*
X171858842Y-95154660D01*
X172034951Y-95274990D01*
X172244000Y-95317324D01*
X173244000Y-95317324D01*
X173439294Y-95280577D01*
X173618660Y-95165158D01*
X173738990Y-94989049D01*
X173781324Y-94780000D01*
X173781324Y-93180000D01*
X173744577Y-92984706D01*
X173629158Y-92805340D01*
X173453049Y-92685010D01*
X173396000Y-92673457D01*
X173396000Y-90697000D01*
X173517205Y-90697000D01*
X174010484Y-90598881D01*
X174428666Y-90319461D01*
X174708086Y-89901279D01*
X174737964Y-89751070D01*
X177461780Y-89751070D01*
X177476740Y-89825277D01*
X177738370Y-90306026D01*
X178164059Y-90650059D01*
X178689000Y-90805000D01*
X179197000Y-90805000D01*
X179197000Y-89535000D01*
X179451000Y-89535000D01*
X179451000Y-90805000D01*
X179959000Y-90805000D01*
X180483941Y-90650059D01*
X180909630Y-90306026D01*
X181171260Y-89825277D01*
X181186220Y-89751070D01*
X181063720Y-89535000D01*
X179451000Y-89535000D01*
X179197000Y-89535000D01*
X177584280Y-89535000D01*
X177461780Y-89751070D01*
X174737964Y-89751070D01*
X174806205Y-89408000D01*
X174737965Y-89064930D01*
X177461780Y-89064930D01*
X177584280Y-89281000D01*
X179197000Y-89281000D01*
X179197000Y-89261000D01*
X179451000Y-89261000D01*
X179451000Y-89281000D01*
X181063720Y-89281000D01*
X181186220Y-89064930D01*
X181171260Y-88990723D01*
X180909630Y-88509974D01*
X180483941Y-88165941D01*
X180217548Y-88087313D01*
X180360484Y-88058881D01*
X180778666Y-87779461D01*
X181058086Y-87361279D01*
X181156205Y-86868000D01*
X181058086Y-86374721D01*
X180778666Y-85956539D01*
X180360484Y-85677119D01*
X179962725Y-85598000D01*
X180360484Y-85518881D01*
X180778666Y-85239461D01*
X181058086Y-84821279D01*
X181156205Y-84328000D01*
X181058086Y-83834721D01*
X180778666Y-83416539D01*
X180360484Y-83137119D01*
X179867205Y-83039000D01*
X178780795Y-83039000D01*
X178287516Y-83137119D01*
X177869334Y-83416539D01*
X177589914Y-83834721D01*
X177491795Y-84328000D01*
X177589914Y-84821279D01*
X177869334Y-85239461D01*
X178287516Y-85518881D01*
X178685275Y-85598000D01*
X178287516Y-85677119D01*
X177869334Y-85956539D01*
X177589914Y-86374721D01*
X177491795Y-86868000D01*
X177589914Y-87361279D01*
X177869334Y-87779461D01*
X178287516Y-88058881D01*
X178430452Y-88087313D01*
X178164059Y-88165941D01*
X177738370Y-88509974D01*
X177476740Y-88990723D01*
X177461780Y-89064930D01*
X174737965Y-89064930D01*
X174708086Y-88914721D01*
X174428666Y-88496539D01*
X174010484Y-88217119D01*
X173517205Y-88119000D01*
X172430795Y-88119000D01*
X171937516Y-88217119D01*
X171519334Y-88496539D01*
X171239914Y-88914721D01*
X171141795Y-89408000D01*
X169308000Y-89408000D01*
X169308000Y-87646068D01*
X171636392Y-85317676D01*
X171937516Y-85518881D01*
X172430795Y-85617000D01*
X173517205Y-85617000D01*
X174010484Y-85518881D01*
X174428666Y-85239461D01*
X174708086Y-84821279D01*
X174806205Y-84328000D01*
X174708086Y-83834721D01*
X174428666Y-83416539D01*
X174010484Y-83137119D01*
X173517205Y-83039000D01*
X172430795Y-83039000D01*
X171937516Y-83137119D01*
X171519334Y-83416539D01*
X171239914Y-83834721D01*
X171231150Y-83878782D01*
X168194966Y-86914966D01*
X168053631Y-87126490D01*
X168053631Y-87126491D01*
X168003999Y-87376000D01*
X168004000Y-87376005D01*
X168004000Y-103361932D01*
X165337932Y-106028000D01*
X153686067Y-106028000D01*
X149988000Y-102329932D01*
X149988000Y-101209723D01*
X150031294Y-101201577D01*
X150210660Y-101086158D01*
X150330990Y-100910049D01*
X150373324Y-100701000D01*
X150373324Y-99960744D01*
X150612676Y-99721391D01*
X150612676Y-100318000D01*
X150649423Y-100513294D01*
X150764842Y-100692660D01*
X150940951Y-100812990D01*
X151150000Y-100855324D01*
X151739299Y-100855324D01*
X151740302Y-100856327D01*
X151973691Y-100953000D01*
X152114250Y-100953000D01*
X152273000Y-100794250D01*
X152273000Y-100388733D01*
X152287324Y-100318000D01*
X152287324Y-98818000D01*
X152273000Y-98741874D01*
X152273000Y-98341750D01*
X152114250Y-98183000D01*
X152004000Y-98183000D01*
X152004000Y-98043324D01*
X152427000Y-98043324D01*
X152482763Y-98032831D01*
X152659341Y-98209409D01*
X152527000Y-98341750D01*
X152527000Y-98747267D01*
X152512676Y-98818000D01*
X152512676Y-100318000D01*
X152527000Y-100394126D01*
X152527000Y-100794250D01*
X152685750Y-100953000D01*
X152826309Y-100953000D01*
X153059698Y-100856327D01*
X153060701Y-100855324D01*
X153650000Y-100855324D01*
X153845294Y-100818577D01*
X154024660Y-100703158D01*
X154144990Y-100527049D01*
X154187324Y-100318000D01*
X154187324Y-98818000D01*
X154150577Y-98622706D01*
X154035158Y-98443340D01*
X154002000Y-98420684D01*
X154002000Y-97978005D01*
X154002001Y-97978000D01*
X153952370Y-97728491D01*
X153811034Y-97516966D01*
X152964324Y-96670256D01*
X152964324Y-96068324D01*
X154402000Y-96068324D01*
X154597294Y-96031577D01*
X154776660Y-95916158D01*
X154782234Y-95908000D01*
X155187995Y-95908000D01*
X155188000Y-95908001D01*
X155396113Y-95866604D01*
X155437510Y-95858369D01*
X155649034Y-95717034D01*
X156502341Y-94863727D01*
X156688000Y-94901324D01*
X157588000Y-94901324D01*
X157783294Y-94864577D01*
X157962660Y-94749158D01*
X157986832Y-94713780D01*
X158002842Y-94738660D01*
X158178951Y-94858990D01*
X158388000Y-94901324D01*
X159288000Y-94901324D01*
X159483294Y-94864577D01*
X159558785Y-94816000D01*
X159768712Y-94816000D01*
X159826495Y-94955846D01*
X160058930Y-95188688D01*
X160362778Y-95314856D01*
X160691779Y-95315143D01*
X160995846Y-95189505D01*
X161228688Y-94957070D01*
X161354856Y-94653222D01*
X161355143Y-94324221D01*
X161229505Y-94020154D01*
X161189555Y-93980134D01*
X161228688Y-93941070D01*
X161354856Y-93637222D01*
X161355143Y-93308221D01*
X161229505Y-93004154D01*
X161189555Y-92964134D01*
X161228688Y-92925070D01*
X161354856Y-92621222D01*
X161355143Y-92292221D01*
X161229505Y-91988154D01*
X161189555Y-91948134D01*
X161228688Y-91909070D01*
X161354856Y-91605222D01*
X161355143Y-91276221D01*
X161229505Y-90972154D01*
X160997070Y-90739312D01*
X160693222Y-90613144D01*
X160364221Y-90612857D01*
X160060154Y-90738495D01*
X159827312Y-90970930D01*
X159768735Y-91112000D01*
X159559967Y-91112000D01*
X159497049Y-91069010D01*
X159288000Y-91026676D01*
X158388000Y-91026676D01*
X158192706Y-91063423D01*
X158013340Y-91178842D01*
X157989168Y-91214220D01*
X157973158Y-91189340D01*
X157797049Y-91069010D01*
X157588000Y-91026676D01*
X157322744Y-91026676D01*
X157091034Y-90794966D01*
X157007741Y-90739312D01*
X156879510Y-90653631D01*
X156838113Y-90645396D01*
X156630000Y-90603999D01*
X156629995Y-90604000D01*
X155682068Y-90604000D01*
X156417031Y-89869036D01*
X156417034Y-89869034D01*
X156558369Y-89657510D01*
X156558370Y-89657509D01*
X156608001Y-89408000D01*
X156608000Y-89407995D01*
X156608000Y-87310005D01*
X156608001Y-87310000D01*
X156562815Y-87082842D01*
X156558369Y-87060490D01*
X156417034Y-86848966D01*
X155111324Y-85543256D01*
X155111324Y-84928000D01*
X155074577Y-84732706D01*
X154959158Y-84553340D01*
X154783049Y-84433010D01*
X154574000Y-84390676D01*
X153274000Y-84390676D01*
X153078706Y-84427423D01*
X152978178Y-84492111D01*
X150829034Y-82342966D01*
X150766712Y-82301324D01*
X150617510Y-82201631D01*
X150576113Y-82193396D01*
X150368000Y-82151999D01*
X150367995Y-82152000D01*
X132640607Y-82152000D01*
X132871159Y-81806955D01*
X132975977Y-81280000D01*
X132871159Y-80753045D01*
X132572663Y-80306314D01*
X132180263Y-80044121D01*
X132179792Y-80041750D01*
X145327000Y-80041750D01*
X145327000Y-80732309D01*
X145423673Y-80965698D01*
X145602301Y-81144327D01*
X145835690Y-81241000D01*
X146526250Y-81241000D01*
X146685000Y-81082250D01*
X146685000Y-79883000D01*
X145485750Y-79883000D01*
X145327000Y-80041750D01*
X132179792Y-80041750D01*
X132174369Y-80014491D01*
X132174369Y-80014490D01*
X132033034Y-79802966D01*
X131017034Y-78786966D01*
X131006146Y-78779691D01*
X145327000Y-78779691D01*
X145327000Y-79470250D01*
X145485750Y-79629000D01*
X146685000Y-79629000D01*
X146685000Y-78429750D01*
X146939000Y-78429750D01*
X146939000Y-79629000D01*
X146959000Y-79629000D01*
X146959000Y-79883000D01*
X146939000Y-79883000D01*
X146939000Y-81082250D01*
X147097750Y-81241000D01*
X147788310Y-81241000D01*
X148021699Y-81144327D01*
X148200327Y-80965698D01*
X148297000Y-80732309D01*
X148297000Y-80634968D01*
X148378314Y-80756663D01*
X148825045Y-81055159D01*
X149352000Y-81159977D01*
X149753956Y-81080023D01*
X150414964Y-81741031D01*
X150414966Y-81741034D01*
X150626490Y-81882369D01*
X150876000Y-81932000D01*
X152793287Y-81932000D01*
X152798423Y-81959294D01*
X152913842Y-82138660D01*
X153089951Y-82258990D01*
X153272000Y-82295856D01*
X153272000Y-82491052D01*
X153078706Y-82527423D01*
X152899340Y-82642842D01*
X152779010Y-82818951D01*
X152736676Y-83028000D01*
X152736676Y-83728000D01*
X152773423Y-83923294D01*
X152888842Y-84102660D01*
X153064951Y-84222990D01*
X153274000Y-84265324D01*
X154574000Y-84265324D01*
X154769294Y-84228577D01*
X154948660Y-84113158D01*
X155068990Y-83937049D01*
X155111324Y-83728000D01*
X155111324Y-83028000D01*
X155074577Y-82832706D01*
X154959158Y-82653340D01*
X154783049Y-82533010D01*
X154576000Y-82491081D01*
X154576000Y-82296244D01*
X154744294Y-82264577D01*
X154923660Y-82149158D01*
X155043990Y-81973049D01*
X155086324Y-81764000D01*
X155086324Y-81542308D01*
X162272727Y-81542308D01*
X162512305Y-82122132D01*
X162955535Y-82566136D01*
X163534939Y-82806725D01*
X164162308Y-82807273D01*
X164742132Y-82567695D01*
X165186136Y-82124465D01*
X165426725Y-81545061D01*
X165427273Y-80917692D01*
X165187695Y-80337868D01*
X164992075Y-80141906D01*
X165377652Y-80142243D01*
X165893132Y-79929251D01*
X166020545Y-79802060D01*
X168717545Y-79802060D01*
X168800884Y-80055953D01*
X169365306Y-80261590D01*
X169608497Y-80251050D01*
X169523864Y-80335535D01*
X169283275Y-80914939D01*
X169282727Y-81542308D01*
X169522305Y-82122132D01*
X169965535Y-82566136D01*
X170544939Y-82806725D01*
X171172308Y-82807273D01*
X171752132Y-82567695D01*
X172196136Y-82124465D01*
X172436725Y-81545061D01*
X172437273Y-80917692D01*
X172197695Y-80337868D01*
X171754465Y-79893864D01*
X171175061Y-79653275D01*
X170692461Y-79652853D01*
X170662062Y-79622454D01*
X170915953Y-79539116D01*
X171121590Y-78974694D01*
X171095579Y-78374542D01*
X170915953Y-77940884D01*
X170662060Y-77857545D01*
X169779605Y-78740000D01*
X169793748Y-78754143D01*
X169614143Y-78933748D01*
X169600000Y-78919605D01*
X168717545Y-79802060D01*
X166020545Y-79802060D01*
X166287865Y-79535206D01*
X166501756Y-79020099D01*
X166502205Y-78505306D01*
X168078410Y-78505306D01*
X168104421Y-79105458D01*
X168284047Y-79539116D01*
X168537940Y-79622455D01*
X169420395Y-78740000D01*
X168537940Y-77857545D01*
X168284047Y-77940884D01*
X168078410Y-78505306D01*
X166502205Y-78505306D01*
X166502243Y-78462348D01*
X166289251Y-77946868D01*
X165895206Y-77552135D01*
X165380099Y-77338244D01*
X164822348Y-77337757D01*
X164306868Y-77550749D01*
X163912135Y-77944794D01*
X163698244Y-78459901D01*
X163697757Y-79017652D01*
X163910749Y-79533132D01*
X164030565Y-79653158D01*
X163537692Y-79652727D01*
X162957868Y-79892305D01*
X162513864Y-80335535D01*
X162273275Y-80914939D01*
X162272727Y-81542308D01*
X155086324Y-81542308D01*
X155086324Y-80764000D01*
X155049577Y-80568706D01*
X154934158Y-80389340D01*
X154845265Y-80328602D01*
X154908699Y-80302327D01*
X155087327Y-80123698D01*
X155184000Y-79890309D01*
X155184000Y-79549750D01*
X155025250Y-79391000D01*
X154051000Y-79391000D01*
X154051000Y-79411000D01*
X153797000Y-79411000D01*
X153797000Y-79391000D01*
X152822750Y-79391000D01*
X152664000Y-79549750D01*
X152664000Y-79890309D01*
X152760673Y-80123698D01*
X152939301Y-80302327D01*
X153002540Y-80328522D01*
X152924340Y-80378842D01*
X152804010Y-80554951D01*
X152789217Y-80628000D01*
X151146067Y-80628000D01*
X150657998Y-80139930D01*
X150729000Y-79782977D01*
X150729000Y-79729023D01*
X150624182Y-79202068D01*
X150325686Y-78755337D01*
X150149617Y-78637691D01*
X152664000Y-78637691D01*
X152664000Y-78978250D01*
X152822750Y-79137000D01*
X153797000Y-79137000D01*
X153797000Y-78287750D01*
X154051000Y-78287750D01*
X154051000Y-79137000D01*
X155025250Y-79137000D01*
X155184000Y-78978250D01*
X155184000Y-78637691D01*
X155087327Y-78404302D01*
X154908699Y-78225673D01*
X154675310Y-78129000D01*
X154209750Y-78129000D01*
X154051000Y-78287750D01*
X153797000Y-78287750D01*
X153638250Y-78129000D01*
X153172690Y-78129000D01*
X152939301Y-78225673D01*
X152760673Y-78404302D01*
X152664000Y-78637691D01*
X150149617Y-78637691D01*
X149878955Y-78456841D01*
X149352000Y-78352023D01*
X148825045Y-78456841D01*
X148378314Y-78755337D01*
X148297000Y-78877032D01*
X148297000Y-78779691D01*
X148200327Y-78546302D01*
X148021699Y-78367673D01*
X147788310Y-78271000D01*
X147097750Y-78271000D01*
X146939000Y-78429750D01*
X146685000Y-78429750D01*
X146526250Y-78271000D01*
X145835690Y-78271000D01*
X145602301Y-78367673D01*
X145423673Y-78546302D01*
X145327000Y-78779691D01*
X131006146Y-78779691D01*
X130805510Y-78645631D01*
X130764113Y-78637396D01*
X130556000Y-78595999D01*
X130555995Y-78596000D01*
X126492005Y-78596000D01*
X126492000Y-78595999D01*
X126283887Y-78637396D01*
X126242490Y-78645631D01*
X126041854Y-78779691D01*
X126030966Y-78786966D01*
X125014966Y-79802966D01*
X124873631Y-80014490D01*
X124873631Y-80014491D01*
X124823999Y-80264000D01*
X121539000Y-80264000D01*
X121539000Y-77851000D01*
X162560000Y-77851000D01*
X162609410Y-77840994D01*
X162651035Y-77812553D01*
X162678315Y-77770159D01*
X162687000Y-77724000D01*
X162687000Y-77310000D01*
X169076219Y-77310000D01*
X168800884Y-77424047D01*
X168800884Y-77424047D01*
G37*
X168800884Y-77424047D02*
X168717545Y-77677940D01*
X169600000Y-78560395D01*
X170482455Y-77677940D01*
X170399116Y-77424047D01*
X170086086Y-77310000D01*
X171577000Y-77310000D01*
X171577000Y-77724000D01*
X171587006Y-77773410D01*
X171615447Y-77815035D01*
X171657841Y-77842315D01*
X171704000Y-77851000D01*
X182753000Y-77851000D01*
X182753000Y-96559000D01*
X182149750Y-96559000D01*
X181991000Y-96717750D01*
X181991000Y-97917000D01*
X182011000Y-97917000D01*
X182011000Y-98171000D01*
X181991000Y-98171000D01*
X181991000Y-98191000D01*
X181737000Y-98191000D01*
X181737000Y-98171000D01*
X180537750Y-98171000D01*
X180379000Y-98329750D01*
X180379000Y-99020310D01*
X180475673Y-99253699D01*
X180654302Y-99432327D01*
X180887691Y-99529000D01*
X180985032Y-99529000D01*
X180863337Y-99610314D01*
X180648393Y-99932000D01*
X179594067Y-99932000D01*
X176729758Y-97067690D01*
X180379000Y-97067690D01*
X180379000Y-97758250D01*
X180537750Y-97917000D01*
X181737000Y-97917000D01*
X181737000Y-96717750D01*
X181578250Y-96559000D01*
X180887691Y-96559000D01*
X180654302Y-96655673D01*
X180475673Y-96834301D01*
X180379000Y-97067690D01*
X176729758Y-97067690D01*
X176396000Y-96733932D01*
X176396000Y-95288723D01*
X176439294Y-95280577D01*
X176618660Y-95165158D01*
X176738990Y-94989049D01*
X176781324Y-94780000D01*
X176781324Y-93180000D01*
X176744577Y-92984706D01*
X176629158Y-92805340D01*
X176453049Y-92685010D01*
X176244000Y-92642676D01*
X175244000Y-92642676D01*
X175048706Y-92679423D01*
X174869340Y-92794842D01*
X174749010Y-92970951D01*
X174706676Y-93180000D01*
X174706676Y-94780000D01*
X174743423Y-94975294D01*
X174858842Y-95154660D01*
X175034951Y-95274990D01*
X175092000Y-95286543D01*
X175092000Y-97003995D01*
X175091999Y-97004000D01*
X175124430Y-97167034D01*
X175141631Y-97253510D01*
X175234167Y-97392000D01*
X175282966Y-97465034D01*
X178862964Y-101045031D01*
X178862966Y-101045034D01*
X179004302Y-101139471D01*
X179074491Y-101186370D01*
X179324000Y-101236001D01*
X179324005Y-101236000D01*
X180648393Y-101236000D01*
X180863337Y-101557686D01*
X181310068Y-101856182D01*
X181837023Y-101961000D01*
X181890977Y-101961000D01*
X182417932Y-101856182D01*
X182753000Y-101632297D01*
X182753000Y-109448896D01*
X182387371Y-108901695D01*
X181725810Y-108459653D01*
X181872660Y-108365158D01*
X181992990Y-108189049D01*
X182035324Y-107980000D01*
X182035324Y-107280000D01*
X181998577Y-107084706D01*
X181883158Y-106905340D01*
X181707049Y-106785010D01*
X181498000Y-106742676D01*
X180198000Y-106742676D01*
X180002706Y-106779423D01*
X179823340Y-106894842D01*
X179703010Y-107070951D01*
X179660676Y-107280000D01*
X179660676Y-107980000D01*
X179697423Y-108175294D01*
X179812842Y-108354660D01*
X179968327Y-108460898D01*
X179308629Y-108901695D01*
X178836714Y-109607964D01*
X178671000Y-110441066D01*
X178671000Y-114094934D01*
X178836714Y-114928036D01*
X179308629Y-115634305D01*
X180014898Y-116106220D01*
X180848000Y-116271934D01*
X181681102Y-116106220D01*
X182387371Y-115634305D01*
X182753000Y-115087104D01*
X182753000Y-121285000D01*
X121539000Y-121285000D01*
X121539000Y-119035779D01*
X145476857Y-119035779D01*
X145602495Y-119339846D01*
X145834930Y-119572688D01*
X146138778Y-119698856D01*
X146467779Y-119699143D01*
X146771846Y-119573505D01*
X146821438Y-119524000D01*
X147007052Y-119524000D01*
X147043423Y-119717294D01*
X147158842Y-119896660D01*
X147334951Y-120016990D01*
X147544000Y-120059324D01*
X148244000Y-120059324D01*
X148439294Y-120022577D01*
X148618660Y-119907158D01*
X148738990Y-119731049D01*
X148781324Y-119522000D01*
X148781324Y-118222000D01*
X148744577Y-118026706D01*
X148629158Y-117847340D01*
X148453049Y-117727010D01*
X148244000Y-117684676D01*
X147544000Y-117684676D01*
X147348706Y-117721423D01*
X147169340Y-117836842D01*
X147049010Y-118012951D01*
X147007081Y-118220000D01*
X146821673Y-118220000D01*
X146773070Y-118171312D01*
X146469222Y-118045144D01*
X146140221Y-118044857D01*
X145836154Y-118170495D01*
X145603312Y-118402930D01*
X145477144Y-118706778D01*
X145476857Y-119035779D01*
X121539000Y-119035779D01*
X121539000Y-107370407D01*
X131568735Y-107370407D01*
X131800717Y-107931846D01*
X132229894Y-108361773D01*
X132790928Y-108594735D01*
X133398407Y-108595265D01*
X133959846Y-108363283D01*
X134389773Y-107934106D01*
X134622735Y-107373072D01*
X134623265Y-106765593D01*
X134391283Y-106204154D01*
X133962106Y-105774227D01*
X133401072Y-105541265D01*
X132793593Y-105540735D01*
X132232154Y-105772717D01*
X131802227Y-106201894D01*
X131569265Y-106762928D01*
X131568735Y-107370407D01*
X121539000Y-107370407D01*
X121539000Y-105520532D01*
X121963073Y-105520532D01*
X122061736Y-105787387D01*
X122671461Y-106013908D01*
X123321460Y-105989856D01*
X123810264Y-105787387D01*
X123908927Y-105520532D01*
X122936000Y-104547605D01*
X121963073Y-105520532D01*
X121539000Y-105520532D01*
X121539000Y-105250541D01*
X121783468Y-105340927D01*
X122756395Y-104368000D01*
X123115605Y-104368000D01*
X124088532Y-105340927D01*
X124355387Y-105242264D01*
X124581908Y-104632539D01*
X124557856Y-103982540D01*
X124355387Y-103493736D01*
X124088532Y-103395073D01*
X123115605Y-104368000D01*
X122756395Y-104368000D01*
X121783468Y-103395073D01*
X121539000Y-103485459D01*
X121539000Y-103215468D01*
X121963073Y-103215468D01*
X122936000Y-104188395D01*
X123908927Y-103215468D01*
X123810264Y-102948613D01*
X123200539Y-102722092D01*
X122550540Y-102746144D01*
X122061736Y-102948613D01*
X121963073Y-103215468D01*
X121539000Y-103215468D01*
X121539000Y-95920532D01*
X121963073Y-95920532D01*
X122061736Y-96187387D01*
X122671461Y-96413908D01*
X123321460Y-96389856D01*
X123810264Y-96187387D01*
X123908927Y-95920532D01*
X122936000Y-94947605D01*
X121963073Y-95920532D01*
X121539000Y-95920532D01*
X121539000Y-95650541D01*
X121783468Y-95740927D01*
X122756395Y-94768000D01*
X123115605Y-94768000D01*
X124088532Y-95740927D01*
X124355387Y-95642264D01*
X124581908Y-95032539D01*
X124557856Y-94382540D01*
X124355387Y-93893736D01*
X124088532Y-93795073D01*
X123115605Y-94768000D01*
X122756395Y-94768000D01*
X121783468Y-93795073D01*
X121539000Y-93885459D01*
X121539000Y-93615468D01*
X121963073Y-93615468D01*
X122936000Y-94588395D01*
X123908927Y-93615468D01*
X123810264Y-93348613D01*
X123200539Y-93122092D01*
X122550540Y-93146144D01*
X122061736Y-93348613D01*
X121963073Y-93615468D01*
X121539000Y-93615468D01*
X121539000Y-80264000D01*
X124823999Y-80264000D01*
X124824000Y-80264005D01*
X124824000Y-96011995D01*
X124823999Y-96012000D01*
X124856946Y-96177631D01*
X124873631Y-96261510D01*
X124979697Y-96420250D01*
X125014966Y-96473034D01*
X136698964Y-108157031D01*
X136698966Y-108157034D01*
X136910490Y-108298369D01*
X137160000Y-108348000D01*
X139182327Y-108348000D01*
X139230930Y-108396688D01*
X139534778Y-108522856D01*
X139863779Y-108523143D01*
X140167846Y-108397505D01*
X140400688Y-108165070D01*
X140526856Y-107861222D01*
X140527143Y-107532221D01*
X140401505Y-107228154D01*
X140169070Y-106995312D01*
X139865222Y-106869144D01*
X139536221Y-106868857D01*
X139232154Y-106994495D01*
X139182562Y-107044000D01*
X137430067Y-107044000D01*
X136616153Y-106230086D01*
X137019846Y-106063283D01*
X137449773Y-105634106D01*
X137588506Y-105300000D01*
X140403052Y-105300000D01*
X140439423Y-105493294D01*
X140554842Y-105672660D01*
X140730951Y-105792990D01*
X140940000Y-105835324D01*
X141588000Y-105835324D01*
X141588000Y-109727995D01*
X141587999Y-109728000D01*
X141623726Y-109907605D01*
X141637631Y-109977510D01*
X141696088Y-110064997D01*
X141778966Y-110189034D01*
X149142000Y-117552067D01*
X149142000Y-117790087D01*
X149069340Y-117836842D01*
X148949010Y-118012951D01*
X148906676Y-118222000D01*
X148906676Y-119522000D01*
X148943423Y-119717294D01*
X149058842Y-119896660D01*
X149234951Y-120016990D01*
X149444000Y-120059324D01*
X150144000Y-120059324D01*
X150339294Y-120022577D01*
X150518660Y-119907158D01*
X150638990Y-119731049D01*
X150680919Y-119524000D01*
X159003995Y-119524000D01*
X159004000Y-119524001D01*
X159212113Y-119482604D01*
X159253510Y-119474369D01*
X159465034Y-119333034D01*
X161346300Y-117451767D01*
X161544179Y-117583985D01*
X162052000Y-117684997D01*
X162559821Y-117583985D01*
X162990331Y-117296328D01*
X163277988Y-116865818D01*
X163322000Y-116644555D01*
X163366012Y-116865818D01*
X163653669Y-117296328D01*
X164084179Y-117583985D01*
X164592000Y-117684997D01*
X165099821Y-117583985D01*
X165530331Y-117296328D01*
X165817988Y-116865818D01*
X165919000Y-116357997D01*
X165919000Y-116306003D01*
X165817988Y-115798182D01*
X165530331Y-115367672D01*
X165099821Y-115080015D01*
X164592000Y-114979003D01*
X164232566Y-115050499D01*
X159623133Y-110441066D01*
X168511000Y-110441066D01*
X168511000Y-114094934D01*
X168676714Y-114928036D01*
X169148629Y-115634305D01*
X169854898Y-116106220D01*
X170688000Y-116271934D01*
X171521102Y-116106220D01*
X172227371Y-115634305D01*
X172699286Y-114928036D01*
X172865000Y-114094934D01*
X172865000Y-110441066D01*
X173591000Y-110441066D01*
X173591000Y-114094934D01*
X173756714Y-114928036D01*
X174228629Y-115634305D01*
X174934898Y-116106220D01*
X175768000Y-116271934D01*
X176601102Y-116106220D01*
X177307371Y-115634305D01*
X177779286Y-114928036D01*
X177945000Y-114094934D01*
X177945000Y-110441066D01*
X177779286Y-109607964D01*
X177307371Y-108901695D01*
X176645810Y-108459653D01*
X176792660Y-108365158D01*
X176912990Y-108189049D01*
X176955324Y-107980000D01*
X176955324Y-107280000D01*
X176918577Y-107084706D01*
X176803158Y-106905340D01*
X176627049Y-106785010D01*
X176418000Y-106742676D01*
X175118000Y-106742676D01*
X174922706Y-106779423D01*
X174743340Y-106894842D01*
X174623010Y-107070951D01*
X174580676Y-107280000D01*
X174580676Y-107980000D01*
X174617423Y-108175294D01*
X174732842Y-108354660D01*
X174888327Y-108460898D01*
X174228629Y-108901695D01*
X173756714Y-109607964D01*
X173591000Y-110441066D01*
X172865000Y-110441066D01*
X172699286Y-109607964D01*
X172227371Y-108901695D01*
X171521102Y-108429780D01*
X170688000Y-108264066D01*
X169854898Y-108429780D01*
X169148629Y-108901695D01*
X168676714Y-109607964D01*
X168511000Y-110441066D01*
X159623133Y-110441066D01*
X159181280Y-109999213D01*
X159512000Y-110064997D01*
X160019821Y-109963985D01*
X160450331Y-109676328D01*
X160737988Y-109245818D01*
X160782000Y-109024555D01*
X160826012Y-109245818D01*
X161113669Y-109676328D01*
X161544179Y-109963985D01*
X162052000Y-110064997D01*
X162559821Y-109963985D01*
X162990331Y-109676328D01*
X163277988Y-109245818D01*
X163322000Y-109024555D01*
X163366012Y-109245818D01*
X163653669Y-109676328D01*
X164084179Y-109963985D01*
X164592000Y-110064997D01*
X165099821Y-109963985D01*
X165530331Y-109676328D01*
X165817988Y-109245818D01*
X165919000Y-108737997D01*
X165919000Y-108686003D01*
X165817988Y-108178182D01*
X165530331Y-107747672D01*
X165099821Y-107460015D01*
X164592000Y-107359003D01*
X164084179Y-107460015D01*
X163653669Y-107747672D01*
X163366012Y-108178182D01*
X163322000Y-108399445D01*
X163277988Y-108178182D01*
X162990331Y-107747672D01*
X162559821Y-107460015D01*
X162052000Y-107359003D01*
X161544179Y-107460015D01*
X161113669Y-107747672D01*
X160826012Y-108178182D01*
X160782000Y-108399445D01*
X160737988Y-108178182D01*
X160450331Y-107747672D01*
X160019821Y-107460015D01*
X159512000Y-107359003D01*
X159004179Y-107460015D01*
X158573669Y-107747672D01*
X158286012Y-108178182D01*
X158242000Y-108399445D01*
X158197988Y-108178182D01*
X157910331Y-107747672D01*
X157479821Y-107460015D01*
X156972000Y-107359003D01*
X156464179Y-107460015D01*
X156033669Y-107747672D01*
X155814288Y-108076000D01*
X155057723Y-108076000D01*
X155049577Y-108032706D01*
X154934158Y-107853340D01*
X154758049Y-107733010D01*
X154549000Y-107690676D01*
X153327391Y-107690676D01*
X153686067Y-107332000D01*
X165607995Y-107332000D01*
X165608000Y-107332001D01*
X165816113Y-107290604D01*
X165857510Y-107282369D01*
X166069034Y-107141034D01*
X167194318Y-106015750D01*
X174483000Y-106015750D01*
X174483000Y-106206309D01*
X174579673Y-106439698D01*
X174758301Y-106618327D01*
X174991690Y-106715000D01*
X175482250Y-106715000D01*
X175641000Y-106556250D01*
X175641000Y-105857000D01*
X175895000Y-105857000D01*
X175895000Y-106556250D01*
X176053750Y-106715000D01*
X176544310Y-106715000D01*
X176777699Y-106618327D01*
X176956327Y-106439698D01*
X177053000Y-106206309D01*
X177053000Y-106015750D01*
X179563000Y-106015750D01*
X179563000Y-106206309D01*
X179659673Y-106439698D01*
X179838301Y-106618327D01*
X180071690Y-106715000D01*
X180562250Y-106715000D01*
X180721000Y-106556250D01*
X180721000Y-105857000D01*
X180975000Y-105857000D01*
X180975000Y-106556250D01*
X181133750Y-106715000D01*
X181624310Y-106715000D01*
X181857699Y-106618327D01*
X182036327Y-106439698D01*
X182133000Y-106206309D01*
X182133000Y-106015750D01*
X181974250Y-105857000D01*
X180975000Y-105857000D01*
X180721000Y-105857000D01*
X179721750Y-105857000D01*
X179563000Y-106015750D01*
X177053000Y-106015750D01*
X176894250Y-105857000D01*
X175895000Y-105857000D01*
X175641000Y-105857000D01*
X174641750Y-105857000D01*
X174483000Y-106015750D01*
X167194318Y-106015750D01*
X167956377Y-105253691D01*
X174483000Y-105253691D01*
X174483000Y-105444250D01*
X174641750Y-105603000D01*
X175641000Y-105603000D01*
X175641000Y-104903750D01*
X175895000Y-104903750D01*
X175895000Y-105603000D01*
X176894250Y-105603000D01*
X177053000Y-105444250D01*
X177053000Y-105253691D01*
X179563000Y-105253691D01*
X179563000Y-105444250D01*
X179721750Y-105603000D01*
X180721000Y-105603000D01*
X180721000Y-104903750D01*
X180975000Y-104903750D01*
X180975000Y-105603000D01*
X181974250Y-105603000D01*
X182133000Y-105444250D01*
X182133000Y-105253691D01*
X182036327Y-105020302D01*
X181857699Y-104841673D01*
X181624310Y-104745000D01*
X181133750Y-104745000D01*
X180975000Y-104903750D01*
X180721000Y-104903750D01*
X180562250Y-104745000D01*
X180071690Y-104745000D01*
X179838301Y-104841673D01*
X179659673Y-105020302D01*
X179563000Y-105253691D01*
X177053000Y-105253691D01*
X176956327Y-105020302D01*
X176777699Y-104841673D01*
X176544310Y-104745000D01*
X176053750Y-104745000D01*
X175895000Y-104903750D01*
X175641000Y-104903750D01*
X175482250Y-104745000D01*
X174991690Y-104745000D01*
X174758301Y-104841673D01*
X174579673Y-105020302D01*
X174483000Y-105253691D01*
X167956377Y-105253691D01*
X169117034Y-104093034D01*
X169180533Y-103998000D01*
X169258369Y-103881510D01*
X169274044Y-103802706D01*
X169308001Y-103632000D01*
X169308000Y-103631995D01*
X169308000Y-89408000D01*
X171141795Y-89408000D01*
X171239914Y-89901279D01*
X171519334Y-90319461D01*
X171937516Y-90598881D01*
X172092000Y-90629610D01*
X172092000Y-92671277D01*
X172048706Y-92679423D01*
X171869340Y-92794842D01*
X171749010Y-92970951D01*
X171706676Y-93180000D01*
X171706676Y-94780000D01*
X171743423Y-94975294D01*
X171858842Y-95154660D01*
X172034951Y-95274990D01*
X172244000Y-95317324D01*
X173244000Y-95317324D01*
X173439294Y-95280577D01*
X173618660Y-95165158D01*
X173738990Y-94989049D01*
X173781324Y-94780000D01*
X173781324Y-93180000D01*
X173744577Y-92984706D01*
X173629158Y-92805340D01*
X173453049Y-92685010D01*
X173396000Y-92673457D01*
X173396000Y-90697000D01*
X173517205Y-90697000D01*
X174010484Y-90598881D01*
X174428666Y-90319461D01*
X174708086Y-89901279D01*
X174737964Y-89751070D01*
X177461780Y-89751070D01*
X177476740Y-89825277D01*
X177738370Y-90306026D01*
X178164059Y-90650059D01*
X178689000Y-90805000D01*
X179197000Y-90805000D01*
X179197000Y-89535000D01*
X179451000Y-89535000D01*
X179451000Y-90805000D01*
X179959000Y-90805000D01*
X180483941Y-90650059D01*
X180909630Y-90306026D01*
X181171260Y-89825277D01*
X181186220Y-89751070D01*
X181063720Y-89535000D01*
X179451000Y-89535000D01*
X179197000Y-89535000D01*
X177584280Y-89535000D01*
X177461780Y-89751070D01*
X174737964Y-89751070D01*
X174806205Y-89408000D01*
X174737965Y-89064930D01*
X177461780Y-89064930D01*
X177584280Y-89281000D01*
X179197000Y-89281000D01*
X179197000Y-89261000D01*
X179451000Y-89261000D01*
X179451000Y-89281000D01*
X181063720Y-89281000D01*
X181186220Y-89064930D01*
X181171260Y-88990723D01*
X180909630Y-88509974D01*
X180483941Y-88165941D01*
X180217548Y-88087313D01*
X180360484Y-88058881D01*
X180778666Y-87779461D01*
X181058086Y-87361279D01*
X181156205Y-86868000D01*
X181058086Y-86374721D01*
X180778666Y-85956539D01*
X180360484Y-85677119D01*
X179962725Y-85598000D01*
X180360484Y-85518881D01*
X180778666Y-85239461D01*
X181058086Y-84821279D01*
X181156205Y-84328000D01*
X181058086Y-83834721D01*
X180778666Y-83416539D01*
X180360484Y-83137119D01*
X179867205Y-83039000D01*
X178780795Y-83039000D01*
X178287516Y-83137119D01*
X177869334Y-83416539D01*
X177589914Y-83834721D01*
X177491795Y-84328000D01*
X177589914Y-84821279D01*
X177869334Y-85239461D01*
X178287516Y-85518881D01*
X178685275Y-85598000D01*
X178287516Y-85677119D01*
X177869334Y-85956539D01*
X177589914Y-86374721D01*
X177491795Y-86868000D01*
X177589914Y-87361279D01*
X177869334Y-87779461D01*
X178287516Y-88058881D01*
X178430452Y-88087313D01*
X178164059Y-88165941D01*
X177738370Y-88509974D01*
X177476740Y-88990723D01*
X177461780Y-89064930D01*
X174737965Y-89064930D01*
X174708086Y-88914721D01*
X174428666Y-88496539D01*
X174010484Y-88217119D01*
X173517205Y-88119000D01*
X172430795Y-88119000D01*
X171937516Y-88217119D01*
X171519334Y-88496539D01*
X171239914Y-88914721D01*
X171141795Y-89408000D01*
X169308000Y-89408000D01*
X169308000Y-87646068D01*
X171636392Y-85317676D01*
X171937516Y-85518881D01*
X172430795Y-85617000D01*
X173517205Y-85617000D01*
X174010484Y-85518881D01*
X174428666Y-85239461D01*
X174708086Y-84821279D01*
X174806205Y-84328000D01*
X174708086Y-83834721D01*
X174428666Y-83416539D01*
X174010484Y-83137119D01*
X173517205Y-83039000D01*
X172430795Y-83039000D01*
X171937516Y-83137119D01*
X171519334Y-83416539D01*
X171239914Y-83834721D01*
X171231150Y-83878782D01*
X168194966Y-86914966D01*
X168053631Y-87126490D01*
X168053631Y-87126491D01*
X168003999Y-87376000D01*
X168004000Y-87376005D01*
X168004000Y-103361932D01*
X165337932Y-106028000D01*
X153686067Y-106028000D01*
X149988000Y-102329932D01*
X149988000Y-101209723D01*
X150031294Y-101201577D01*
X150210660Y-101086158D01*
X150330990Y-100910049D01*
X150373324Y-100701000D01*
X150373324Y-99960744D01*
X150612676Y-99721391D01*
X150612676Y-100318000D01*
X150649423Y-100513294D01*
X150764842Y-100692660D01*
X150940951Y-100812990D01*
X151150000Y-100855324D01*
X151739299Y-100855324D01*
X151740302Y-100856327D01*
X151973691Y-100953000D01*
X152114250Y-100953000D01*
X152273000Y-100794250D01*
X152273000Y-100388733D01*
X152287324Y-100318000D01*
X152287324Y-98818000D01*
X152273000Y-98741874D01*
X152273000Y-98341750D01*
X152114250Y-98183000D01*
X152004000Y-98183000D01*
X152004000Y-98043324D01*
X152427000Y-98043324D01*
X152482763Y-98032831D01*
X152659341Y-98209409D01*
X152527000Y-98341750D01*
X152527000Y-98747267D01*
X152512676Y-98818000D01*
X152512676Y-100318000D01*
X152527000Y-100394126D01*
X152527000Y-100794250D01*
X152685750Y-100953000D01*
X152826309Y-100953000D01*
X153059698Y-100856327D01*
X153060701Y-100855324D01*
X153650000Y-100855324D01*
X153845294Y-100818577D01*
X154024660Y-100703158D01*
X154144990Y-100527049D01*
X154187324Y-100318000D01*
X154187324Y-98818000D01*
X154150577Y-98622706D01*
X154035158Y-98443340D01*
X154002000Y-98420684D01*
X154002000Y-97978005D01*
X154002001Y-97978000D01*
X153952370Y-97728491D01*
X153811034Y-97516966D01*
X152964324Y-96670256D01*
X152964324Y-96068324D01*
X154402000Y-96068324D01*
X154597294Y-96031577D01*
X154776660Y-95916158D01*
X154782234Y-95908000D01*
X155187995Y-95908000D01*
X155188000Y-95908001D01*
X155396113Y-95866604D01*
X155437510Y-95858369D01*
X155649034Y-95717034D01*
X156502341Y-94863727D01*
X156688000Y-94901324D01*
X157588000Y-94901324D01*
X157783294Y-94864577D01*
X157962660Y-94749158D01*
X157986832Y-94713780D01*
X158002842Y-94738660D01*
X158178951Y-94858990D01*
X158388000Y-94901324D01*
X159288000Y-94901324D01*
X159483294Y-94864577D01*
X159558785Y-94816000D01*
X159768712Y-94816000D01*
X159826495Y-94955846D01*
X160058930Y-95188688D01*
X160362778Y-95314856D01*
X160691779Y-95315143D01*
X160995846Y-95189505D01*
X161228688Y-94957070D01*
X161354856Y-94653222D01*
X161355143Y-94324221D01*
X161229505Y-94020154D01*
X161189555Y-93980134D01*
X161228688Y-93941070D01*
X161354856Y-93637222D01*
X161355143Y-93308221D01*
X161229505Y-93004154D01*
X161189555Y-92964134D01*
X161228688Y-92925070D01*
X161354856Y-92621222D01*
X161355143Y-92292221D01*
X161229505Y-91988154D01*
X161189555Y-91948134D01*
X161228688Y-91909070D01*
X161354856Y-91605222D01*
X161355143Y-91276221D01*
X161229505Y-90972154D01*
X160997070Y-90739312D01*
X160693222Y-90613144D01*
X160364221Y-90612857D01*
X160060154Y-90738495D01*
X159827312Y-90970930D01*
X159768735Y-91112000D01*
X159559967Y-91112000D01*
X159497049Y-91069010D01*
X159288000Y-91026676D01*
X158388000Y-91026676D01*
X158192706Y-91063423D01*
X158013340Y-91178842D01*
X157989168Y-91214220D01*
X157973158Y-91189340D01*
X157797049Y-91069010D01*
X157588000Y-91026676D01*
X157322744Y-91026676D01*
X157091034Y-90794966D01*
X157007741Y-90739312D01*
X156879510Y-90653631D01*
X156838113Y-90645396D01*
X156630000Y-90603999D01*
X156629995Y-90604000D01*
X155682068Y-90604000D01*
X156417031Y-89869036D01*
X156417034Y-89869034D01*
X156558369Y-89657510D01*
X156558370Y-89657509D01*
X156608001Y-89408000D01*
X156608000Y-89407995D01*
X156608000Y-87310005D01*
X156608001Y-87310000D01*
X156562815Y-87082842D01*
X156558369Y-87060490D01*
X156417034Y-86848966D01*
X155111324Y-85543256D01*
X155111324Y-84928000D01*
X155074577Y-84732706D01*
X154959158Y-84553340D01*
X154783049Y-84433010D01*
X154574000Y-84390676D01*
X153274000Y-84390676D01*
X153078706Y-84427423D01*
X152978178Y-84492111D01*
X150829034Y-82342966D01*
X150766712Y-82301324D01*
X150617510Y-82201631D01*
X150576113Y-82193396D01*
X150368000Y-82151999D01*
X150367995Y-82152000D01*
X132640607Y-82152000D01*
X132871159Y-81806955D01*
X132975977Y-81280000D01*
X132871159Y-80753045D01*
X132572663Y-80306314D01*
X132180263Y-80044121D01*
X132179792Y-80041750D01*
X145327000Y-80041750D01*
X145327000Y-80732309D01*
X145423673Y-80965698D01*
X145602301Y-81144327D01*
X145835690Y-81241000D01*
X146526250Y-81241000D01*
X146685000Y-81082250D01*
X146685000Y-79883000D01*
X145485750Y-79883000D01*
X145327000Y-80041750D01*
X132179792Y-80041750D01*
X132174369Y-80014491D01*
X132174369Y-80014490D01*
X132033034Y-79802966D01*
X131017034Y-78786966D01*
X131006146Y-78779691D01*
X145327000Y-78779691D01*
X145327000Y-79470250D01*
X145485750Y-79629000D01*
X146685000Y-79629000D01*
X146685000Y-78429750D01*
X146939000Y-78429750D01*
X146939000Y-79629000D01*
X146959000Y-79629000D01*
X146959000Y-79883000D01*
X146939000Y-79883000D01*
X146939000Y-81082250D01*
X147097750Y-81241000D01*
X147788310Y-81241000D01*
X148021699Y-81144327D01*
X148200327Y-80965698D01*
X148297000Y-80732309D01*
X148297000Y-80634968D01*
X148378314Y-80756663D01*
X148825045Y-81055159D01*
X149352000Y-81159977D01*
X149753956Y-81080023D01*
X150414964Y-81741031D01*
X150414966Y-81741034D01*
X150626490Y-81882369D01*
X150876000Y-81932000D01*
X152793287Y-81932000D01*
X152798423Y-81959294D01*
X152913842Y-82138660D01*
X153089951Y-82258990D01*
X153272000Y-82295856D01*
X153272000Y-82491052D01*
X153078706Y-82527423D01*
X152899340Y-82642842D01*
X152779010Y-82818951D01*
X152736676Y-83028000D01*
X152736676Y-83728000D01*
X152773423Y-83923294D01*
X152888842Y-84102660D01*
X153064951Y-84222990D01*
X153274000Y-84265324D01*
X154574000Y-84265324D01*
X154769294Y-84228577D01*
X154948660Y-84113158D01*
X155068990Y-83937049D01*
X155111324Y-83728000D01*
X155111324Y-83028000D01*
X155074577Y-82832706D01*
X154959158Y-82653340D01*
X154783049Y-82533010D01*
X154576000Y-82491081D01*
X154576000Y-82296244D01*
X154744294Y-82264577D01*
X154923660Y-82149158D01*
X155043990Y-81973049D01*
X155086324Y-81764000D01*
X155086324Y-81542308D01*
X162272727Y-81542308D01*
X162512305Y-82122132D01*
X162955535Y-82566136D01*
X163534939Y-82806725D01*
X164162308Y-82807273D01*
X164742132Y-82567695D01*
X165186136Y-82124465D01*
X165426725Y-81545061D01*
X165427273Y-80917692D01*
X165187695Y-80337868D01*
X164992075Y-80141906D01*
X165377652Y-80142243D01*
X165893132Y-79929251D01*
X166020545Y-79802060D01*
X168717545Y-79802060D01*
X168800884Y-80055953D01*
X169365306Y-80261590D01*
X169608497Y-80251050D01*
X169523864Y-80335535D01*
X169283275Y-80914939D01*
X169282727Y-81542308D01*
X169522305Y-82122132D01*
X169965535Y-82566136D01*
X170544939Y-82806725D01*
X171172308Y-82807273D01*
X171752132Y-82567695D01*
X172196136Y-82124465D01*
X172436725Y-81545061D01*
X172437273Y-80917692D01*
X172197695Y-80337868D01*
X171754465Y-79893864D01*
X171175061Y-79653275D01*
X170692461Y-79652853D01*
X170662062Y-79622454D01*
X170915953Y-79539116D01*
X171121590Y-78974694D01*
X171095579Y-78374542D01*
X170915953Y-77940884D01*
X170662060Y-77857545D01*
X169779605Y-78740000D01*
X169793748Y-78754143D01*
X169614143Y-78933748D01*
X169600000Y-78919605D01*
X168717545Y-79802060D01*
X166020545Y-79802060D01*
X166287865Y-79535206D01*
X166501756Y-79020099D01*
X166502205Y-78505306D01*
X168078410Y-78505306D01*
X168104421Y-79105458D01*
X168284047Y-79539116D01*
X168537940Y-79622455D01*
X169420395Y-78740000D01*
X168537940Y-77857545D01*
X168284047Y-77940884D01*
X168078410Y-78505306D01*
X166502205Y-78505306D01*
X166502243Y-78462348D01*
X166289251Y-77946868D01*
X165895206Y-77552135D01*
X165380099Y-77338244D01*
X164822348Y-77337757D01*
X164306868Y-77550749D01*
X163912135Y-77944794D01*
X163698244Y-78459901D01*
X163697757Y-79017652D01*
X163910749Y-79533132D01*
X164030565Y-79653158D01*
X163537692Y-79652727D01*
X162957868Y-79892305D01*
X162513864Y-80335535D01*
X162273275Y-80914939D01*
X162272727Y-81542308D01*
X155086324Y-81542308D01*
X155086324Y-80764000D01*
X155049577Y-80568706D01*
X154934158Y-80389340D01*
X154845265Y-80328602D01*
X154908699Y-80302327D01*
X155087327Y-80123698D01*
X155184000Y-79890309D01*
X155184000Y-79549750D01*
X155025250Y-79391000D01*
X154051000Y-79391000D01*
X154051000Y-79411000D01*
X153797000Y-79411000D01*
X153797000Y-79391000D01*
X152822750Y-79391000D01*
X152664000Y-79549750D01*
X152664000Y-79890309D01*
X152760673Y-80123698D01*
X152939301Y-80302327D01*
X153002540Y-80328522D01*
X152924340Y-80378842D01*
X152804010Y-80554951D01*
X152789217Y-80628000D01*
X151146067Y-80628000D01*
X150657998Y-80139930D01*
X150729000Y-79782977D01*
X150729000Y-79729023D01*
X150624182Y-79202068D01*
X150325686Y-78755337D01*
X150149617Y-78637691D01*
X152664000Y-78637691D01*
X152664000Y-78978250D01*
X152822750Y-79137000D01*
X153797000Y-79137000D01*
X153797000Y-78287750D01*
X154051000Y-78287750D01*
X154051000Y-79137000D01*
X155025250Y-79137000D01*
X155184000Y-78978250D01*
X155184000Y-78637691D01*
X155087327Y-78404302D01*
X154908699Y-78225673D01*
X154675310Y-78129000D01*
X154209750Y-78129000D01*
X154051000Y-78287750D01*
X153797000Y-78287750D01*
X153638250Y-78129000D01*
X153172690Y-78129000D01*
X152939301Y-78225673D01*
X152760673Y-78404302D01*
X152664000Y-78637691D01*
X150149617Y-78637691D01*
X149878955Y-78456841D01*
X149352000Y-78352023D01*
X148825045Y-78456841D01*
X148378314Y-78755337D01*
X148297000Y-78877032D01*
X148297000Y-78779691D01*
X148200327Y-78546302D01*
X148021699Y-78367673D01*
X147788310Y-78271000D01*
X147097750Y-78271000D01*
X146939000Y-78429750D01*
X146685000Y-78429750D01*
X146526250Y-78271000D01*
X145835690Y-78271000D01*
X145602301Y-78367673D01*
X145423673Y-78546302D01*
X145327000Y-78779691D01*
X131006146Y-78779691D01*
X130805510Y-78645631D01*
X130764113Y-78637396D01*
X130556000Y-78595999D01*
X130555995Y-78596000D01*
X126492005Y-78596000D01*
X126492000Y-78595999D01*
X126283887Y-78637396D01*
X126242490Y-78645631D01*
X126041854Y-78779691D01*
X126030966Y-78786966D01*
X125014966Y-79802966D01*
X124873631Y-80014490D01*
X124873631Y-80014491D01*
X124823999Y-80264000D01*
X121539000Y-80264000D01*
X121539000Y-77851000D01*
X162560000Y-77851000D01*
X162609410Y-77840994D01*
X162651035Y-77812553D01*
X162678315Y-77770159D01*
X162687000Y-77724000D01*
X162687000Y-77310000D01*
X169076219Y-77310000D01*
X168800884Y-77424047D01*
G36*
X144394917Y-106774985D02*
X144394857Y-106843779D01*
X144520495Y-107147846D01*
X144752930Y-107380688D01*
X145056778Y-107506856D01*
X145385779Y-107507143D01*
X145689846Y-107381505D01*
X145739438Y-107332000D01*
X151841933Y-107332000D01*
X150783256Y-108390676D01*
X150076000Y-108390676D01*
X149880706Y-108427423D01*
X149701340Y-108542842D01*
X149581010Y-108718951D01*
X149538676Y-108928000D01*
X149538676Y-108946528D01*
X149383745Y-108899861D01*
X148555605Y-109728000D01*
X149383745Y-110556139D01*
X149538676Y-110509472D01*
X149538676Y-110528000D01*
X149575423Y-110723294D01*
X149690842Y-110902660D01*
X149866951Y-111022990D01*
X150076000Y-111065324D01*
X151676000Y-111065324D01*
X151871294Y-111028577D01*
X151894335Y-111013750D01*
X152664000Y-111013750D01*
X152664000Y-111354309D01*
X152760673Y-111587698D01*
X152939301Y-111766327D01*
X153172690Y-111863000D01*
X153638250Y-111863000D01*
X153797000Y-111704250D01*
X153797000Y-110855000D01*
X154051000Y-110855000D01*
X154051000Y-111704250D01*
X154209750Y-111863000D01*
X154675310Y-111863000D01*
X154908699Y-111766327D01*
X155087327Y-111587698D01*
X155184000Y-111354309D01*
X155184000Y-111013750D01*
X155025250Y-110855000D01*
X154051000Y-110855000D01*
X153797000Y-110855000D01*
X152822750Y-110855000D01*
X152664000Y-111013750D01*
X151894335Y-111013750D01*
X152050660Y-110913158D01*
X152170990Y-110737049D01*
X152213324Y-110528000D01*
X152213324Y-110380000D01*
X152664000Y-110380000D01*
X152664000Y-110442250D01*
X152822750Y-110601000D01*
X153797000Y-110601000D01*
X153797000Y-110581000D01*
X154051000Y-110581000D01*
X154051000Y-110601000D01*
X155025250Y-110601000D01*
X155184000Y-110442250D01*
X155184000Y-110101691D01*
X155087327Y-109868302D01*
X154908699Y-109689673D01*
X154845460Y-109663478D01*
X154923660Y-109613158D01*
X155043990Y-109437049D01*
X155055543Y-109380000D01*
X155835669Y-109380000D01*
X156033669Y-109676328D01*
X156464179Y-109963985D01*
X156972000Y-110064997D01*
X157331433Y-109993501D01*
X162382720Y-115044787D01*
X162052000Y-114979003D01*
X161544179Y-115080015D01*
X161113669Y-115367672D01*
X160826012Y-115798182D01*
X160782000Y-116019445D01*
X160737988Y-115798182D01*
X160450331Y-115367672D01*
X160019821Y-115080015D01*
X159512000Y-114979003D01*
X159004179Y-115080015D01*
X158573669Y-115367672D01*
X158407000Y-115617110D01*
X158407000Y-115405691D01*
X158310327Y-115172302D01*
X158131699Y-114993673D01*
X157898310Y-114897000D01*
X157257750Y-114897000D01*
X157099000Y-115055750D01*
X157099000Y-116205000D01*
X157119000Y-116205000D01*
X157119000Y-116459000D01*
X157099000Y-116459000D01*
X157099000Y-117608250D01*
X157257750Y-117767000D01*
X157898310Y-117767000D01*
X158131699Y-117670327D01*
X158310327Y-117491698D01*
X158407000Y-117258309D01*
X158407000Y-117046890D01*
X158573669Y-117296328D01*
X159004179Y-117583985D01*
X159309262Y-117644670D01*
X158733932Y-118220000D01*
X150680948Y-118220000D01*
X150644577Y-118026706D01*
X150529158Y-117847340D01*
X150446000Y-117790521D01*
X150446000Y-117282000D01*
X150396369Y-117032490D01*
X150255034Y-116820966D01*
X150255031Y-116820964D01*
X150051818Y-116617750D01*
X155537000Y-116617750D01*
X155537000Y-117258309D01*
X155633673Y-117491698D01*
X155812301Y-117670327D01*
X156045690Y-117767000D01*
X156686250Y-117767000D01*
X156845000Y-117608250D01*
X156845000Y-116459000D01*
X155695750Y-116459000D01*
X155537000Y-116617750D01*
X150051818Y-116617750D01*
X148839759Y-115405691D01*
X155537000Y-115405691D01*
X155537000Y-116046250D01*
X155695750Y-116205000D01*
X156845000Y-116205000D01*
X156845000Y-115055750D01*
X156686250Y-114897000D01*
X156045690Y-114897000D01*
X155812301Y-114993673D01*
X155633673Y-115172302D01*
X155537000Y-115405691D01*
X148839759Y-115405691D01*
X144169813Y-110735745D01*
X147547861Y-110735745D01*
X147621995Y-110981864D01*
X148159223Y-111174965D01*
X148729454Y-111147778D01*
X149130005Y-110981864D01*
X149204139Y-110735745D01*
X148376000Y-109907605D01*
X147547861Y-110735745D01*
X144169813Y-110735745D01*
X142945291Y-109511223D01*
X146929035Y-109511223D01*
X146956222Y-110081454D01*
X147122136Y-110482005D01*
X147368255Y-110556139D01*
X148196395Y-109728000D01*
X147368255Y-108899861D01*
X147122136Y-108973995D01*
X146929035Y-109511223D01*
X142945291Y-109511223D01*
X142892000Y-109457932D01*
X142892000Y-108720255D01*
X147547861Y-108720255D01*
X148376000Y-109548395D01*
X149204139Y-108720255D01*
X149130005Y-108474136D01*
X148592777Y-108281035D01*
X148022546Y-108308222D01*
X147621995Y-108474136D01*
X147547861Y-108720255D01*
X142892000Y-108720255D01*
X142892000Y-105835324D01*
X143455256Y-105835324D01*
X144394917Y-106774985D01*
X144394917Y-106774985D01*
G37*
X144394917Y-106774985D02*
X144394857Y-106843779D01*
X144520495Y-107147846D01*
X144752930Y-107380688D01*
X145056778Y-107506856D01*
X145385779Y-107507143D01*
X145689846Y-107381505D01*
X145739438Y-107332000D01*
X151841933Y-107332000D01*
X150783256Y-108390676D01*
X150076000Y-108390676D01*
X149880706Y-108427423D01*
X149701340Y-108542842D01*
X149581010Y-108718951D01*
X149538676Y-108928000D01*
X149538676Y-108946528D01*
X149383745Y-108899861D01*
X148555605Y-109728000D01*
X149383745Y-110556139D01*
X149538676Y-110509472D01*
X149538676Y-110528000D01*
X149575423Y-110723294D01*
X149690842Y-110902660D01*
X149866951Y-111022990D01*
X150076000Y-111065324D01*
X151676000Y-111065324D01*
X151871294Y-111028577D01*
X151894335Y-111013750D01*
X152664000Y-111013750D01*
X152664000Y-111354309D01*
X152760673Y-111587698D01*
X152939301Y-111766327D01*
X153172690Y-111863000D01*
X153638250Y-111863000D01*
X153797000Y-111704250D01*
X153797000Y-110855000D01*
X154051000Y-110855000D01*
X154051000Y-111704250D01*
X154209750Y-111863000D01*
X154675310Y-111863000D01*
X154908699Y-111766327D01*
X155087327Y-111587698D01*
X155184000Y-111354309D01*
X155184000Y-111013750D01*
X155025250Y-110855000D01*
X154051000Y-110855000D01*
X153797000Y-110855000D01*
X152822750Y-110855000D01*
X152664000Y-111013750D01*
X151894335Y-111013750D01*
X152050660Y-110913158D01*
X152170990Y-110737049D01*
X152213324Y-110528000D01*
X152213324Y-110380000D01*
X152664000Y-110380000D01*
X152664000Y-110442250D01*
X152822750Y-110601000D01*
X153797000Y-110601000D01*
X153797000Y-110581000D01*
X154051000Y-110581000D01*
X154051000Y-110601000D01*
X155025250Y-110601000D01*
X155184000Y-110442250D01*
X155184000Y-110101691D01*
X155087327Y-109868302D01*
X154908699Y-109689673D01*
X154845460Y-109663478D01*
X154923660Y-109613158D01*
X155043990Y-109437049D01*
X155055543Y-109380000D01*
X155835669Y-109380000D01*
X156033669Y-109676328D01*
X156464179Y-109963985D01*
X156972000Y-110064997D01*
X157331433Y-109993501D01*
X162382720Y-115044787D01*
X162052000Y-114979003D01*
X161544179Y-115080015D01*
X161113669Y-115367672D01*
X160826012Y-115798182D01*
X160782000Y-116019445D01*
X160737988Y-115798182D01*
X160450331Y-115367672D01*
X160019821Y-115080015D01*
X159512000Y-114979003D01*
X159004179Y-115080015D01*
X158573669Y-115367672D01*
X158407000Y-115617110D01*
X158407000Y-115405691D01*
X158310327Y-115172302D01*
X158131699Y-114993673D01*
X157898310Y-114897000D01*
X157257750Y-114897000D01*
X157099000Y-115055750D01*
X157099000Y-116205000D01*
X157119000Y-116205000D01*
X157119000Y-116459000D01*
X157099000Y-116459000D01*
X157099000Y-117608250D01*
X157257750Y-117767000D01*
X157898310Y-117767000D01*
X158131699Y-117670327D01*
X158310327Y-117491698D01*
X158407000Y-117258309D01*
X158407000Y-117046890D01*
X158573669Y-117296328D01*
X159004179Y-117583985D01*
X159309262Y-117644670D01*
X158733932Y-118220000D01*
X150680948Y-118220000D01*
X150644577Y-118026706D01*
X150529158Y-117847340D01*
X150446000Y-117790521D01*
X150446000Y-117282000D01*
X150396369Y-117032490D01*
X150255034Y-116820966D01*
X150255031Y-116820964D01*
X150051818Y-116617750D01*
X155537000Y-116617750D01*
X155537000Y-117258309D01*
X155633673Y-117491698D01*
X155812301Y-117670327D01*
X156045690Y-117767000D01*
X156686250Y-117767000D01*
X156845000Y-117608250D01*
X156845000Y-116459000D01*
X155695750Y-116459000D01*
X155537000Y-116617750D01*
X150051818Y-116617750D01*
X148839759Y-115405691D01*
X155537000Y-115405691D01*
X155537000Y-116046250D01*
X155695750Y-116205000D01*
X156845000Y-116205000D01*
X156845000Y-115055750D01*
X156686250Y-114897000D01*
X156045690Y-114897000D01*
X155812301Y-114993673D01*
X155633673Y-115172302D01*
X155537000Y-115405691D01*
X148839759Y-115405691D01*
X144169813Y-110735745D01*
X147547861Y-110735745D01*
X147621995Y-110981864D01*
X148159223Y-111174965D01*
X148729454Y-111147778D01*
X149130005Y-110981864D01*
X149204139Y-110735745D01*
X148376000Y-109907605D01*
X147547861Y-110735745D01*
X144169813Y-110735745D01*
X142945291Y-109511223D01*
X146929035Y-109511223D01*
X146956222Y-110081454D01*
X147122136Y-110482005D01*
X147368255Y-110556139D01*
X148196395Y-109728000D01*
X147368255Y-108899861D01*
X147122136Y-108973995D01*
X146929035Y-109511223D01*
X142945291Y-109511223D01*
X142892000Y-109457932D01*
X142892000Y-108720255D01*
X147547861Y-108720255D01*
X148376000Y-109548395D01*
X149204139Y-108720255D01*
X149130005Y-108474136D01*
X148592777Y-108281035D01*
X148022546Y-108308222D01*
X147621995Y-108474136D01*
X147547861Y-108720255D01*
X142892000Y-108720255D01*
X142892000Y-105835324D01*
X143455256Y-105835324D01*
X144394917Y-106774985D01*
G36*
X145739676Y-96189701D02*
X145656966Y-96244966D01*
X145656964Y-96244969D01*
X144318966Y-97582966D01*
X144177631Y-97794490D01*
X144177631Y-97794491D01*
X144127999Y-98044000D01*
X144128000Y-98044005D01*
X144128000Y-98747052D01*
X143934706Y-98783423D01*
X143755340Y-98898842D01*
X143635010Y-99074951D01*
X143592676Y-99284000D01*
X143592676Y-99984000D01*
X143629423Y-100179294D01*
X143744842Y-100358660D01*
X143920951Y-100478990D01*
X144130000Y-100521324D01*
X145430000Y-100521324D01*
X145625294Y-100484577D01*
X145804660Y-100369158D01*
X145809721Y-100361750D01*
X146201000Y-100361750D01*
X146201000Y-100827310D01*
X146297673Y-101060699D01*
X146476302Y-101239327D01*
X146709691Y-101336000D01*
X147050250Y-101336000D01*
X147209000Y-101177250D01*
X147209000Y-100203000D01*
X146359750Y-100203000D01*
X146201000Y-100361750D01*
X145809721Y-100361750D01*
X145924990Y-100193049D01*
X145967324Y-99984000D01*
X145967324Y-99324690D01*
X146201000Y-99324690D01*
X146201000Y-99790250D01*
X146359750Y-99949000D01*
X147209000Y-99949000D01*
X147209000Y-98974750D01*
X147050250Y-98816000D01*
X146709691Y-98816000D01*
X146476302Y-98912673D01*
X146297673Y-99091301D01*
X146201000Y-99324690D01*
X145967324Y-99324690D01*
X145967324Y-99284000D01*
X145930577Y-99088706D01*
X145815158Y-98909340D01*
X145639049Y-98789010D01*
X145432000Y-98747081D01*
X145432000Y-98314068D01*
X145881492Y-97864576D01*
X145891842Y-97880660D01*
X146067951Y-98000990D01*
X146277000Y-98043324D01*
X146827000Y-98043324D01*
X146956590Y-98018940D01*
X147077000Y-98043324D01*
X147516298Y-98043324D01*
X147517301Y-98044327D01*
X147750690Y-98141000D01*
X147866250Y-98141000D01*
X148025000Y-97982250D01*
X148025000Y-97856999D01*
X148121990Y-97715049D01*
X148151547Y-97569092D01*
X148176423Y-97701294D01*
X148279000Y-97860703D01*
X148279000Y-97982250D01*
X148300000Y-98003250D01*
X148300000Y-99016974D01*
X148195698Y-98912673D01*
X147962309Y-98816000D01*
X147621750Y-98816000D01*
X147463000Y-98974750D01*
X147463000Y-99949000D01*
X147483000Y-99949000D01*
X147483000Y-100203000D01*
X147463000Y-100203000D01*
X147463000Y-101177250D01*
X147621750Y-101336000D01*
X147962309Y-101336000D01*
X148195698Y-101239327D01*
X148374327Y-101060699D01*
X148377547Y-101052924D01*
X148382966Y-101061034D01*
X148594491Y-101202369D01*
X148684000Y-101220174D01*
X148684000Y-102599995D01*
X148683999Y-102600000D01*
X148713070Y-102746144D01*
X148733631Y-102849510D01*
X148853983Y-103029631D01*
X148874966Y-103061034D01*
X151841933Y-106028000D01*
X145739673Y-106028000D01*
X145691070Y-105979312D01*
X145387222Y-105853144D01*
X145317151Y-105853083D01*
X144077324Y-104613256D01*
X144077324Y-103998000D01*
X144040577Y-103802706D01*
X143925158Y-103623340D01*
X143749049Y-103503010D01*
X143540000Y-103460676D01*
X142892000Y-103460676D01*
X142892000Y-101184000D01*
X143592676Y-101184000D01*
X143592676Y-101884000D01*
X143629423Y-102079294D01*
X143744842Y-102258660D01*
X143920951Y-102378990D01*
X144128000Y-102420919D01*
X144128000Y-103123995D01*
X144127999Y-103124000D01*
X144153461Y-103252000D01*
X144177631Y-103373510D01*
X144243919Y-103472717D01*
X144318966Y-103585034D01*
X145476917Y-104742984D01*
X145476857Y-104811779D01*
X145602495Y-105115846D01*
X145834930Y-105348688D01*
X146138778Y-105474856D01*
X146467779Y-105475143D01*
X146771846Y-105349505D01*
X147004688Y-105117070D01*
X147130856Y-104813222D01*
X147131143Y-104484221D01*
X147005505Y-104180154D01*
X146773070Y-103947312D01*
X146469222Y-103821144D01*
X146399150Y-103821083D01*
X145432000Y-102853932D01*
X145432000Y-102420948D01*
X145625294Y-102384577D01*
X145804660Y-102269158D01*
X145924990Y-102093049D01*
X145967324Y-101884000D01*
X145967324Y-101184000D01*
X145930577Y-100988706D01*
X145815158Y-100809340D01*
X145639049Y-100689010D01*
X145430000Y-100646676D01*
X144130000Y-100646676D01*
X143934706Y-100683423D01*
X143755340Y-100798842D01*
X143635010Y-100974951D01*
X143592676Y-101184000D01*
X142892000Y-101184000D01*
X142892000Y-98314068D01*
X145137743Y-96068324D01*
X145739676Y-96068324D01*
X145739676Y-96189701D01*
X145739676Y-96189701D01*
G37*
X145739676Y-96189701D02*
X145656966Y-96244966D01*
X145656964Y-96244969D01*
X144318966Y-97582966D01*
X144177631Y-97794490D01*
X144177631Y-97794491D01*
X144127999Y-98044000D01*
X144128000Y-98044005D01*
X144128000Y-98747052D01*
X143934706Y-98783423D01*
X143755340Y-98898842D01*
X143635010Y-99074951D01*
X143592676Y-99284000D01*
X143592676Y-99984000D01*
X143629423Y-100179294D01*
X143744842Y-100358660D01*
X143920951Y-100478990D01*
X144130000Y-100521324D01*
X145430000Y-100521324D01*
X145625294Y-100484577D01*
X145804660Y-100369158D01*
X145809721Y-100361750D01*
X146201000Y-100361750D01*
X146201000Y-100827310D01*
X146297673Y-101060699D01*
X146476302Y-101239327D01*
X146709691Y-101336000D01*
X147050250Y-101336000D01*
X147209000Y-101177250D01*
X147209000Y-100203000D01*
X146359750Y-100203000D01*
X146201000Y-100361750D01*
X145809721Y-100361750D01*
X145924990Y-100193049D01*
X145967324Y-99984000D01*
X145967324Y-99324690D01*
X146201000Y-99324690D01*
X146201000Y-99790250D01*
X146359750Y-99949000D01*
X147209000Y-99949000D01*
X147209000Y-98974750D01*
X147050250Y-98816000D01*
X146709691Y-98816000D01*
X146476302Y-98912673D01*
X146297673Y-99091301D01*
X146201000Y-99324690D01*
X145967324Y-99324690D01*
X145967324Y-99284000D01*
X145930577Y-99088706D01*
X145815158Y-98909340D01*
X145639049Y-98789010D01*
X145432000Y-98747081D01*
X145432000Y-98314068D01*
X145881492Y-97864576D01*
X145891842Y-97880660D01*
X146067951Y-98000990D01*
X146277000Y-98043324D01*
X146827000Y-98043324D01*
X146956590Y-98018940D01*
X147077000Y-98043324D01*
X147516298Y-98043324D01*
X147517301Y-98044327D01*
X147750690Y-98141000D01*
X147866250Y-98141000D01*
X148025000Y-97982250D01*
X148025000Y-97856999D01*
X148121990Y-97715049D01*
X148151547Y-97569092D01*
X148176423Y-97701294D01*
X148279000Y-97860703D01*
X148279000Y-97982250D01*
X148300000Y-98003250D01*
X148300000Y-99016974D01*
X148195698Y-98912673D01*
X147962309Y-98816000D01*
X147621750Y-98816000D01*
X147463000Y-98974750D01*
X147463000Y-99949000D01*
X147483000Y-99949000D01*
X147483000Y-100203000D01*
X147463000Y-100203000D01*
X147463000Y-101177250D01*
X147621750Y-101336000D01*
X147962309Y-101336000D01*
X148195698Y-101239327D01*
X148374327Y-101060699D01*
X148377547Y-101052924D01*
X148382966Y-101061034D01*
X148594491Y-101202369D01*
X148684000Y-101220174D01*
X148684000Y-102599995D01*
X148683999Y-102600000D01*
X148713070Y-102746144D01*
X148733631Y-102849510D01*
X148853983Y-103029631D01*
X148874966Y-103061034D01*
X151841933Y-106028000D01*
X145739673Y-106028000D01*
X145691070Y-105979312D01*
X145387222Y-105853144D01*
X145317151Y-105853083D01*
X144077324Y-104613256D01*
X144077324Y-103998000D01*
X144040577Y-103802706D01*
X143925158Y-103623340D01*
X143749049Y-103503010D01*
X143540000Y-103460676D01*
X142892000Y-103460676D01*
X142892000Y-101184000D01*
X143592676Y-101184000D01*
X143592676Y-101884000D01*
X143629423Y-102079294D01*
X143744842Y-102258660D01*
X143920951Y-102378990D01*
X144128000Y-102420919D01*
X144128000Y-103123995D01*
X144127999Y-103124000D01*
X144153461Y-103252000D01*
X144177631Y-103373510D01*
X144243919Y-103472717D01*
X144318966Y-103585034D01*
X145476917Y-104742984D01*
X145476857Y-104811779D01*
X145602495Y-105115846D01*
X145834930Y-105348688D01*
X146138778Y-105474856D01*
X146467779Y-105475143D01*
X146771846Y-105349505D01*
X147004688Y-105117070D01*
X147130856Y-104813222D01*
X147131143Y-104484221D01*
X147005505Y-104180154D01*
X146773070Y-103947312D01*
X146469222Y-103821144D01*
X146399150Y-103821083D01*
X145432000Y-102853932D01*
X145432000Y-102420948D01*
X145625294Y-102384577D01*
X145804660Y-102269158D01*
X145924990Y-102093049D01*
X145967324Y-101884000D01*
X145967324Y-101184000D01*
X145930577Y-100988706D01*
X145815158Y-100809340D01*
X145639049Y-100689010D01*
X145430000Y-100646676D01*
X144130000Y-100646676D01*
X143934706Y-100683423D01*
X143755340Y-100798842D01*
X143635010Y-100974951D01*
X143592676Y-101184000D01*
X142892000Y-101184000D01*
X142892000Y-98314068D01*
X145137743Y-96068324D01*
X145739676Y-96068324D01*
X145739676Y-96189701D01*
G36*
X150462608Y-86868676D02*
X150277000Y-86868676D01*
X150147410Y-86893060D01*
X150027000Y-86868676D01*
X149587702Y-86868676D01*
X149586699Y-86867673D01*
X149353310Y-86771000D01*
X149237750Y-86771000D01*
X149079000Y-86929750D01*
X149079000Y-87055001D01*
X148982010Y-87196951D01*
X148952453Y-87342908D01*
X148927577Y-87210706D01*
X148825000Y-87051297D01*
X148825000Y-86929750D01*
X148666250Y-86771000D01*
X148550690Y-86771000D01*
X148317301Y-86867673D01*
X148316298Y-86868676D01*
X147877000Y-86868676D01*
X147747410Y-86893060D01*
X147627000Y-86868676D01*
X147077000Y-86868676D01*
X146947410Y-86893060D01*
X146827000Y-86868676D01*
X146277000Y-86868676D01*
X146081706Y-86905423D01*
X145902340Y-87020842D01*
X145782010Y-87196951D01*
X145739676Y-87406000D01*
X145739676Y-88843676D01*
X144302000Y-88843676D01*
X144106706Y-88880423D01*
X143927340Y-88995842D01*
X143807010Y-89171951D01*
X143764676Y-89381000D01*
X143764676Y-89931000D01*
X143789060Y-90060590D01*
X143764676Y-90181000D01*
X143764676Y-90731000D01*
X143789060Y-90860590D01*
X143764676Y-90981000D01*
X143764676Y-91531000D01*
X143789060Y-91660590D01*
X143764676Y-91781000D01*
X143764676Y-92204000D01*
X143418068Y-92204000D01*
X141035083Y-89821015D01*
X141035143Y-89752221D01*
X140909505Y-89448154D01*
X140794000Y-89332447D01*
X140794000Y-88451675D01*
X140824012Y-88407750D01*
X140978000Y-88407750D01*
X140978000Y-88748309D01*
X141074673Y-88981698D01*
X141253301Y-89160327D01*
X141486690Y-89257000D01*
X141827250Y-89257000D01*
X141986000Y-89098250D01*
X141986000Y-88249000D01*
X142240000Y-88249000D01*
X142240000Y-89098250D01*
X142398750Y-89257000D01*
X142739310Y-89257000D01*
X142972699Y-89160327D01*
X143151327Y-88981698D01*
X143248000Y-88748309D01*
X143248000Y-88407750D01*
X143089250Y-88249000D01*
X142240000Y-88249000D01*
X141986000Y-88249000D01*
X141136750Y-88249000D01*
X140978000Y-88407750D01*
X140824012Y-88407750D01*
X140844990Y-88377049D01*
X140887324Y-88168000D01*
X140887324Y-87468000D01*
X140850577Y-87272706D01*
X140735158Y-87093340D01*
X140559049Y-86973010D01*
X140350000Y-86930676D01*
X139050000Y-86930676D01*
X138854706Y-86967423D01*
X138675340Y-87082842D01*
X138555010Y-87258951D01*
X138512676Y-87468000D01*
X138512676Y-88168000D01*
X138549423Y-88363294D01*
X138664842Y-88542660D01*
X138840951Y-88662990D01*
X139050000Y-88705324D01*
X139490000Y-88705324D01*
X139490000Y-89488622D01*
X139381144Y-89750778D01*
X139380857Y-90079779D01*
X139506495Y-90383846D01*
X139738930Y-90616688D01*
X140042778Y-90742856D01*
X140112849Y-90742917D01*
X142686966Y-93317034D01*
X142722708Y-93340916D01*
X142524000Y-93300676D01*
X141824000Y-93300676D01*
X141628706Y-93337423D01*
X141449340Y-93452842D01*
X141329010Y-93628951D01*
X141286676Y-93838000D01*
X141286676Y-95138000D01*
X141323423Y-95333294D01*
X141438842Y-95512660D01*
X141614951Y-95632990D01*
X141824000Y-95675324D01*
X142524000Y-95675324D01*
X142719294Y-95638577D01*
X142898660Y-95523158D01*
X143018990Y-95347049D01*
X143060919Y-95140000D01*
X143764676Y-95140000D01*
X143764676Y-95531000D01*
X143775169Y-95586764D01*
X141778966Y-97582966D01*
X141637631Y-97794490D01*
X141637631Y-97794491D01*
X141587999Y-98044000D01*
X141588000Y-98044005D01*
X141588000Y-103460676D01*
X140940000Y-103460676D01*
X140744706Y-103497423D01*
X140565340Y-103612842D01*
X140445010Y-103788951D01*
X140403081Y-103996000D01*
X137489233Y-103996000D01*
X137451283Y-103904154D01*
X137022106Y-103474227D01*
X136461072Y-103241265D01*
X135853593Y-103240735D01*
X135292154Y-103472717D01*
X134862227Y-103901894D01*
X134693735Y-104307668D01*
X131106600Y-100720532D01*
X132123073Y-100720532D01*
X132221736Y-100987387D01*
X132831461Y-101213908D01*
X133481460Y-101189856D01*
X133970264Y-100987387D01*
X134068927Y-100720532D01*
X133096000Y-99747605D01*
X132123073Y-100720532D01*
X131106600Y-100720532D01*
X129689529Y-99303461D01*
X131450092Y-99303461D01*
X131474144Y-99953460D01*
X131676613Y-100442264D01*
X131943468Y-100540927D01*
X132916395Y-99568000D01*
X133275605Y-99568000D01*
X134248532Y-100540927D01*
X134515387Y-100442264D01*
X134741908Y-99832539D01*
X134717856Y-99182540D01*
X134515387Y-98693736D01*
X134248532Y-98595073D01*
X133275605Y-99568000D01*
X132916395Y-99568000D01*
X131943468Y-98595073D01*
X131676613Y-98693736D01*
X131450092Y-99303461D01*
X129689529Y-99303461D01*
X128801536Y-98415468D01*
X132123073Y-98415468D01*
X133096000Y-99388395D01*
X134068927Y-98415468D01*
X133970264Y-98148613D01*
X133360539Y-97922092D01*
X132710540Y-97946144D01*
X132221736Y-98148613D01*
X132123073Y-98415468D01*
X128801536Y-98415468D01*
X126128000Y-95741932D01*
X126128000Y-94670407D01*
X134628735Y-94670407D01*
X134860717Y-95231846D01*
X135289894Y-95661773D01*
X135850928Y-95894735D01*
X136458407Y-95895265D01*
X137019846Y-95663283D01*
X137449773Y-95234106D01*
X137488849Y-95140000D01*
X139387052Y-95140000D01*
X139423423Y-95333294D01*
X139538842Y-95512660D01*
X139714951Y-95632990D01*
X139924000Y-95675324D01*
X140624000Y-95675324D01*
X140819294Y-95638577D01*
X140998660Y-95523158D01*
X141118990Y-95347049D01*
X141161324Y-95138000D01*
X141161324Y-93838000D01*
X141124577Y-93642706D01*
X141009158Y-93463340D01*
X140833049Y-93343010D01*
X140624000Y-93300676D01*
X139924000Y-93300676D01*
X139728706Y-93337423D01*
X139549340Y-93452842D01*
X139429010Y-93628951D01*
X139387081Y-93836000D01*
X137588399Y-93836000D01*
X137451283Y-93504154D01*
X137022106Y-93074227D01*
X136461072Y-92841265D01*
X135853593Y-92840735D01*
X135292154Y-93072717D01*
X134862227Y-93501894D01*
X134629265Y-94062928D01*
X134628735Y-94670407D01*
X126128000Y-94670407D01*
X126128000Y-91076000D01*
X131928341Y-91076000D01*
X131802227Y-91201894D01*
X131569265Y-91762928D01*
X131568735Y-92370407D01*
X131800717Y-92931846D01*
X132229894Y-93361773D01*
X132790928Y-93594735D01*
X133398407Y-93595265D01*
X133959846Y-93363283D01*
X134389773Y-92934106D01*
X134622735Y-92373072D01*
X134623265Y-91765593D01*
X134391283Y-91204154D01*
X134238278Y-91050882D01*
X134320113Y-91034604D01*
X134361510Y-91026369D01*
X134573034Y-90885034D01*
X138129031Y-87329036D01*
X138129034Y-87329034D01*
X138754291Y-86703777D01*
X138840951Y-86762990D01*
X139050000Y-86805324D01*
X140350000Y-86805324D01*
X140545294Y-86768577D01*
X140724660Y-86653158D01*
X140815643Y-86520000D01*
X140950676Y-86520000D01*
X140950676Y-86622000D01*
X140987423Y-86817294D01*
X141102842Y-86996660D01*
X141243920Y-87093054D01*
X141074673Y-87262302D01*
X140978000Y-87495691D01*
X140978000Y-87836250D01*
X141136750Y-87995000D01*
X141986000Y-87995000D01*
X141986000Y-87975000D01*
X142240000Y-87975000D01*
X142240000Y-87995000D01*
X143089250Y-87995000D01*
X143248000Y-87836250D01*
X143248000Y-87495691D01*
X143151327Y-87262302D01*
X142980942Y-87091916D01*
X143112660Y-87007158D01*
X143232990Y-86831049D01*
X143275324Y-86622000D01*
X143275324Y-86520000D01*
X146795995Y-86520000D01*
X146796000Y-86520001D01*
X146876440Y-86504000D01*
X150097932Y-86504000D01*
X150462608Y-86868676D01*
X150462608Y-86868676D01*
G37*
X150462608Y-86868676D02*
X150277000Y-86868676D01*
X150147410Y-86893060D01*
X150027000Y-86868676D01*
X149587702Y-86868676D01*
X149586699Y-86867673D01*
X149353310Y-86771000D01*
X149237750Y-86771000D01*
X149079000Y-86929750D01*
X149079000Y-87055001D01*
X148982010Y-87196951D01*
X148952453Y-87342908D01*
X148927577Y-87210706D01*
X148825000Y-87051297D01*
X148825000Y-86929750D01*
X148666250Y-86771000D01*
X148550690Y-86771000D01*
X148317301Y-86867673D01*
X148316298Y-86868676D01*
X147877000Y-86868676D01*
X147747410Y-86893060D01*
X147627000Y-86868676D01*
X147077000Y-86868676D01*
X146947410Y-86893060D01*
X146827000Y-86868676D01*
X146277000Y-86868676D01*
X146081706Y-86905423D01*
X145902340Y-87020842D01*
X145782010Y-87196951D01*
X145739676Y-87406000D01*
X145739676Y-88843676D01*
X144302000Y-88843676D01*
X144106706Y-88880423D01*
X143927340Y-88995842D01*
X143807010Y-89171951D01*
X143764676Y-89381000D01*
X143764676Y-89931000D01*
X143789060Y-90060590D01*
X143764676Y-90181000D01*
X143764676Y-90731000D01*
X143789060Y-90860590D01*
X143764676Y-90981000D01*
X143764676Y-91531000D01*
X143789060Y-91660590D01*
X143764676Y-91781000D01*
X143764676Y-92204000D01*
X143418068Y-92204000D01*
X141035083Y-89821015D01*
X141035143Y-89752221D01*
X140909505Y-89448154D01*
X140794000Y-89332447D01*
X140794000Y-88451675D01*
X140824012Y-88407750D01*
X140978000Y-88407750D01*
X140978000Y-88748309D01*
X141074673Y-88981698D01*
X141253301Y-89160327D01*
X141486690Y-89257000D01*
X141827250Y-89257000D01*
X141986000Y-89098250D01*
X141986000Y-88249000D01*
X142240000Y-88249000D01*
X142240000Y-89098250D01*
X142398750Y-89257000D01*
X142739310Y-89257000D01*
X142972699Y-89160327D01*
X143151327Y-88981698D01*
X143248000Y-88748309D01*
X143248000Y-88407750D01*
X143089250Y-88249000D01*
X142240000Y-88249000D01*
X141986000Y-88249000D01*
X141136750Y-88249000D01*
X140978000Y-88407750D01*
X140824012Y-88407750D01*
X140844990Y-88377049D01*
X140887324Y-88168000D01*
X140887324Y-87468000D01*
X140850577Y-87272706D01*
X140735158Y-87093340D01*
X140559049Y-86973010D01*
X140350000Y-86930676D01*
X139050000Y-86930676D01*
X138854706Y-86967423D01*
X138675340Y-87082842D01*
X138555010Y-87258951D01*
X138512676Y-87468000D01*
X138512676Y-88168000D01*
X138549423Y-88363294D01*
X138664842Y-88542660D01*
X138840951Y-88662990D01*
X139050000Y-88705324D01*
X139490000Y-88705324D01*
X139490000Y-89488622D01*
X139381144Y-89750778D01*
X139380857Y-90079779D01*
X139506495Y-90383846D01*
X139738930Y-90616688D01*
X140042778Y-90742856D01*
X140112849Y-90742917D01*
X142686966Y-93317034D01*
X142722708Y-93340916D01*
X142524000Y-93300676D01*
X141824000Y-93300676D01*
X141628706Y-93337423D01*
X141449340Y-93452842D01*
X141329010Y-93628951D01*
X141286676Y-93838000D01*
X141286676Y-95138000D01*
X141323423Y-95333294D01*
X141438842Y-95512660D01*
X141614951Y-95632990D01*
X141824000Y-95675324D01*
X142524000Y-95675324D01*
X142719294Y-95638577D01*
X142898660Y-95523158D01*
X143018990Y-95347049D01*
X143060919Y-95140000D01*
X143764676Y-95140000D01*
X143764676Y-95531000D01*
X143775169Y-95586764D01*
X141778966Y-97582966D01*
X141637631Y-97794490D01*
X141637631Y-97794491D01*
X141587999Y-98044000D01*
X141588000Y-98044005D01*
X141588000Y-103460676D01*
X140940000Y-103460676D01*
X140744706Y-103497423D01*
X140565340Y-103612842D01*
X140445010Y-103788951D01*
X140403081Y-103996000D01*
X137489233Y-103996000D01*
X137451283Y-103904154D01*
X137022106Y-103474227D01*
X136461072Y-103241265D01*
X135853593Y-103240735D01*
X135292154Y-103472717D01*
X134862227Y-103901894D01*
X134693735Y-104307668D01*
X131106600Y-100720532D01*
X132123073Y-100720532D01*
X132221736Y-100987387D01*
X132831461Y-101213908D01*
X133481460Y-101189856D01*
X133970264Y-100987387D01*
X134068927Y-100720532D01*
X133096000Y-99747605D01*
X132123073Y-100720532D01*
X131106600Y-100720532D01*
X129689529Y-99303461D01*
X131450092Y-99303461D01*
X131474144Y-99953460D01*
X131676613Y-100442264D01*
X131943468Y-100540927D01*
X132916395Y-99568000D01*
X133275605Y-99568000D01*
X134248532Y-100540927D01*
X134515387Y-100442264D01*
X134741908Y-99832539D01*
X134717856Y-99182540D01*
X134515387Y-98693736D01*
X134248532Y-98595073D01*
X133275605Y-99568000D01*
X132916395Y-99568000D01*
X131943468Y-98595073D01*
X131676613Y-98693736D01*
X131450092Y-99303461D01*
X129689529Y-99303461D01*
X128801536Y-98415468D01*
X132123073Y-98415468D01*
X133096000Y-99388395D01*
X134068927Y-98415468D01*
X133970264Y-98148613D01*
X133360539Y-97922092D01*
X132710540Y-97946144D01*
X132221736Y-98148613D01*
X132123073Y-98415468D01*
X128801536Y-98415468D01*
X126128000Y-95741932D01*
X126128000Y-94670407D01*
X134628735Y-94670407D01*
X134860717Y-95231846D01*
X135289894Y-95661773D01*
X135850928Y-95894735D01*
X136458407Y-95895265D01*
X137019846Y-95663283D01*
X137449773Y-95234106D01*
X137488849Y-95140000D01*
X139387052Y-95140000D01*
X139423423Y-95333294D01*
X139538842Y-95512660D01*
X139714951Y-95632990D01*
X139924000Y-95675324D01*
X140624000Y-95675324D01*
X140819294Y-95638577D01*
X140998660Y-95523158D01*
X141118990Y-95347049D01*
X141161324Y-95138000D01*
X141161324Y-93838000D01*
X141124577Y-93642706D01*
X141009158Y-93463340D01*
X140833049Y-93343010D01*
X140624000Y-93300676D01*
X139924000Y-93300676D01*
X139728706Y-93337423D01*
X139549340Y-93452842D01*
X139429010Y-93628951D01*
X139387081Y-93836000D01*
X137588399Y-93836000D01*
X137451283Y-93504154D01*
X137022106Y-93074227D01*
X136461072Y-92841265D01*
X135853593Y-92840735D01*
X135292154Y-93072717D01*
X134862227Y-93501894D01*
X134629265Y-94062928D01*
X134628735Y-94670407D01*
X126128000Y-94670407D01*
X126128000Y-91076000D01*
X131928341Y-91076000D01*
X131802227Y-91201894D01*
X131569265Y-91762928D01*
X131568735Y-92370407D01*
X131800717Y-92931846D01*
X132229894Y-93361773D01*
X132790928Y-93594735D01*
X133398407Y-93595265D01*
X133959846Y-93363283D01*
X134389773Y-92934106D01*
X134622735Y-92373072D01*
X134623265Y-91765593D01*
X134391283Y-91204154D01*
X134238278Y-91050882D01*
X134320113Y-91034604D01*
X134361510Y-91026369D01*
X134573034Y-90885034D01*
X138129031Y-87329036D01*
X138129034Y-87329034D01*
X138754291Y-86703777D01*
X138840951Y-86762990D01*
X139050000Y-86805324D01*
X140350000Y-86805324D01*
X140545294Y-86768577D01*
X140724660Y-86653158D01*
X140815643Y-86520000D01*
X140950676Y-86520000D01*
X140950676Y-86622000D01*
X140987423Y-86817294D01*
X141102842Y-86996660D01*
X141243920Y-87093054D01*
X141074673Y-87262302D01*
X140978000Y-87495691D01*
X140978000Y-87836250D01*
X141136750Y-87995000D01*
X141986000Y-87995000D01*
X141986000Y-87975000D01*
X142240000Y-87975000D01*
X142240000Y-87995000D01*
X143089250Y-87995000D01*
X143248000Y-87836250D01*
X143248000Y-87495691D01*
X143151327Y-87262302D01*
X142980942Y-87091916D01*
X143112660Y-87007158D01*
X143232990Y-86831049D01*
X143275324Y-86622000D01*
X143275324Y-86520000D01*
X146795995Y-86520000D01*
X146796000Y-86520001D01*
X146876440Y-86504000D01*
X150097932Y-86504000D01*
X150462608Y-86868676D01*
G36*
X149776423Y-97701294D02*
X149879000Y-97860703D01*
X149879000Y-97982250D01*
X149900000Y-98003250D01*
X149900000Y-98589933D01*
X149604000Y-98885933D01*
X149604000Y-98003250D01*
X149625000Y-97982250D01*
X149625000Y-97856999D01*
X149721990Y-97715049D01*
X149751547Y-97569092D01*
X149776423Y-97701294D01*
X149776423Y-97701294D01*
G37*
X149776423Y-97701294D02*
X149879000Y-97860703D01*
X149879000Y-97982250D01*
X149900000Y-98003250D01*
X149900000Y-98589933D01*
X149604000Y-98885933D01*
X149604000Y-98003250D01*
X149625000Y-97982250D01*
X149625000Y-97856999D01*
X149721990Y-97715049D01*
X149751547Y-97569092D01*
X149776423Y-97701294D01*
G36*
X148976423Y-89201294D02*
X149079000Y-89360703D01*
X149079000Y-89482250D01*
X149237750Y-89641000D01*
X149353310Y-89641000D01*
X149586699Y-89544327D01*
X149587702Y-89543324D01*
X150027000Y-89543324D01*
X150156590Y-89518940D01*
X150277000Y-89543324D01*
X150827000Y-89543324D01*
X150956590Y-89518940D01*
X151077000Y-89543324D01*
X151627000Y-89543324D01*
X151756590Y-89518940D01*
X151877000Y-89543324D01*
X152264676Y-89543324D01*
X152264676Y-89931000D01*
X152289060Y-90060590D01*
X152264676Y-90181000D01*
X152264676Y-90731000D01*
X152289060Y-90860590D01*
X152264676Y-90981000D01*
X152264676Y-91531000D01*
X152289060Y-91660590D01*
X152264676Y-91781000D01*
X152264676Y-92331000D01*
X152289060Y-92460590D01*
X152264676Y-92581000D01*
X152264676Y-93131000D01*
X152289060Y-93260590D01*
X152264676Y-93381000D01*
X152264676Y-93931000D01*
X152289060Y-94060590D01*
X152264676Y-94181000D01*
X152264676Y-94731000D01*
X152289060Y-94860590D01*
X152264676Y-94981000D01*
X152264676Y-95368676D01*
X151877000Y-95368676D01*
X151747410Y-95393060D01*
X151627000Y-95368676D01*
X151077000Y-95368676D01*
X150947410Y-95393060D01*
X150827000Y-95368676D01*
X150387702Y-95368676D01*
X150386699Y-95367673D01*
X150153310Y-95271000D01*
X150037750Y-95271000D01*
X149879000Y-95429750D01*
X149879000Y-95555001D01*
X149782010Y-95696951D01*
X149752453Y-95842908D01*
X149727577Y-95710706D01*
X149625000Y-95551297D01*
X149625000Y-95429750D01*
X149466250Y-95271000D01*
X149350690Y-95271000D01*
X149117301Y-95367673D01*
X149116298Y-95368676D01*
X148787702Y-95368676D01*
X148786699Y-95367673D01*
X148553310Y-95271000D01*
X148437750Y-95271000D01*
X148279000Y-95429750D01*
X148279000Y-95555001D01*
X148182010Y-95696951D01*
X148152453Y-95842908D01*
X148127577Y-95710706D01*
X148025000Y-95551297D01*
X148025000Y-95429750D01*
X147866250Y-95271000D01*
X147750690Y-95271000D01*
X147517301Y-95367673D01*
X147516298Y-95368676D01*
X147077000Y-95368676D01*
X146947410Y-95393060D01*
X146827000Y-95368676D01*
X146439324Y-95368676D01*
X146439324Y-94981000D01*
X146414940Y-94851410D01*
X146439324Y-94731000D01*
X146439324Y-94181000D01*
X146414940Y-94051410D01*
X146439324Y-93931000D01*
X146439324Y-93381000D01*
X146414940Y-93251410D01*
X146439324Y-93131000D01*
X146439324Y-92581000D01*
X146414940Y-92451410D01*
X146439324Y-92331000D01*
X146439324Y-91781000D01*
X146414940Y-91651410D01*
X146439324Y-91531000D01*
X146439324Y-90981000D01*
X146414940Y-90851410D01*
X146439324Y-90731000D01*
X146439324Y-90181000D01*
X146414940Y-90051410D01*
X146439324Y-89931000D01*
X146439324Y-89543324D01*
X146492882Y-89543324D01*
X146492857Y-89571779D01*
X146618495Y-89875846D01*
X146850930Y-90108688D01*
X147154778Y-90234856D01*
X147483779Y-90235143D01*
X147787846Y-90109505D01*
X148020688Y-89877070D01*
X148146856Y-89573222D01*
X148146882Y-89543324D01*
X148316298Y-89543324D01*
X148317301Y-89544327D01*
X148550690Y-89641000D01*
X148666250Y-89641000D01*
X148825000Y-89482250D01*
X148825000Y-89356999D01*
X148921990Y-89215049D01*
X148951547Y-89069092D01*
X148976423Y-89201294D01*
X148976423Y-89201294D01*
G37*
X148976423Y-89201294D02*
X149079000Y-89360703D01*
X149079000Y-89482250D01*
X149237750Y-89641000D01*
X149353310Y-89641000D01*
X149586699Y-89544327D01*
X149587702Y-89543324D01*
X150027000Y-89543324D01*
X150156590Y-89518940D01*
X150277000Y-89543324D01*
X150827000Y-89543324D01*
X150956590Y-89518940D01*
X151077000Y-89543324D01*
X151627000Y-89543324D01*
X151756590Y-89518940D01*
X151877000Y-89543324D01*
X152264676Y-89543324D01*
X152264676Y-89931000D01*
X152289060Y-90060590D01*
X152264676Y-90181000D01*
X152264676Y-90731000D01*
X152289060Y-90860590D01*
X152264676Y-90981000D01*
X152264676Y-91531000D01*
X152289060Y-91660590D01*
X152264676Y-91781000D01*
X152264676Y-92331000D01*
X152289060Y-92460590D01*
X152264676Y-92581000D01*
X152264676Y-93131000D01*
X152289060Y-93260590D01*
X152264676Y-93381000D01*
X152264676Y-93931000D01*
X152289060Y-94060590D01*
X152264676Y-94181000D01*
X152264676Y-94731000D01*
X152289060Y-94860590D01*
X152264676Y-94981000D01*
X152264676Y-95368676D01*
X151877000Y-95368676D01*
X151747410Y-95393060D01*
X151627000Y-95368676D01*
X151077000Y-95368676D01*
X150947410Y-95393060D01*
X150827000Y-95368676D01*
X150387702Y-95368676D01*
X150386699Y-95367673D01*
X150153310Y-95271000D01*
X150037750Y-95271000D01*
X149879000Y-95429750D01*
X149879000Y-95555001D01*
X149782010Y-95696951D01*
X149752453Y-95842908D01*
X149727577Y-95710706D01*
X149625000Y-95551297D01*
X149625000Y-95429750D01*
X149466250Y-95271000D01*
X149350690Y-95271000D01*
X149117301Y-95367673D01*
X149116298Y-95368676D01*
X148787702Y-95368676D01*
X148786699Y-95367673D01*
X148553310Y-95271000D01*
X148437750Y-95271000D01*
X148279000Y-95429750D01*
X148279000Y-95555001D01*
X148182010Y-95696951D01*
X148152453Y-95842908D01*
X148127577Y-95710706D01*
X148025000Y-95551297D01*
X148025000Y-95429750D01*
X147866250Y-95271000D01*
X147750690Y-95271000D01*
X147517301Y-95367673D01*
X147516298Y-95368676D01*
X147077000Y-95368676D01*
X146947410Y-95393060D01*
X146827000Y-95368676D01*
X146439324Y-95368676D01*
X146439324Y-94981000D01*
X146414940Y-94851410D01*
X146439324Y-94731000D01*
X146439324Y-94181000D01*
X146414940Y-94051410D01*
X146439324Y-93931000D01*
X146439324Y-93381000D01*
X146414940Y-93251410D01*
X146439324Y-93131000D01*
X146439324Y-92581000D01*
X146414940Y-92451410D01*
X146439324Y-92331000D01*
X146439324Y-91781000D01*
X146414940Y-91651410D01*
X146439324Y-91531000D01*
X146439324Y-90981000D01*
X146414940Y-90851410D01*
X146439324Y-90731000D01*
X146439324Y-90181000D01*
X146414940Y-90051410D01*
X146439324Y-89931000D01*
X146439324Y-89543324D01*
X146492882Y-89543324D01*
X146492857Y-89571779D01*
X146618495Y-89875846D01*
X146850930Y-90108688D01*
X147154778Y-90234856D01*
X147483779Y-90235143D01*
X147787846Y-90109505D01*
X148020688Y-89877070D01*
X148146856Y-89573222D01*
X148146882Y-89543324D01*
X148316298Y-89543324D01*
X148317301Y-89544327D01*
X148550690Y-89641000D01*
X148666250Y-89641000D01*
X148825000Y-89482250D01*
X148825000Y-89356999D01*
X148921990Y-89215049D01*
X148951547Y-89069092D01*
X148976423Y-89201294D01*
G36*
X127986706Y-79929423D02*
X127807340Y-80044842D01*
X127687010Y-80220951D01*
X127644676Y-80430000D01*
X127644676Y-82130000D01*
X127681423Y-82325294D01*
X127796842Y-82504660D01*
X127972951Y-82624990D01*
X128182000Y-82667324D01*
X128299215Y-82667324D01*
X128031337Y-82846314D01*
X127785797Y-83213791D01*
X127766490Y-83217631D01*
X127554966Y-83358966D01*
X126538966Y-84374966D01*
X126397631Y-84586490D01*
X126397631Y-84586491D01*
X126347999Y-84836000D01*
X126348000Y-84836005D01*
X126348000Y-86868000D01*
X126363949Y-86948181D01*
X126368399Y-87029813D01*
X126388542Y-87071818D01*
X126397631Y-87117510D01*
X126443051Y-87185487D01*
X126478400Y-87259200D01*
X128002400Y-89291200D01*
X128037083Y-89322298D01*
X128062966Y-89361034D01*
X128130946Y-89406457D01*
X128191811Y-89461029D01*
X128235755Y-89476487D01*
X128274490Y-89502369D01*
X128354668Y-89518317D01*
X128431793Y-89545448D01*
X128478313Y-89542912D01*
X128524000Y-89552000D01*
X133095995Y-89552000D01*
X133096000Y-89552001D01*
X133324355Y-89506577D01*
X133345510Y-89502369D01*
X133557034Y-89361034D01*
X137938067Y-84980000D01*
X150097932Y-84980000D01*
X150317932Y-85200000D01*
X146812000Y-85200000D01*
X146731563Y-85216000D01*
X143077290Y-85216000D01*
X142947049Y-85127010D01*
X142738000Y-85084676D01*
X141488000Y-85084676D01*
X141292706Y-85121423D01*
X141145729Y-85216000D01*
X140749739Y-85216000D01*
X140735158Y-85193340D01*
X140559049Y-85073010D01*
X140350000Y-85030676D01*
X139050000Y-85030676D01*
X138854706Y-85067423D01*
X138675340Y-85182842D01*
X138660411Y-85204691D01*
X138475887Y-85241396D01*
X138434490Y-85249631D01*
X138270880Y-85358951D01*
X138222966Y-85390966D01*
X137206966Y-86406966D01*
X137206964Y-86406969D01*
X133841932Y-89772000D01*
X126128000Y-89772000D01*
X126128000Y-80534068D01*
X126762068Y-79900000D01*
X128143076Y-79900000D01*
X127986706Y-79929423D01*
X127986706Y-79929423D01*
G37*
X127986706Y-79929423D02*
X127807340Y-80044842D01*
X127687010Y-80220951D01*
X127644676Y-80430000D01*
X127644676Y-82130000D01*
X127681423Y-82325294D01*
X127796842Y-82504660D01*
X127972951Y-82624990D01*
X128182000Y-82667324D01*
X128299215Y-82667324D01*
X128031337Y-82846314D01*
X127785797Y-83213791D01*
X127766490Y-83217631D01*
X127554966Y-83358966D01*
X126538966Y-84374966D01*
X126397631Y-84586490D01*
X126397631Y-84586491D01*
X126347999Y-84836000D01*
X126348000Y-84836005D01*
X126348000Y-86868000D01*
X126363949Y-86948181D01*
X126368399Y-87029813D01*
X126388542Y-87071818D01*
X126397631Y-87117510D01*
X126443051Y-87185487D01*
X126478400Y-87259200D01*
X128002400Y-89291200D01*
X128037083Y-89322298D01*
X128062966Y-89361034D01*
X128130946Y-89406457D01*
X128191811Y-89461029D01*
X128235755Y-89476487D01*
X128274490Y-89502369D01*
X128354668Y-89518317D01*
X128431793Y-89545448D01*
X128478313Y-89542912D01*
X128524000Y-89552000D01*
X133095995Y-89552000D01*
X133096000Y-89552001D01*
X133324355Y-89506577D01*
X133345510Y-89502369D01*
X133557034Y-89361034D01*
X137938067Y-84980000D01*
X150097932Y-84980000D01*
X150317932Y-85200000D01*
X146812000Y-85200000D01*
X146731563Y-85216000D01*
X143077290Y-85216000D01*
X142947049Y-85127010D01*
X142738000Y-85084676D01*
X141488000Y-85084676D01*
X141292706Y-85121423D01*
X141145729Y-85216000D01*
X140749739Y-85216000D01*
X140735158Y-85193340D01*
X140559049Y-85073010D01*
X140350000Y-85030676D01*
X139050000Y-85030676D01*
X138854706Y-85067423D01*
X138675340Y-85182842D01*
X138660411Y-85204691D01*
X138475887Y-85241396D01*
X138434490Y-85249631D01*
X138270880Y-85358951D01*
X138222966Y-85390966D01*
X137206966Y-86406966D01*
X137206964Y-86406969D01*
X133841932Y-89772000D01*
X126128000Y-89772000D01*
X126128000Y-80534068D01*
X126762068Y-79900000D01*
X128143076Y-79900000D01*
X127986706Y-79929423D01*
G36*
X150317932Y-83676000D02*
X137668000Y-83676000D01*
X137418490Y-83725631D01*
X137206966Y-83866966D01*
X137206964Y-83866969D01*
X132825932Y-88248000D01*
X128850000Y-88248000D01*
X128297796Y-87511728D01*
X128478068Y-87632182D01*
X129005023Y-87737000D01*
X129058977Y-87737000D01*
X129585932Y-87632182D01*
X130032663Y-87333686D01*
X130250785Y-87007244D01*
X130300355Y-87126924D01*
X130690642Y-87555183D01*
X131215108Y-87801486D01*
X131445000Y-87680819D01*
X131445000Y-86487000D01*
X131699000Y-86487000D01*
X131699000Y-87680819D01*
X131928892Y-87801486D01*
X132453358Y-87555183D01*
X132843645Y-87126924D01*
X133013476Y-86716890D01*
X132892155Y-86487000D01*
X131699000Y-86487000D01*
X131445000Y-86487000D01*
X131425000Y-86487000D01*
X131425000Y-86233000D01*
X131445000Y-86233000D01*
X131445000Y-86213000D01*
X131699000Y-86213000D01*
X131699000Y-86233000D01*
X132892155Y-86233000D01*
X133013476Y-86003110D01*
X132843645Y-85593076D01*
X132453358Y-85164817D01*
X132197238Y-85044537D01*
X132572663Y-84793686D01*
X132871159Y-84346955D01*
X132975977Y-83820000D01*
X132903573Y-83456000D01*
X150097932Y-83456000D01*
X150317932Y-83676000D01*
X150317932Y-83676000D01*
G37*
X150317932Y-83676000D02*
X137668000Y-83676000D01*
X137418490Y-83725631D01*
X137206966Y-83866966D01*
X137206964Y-83866969D01*
X132825932Y-88248000D01*
X128850000Y-88248000D01*
X128297796Y-87511728D01*
X128478068Y-87632182D01*
X129005023Y-87737000D01*
X129058977Y-87737000D01*
X129585932Y-87632182D01*
X130032663Y-87333686D01*
X130250785Y-87007244D01*
X130300355Y-87126924D01*
X130690642Y-87555183D01*
X131215108Y-87801486D01*
X131445000Y-87680819D01*
X131445000Y-86487000D01*
X131699000Y-86487000D01*
X131699000Y-87680819D01*
X131928892Y-87801486D01*
X132453358Y-87555183D01*
X132843645Y-87126924D01*
X133013476Y-86716890D01*
X132892155Y-86487000D01*
X131699000Y-86487000D01*
X131445000Y-86487000D01*
X131425000Y-86487000D01*
X131425000Y-86233000D01*
X131445000Y-86233000D01*
X131445000Y-86213000D01*
X131699000Y-86213000D01*
X131699000Y-86233000D01*
X132892155Y-86233000D01*
X133013476Y-86003110D01*
X132843645Y-85593076D01*
X132453358Y-85164817D01*
X132197238Y-85044537D01*
X132572663Y-84793686D01*
X132871159Y-84346955D01*
X132975977Y-83820000D01*
X132903573Y-83456000D01*
X150097932Y-83456000D01*
X150317932Y-83676000D01*
M02*
