G04 #@! TF.FileFunction,Copper,L2,Bot,Signal*
%FSLAX46Y46*%
G04 Gerber Fmt 4.6, Leading zero omitted, Abs format (unit mm)*
G04 Created by KiCad (PCBNEW 4.0.7-e2-6376~58~ubuntu17.04.1) date Sun Jan  7 16:58:37 2018*
%MOMM*%
%LPD*%
G01*
G04 APERTURE LIST*
%ADD10C,0.100000*%
%ADD11R,1.600000X1.600000*%
%ADD12O,1.600000X1.600000*%
%ADD13R,0.700000X1.300000*%
%ADD14R,1.700000X2.000000*%
%ADD15R,2.000000X1.700000*%
%ADD16R,1.000000X1.250000*%
%ADD17C,1.600000*%
%ADD18R,1.700000X1.700000*%
%ADD19O,1.700000X1.700000*%
%ADD20C,2.100000*%
%ADD21C,1.750000*%
%ADD22O,3.300000X6.800000*%
%ADD23C,2.000000*%
%ADD24O,2.540000X1.524000*%
%ADD25C,0.600000*%
%ADD26C,0.250000*%
%ADD27C,0.254000*%
G04 APERTURE END LIST*
D10*
D11*
X156972000Y-116332000D03*
D12*
X164592000Y-108712000D03*
X159512000Y-116332000D03*
X162052000Y-108712000D03*
X162052000Y-116332000D03*
X159512000Y-108712000D03*
X164592000Y-116332000D03*
X156972000Y-108712000D03*
D13*
X157038000Y-106172000D03*
X158938000Y-106172000D03*
D14*
X164084000Y-101568000D03*
X164084000Y-97568000D03*
X145796000Y-101568000D03*
X145796000Y-97568000D03*
X130048000Y-101568000D03*
X130048000Y-97568000D03*
X172212000Y-101568000D03*
X172212000Y-97568000D03*
X154940000Y-101568000D03*
X154940000Y-97568000D03*
D15*
X152368000Y-118872000D03*
X148368000Y-118872000D03*
D16*
X157496000Y-113792000D03*
X159496000Y-113792000D03*
D11*
X150876000Y-109728000D03*
D17*
X148376000Y-109728000D03*
D18*
X129032000Y-81280000D03*
D19*
X131572000Y-81280000D03*
X129032000Y-83820000D03*
X131572000Y-83820000D03*
X129032000Y-86360000D03*
X131572000Y-86360000D03*
D20*
X170860000Y-81230000D03*
D21*
X169600000Y-78740000D03*
X165100000Y-78740000D03*
D20*
X163850000Y-81230000D03*
D22*
X180848000Y-112268000D03*
X170688000Y-112268000D03*
X175768000Y-112268000D03*
D18*
X181864000Y-98044000D03*
D19*
X181864000Y-100584000D03*
D18*
X146812000Y-79756000D03*
D19*
X149352000Y-79756000D03*
D23*
X122936000Y-94768000D03*
X136156000Y-94368000D03*
X136156000Y-104768000D03*
X133096000Y-107068000D03*
X133096000Y-99568000D03*
X133096000Y-92068000D03*
X122936000Y-104368000D03*
D24*
X172974000Y-84328000D03*
X172974000Y-89408000D03*
X179324000Y-84328000D03*
X179324000Y-86868000D03*
X179324000Y-89408000D03*
D25*
X145222000Y-106680000D03*
X139700000Y-107696000D03*
X149479000Y-92329000D03*
X136906000Y-86360000D03*
X152400000Y-98044000D03*
X149860000Y-98552000D03*
X147828000Y-98552000D03*
X160528000Y-91440000D03*
X160528000Y-92456000D03*
X160528000Y-93472000D03*
X160528000Y-94488000D03*
X146304000Y-104648000D03*
X146304000Y-118872000D03*
X147320000Y-89408000D03*
X152400000Y-86360000D03*
X153416000Y-87884000D03*
X140208000Y-89916000D03*
D26*
X156972000Y-108712000D02*
X156972000Y-106238000D01*
X156972000Y-106238000D02*
X157038000Y-106172000D01*
X140716000Y-106680000D02*
X145288000Y-106680000D01*
X145222000Y-106680000D02*
X145288000Y-106680000D01*
X172974000Y-84328000D02*
X179324000Y-84328000D01*
X139700000Y-107696000D02*
X140716000Y-106680000D01*
X131572000Y-86360000D02*
X136906000Y-86360000D01*
X162052000Y-108712000D02*
X164592000Y-111252000D01*
X180848000Y-115824000D02*
X180848000Y-112268000D01*
X178308000Y-118364000D02*
X180848000Y-115824000D01*
X171704000Y-118364000D02*
X178308000Y-118364000D01*
X164592000Y-111252000D02*
X171704000Y-118364000D01*
X159496000Y-113792000D02*
X159496000Y-111268000D01*
X159496000Y-111268000D02*
X162052000Y-108712000D01*
X159496000Y-113792000D02*
X159496000Y-116316000D01*
X159496000Y-116316000D02*
X159512000Y-116332000D01*
X180848000Y-109728000D02*
X180848000Y-112268000D01*
X137160000Y-97568000D02*
X130048000Y-97568000D01*
X137160000Y-97568000D02*
X137160000Y-97568000D01*
X137160000Y-97568000D02*
X141192000Y-97568000D01*
X147320000Y-91440000D02*
X160528000Y-91440000D01*
X141192000Y-97568000D02*
X147320000Y-91440000D01*
X145796000Y-97568000D02*
X146272000Y-97568000D01*
X146272000Y-97568000D02*
X151384000Y-92456000D01*
X151384000Y-92456000D02*
X160528000Y-92456000D01*
X145796000Y-97568000D02*
X145796000Y-97028000D01*
X154940000Y-97568000D02*
X156432000Y-97568000D01*
X156432000Y-97568000D02*
X160528000Y-93472000D01*
X154940000Y-97568000D02*
X154940000Y-97028000D01*
X164084000Y-97568000D02*
X163608000Y-97568000D01*
X163608000Y-97568000D02*
X160528000Y-94488000D01*
X172212000Y-97568000D02*
X172180000Y-97568000D01*
X172180000Y-97568000D02*
X165100000Y-104648000D01*
X165100000Y-104648000D02*
X146304000Y-104648000D01*
X146304000Y-118872000D02*
X148368000Y-118872000D01*
X162052000Y-86868000D02*
X179324000Y-86868000D01*
X159512000Y-89408000D02*
X162052000Y-86868000D01*
X147320000Y-89408000D02*
X159512000Y-89408000D01*
X165100000Y-78740000D02*
X160020000Y-78740000D01*
X160020000Y-78740000D02*
X152400000Y-86360000D01*
X131064000Y-79248000D02*
X129032000Y-81280000D01*
X141732000Y-79248000D02*
X131064000Y-79248000D01*
X150368000Y-87884000D02*
X141732000Y-79248000D01*
X153416000Y-87884000D02*
X150368000Y-87884000D01*
X131572000Y-89916000D02*
X140208000Y-89916000D01*
X129032000Y-86360000D02*
X129032000Y-87376000D01*
X129032000Y-87376000D02*
X131572000Y-89916000D01*
X129032000Y-86360000D02*
X129032000Y-86868000D01*
X158938000Y-106172000D02*
X173482000Y-106172000D01*
X175768000Y-108458000D02*
X175768000Y-112268000D01*
X173482000Y-106172000D02*
X175768000Y-108458000D01*
X159512000Y-108712000D02*
X159512000Y-106746000D01*
X159512000Y-106746000D02*
X158938000Y-106172000D01*
D27*
G36*
X163912135Y-77944794D02*
X163852671Y-78088000D01*
X160020000Y-78088000D01*
X159770490Y-78137631D01*
X159558966Y-78278966D01*
X159558964Y-78278969D01*
X152305015Y-85532917D01*
X152236221Y-85532857D01*
X151932154Y-85658495D01*
X151699312Y-85890930D01*
X151573144Y-86194778D01*
X151572857Y-86523779D01*
X151698495Y-86827846D01*
X151930930Y-87060688D01*
X152234778Y-87186856D01*
X152563779Y-87187143D01*
X152867846Y-87061505D01*
X153100688Y-86829070D01*
X153226856Y-86525222D01*
X153226917Y-86455151D01*
X160290067Y-79392000D01*
X163852434Y-79392000D01*
X163910749Y-79533132D01*
X164030565Y-79653158D01*
X163537692Y-79652727D01*
X162957868Y-79892305D01*
X162513864Y-80335535D01*
X162273275Y-80914939D01*
X162272727Y-81542308D01*
X162512305Y-82122132D01*
X162955535Y-82566136D01*
X163534939Y-82806725D01*
X164162308Y-82807273D01*
X164742132Y-82567695D01*
X165186136Y-82124465D01*
X165426725Y-81545061D01*
X165427273Y-80917692D01*
X165187695Y-80337868D01*
X164992075Y-80141906D01*
X165377652Y-80142243D01*
X165893132Y-79929251D01*
X166287865Y-79535206D01*
X166501756Y-79020099D01*
X166502243Y-78462348D01*
X166289251Y-77946868D01*
X166193550Y-77851000D01*
X168531392Y-77851000D01*
X168537938Y-77857546D01*
X168284047Y-77940884D01*
X168078410Y-78505306D01*
X168104421Y-79105458D01*
X168284047Y-79539116D01*
X168537940Y-79622455D01*
X169420395Y-78740000D01*
X169406253Y-78725858D01*
X169585858Y-78546253D01*
X169600000Y-78560395D01*
X169614143Y-78546253D01*
X169793748Y-78725858D01*
X169779605Y-78740000D01*
X169793748Y-78754143D01*
X169614143Y-78933748D01*
X169600000Y-78919605D01*
X168717545Y-79802060D01*
X168800884Y-80055953D01*
X169365306Y-80261590D01*
X169608497Y-80251050D01*
X169523864Y-80335535D01*
X169283275Y-80914939D01*
X169282727Y-81542308D01*
X169522305Y-82122132D01*
X169965535Y-82566136D01*
X170544939Y-82806725D01*
X171172308Y-82807273D01*
X171752132Y-82567695D01*
X172196136Y-82124465D01*
X172436725Y-81545061D01*
X172437273Y-80917692D01*
X172197695Y-80337868D01*
X171754465Y-79893864D01*
X171175061Y-79653275D01*
X170692461Y-79652853D01*
X170662062Y-79622454D01*
X170915953Y-79539116D01*
X171121590Y-78974694D01*
X171095579Y-78374542D01*
X170915953Y-77940884D01*
X170662062Y-77857546D01*
X170668608Y-77851000D01*
X182753000Y-77851000D01*
X182753000Y-96559000D01*
X182149750Y-96559000D01*
X181991000Y-96717750D01*
X181991000Y-97917000D01*
X182011000Y-97917000D01*
X182011000Y-98171000D01*
X181991000Y-98171000D01*
X181991000Y-98191000D01*
X181737000Y-98191000D01*
X181737000Y-98171000D01*
X180537750Y-98171000D01*
X180379000Y-98329750D01*
X180379000Y-99020310D01*
X180475673Y-99253699D01*
X180654302Y-99432327D01*
X180887691Y-99529000D01*
X180985032Y-99529000D01*
X180863337Y-99610314D01*
X180564841Y-100057045D01*
X180460023Y-100584000D01*
X180564841Y-101110955D01*
X180863337Y-101557686D01*
X181310068Y-101856182D01*
X181837023Y-101961000D01*
X181890977Y-101961000D01*
X182417932Y-101856182D01*
X182753000Y-101632297D01*
X182753000Y-109448896D01*
X182387371Y-108901695D01*
X181681102Y-108429780D01*
X180848000Y-108264066D01*
X180014898Y-108429780D01*
X179308629Y-108901695D01*
X178836714Y-109607964D01*
X178671000Y-110441066D01*
X178671000Y-114094934D01*
X178836714Y-114928036D01*
X179308629Y-115634305D01*
X179792389Y-115957544D01*
X178037932Y-117712000D01*
X171974068Y-117712000D01*
X170495764Y-116233696D01*
X170688000Y-116271934D01*
X171521102Y-116106220D01*
X172227371Y-115634305D01*
X172699286Y-114928036D01*
X172865000Y-114094934D01*
X172865000Y-110441066D01*
X172699286Y-109607964D01*
X172227371Y-108901695D01*
X171521102Y-108429780D01*
X170688000Y-108264066D01*
X169854898Y-108429780D01*
X169148629Y-108901695D01*
X168676714Y-109607964D01*
X168511000Y-110441066D01*
X168511000Y-114094934D01*
X168549238Y-114287170D01*
X165053034Y-110790966D01*
X165053031Y-110790964D01*
X164261280Y-109999213D01*
X164592000Y-110064997D01*
X165099821Y-109963985D01*
X165530331Y-109676328D01*
X165817988Y-109245818D01*
X165919000Y-108737997D01*
X165919000Y-108686003D01*
X165817988Y-108178182D01*
X165530331Y-107747672D01*
X165099821Y-107460015D01*
X164592000Y-107359003D01*
X164084179Y-107460015D01*
X163653669Y-107747672D01*
X163366012Y-108178182D01*
X163322000Y-108399445D01*
X163277988Y-108178182D01*
X162990331Y-107747672D01*
X162559821Y-107460015D01*
X162052000Y-107359003D01*
X161544179Y-107460015D01*
X161113669Y-107747672D01*
X160826012Y-108178182D01*
X160782000Y-108399445D01*
X160737988Y-108178182D01*
X160450331Y-107747672D01*
X160164000Y-107556352D01*
X160164000Y-106824000D01*
X173211932Y-106824000D01*
X174864651Y-108476718D01*
X174228629Y-108901695D01*
X173756714Y-109607964D01*
X173591000Y-110441066D01*
X173591000Y-114094934D01*
X173756714Y-114928036D01*
X174228629Y-115634305D01*
X174934898Y-116106220D01*
X175768000Y-116271934D01*
X176601102Y-116106220D01*
X177307371Y-115634305D01*
X177779286Y-114928036D01*
X177945000Y-114094934D01*
X177945000Y-110441066D01*
X177779286Y-109607964D01*
X177307371Y-108901695D01*
X176601102Y-108429780D01*
X176406695Y-108391110D01*
X176370369Y-108208490D01*
X176229034Y-107996966D01*
X176229031Y-107996964D01*
X173943034Y-105710966D01*
X173731510Y-105569631D01*
X173690113Y-105561396D01*
X173482000Y-105519999D01*
X173481995Y-105520000D01*
X159824948Y-105520000D01*
X159788577Y-105326706D01*
X159771392Y-105300000D01*
X165099995Y-105300000D01*
X165100000Y-105300001D01*
X165308113Y-105258604D01*
X165349510Y-105250369D01*
X165561034Y-105109034D01*
X168816318Y-101853750D01*
X170727000Y-101853750D01*
X170727000Y-102694309D01*
X170823673Y-102927698D01*
X171002301Y-103106327D01*
X171235690Y-103203000D01*
X171926250Y-103203000D01*
X172085000Y-103044250D01*
X172085000Y-101695000D01*
X172339000Y-101695000D01*
X172339000Y-103044250D01*
X172497750Y-103203000D01*
X173188310Y-103203000D01*
X173421699Y-103106327D01*
X173600327Y-102927698D01*
X173697000Y-102694309D01*
X173697000Y-101853750D01*
X173538250Y-101695000D01*
X172339000Y-101695000D01*
X172085000Y-101695000D01*
X170885750Y-101695000D01*
X170727000Y-101853750D01*
X168816318Y-101853750D01*
X170228377Y-100441691D01*
X170727000Y-100441691D01*
X170727000Y-101282250D01*
X170885750Y-101441000D01*
X172085000Y-101441000D01*
X172085000Y-100091750D01*
X172339000Y-100091750D01*
X172339000Y-101441000D01*
X173538250Y-101441000D01*
X173697000Y-101282250D01*
X173697000Y-100441691D01*
X173600327Y-100208302D01*
X173421699Y-100029673D01*
X173188310Y-99933000D01*
X172497750Y-99933000D01*
X172339000Y-100091750D01*
X172085000Y-100091750D01*
X171926250Y-99933000D01*
X171235690Y-99933000D01*
X171002301Y-100029673D01*
X170823673Y-100208302D01*
X170727000Y-100441691D01*
X170228377Y-100441691D01*
X171564744Y-99105324D01*
X173062000Y-99105324D01*
X173257294Y-99068577D01*
X173436660Y-98953158D01*
X173556990Y-98777049D01*
X173599324Y-98568000D01*
X173599324Y-97067690D01*
X180379000Y-97067690D01*
X180379000Y-97758250D01*
X180537750Y-97917000D01*
X181737000Y-97917000D01*
X181737000Y-96717750D01*
X181578250Y-96559000D01*
X180887691Y-96559000D01*
X180654302Y-96655673D01*
X180475673Y-96834301D01*
X180379000Y-97067690D01*
X173599324Y-97067690D01*
X173599324Y-96568000D01*
X173562577Y-96372706D01*
X173447158Y-96193340D01*
X173271049Y-96073010D01*
X173062000Y-96030676D01*
X171362000Y-96030676D01*
X171166706Y-96067423D01*
X170987340Y-96182842D01*
X170867010Y-96358951D01*
X170824676Y-96568000D01*
X170824676Y-98001256D01*
X164829932Y-103996000D01*
X146821673Y-103996000D01*
X146773070Y-103947312D01*
X146469222Y-103821144D01*
X146140221Y-103820857D01*
X145836154Y-103946495D01*
X145603312Y-104178930D01*
X145477144Y-104482778D01*
X145476857Y-104811779D01*
X145602495Y-105115846D01*
X145834930Y-105348688D01*
X146138778Y-105474856D01*
X146467779Y-105475143D01*
X146771846Y-105349505D01*
X146821438Y-105300000D01*
X156201859Y-105300000D01*
X156193010Y-105312951D01*
X156150676Y-105522000D01*
X156150676Y-106822000D01*
X156187423Y-107017294D01*
X156302842Y-107196660D01*
X156320000Y-107208384D01*
X156320000Y-107556352D01*
X156033669Y-107747672D01*
X155746012Y-108178182D01*
X155645000Y-108686003D01*
X155645000Y-108737997D01*
X155746012Y-109245818D01*
X156033669Y-109676328D01*
X156464179Y-109963985D01*
X156972000Y-110064997D01*
X157479821Y-109963985D01*
X157910331Y-109676328D01*
X158197988Y-109245818D01*
X158242000Y-109024555D01*
X158286012Y-109245818D01*
X158573669Y-109676328D01*
X159004179Y-109963985D01*
X159512000Y-110064997D01*
X159842719Y-109999213D01*
X159034966Y-110806966D01*
X158893631Y-111018490D01*
X158893631Y-111018491D01*
X158843999Y-111268000D01*
X158844000Y-111268005D01*
X158844000Y-112658277D01*
X158800706Y-112666423D01*
X158621340Y-112781842D01*
X158560602Y-112870735D01*
X158534327Y-112807301D01*
X158355698Y-112628673D01*
X158122309Y-112532000D01*
X157781750Y-112532000D01*
X157623000Y-112690750D01*
X157623000Y-113665000D01*
X157643000Y-113665000D01*
X157643000Y-113919000D01*
X157623000Y-113919000D01*
X157623000Y-113939000D01*
X157369000Y-113939000D01*
X157369000Y-113919000D01*
X156519750Y-113919000D01*
X156361000Y-114077750D01*
X156361000Y-114543310D01*
X156457673Y-114776699D01*
X156577975Y-114897000D01*
X156045690Y-114897000D01*
X155812301Y-114993673D01*
X155633673Y-115172302D01*
X155537000Y-115405691D01*
X155537000Y-116046250D01*
X155695750Y-116205000D01*
X156845000Y-116205000D01*
X156845000Y-116185000D01*
X157099000Y-116185000D01*
X157099000Y-116205000D01*
X157119000Y-116205000D01*
X157119000Y-116459000D01*
X157099000Y-116459000D01*
X157099000Y-117608250D01*
X157257750Y-117767000D01*
X157898310Y-117767000D01*
X158131699Y-117670327D01*
X158310327Y-117491698D01*
X158407000Y-117258309D01*
X158407000Y-117046890D01*
X158573669Y-117296328D01*
X159004179Y-117583985D01*
X159512000Y-117684997D01*
X160019821Y-117583985D01*
X160450331Y-117296328D01*
X160737988Y-116865818D01*
X160782000Y-116644555D01*
X160826012Y-116865818D01*
X161113669Y-117296328D01*
X161544179Y-117583985D01*
X162052000Y-117684997D01*
X162559821Y-117583985D01*
X162990331Y-117296328D01*
X163277988Y-116865818D01*
X163322000Y-116644555D01*
X163366012Y-116865818D01*
X163653669Y-117296328D01*
X164084179Y-117583985D01*
X164592000Y-117684997D01*
X165099821Y-117583985D01*
X165530331Y-117296328D01*
X165817988Y-116865818D01*
X165919000Y-116357997D01*
X165919000Y-116306003D01*
X165817988Y-115798182D01*
X165530331Y-115367672D01*
X165099821Y-115080015D01*
X164592000Y-114979003D01*
X164084179Y-115080015D01*
X163653669Y-115367672D01*
X163366012Y-115798182D01*
X163322000Y-116019445D01*
X163277988Y-115798182D01*
X162990331Y-115367672D01*
X162559821Y-115080015D01*
X162052000Y-114979003D01*
X161544179Y-115080015D01*
X161113669Y-115367672D01*
X160826012Y-115798182D01*
X160782000Y-116019445D01*
X160737988Y-115798182D01*
X160450331Y-115367672D01*
X160148000Y-115165661D01*
X160148000Y-114925723D01*
X160191294Y-114917577D01*
X160370660Y-114802158D01*
X160490990Y-114626049D01*
X160533324Y-114417000D01*
X160533324Y-113167000D01*
X160496577Y-112971706D01*
X160381158Y-112792340D01*
X160205049Y-112672010D01*
X160148000Y-112660457D01*
X160148000Y-111538068D01*
X161692567Y-109993501D01*
X162052000Y-110064997D01*
X162411433Y-109993501D01*
X164130964Y-111713031D01*
X164130966Y-111713034D01*
X171242966Y-118825034D01*
X171454491Y-118966370D01*
X171704000Y-119016001D01*
X171704005Y-119016000D01*
X178307995Y-119016000D01*
X178308000Y-119016001D01*
X178516113Y-118974604D01*
X178557510Y-118966369D01*
X178769034Y-118825034D01*
X181309031Y-116285036D01*
X181309034Y-116285034D01*
X181389796Y-116164164D01*
X181681102Y-116106220D01*
X182387371Y-115634305D01*
X182753000Y-115087104D01*
X182753000Y-121285000D01*
X121539000Y-121285000D01*
X121539000Y-119035779D01*
X145476857Y-119035779D01*
X145602495Y-119339846D01*
X145834930Y-119572688D01*
X146138778Y-119698856D01*
X146467779Y-119699143D01*
X146771846Y-119573505D01*
X146821438Y-119524000D01*
X146830676Y-119524000D01*
X146830676Y-119722000D01*
X146867423Y-119917294D01*
X146982842Y-120096660D01*
X147158951Y-120216990D01*
X147368000Y-120259324D01*
X149368000Y-120259324D01*
X149563294Y-120222577D01*
X149742660Y-120107158D01*
X149862990Y-119931049D01*
X149905324Y-119722000D01*
X149905324Y-119157750D01*
X150733000Y-119157750D01*
X150733000Y-119848310D01*
X150829673Y-120081699D01*
X151008302Y-120260327D01*
X151241691Y-120357000D01*
X152082250Y-120357000D01*
X152241000Y-120198250D01*
X152241000Y-118999000D01*
X152495000Y-118999000D01*
X152495000Y-120198250D01*
X152653750Y-120357000D01*
X153494309Y-120357000D01*
X153727698Y-120260327D01*
X153906327Y-120081699D01*
X154003000Y-119848310D01*
X154003000Y-119157750D01*
X153844250Y-118999000D01*
X152495000Y-118999000D01*
X152241000Y-118999000D01*
X150891750Y-118999000D01*
X150733000Y-119157750D01*
X149905324Y-119157750D01*
X149905324Y-118022000D01*
X149881558Y-117895690D01*
X150733000Y-117895690D01*
X150733000Y-118586250D01*
X150891750Y-118745000D01*
X152241000Y-118745000D01*
X152241000Y-117545750D01*
X152495000Y-117545750D01*
X152495000Y-118745000D01*
X153844250Y-118745000D01*
X154003000Y-118586250D01*
X154003000Y-117895690D01*
X153906327Y-117662301D01*
X153727698Y-117483673D01*
X153494309Y-117387000D01*
X152653750Y-117387000D01*
X152495000Y-117545750D01*
X152241000Y-117545750D01*
X152082250Y-117387000D01*
X151241691Y-117387000D01*
X151008302Y-117483673D01*
X150829673Y-117662301D01*
X150733000Y-117895690D01*
X149881558Y-117895690D01*
X149868577Y-117826706D01*
X149753158Y-117647340D01*
X149577049Y-117527010D01*
X149368000Y-117484676D01*
X147368000Y-117484676D01*
X147172706Y-117521423D01*
X146993340Y-117636842D01*
X146873010Y-117812951D01*
X146830676Y-118022000D01*
X146830676Y-118220000D01*
X146821673Y-118220000D01*
X146773070Y-118171312D01*
X146469222Y-118045144D01*
X146140221Y-118044857D01*
X145836154Y-118170495D01*
X145603312Y-118402930D01*
X145477144Y-118706778D01*
X145476857Y-119035779D01*
X121539000Y-119035779D01*
X121539000Y-116617750D01*
X155537000Y-116617750D01*
X155537000Y-117258309D01*
X155633673Y-117491698D01*
X155812301Y-117670327D01*
X156045690Y-117767000D01*
X156686250Y-117767000D01*
X156845000Y-117608250D01*
X156845000Y-116459000D01*
X155695750Y-116459000D01*
X155537000Y-116617750D01*
X121539000Y-116617750D01*
X121539000Y-113040690D01*
X156361000Y-113040690D01*
X156361000Y-113506250D01*
X156519750Y-113665000D01*
X157369000Y-113665000D01*
X157369000Y-112690750D01*
X157210250Y-112532000D01*
X156869691Y-112532000D01*
X156636302Y-112628673D01*
X156457673Y-112807301D01*
X156361000Y-113040690D01*
X121539000Y-113040690D01*
X121539000Y-110735745D01*
X147547861Y-110735745D01*
X147621995Y-110981864D01*
X148159223Y-111174965D01*
X148729454Y-111147778D01*
X149130005Y-110981864D01*
X149204139Y-110735745D01*
X148376000Y-109907605D01*
X147547861Y-110735745D01*
X121539000Y-110735745D01*
X121539000Y-109511223D01*
X146929035Y-109511223D01*
X146956222Y-110081454D01*
X147122136Y-110482005D01*
X147368255Y-110556139D01*
X148196395Y-109728000D01*
X148555605Y-109728000D01*
X149383745Y-110556139D01*
X149538676Y-110509472D01*
X149538676Y-110528000D01*
X149575423Y-110723294D01*
X149690842Y-110902660D01*
X149866951Y-111022990D01*
X150076000Y-111065324D01*
X151676000Y-111065324D01*
X151871294Y-111028577D01*
X152050660Y-110913158D01*
X152170990Y-110737049D01*
X152213324Y-110528000D01*
X152213324Y-108928000D01*
X152176577Y-108732706D01*
X152061158Y-108553340D01*
X151885049Y-108433010D01*
X151676000Y-108390676D01*
X150076000Y-108390676D01*
X149880706Y-108427423D01*
X149701340Y-108542842D01*
X149581010Y-108718951D01*
X149538676Y-108928000D01*
X149538676Y-108946528D01*
X149383745Y-108899861D01*
X148555605Y-109728000D01*
X148196395Y-109728000D01*
X147368255Y-108899861D01*
X147122136Y-108973995D01*
X146929035Y-109511223D01*
X121539000Y-109511223D01*
X121539000Y-108720255D01*
X147547861Y-108720255D01*
X148376000Y-109548395D01*
X149204139Y-108720255D01*
X149130005Y-108474136D01*
X148592777Y-108281035D01*
X148022546Y-108308222D01*
X147621995Y-108474136D01*
X147547861Y-108720255D01*
X121539000Y-108720255D01*
X121539000Y-107370407D01*
X131568735Y-107370407D01*
X131800717Y-107931846D01*
X132229894Y-108361773D01*
X132790928Y-108594735D01*
X133398407Y-108595265D01*
X133959846Y-108363283D01*
X134389773Y-107934106D01*
X134420636Y-107859779D01*
X138872857Y-107859779D01*
X138998495Y-108163846D01*
X139230930Y-108396688D01*
X139534778Y-108522856D01*
X139863779Y-108523143D01*
X140167846Y-108397505D01*
X140400688Y-108165070D01*
X140526856Y-107861222D01*
X140526917Y-107791151D01*
X140986068Y-107332000D01*
X144704327Y-107332000D01*
X144752930Y-107380688D01*
X145056778Y-107506856D01*
X145385779Y-107507143D01*
X145689846Y-107381505D01*
X145922688Y-107149070D01*
X146048856Y-106845222D01*
X146049143Y-106516221D01*
X145923505Y-106212154D01*
X145691070Y-105979312D01*
X145387222Y-105853144D01*
X145058221Y-105852857D01*
X144754154Y-105978495D01*
X144704562Y-106028000D01*
X140716005Y-106028000D01*
X140716000Y-106027999D01*
X140507887Y-106069396D01*
X140466490Y-106077631D01*
X140325256Y-106172000D01*
X140254966Y-106218966D01*
X139605015Y-106868917D01*
X139536221Y-106868857D01*
X139232154Y-106994495D01*
X138999312Y-107226930D01*
X138873144Y-107530778D01*
X138872857Y-107859779D01*
X134420636Y-107859779D01*
X134622735Y-107373072D01*
X134623265Y-106765593D01*
X134391283Y-106204154D01*
X133962106Y-105774227D01*
X133401072Y-105541265D01*
X132793593Y-105540735D01*
X132232154Y-105772717D01*
X131802227Y-106201894D01*
X131569265Y-106762928D01*
X131568735Y-107370407D01*
X121539000Y-107370407D01*
X121539000Y-105520532D01*
X121963073Y-105520532D01*
X122061736Y-105787387D01*
X122671461Y-106013908D01*
X123321460Y-105989856D01*
X123810264Y-105787387D01*
X123908927Y-105520532D01*
X122936000Y-104547605D01*
X121963073Y-105520532D01*
X121539000Y-105520532D01*
X121539000Y-105250541D01*
X121783468Y-105340927D01*
X122756395Y-104368000D01*
X123115605Y-104368000D01*
X124088532Y-105340927D01*
X124355387Y-105242264D01*
X124419234Y-105070407D01*
X134628735Y-105070407D01*
X134860717Y-105631846D01*
X135289894Y-106061773D01*
X135850928Y-106294735D01*
X136458407Y-106295265D01*
X137019846Y-106063283D01*
X137449773Y-105634106D01*
X137682735Y-105073072D01*
X137683265Y-104465593D01*
X137451283Y-103904154D01*
X137022106Y-103474227D01*
X136461072Y-103241265D01*
X135853593Y-103240735D01*
X135292154Y-103472717D01*
X134862227Y-103901894D01*
X134629265Y-104462928D01*
X134628735Y-105070407D01*
X124419234Y-105070407D01*
X124581908Y-104632539D01*
X124557856Y-103982540D01*
X124355387Y-103493736D01*
X124088532Y-103395073D01*
X123115605Y-104368000D01*
X122756395Y-104368000D01*
X121783468Y-103395073D01*
X121539000Y-103485459D01*
X121539000Y-103215468D01*
X121963073Y-103215468D01*
X122936000Y-104188395D01*
X123908927Y-103215468D01*
X123810264Y-102948613D01*
X123200539Y-102722092D01*
X122550540Y-102746144D01*
X122061736Y-102948613D01*
X121963073Y-103215468D01*
X121539000Y-103215468D01*
X121539000Y-101853750D01*
X128563000Y-101853750D01*
X128563000Y-102694309D01*
X128659673Y-102927698D01*
X128838301Y-103106327D01*
X129071690Y-103203000D01*
X129762250Y-103203000D01*
X129921000Y-103044250D01*
X129921000Y-101695000D01*
X130175000Y-101695000D01*
X130175000Y-103044250D01*
X130333750Y-103203000D01*
X131024310Y-103203000D01*
X131257699Y-103106327D01*
X131436327Y-102927698D01*
X131533000Y-102694309D01*
X131533000Y-101853750D01*
X144311000Y-101853750D01*
X144311000Y-102694309D01*
X144407673Y-102927698D01*
X144586301Y-103106327D01*
X144819690Y-103203000D01*
X145510250Y-103203000D01*
X145669000Y-103044250D01*
X145669000Y-101695000D01*
X145923000Y-101695000D01*
X145923000Y-103044250D01*
X146081750Y-103203000D01*
X146772310Y-103203000D01*
X147005699Y-103106327D01*
X147184327Y-102927698D01*
X147281000Y-102694309D01*
X147281000Y-101853750D01*
X153455000Y-101853750D01*
X153455000Y-102694309D01*
X153551673Y-102927698D01*
X153730301Y-103106327D01*
X153963690Y-103203000D01*
X154654250Y-103203000D01*
X154813000Y-103044250D01*
X154813000Y-101695000D01*
X155067000Y-101695000D01*
X155067000Y-103044250D01*
X155225750Y-103203000D01*
X155916310Y-103203000D01*
X156149699Y-103106327D01*
X156328327Y-102927698D01*
X156425000Y-102694309D01*
X156425000Y-101853750D01*
X162599000Y-101853750D01*
X162599000Y-102694309D01*
X162695673Y-102927698D01*
X162874301Y-103106327D01*
X163107690Y-103203000D01*
X163798250Y-103203000D01*
X163957000Y-103044250D01*
X163957000Y-101695000D01*
X164211000Y-101695000D01*
X164211000Y-103044250D01*
X164369750Y-103203000D01*
X165060310Y-103203000D01*
X165293699Y-103106327D01*
X165472327Y-102927698D01*
X165569000Y-102694309D01*
X165569000Y-101853750D01*
X165410250Y-101695000D01*
X164211000Y-101695000D01*
X163957000Y-101695000D01*
X162757750Y-101695000D01*
X162599000Y-101853750D01*
X156425000Y-101853750D01*
X156266250Y-101695000D01*
X155067000Y-101695000D01*
X154813000Y-101695000D01*
X153613750Y-101695000D01*
X153455000Y-101853750D01*
X147281000Y-101853750D01*
X147122250Y-101695000D01*
X145923000Y-101695000D01*
X145669000Y-101695000D01*
X144469750Y-101695000D01*
X144311000Y-101853750D01*
X131533000Y-101853750D01*
X131374250Y-101695000D01*
X130175000Y-101695000D01*
X129921000Y-101695000D01*
X128721750Y-101695000D01*
X128563000Y-101853750D01*
X121539000Y-101853750D01*
X121539000Y-100441691D01*
X128563000Y-100441691D01*
X128563000Y-101282250D01*
X128721750Y-101441000D01*
X129921000Y-101441000D01*
X129921000Y-100091750D01*
X130175000Y-100091750D01*
X130175000Y-101441000D01*
X131374250Y-101441000D01*
X131533000Y-101282250D01*
X131533000Y-100720532D01*
X132123073Y-100720532D01*
X132221736Y-100987387D01*
X132831461Y-101213908D01*
X133481460Y-101189856D01*
X133970264Y-100987387D01*
X134068927Y-100720532D01*
X133096000Y-99747605D01*
X132123073Y-100720532D01*
X131533000Y-100720532D01*
X131533000Y-100441691D01*
X131436327Y-100208302D01*
X131257699Y-100029673D01*
X131024310Y-99933000D01*
X130333750Y-99933000D01*
X130175000Y-100091750D01*
X129921000Y-100091750D01*
X129762250Y-99933000D01*
X129071690Y-99933000D01*
X128838301Y-100029673D01*
X128659673Y-100208302D01*
X128563000Y-100441691D01*
X121539000Y-100441691D01*
X121539000Y-99303461D01*
X131450092Y-99303461D01*
X131474144Y-99953460D01*
X131676613Y-100442264D01*
X131943468Y-100540927D01*
X132916395Y-99568000D01*
X133275605Y-99568000D01*
X134248532Y-100540927D01*
X134515387Y-100442264D01*
X134515599Y-100441691D01*
X144311000Y-100441691D01*
X144311000Y-101282250D01*
X144469750Y-101441000D01*
X145669000Y-101441000D01*
X145669000Y-100091750D01*
X145923000Y-100091750D01*
X145923000Y-101441000D01*
X147122250Y-101441000D01*
X147281000Y-101282250D01*
X147281000Y-100441691D01*
X153455000Y-100441691D01*
X153455000Y-101282250D01*
X153613750Y-101441000D01*
X154813000Y-101441000D01*
X154813000Y-100091750D01*
X155067000Y-100091750D01*
X155067000Y-101441000D01*
X156266250Y-101441000D01*
X156425000Y-101282250D01*
X156425000Y-100441691D01*
X162599000Y-100441691D01*
X162599000Y-101282250D01*
X162757750Y-101441000D01*
X163957000Y-101441000D01*
X163957000Y-100091750D01*
X164211000Y-100091750D01*
X164211000Y-101441000D01*
X165410250Y-101441000D01*
X165569000Y-101282250D01*
X165569000Y-100441691D01*
X165472327Y-100208302D01*
X165293699Y-100029673D01*
X165060310Y-99933000D01*
X164369750Y-99933000D01*
X164211000Y-100091750D01*
X163957000Y-100091750D01*
X163798250Y-99933000D01*
X163107690Y-99933000D01*
X162874301Y-100029673D01*
X162695673Y-100208302D01*
X162599000Y-100441691D01*
X156425000Y-100441691D01*
X156328327Y-100208302D01*
X156149699Y-100029673D01*
X155916310Y-99933000D01*
X155225750Y-99933000D01*
X155067000Y-100091750D01*
X154813000Y-100091750D01*
X154654250Y-99933000D01*
X153963690Y-99933000D01*
X153730301Y-100029673D01*
X153551673Y-100208302D01*
X153455000Y-100441691D01*
X147281000Y-100441691D01*
X147184327Y-100208302D01*
X147005699Y-100029673D01*
X146772310Y-99933000D01*
X146081750Y-99933000D01*
X145923000Y-100091750D01*
X145669000Y-100091750D01*
X145510250Y-99933000D01*
X144819690Y-99933000D01*
X144586301Y-100029673D01*
X144407673Y-100208302D01*
X144311000Y-100441691D01*
X134515599Y-100441691D01*
X134741908Y-99832539D01*
X134717856Y-99182540D01*
X134515387Y-98693736D01*
X134248532Y-98595073D01*
X133275605Y-99568000D01*
X132916395Y-99568000D01*
X131943468Y-98595073D01*
X131676613Y-98693736D01*
X131450092Y-99303461D01*
X121539000Y-99303461D01*
X121539000Y-96568000D01*
X128660676Y-96568000D01*
X128660676Y-98568000D01*
X128697423Y-98763294D01*
X128812842Y-98942660D01*
X128988951Y-99062990D01*
X129198000Y-99105324D01*
X130898000Y-99105324D01*
X131093294Y-99068577D01*
X131272660Y-98953158D01*
X131392990Y-98777049D01*
X131435324Y-98568000D01*
X131435324Y-98220000D01*
X132195342Y-98220000D01*
X132123073Y-98415468D01*
X133096000Y-99388395D01*
X134068927Y-98415468D01*
X133996658Y-98220000D01*
X141191995Y-98220000D01*
X141192000Y-98220001D01*
X141400113Y-98178604D01*
X141441510Y-98170369D01*
X141653034Y-98029034D01*
X147590067Y-92092000D01*
X150825933Y-92092000D01*
X146846628Y-96071305D01*
X146646000Y-96030676D01*
X144946000Y-96030676D01*
X144750706Y-96067423D01*
X144571340Y-96182842D01*
X144451010Y-96358951D01*
X144408676Y-96568000D01*
X144408676Y-98568000D01*
X144445423Y-98763294D01*
X144560842Y-98942660D01*
X144736951Y-99062990D01*
X144946000Y-99105324D01*
X146646000Y-99105324D01*
X146841294Y-99068577D01*
X147020660Y-98953158D01*
X147140990Y-98777049D01*
X147183324Y-98568000D01*
X147183324Y-97578744D01*
X151654067Y-93108000D01*
X159783683Y-93108000D01*
X159701144Y-93306778D01*
X159701083Y-93376850D01*
X156327324Y-96750608D01*
X156327324Y-96568000D01*
X156290577Y-96372706D01*
X156175158Y-96193340D01*
X155999049Y-96073010D01*
X155790000Y-96030676D01*
X154090000Y-96030676D01*
X153894706Y-96067423D01*
X153715340Y-96182842D01*
X153595010Y-96358951D01*
X153552676Y-96568000D01*
X153552676Y-98568000D01*
X153589423Y-98763294D01*
X153704842Y-98942660D01*
X153880951Y-99062990D01*
X154090000Y-99105324D01*
X155790000Y-99105324D01*
X155985294Y-99068577D01*
X156164660Y-98953158D01*
X156284990Y-98777049D01*
X156327324Y-98568000D01*
X156327324Y-98220000D01*
X156431995Y-98220000D01*
X156432000Y-98220001D01*
X156640113Y-98178604D01*
X156681510Y-98170369D01*
X156893034Y-98029034D01*
X159896297Y-95025770D01*
X160058930Y-95188688D01*
X160362778Y-95314856D01*
X160432849Y-95314917D01*
X162696676Y-97578743D01*
X162696676Y-98568000D01*
X162733423Y-98763294D01*
X162848842Y-98942660D01*
X163024951Y-99062990D01*
X163234000Y-99105324D01*
X164934000Y-99105324D01*
X165129294Y-99068577D01*
X165308660Y-98953158D01*
X165428990Y-98777049D01*
X165471324Y-98568000D01*
X165471324Y-96568000D01*
X165434577Y-96372706D01*
X165319158Y-96193340D01*
X165143049Y-96073010D01*
X164934000Y-96030676D01*
X163234000Y-96030676D01*
X163038706Y-96067423D01*
X163033099Y-96071031D01*
X161355083Y-94393015D01*
X161355143Y-94324221D01*
X161229505Y-94020154D01*
X161189555Y-93980134D01*
X161228688Y-93941070D01*
X161354856Y-93637222D01*
X161355143Y-93308221D01*
X161229505Y-93004154D01*
X161189555Y-92964134D01*
X161228688Y-92925070D01*
X161354856Y-92621222D01*
X161355143Y-92292221D01*
X161229505Y-91988154D01*
X161189555Y-91948134D01*
X161228688Y-91909070D01*
X161354856Y-91605222D01*
X161355143Y-91276221D01*
X161229505Y-90972154D01*
X160997070Y-90739312D01*
X160693222Y-90613144D01*
X160364221Y-90612857D01*
X160060154Y-90738495D01*
X160010562Y-90788000D01*
X147320005Y-90788000D01*
X147320000Y-90787999D01*
X147070491Y-90837630D01*
X147070489Y-90837631D01*
X147070490Y-90837631D01*
X146858966Y-90978966D01*
X146858964Y-90978969D01*
X140921932Y-96916000D01*
X131435324Y-96916000D01*
X131435324Y-96568000D01*
X131398577Y-96372706D01*
X131283158Y-96193340D01*
X131107049Y-96073010D01*
X130898000Y-96030676D01*
X129198000Y-96030676D01*
X129002706Y-96067423D01*
X128823340Y-96182842D01*
X128703010Y-96358951D01*
X128660676Y-96568000D01*
X121539000Y-96568000D01*
X121539000Y-95920532D01*
X121963073Y-95920532D01*
X122061736Y-96187387D01*
X122671461Y-96413908D01*
X123321460Y-96389856D01*
X123810264Y-96187387D01*
X123908927Y-95920532D01*
X122936000Y-94947605D01*
X121963073Y-95920532D01*
X121539000Y-95920532D01*
X121539000Y-95650541D01*
X121783468Y-95740927D01*
X122756395Y-94768000D01*
X123115605Y-94768000D01*
X124088532Y-95740927D01*
X124355387Y-95642264D01*
X124581908Y-95032539D01*
X124568508Y-94670407D01*
X134628735Y-94670407D01*
X134860717Y-95231846D01*
X135289894Y-95661773D01*
X135850928Y-95894735D01*
X136458407Y-95895265D01*
X137019846Y-95663283D01*
X137449773Y-95234106D01*
X137682735Y-94673072D01*
X137683265Y-94065593D01*
X137451283Y-93504154D01*
X137022106Y-93074227D01*
X136461072Y-92841265D01*
X135853593Y-92840735D01*
X135292154Y-93072717D01*
X134862227Y-93501894D01*
X134629265Y-94062928D01*
X134628735Y-94670407D01*
X124568508Y-94670407D01*
X124557856Y-94382540D01*
X124355387Y-93893736D01*
X124088532Y-93795073D01*
X123115605Y-94768000D01*
X122756395Y-94768000D01*
X121783468Y-93795073D01*
X121539000Y-93885459D01*
X121539000Y-93615468D01*
X121963073Y-93615468D01*
X122936000Y-94588395D01*
X123908927Y-93615468D01*
X123810264Y-93348613D01*
X123200539Y-93122092D01*
X122550540Y-93146144D01*
X122061736Y-93348613D01*
X121963073Y-93615468D01*
X121539000Y-93615468D01*
X121539000Y-83820000D01*
X127628023Y-83820000D01*
X127732841Y-84346955D01*
X128031337Y-84793686D01*
X128474802Y-85090000D01*
X128031337Y-85386314D01*
X127732841Y-85833045D01*
X127628023Y-86360000D01*
X127732841Y-86886955D01*
X128031337Y-87333686D01*
X128423737Y-87595879D01*
X128429631Y-87625510D01*
X128492915Y-87720221D01*
X128570966Y-87837034D01*
X131110964Y-90377031D01*
X131110966Y-90377034D01*
X131322490Y-90518369D01*
X131572000Y-90568000D01*
X132727607Y-90568000D01*
X132232154Y-90772717D01*
X131802227Y-91201894D01*
X131569265Y-91762928D01*
X131568735Y-92370407D01*
X131800717Y-92931846D01*
X132229894Y-93361773D01*
X132790928Y-93594735D01*
X133398407Y-93595265D01*
X133959846Y-93363283D01*
X134389773Y-92934106D01*
X134622735Y-92373072D01*
X134623265Y-91765593D01*
X134391283Y-91204154D01*
X133962106Y-90774227D01*
X133465457Y-90568000D01*
X139690327Y-90568000D01*
X139738930Y-90616688D01*
X140042778Y-90742856D01*
X140371779Y-90743143D01*
X140675846Y-90617505D01*
X140908688Y-90385070D01*
X141034856Y-90081222D01*
X141035143Y-89752221D01*
X140960586Y-89571779D01*
X146492857Y-89571779D01*
X146618495Y-89875846D01*
X146850930Y-90108688D01*
X147154778Y-90234856D01*
X147483779Y-90235143D01*
X147787846Y-90109505D01*
X147837438Y-90060000D01*
X159511995Y-90060000D01*
X159512000Y-90060001D01*
X159720113Y-90018604D01*
X159761510Y-90010369D01*
X159973034Y-89869034D01*
X160434067Y-89408000D01*
X171141795Y-89408000D01*
X171239914Y-89901279D01*
X171519334Y-90319461D01*
X171937516Y-90598881D01*
X172430795Y-90697000D01*
X173517205Y-90697000D01*
X174010484Y-90598881D01*
X174428666Y-90319461D01*
X174708086Y-89901279D01*
X174737964Y-89751070D01*
X177461780Y-89751070D01*
X177476740Y-89825277D01*
X177738370Y-90306026D01*
X178164059Y-90650059D01*
X178689000Y-90805000D01*
X179197000Y-90805000D01*
X179197000Y-89535000D01*
X179451000Y-89535000D01*
X179451000Y-90805000D01*
X179959000Y-90805000D01*
X180483941Y-90650059D01*
X180909630Y-90306026D01*
X181171260Y-89825277D01*
X181186220Y-89751070D01*
X181063720Y-89535000D01*
X179451000Y-89535000D01*
X179197000Y-89535000D01*
X177584280Y-89535000D01*
X177461780Y-89751070D01*
X174737964Y-89751070D01*
X174806205Y-89408000D01*
X174708086Y-88914721D01*
X174428666Y-88496539D01*
X174010484Y-88217119D01*
X173517205Y-88119000D01*
X172430795Y-88119000D01*
X171937516Y-88217119D01*
X171519334Y-88496539D01*
X171239914Y-88914721D01*
X171141795Y-89408000D01*
X160434067Y-89408000D01*
X162322067Y-87520000D01*
X177695968Y-87520000D01*
X177869334Y-87779461D01*
X178287516Y-88058881D01*
X178430452Y-88087313D01*
X178164059Y-88165941D01*
X177738370Y-88509974D01*
X177476740Y-88990723D01*
X177461780Y-89064930D01*
X177584280Y-89281000D01*
X179197000Y-89281000D01*
X179197000Y-89261000D01*
X179451000Y-89261000D01*
X179451000Y-89281000D01*
X181063720Y-89281000D01*
X181186220Y-89064930D01*
X181171260Y-88990723D01*
X180909630Y-88509974D01*
X180483941Y-88165941D01*
X180217548Y-88087313D01*
X180360484Y-88058881D01*
X180778666Y-87779461D01*
X181058086Y-87361279D01*
X181156205Y-86868000D01*
X181058086Y-86374721D01*
X180778666Y-85956539D01*
X180360484Y-85677119D01*
X179962725Y-85598000D01*
X180360484Y-85518881D01*
X180778666Y-85239461D01*
X181058086Y-84821279D01*
X181156205Y-84328000D01*
X181058086Y-83834721D01*
X180778666Y-83416539D01*
X180360484Y-83137119D01*
X179867205Y-83039000D01*
X178780795Y-83039000D01*
X178287516Y-83137119D01*
X177869334Y-83416539D01*
X177695968Y-83676000D01*
X174602032Y-83676000D01*
X174428666Y-83416539D01*
X174010484Y-83137119D01*
X173517205Y-83039000D01*
X172430795Y-83039000D01*
X171937516Y-83137119D01*
X171519334Y-83416539D01*
X171239914Y-83834721D01*
X171141795Y-84328000D01*
X171239914Y-84821279D01*
X171519334Y-85239461D01*
X171937516Y-85518881D01*
X172430795Y-85617000D01*
X173517205Y-85617000D01*
X174010484Y-85518881D01*
X174428666Y-85239461D01*
X174602032Y-84980000D01*
X177695968Y-84980000D01*
X177869334Y-85239461D01*
X178287516Y-85518881D01*
X178685275Y-85598000D01*
X178287516Y-85677119D01*
X177869334Y-85956539D01*
X177695968Y-86216000D01*
X162052000Y-86216000D01*
X161802490Y-86265631D01*
X161590966Y-86406966D01*
X161590964Y-86406969D01*
X159241932Y-88756000D01*
X147837673Y-88756000D01*
X147789070Y-88707312D01*
X147485222Y-88581144D01*
X147156221Y-88580857D01*
X146852154Y-88706495D01*
X146619312Y-88938930D01*
X146493144Y-89242778D01*
X146492857Y-89571779D01*
X140960586Y-89571779D01*
X140909505Y-89448154D01*
X140677070Y-89215312D01*
X140373222Y-89089144D01*
X140044221Y-89088857D01*
X139740154Y-89214495D01*
X139690562Y-89264000D01*
X131842067Y-89264000D01*
X129960183Y-87382115D01*
X130032663Y-87333686D01*
X130250785Y-87007244D01*
X130300355Y-87126924D01*
X130690642Y-87555183D01*
X131215108Y-87801486D01*
X131445000Y-87680819D01*
X131445000Y-86487000D01*
X131699000Y-86487000D01*
X131699000Y-87680819D01*
X131928892Y-87801486D01*
X132453358Y-87555183D01*
X132843645Y-87126924D01*
X133013476Y-86716890D01*
X132892155Y-86487000D01*
X131699000Y-86487000D01*
X131445000Y-86487000D01*
X131425000Y-86487000D01*
X131425000Y-86233000D01*
X131445000Y-86233000D01*
X131445000Y-86213000D01*
X131699000Y-86213000D01*
X131699000Y-86233000D01*
X132892155Y-86233000D01*
X133013476Y-86003110D01*
X132843645Y-85593076D01*
X132453358Y-85164817D01*
X132197238Y-85044537D01*
X132572663Y-84793686D01*
X132871159Y-84346955D01*
X132975977Y-83820000D01*
X132871159Y-83293045D01*
X132572663Y-82846314D01*
X132129198Y-82550000D01*
X132572663Y-82253686D01*
X132871159Y-81806955D01*
X132975977Y-81280000D01*
X132871159Y-80753045D01*
X132572663Y-80306314D01*
X132125932Y-80007818D01*
X131598977Y-79903000D01*
X131545023Y-79903000D01*
X131277942Y-79956126D01*
X131334068Y-79900000D01*
X141461932Y-79900000D01*
X149906964Y-88345031D01*
X149906966Y-88345034D01*
X150118490Y-88486369D01*
X150368000Y-88536000D01*
X152898327Y-88536000D01*
X152946930Y-88584688D01*
X153250778Y-88710856D01*
X153579779Y-88711143D01*
X153883846Y-88585505D01*
X154116688Y-88353070D01*
X154242856Y-88049222D01*
X154243143Y-87720221D01*
X154117505Y-87416154D01*
X153885070Y-87183312D01*
X153581222Y-87057144D01*
X153252221Y-87056857D01*
X152948154Y-87182495D01*
X152898562Y-87232000D01*
X150638067Y-87232000D01*
X143447818Y-80041750D01*
X145327000Y-80041750D01*
X145327000Y-80732309D01*
X145423673Y-80965698D01*
X145602301Y-81144327D01*
X145835690Y-81241000D01*
X146526250Y-81241000D01*
X146685000Y-81082250D01*
X146685000Y-79883000D01*
X145485750Y-79883000D01*
X145327000Y-80041750D01*
X143447818Y-80041750D01*
X142193034Y-78786966D01*
X142182146Y-78779691D01*
X145327000Y-78779691D01*
X145327000Y-79470250D01*
X145485750Y-79629000D01*
X146685000Y-79629000D01*
X146685000Y-78429750D01*
X146939000Y-78429750D01*
X146939000Y-79629000D01*
X146959000Y-79629000D01*
X146959000Y-79883000D01*
X146939000Y-79883000D01*
X146939000Y-81082250D01*
X147097750Y-81241000D01*
X147788310Y-81241000D01*
X148021699Y-81144327D01*
X148200327Y-80965698D01*
X148297000Y-80732309D01*
X148297000Y-80634968D01*
X148378314Y-80756663D01*
X148825045Y-81055159D01*
X149352000Y-81159977D01*
X149878955Y-81055159D01*
X150325686Y-80756663D01*
X150624182Y-80309932D01*
X150729000Y-79782977D01*
X150729000Y-79729023D01*
X150624182Y-79202068D01*
X150325686Y-78755337D01*
X149878955Y-78456841D01*
X149352000Y-78352023D01*
X148825045Y-78456841D01*
X148378314Y-78755337D01*
X148297000Y-78877032D01*
X148297000Y-78779691D01*
X148200327Y-78546302D01*
X148021699Y-78367673D01*
X147788310Y-78271000D01*
X147097750Y-78271000D01*
X146939000Y-78429750D01*
X146685000Y-78429750D01*
X146526250Y-78271000D01*
X145835690Y-78271000D01*
X145602301Y-78367673D01*
X145423673Y-78546302D01*
X145327000Y-78779691D01*
X142182146Y-78779691D01*
X141981510Y-78645631D01*
X141940113Y-78637396D01*
X141732000Y-78595999D01*
X141731995Y-78596000D01*
X131064005Y-78596000D01*
X131064000Y-78595999D01*
X130855887Y-78637396D01*
X130814490Y-78645631D01*
X130613854Y-78779691D01*
X130602966Y-78786966D01*
X129497256Y-79892676D01*
X128182000Y-79892676D01*
X127986706Y-79929423D01*
X127807340Y-80044842D01*
X127687010Y-80220951D01*
X127644676Y-80430000D01*
X127644676Y-82130000D01*
X127681423Y-82325294D01*
X127796842Y-82504660D01*
X127972951Y-82624990D01*
X128182000Y-82667324D01*
X128299215Y-82667324D01*
X128031337Y-82846314D01*
X127732841Y-83293045D01*
X127628023Y-83820000D01*
X121539000Y-83820000D01*
X121539000Y-77851000D01*
X164006093Y-77851000D01*
X163912135Y-77944794D01*
X163912135Y-77944794D01*
G37*
X163912135Y-77944794D02*
X163852671Y-78088000D01*
X160020000Y-78088000D01*
X159770490Y-78137631D01*
X159558966Y-78278966D01*
X159558964Y-78278969D01*
X152305015Y-85532917D01*
X152236221Y-85532857D01*
X151932154Y-85658495D01*
X151699312Y-85890930D01*
X151573144Y-86194778D01*
X151572857Y-86523779D01*
X151698495Y-86827846D01*
X151930930Y-87060688D01*
X152234778Y-87186856D01*
X152563779Y-87187143D01*
X152867846Y-87061505D01*
X153100688Y-86829070D01*
X153226856Y-86525222D01*
X153226917Y-86455151D01*
X160290067Y-79392000D01*
X163852434Y-79392000D01*
X163910749Y-79533132D01*
X164030565Y-79653158D01*
X163537692Y-79652727D01*
X162957868Y-79892305D01*
X162513864Y-80335535D01*
X162273275Y-80914939D01*
X162272727Y-81542308D01*
X162512305Y-82122132D01*
X162955535Y-82566136D01*
X163534939Y-82806725D01*
X164162308Y-82807273D01*
X164742132Y-82567695D01*
X165186136Y-82124465D01*
X165426725Y-81545061D01*
X165427273Y-80917692D01*
X165187695Y-80337868D01*
X164992075Y-80141906D01*
X165377652Y-80142243D01*
X165893132Y-79929251D01*
X166287865Y-79535206D01*
X166501756Y-79020099D01*
X166502243Y-78462348D01*
X166289251Y-77946868D01*
X166193550Y-77851000D01*
X168531392Y-77851000D01*
X168537938Y-77857546D01*
X168284047Y-77940884D01*
X168078410Y-78505306D01*
X168104421Y-79105458D01*
X168284047Y-79539116D01*
X168537940Y-79622455D01*
X169420395Y-78740000D01*
X169406253Y-78725858D01*
X169585858Y-78546253D01*
X169600000Y-78560395D01*
X169614143Y-78546253D01*
X169793748Y-78725858D01*
X169779605Y-78740000D01*
X169793748Y-78754143D01*
X169614143Y-78933748D01*
X169600000Y-78919605D01*
X168717545Y-79802060D01*
X168800884Y-80055953D01*
X169365306Y-80261590D01*
X169608497Y-80251050D01*
X169523864Y-80335535D01*
X169283275Y-80914939D01*
X169282727Y-81542308D01*
X169522305Y-82122132D01*
X169965535Y-82566136D01*
X170544939Y-82806725D01*
X171172308Y-82807273D01*
X171752132Y-82567695D01*
X172196136Y-82124465D01*
X172436725Y-81545061D01*
X172437273Y-80917692D01*
X172197695Y-80337868D01*
X171754465Y-79893864D01*
X171175061Y-79653275D01*
X170692461Y-79652853D01*
X170662062Y-79622454D01*
X170915953Y-79539116D01*
X171121590Y-78974694D01*
X171095579Y-78374542D01*
X170915953Y-77940884D01*
X170662062Y-77857546D01*
X170668608Y-77851000D01*
X182753000Y-77851000D01*
X182753000Y-96559000D01*
X182149750Y-96559000D01*
X181991000Y-96717750D01*
X181991000Y-97917000D01*
X182011000Y-97917000D01*
X182011000Y-98171000D01*
X181991000Y-98171000D01*
X181991000Y-98191000D01*
X181737000Y-98191000D01*
X181737000Y-98171000D01*
X180537750Y-98171000D01*
X180379000Y-98329750D01*
X180379000Y-99020310D01*
X180475673Y-99253699D01*
X180654302Y-99432327D01*
X180887691Y-99529000D01*
X180985032Y-99529000D01*
X180863337Y-99610314D01*
X180564841Y-100057045D01*
X180460023Y-100584000D01*
X180564841Y-101110955D01*
X180863337Y-101557686D01*
X181310068Y-101856182D01*
X181837023Y-101961000D01*
X181890977Y-101961000D01*
X182417932Y-101856182D01*
X182753000Y-101632297D01*
X182753000Y-109448896D01*
X182387371Y-108901695D01*
X181681102Y-108429780D01*
X180848000Y-108264066D01*
X180014898Y-108429780D01*
X179308629Y-108901695D01*
X178836714Y-109607964D01*
X178671000Y-110441066D01*
X178671000Y-114094934D01*
X178836714Y-114928036D01*
X179308629Y-115634305D01*
X179792389Y-115957544D01*
X178037932Y-117712000D01*
X171974068Y-117712000D01*
X170495764Y-116233696D01*
X170688000Y-116271934D01*
X171521102Y-116106220D01*
X172227371Y-115634305D01*
X172699286Y-114928036D01*
X172865000Y-114094934D01*
X172865000Y-110441066D01*
X172699286Y-109607964D01*
X172227371Y-108901695D01*
X171521102Y-108429780D01*
X170688000Y-108264066D01*
X169854898Y-108429780D01*
X169148629Y-108901695D01*
X168676714Y-109607964D01*
X168511000Y-110441066D01*
X168511000Y-114094934D01*
X168549238Y-114287170D01*
X165053034Y-110790966D01*
X165053031Y-110790964D01*
X164261280Y-109999213D01*
X164592000Y-110064997D01*
X165099821Y-109963985D01*
X165530331Y-109676328D01*
X165817988Y-109245818D01*
X165919000Y-108737997D01*
X165919000Y-108686003D01*
X165817988Y-108178182D01*
X165530331Y-107747672D01*
X165099821Y-107460015D01*
X164592000Y-107359003D01*
X164084179Y-107460015D01*
X163653669Y-107747672D01*
X163366012Y-108178182D01*
X163322000Y-108399445D01*
X163277988Y-108178182D01*
X162990331Y-107747672D01*
X162559821Y-107460015D01*
X162052000Y-107359003D01*
X161544179Y-107460015D01*
X161113669Y-107747672D01*
X160826012Y-108178182D01*
X160782000Y-108399445D01*
X160737988Y-108178182D01*
X160450331Y-107747672D01*
X160164000Y-107556352D01*
X160164000Y-106824000D01*
X173211932Y-106824000D01*
X174864651Y-108476718D01*
X174228629Y-108901695D01*
X173756714Y-109607964D01*
X173591000Y-110441066D01*
X173591000Y-114094934D01*
X173756714Y-114928036D01*
X174228629Y-115634305D01*
X174934898Y-116106220D01*
X175768000Y-116271934D01*
X176601102Y-116106220D01*
X177307371Y-115634305D01*
X177779286Y-114928036D01*
X177945000Y-114094934D01*
X177945000Y-110441066D01*
X177779286Y-109607964D01*
X177307371Y-108901695D01*
X176601102Y-108429780D01*
X176406695Y-108391110D01*
X176370369Y-108208490D01*
X176229034Y-107996966D01*
X176229031Y-107996964D01*
X173943034Y-105710966D01*
X173731510Y-105569631D01*
X173690113Y-105561396D01*
X173482000Y-105519999D01*
X173481995Y-105520000D01*
X159824948Y-105520000D01*
X159788577Y-105326706D01*
X159771392Y-105300000D01*
X165099995Y-105300000D01*
X165100000Y-105300001D01*
X165308113Y-105258604D01*
X165349510Y-105250369D01*
X165561034Y-105109034D01*
X168816318Y-101853750D01*
X170727000Y-101853750D01*
X170727000Y-102694309D01*
X170823673Y-102927698D01*
X171002301Y-103106327D01*
X171235690Y-103203000D01*
X171926250Y-103203000D01*
X172085000Y-103044250D01*
X172085000Y-101695000D01*
X172339000Y-101695000D01*
X172339000Y-103044250D01*
X172497750Y-103203000D01*
X173188310Y-103203000D01*
X173421699Y-103106327D01*
X173600327Y-102927698D01*
X173697000Y-102694309D01*
X173697000Y-101853750D01*
X173538250Y-101695000D01*
X172339000Y-101695000D01*
X172085000Y-101695000D01*
X170885750Y-101695000D01*
X170727000Y-101853750D01*
X168816318Y-101853750D01*
X170228377Y-100441691D01*
X170727000Y-100441691D01*
X170727000Y-101282250D01*
X170885750Y-101441000D01*
X172085000Y-101441000D01*
X172085000Y-100091750D01*
X172339000Y-100091750D01*
X172339000Y-101441000D01*
X173538250Y-101441000D01*
X173697000Y-101282250D01*
X173697000Y-100441691D01*
X173600327Y-100208302D01*
X173421699Y-100029673D01*
X173188310Y-99933000D01*
X172497750Y-99933000D01*
X172339000Y-100091750D01*
X172085000Y-100091750D01*
X171926250Y-99933000D01*
X171235690Y-99933000D01*
X171002301Y-100029673D01*
X170823673Y-100208302D01*
X170727000Y-100441691D01*
X170228377Y-100441691D01*
X171564744Y-99105324D01*
X173062000Y-99105324D01*
X173257294Y-99068577D01*
X173436660Y-98953158D01*
X173556990Y-98777049D01*
X173599324Y-98568000D01*
X173599324Y-97067690D01*
X180379000Y-97067690D01*
X180379000Y-97758250D01*
X180537750Y-97917000D01*
X181737000Y-97917000D01*
X181737000Y-96717750D01*
X181578250Y-96559000D01*
X180887691Y-96559000D01*
X180654302Y-96655673D01*
X180475673Y-96834301D01*
X180379000Y-97067690D01*
X173599324Y-97067690D01*
X173599324Y-96568000D01*
X173562577Y-96372706D01*
X173447158Y-96193340D01*
X173271049Y-96073010D01*
X173062000Y-96030676D01*
X171362000Y-96030676D01*
X171166706Y-96067423D01*
X170987340Y-96182842D01*
X170867010Y-96358951D01*
X170824676Y-96568000D01*
X170824676Y-98001256D01*
X164829932Y-103996000D01*
X146821673Y-103996000D01*
X146773070Y-103947312D01*
X146469222Y-103821144D01*
X146140221Y-103820857D01*
X145836154Y-103946495D01*
X145603312Y-104178930D01*
X145477144Y-104482778D01*
X145476857Y-104811779D01*
X145602495Y-105115846D01*
X145834930Y-105348688D01*
X146138778Y-105474856D01*
X146467779Y-105475143D01*
X146771846Y-105349505D01*
X146821438Y-105300000D01*
X156201859Y-105300000D01*
X156193010Y-105312951D01*
X156150676Y-105522000D01*
X156150676Y-106822000D01*
X156187423Y-107017294D01*
X156302842Y-107196660D01*
X156320000Y-107208384D01*
X156320000Y-107556352D01*
X156033669Y-107747672D01*
X155746012Y-108178182D01*
X155645000Y-108686003D01*
X155645000Y-108737997D01*
X155746012Y-109245818D01*
X156033669Y-109676328D01*
X156464179Y-109963985D01*
X156972000Y-110064997D01*
X157479821Y-109963985D01*
X157910331Y-109676328D01*
X158197988Y-109245818D01*
X158242000Y-109024555D01*
X158286012Y-109245818D01*
X158573669Y-109676328D01*
X159004179Y-109963985D01*
X159512000Y-110064997D01*
X159842719Y-109999213D01*
X159034966Y-110806966D01*
X158893631Y-111018490D01*
X158893631Y-111018491D01*
X158843999Y-111268000D01*
X158844000Y-111268005D01*
X158844000Y-112658277D01*
X158800706Y-112666423D01*
X158621340Y-112781842D01*
X158560602Y-112870735D01*
X158534327Y-112807301D01*
X158355698Y-112628673D01*
X158122309Y-112532000D01*
X157781750Y-112532000D01*
X157623000Y-112690750D01*
X157623000Y-113665000D01*
X157643000Y-113665000D01*
X157643000Y-113919000D01*
X157623000Y-113919000D01*
X157623000Y-113939000D01*
X157369000Y-113939000D01*
X157369000Y-113919000D01*
X156519750Y-113919000D01*
X156361000Y-114077750D01*
X156361000Y-114543310D01*
X156457673Y-114776699D01*
X156577975Y-114897000D01*
X156045690Y-114897000D01*
X155812301Y-114993673D01*
X155633673Y-115172302D01*
X155537000Y-115405691D01*
X155537000Y-116046250D01*
X155695750Y-116205000D01*
X156845000Y-116205000D01*
X156845000Y-116185000D01*
X157099000Y-116185000D01*
X157099000Y-116205000D01*
X157119000Y-116205000D01*
X157119000Y-116459000D01*
X157099000Y-116459000D01*
X157099000Y-117608250D01*
X157257750Y-117767000D01*
X157898310Y-117767000D01*
X158131699Y-117670327D01*
X158310327Y-117491698D01*
X158407000Y-117258309D01*
X158407000Y-117046890D01*
X158573669Y-117296328D01*
X159004179Y-117583985D01*
X159512000Y-117684997D01*
X160019821Y-117583985D01*
X160450331Y-117296328D01*
X160737988Y-116865818D01*
X160782000Y-116644555D01*
X160826012Y-116865818D01*
X161113669Y-117296328D01*
X161544179Y-117583985D01*
X162052000Y-117684997D01*
X162559821Y-117583985D01*
X162990331Y-117296328D01*
X163277988Y-116865818D01*
X163322000Y-116644555D01*
X163366012Y-116865818D01*
X163653669Y-117296328D01*
X164084179Y-117583985D01*
X164592000Y-117684997D01*
X165099821Y-117583985D01*
X165530331Y-117296328D01*
X165817988Y-116865818D01*
X165919000Y-116357997D01*
X165919000Y-116306003D01*
X165817988Y-115798182D01*
X165530331Y-115367672D01*
X165099821Y-115080015D01*
X164592000Y-114979003D01*
X164084179Y-115080015D01*
X163653669Y-115367672D01*
X163366012Y-115798182D01*
X163322000Y-116019445D01*
X163277988Y-115798182D01*
X162990331Y-115367672D01*
X162559821Y-115080015D01*
X162052000Y-114979003D01*
X161544179Y-115080015D01*
X161113669Y-115367672D01*
X160826012Y-115798182D01*
X160782000Y-116019445D01*
X160737988Y-115798182D01*
X160450331Y-115367672D01*
X160148000Y-115165661D01*
X160148000Y-114925723D01*
X160191294Y-114917577D01*
X160370660Y-114802158D01*
X160490990Y-114626049D01*
X160533324Y-114417000D01*
X160533324Y-113167000D01*
X160496577Y-112971706D01*
X160381158Y-112792340D01*
X160205049Y-112672010D01*
X160148000Y-112660457D01*
X160148000Y-111538068D01*
X161692567Y-109993501D01*
X162052000Y-110064997D01*
X162411433Y-109993501D01*
X164130964Y-111713031D01*
X164130966Y-111713034D01*
X171242966Y-118825034D01*
X171454491Y-118966370D01*
X171704000Y-119016001D01*
X171704005Y-119016000D01*
X178307995Y-119016000D01*
X178308000Y-119016001D01*
X178516113Y-118974604D01*
X178557510Y-118966369D01*
X178769034Y-118825034D01*
X181309031Y-116285036D01*
X181309034Y-116285034D01*
X181389796Y-116164164D01*
X181681102Y-116106220D01*
X182387371Y-115634305D01*
X182753000Y-115087104D01*
X182753000Y-121285000D01*
X121539000Y-121285000D01*
X121539000Y-119035779D01*
X145476857Y-119035779D01*
X145602495Y-119339846D01*
X145834930Y-119572688D01*
X146138778Y-119698856D01*
X146467779Y-119699143D01*
X146771846Y-119573505D01*
X146821438Y-119524000D01*
X146830676Y-119524000D01*
X146830676Y-119722000D01*
X146867423Y-119917294D01*
X146982842Y-120096660D01*
X147158951Y-120216990D01*
X147368000Y-120259324D01*
X149368000Y-120259324D01*
X149563294Y-120222577D01*
X149742660Y-120107158D01*
X149862990Y-119931049D01*
X149905324Y-119722000D01*
X149905324Y-119157750D01*
X150733000Y-119157750D01*
X150733000Y-119848310D01*
X150829673Y-120081699D01*
X151008302Y-120260327D01*
X151241691Y-120357000D01*
X152082250Y-120357000D01*
X152241000Y-120198250D01*
X152241000Y-118999000D01*
X152495000Y-118999000D01*
X152495000Y-120198250D01*
X152653750Y-120357000D01*
X153494309Y-120357000D01*
X153727698Y-120260327D01*
X153906327Y-120081699D01*
X154003000Y-119848310D01*
X154003000Y-119157750D01*
X153844250Y-118999000D01*
X152495000Y-118999000D01*
X152241000Y-118999000D01*
X150891750Y-118999000D01*
X150733000Y-119157750D01*
X149905324Y-119157750D01*
X149905324Y-118022000D01*
X149881558Y-117895690D01*
X150733000Y-117895690D01*
X150733000Y-118586250D01*
X150891750Y-118745000D01*
X152241000Y-118745000D01*
X152241000Y-117545750D01*
X152495000Y-117545750D01*
X152495000Y-118745000D01*
X153844250Y-118745000D01*
X154003000Y-118586250D01*
X154003000Y-117895690D01*
X153906327Y-117662301D01*
X153727698Y-117483673D01*
X153494309Y-117387000D01*
X152653750Y-117387000D01*
X152495000Y-117545750D01*
X152241000Y-117545750D01*
X152082250Y-117387000D01*
X151241691Y-117387000D01*
X151008302Y-117483673D01*
X150829673Y-117662301D01*
X150733000Y-117895690D01*
X149881558Y-117895690D01*
X149868577Y-117826706D01*
X149753158Y-117647340D01*
X149577049Y-117527010D01*
X149368000Y-117484676D01*
X147368000Y-117484676D01*
X147172706Y-117521423D01*
X146993340Y-117636842D01*
X146873010Y-117812951D01*
X146830676Y-118022000D01*
X146830676Y-118220000D01*
X146821673Y-118220000D01*
X146773070Y-118171312D01*
X146469222Y-118045144D01*
X146140221Y-118044857D01*
X145836154Y-118170495D01*
X145603312Y-118402930D01*
X145477144Y-118706778D01*
X145476857Y-119035779D01*
X121539000Y-119035779D01*
X121539000Y-116617750D01*
X155537000Y-116617750D01*
X155537000Y-117258309D01*
X155633673Y-117491698D01*
X155812301Y-117670327D01*
X156045690Y-117767000D01*
X156686250Y-117767000D01*
X156845000Y-117608250D01*
X156845000Y-116459000D01*
X155695750Y-116459000D01*
X155537000Y-116617750D01*
X121539000Y-116617750D01*
X121539000Y-113040690D01*
X156361000Y-113040690D01*
X156361000Y-113506250D01*
X156519750Y-113665000D01*
X157369000Y-113665000D01*
X157369000Y-112690750D01*
X157210250Y-112532000D01*
X156869691Y-112532000D01*
X156636302Y-112628673D01*
X156457673Y-112807301D01*
X156361000Y-113040690D01*
X121539000Y-113040690D01*
X121539000Y-110735745D01*
X147547861Y-110735745D01*
X147621995Y-110981864D01*
X148159223Y-111174965D01*
X148729454Y-111147778D01*
X149130005Y-110981864D01*
X149204139Y-110735745D01*
X148376000Y-109907605D01*
X147547861Y-110735745D01*
X121539000Y-110735745D01*
X121539000Y-109511223D01*
X146929035Y-109511223D01*
X146956222Y-110081454D01*
X147122136Y-110482005D01*
X147368255Y-110556139D01*
X148196395Y-109728000D01*
X148555605Y-109728000D01*
X149383745Y-110556139D01*
X149538676Y-110509472D01*
X149538676Y-110528000D01*
X149575423Y-110723294D01*
X149690842Y-110902660D01*
X149866951Y-111022990D01*
X150076000Y-111065324D01*
X151676000Y-111065324D01*
X151871294Y-111028577D01*
X152050660Y-110913158D01*
X152170990Y-110737049D01*
X152213324Y-110528000D01*
X152213324Y-108928000D01*
X152176577Y-108732706D01*
X152061158Y-108553340D01*
X151885049Y-108433010D01*
X151676000Y-108390676D01*
X150076000Y-108390676D01*
X149880706Y-108427423D01*
X149701340Y-108542842D01*
X149581010Y-108718951D01*
X149538676Y-108928000D01*
X149538676Y-108946528D01*
X149383745Y-108899861D01*
X148555605Y-109728000D01*
X148196395Y-109728000D01*
X147368255Y-108899861D01*
X147122136Y-108973995D01*
X146929035Y-109511223D01*
X121539000Y-109511223D01*
X121539000Y-108720255D01*
X147547861Y-108720255D01*
X148376000Y-109548395D01*
X149204139Y-108720255D01*
X149130005Y-108474136D01*
X148592777Y-108281035D01*
X148022546Y-108308222D01*
X147621995Y-108474136D01*
X147547861Y-108720255D01*
X121539000Y-108720255D01*
X121539000Y-107370407D01*
X131568735Y-107370407D01*
X131800717Y-107931846D01*
X132229894Y-108361773D01*
X132790928Y-108594735D01*
X133398407Y-108595265D01*
X133959846Y-108363283D01*
X134389773Y-107934106D01*
X134420636Y-107859779D01*
X138872857Y-107859779D01*
X138998495Y-108163846D01*
X139230930Y-108396688D01*
X139534778Y-108522856D01*
X139863779Y-108523143D01*
X140167846Y-108397505D01*
X140400688Y-108165070D01*
X140526856Y-107861222D01*
X140526917Y-107791151D01*
X140986068Y-107332000D01*
X144704327Y-107332000D01*
X144752930Y-107380688D01*
X145056778Y-107506856D01*
X145385779Y-107507143D01*
X145689846Y-107381505D01*
X145922688Y-107149070D01*
X146048856Y-106845222D01*
X146049143Y-106516221D01*
X145923505Y-106212154D01*
X145691070Y-105979312D01*
X145387222Y-105853144D01*
X145058221Y-105852857D01*
X144754154Y-105978495D01*
X144704562Y-106028000D01*
X140716005Y-106028000D01*
X140716000Y-106027999D01*
X140507887Y-106069396D01*
X140466490Y-106077631D01*
X140325256Y-106172000D01*
X140254966Y-106218966D01*
X139605015Y-106868917D01*
X139536221Y-106868857D01*
X139232154Y-106994495D01*
X138999312Y-107226930D01*
X138873144Y-107530778D01*
X138872857Y-107859779D01*
X134420636Y-107859779D01*
X134622735Y-107373072D01*
X134623265Y-106765593D01*
X134391283Y-106204154D01*
X133962106Y-105774227D01*
X133401072Y-105541265D01*
X132793593Y-105540735D01*
X132232154Y-105772717D01*
X131802227Y-106201894D01*
X131569265Y-106762928D01*
X131568735Y-107370407D01*
X121539000Y-107370407D01*
X121539000Y-105520532D01*
X121963073Y-105520532D01*
X122061736Y-105787387D01*
X122671461Y-106013908D01*
X123321460Y-105989856D01*
X123810264Y-105787387D01*
X123908927Y-105520532D01*
X122936000Y-104547605D01*
X121963073Y-105520532D01*
X121539000Y-105520532D01*
X121539000Y-105250541D01*
X121783468Y-105340927D01*
X122756395Y-104368000D01*
X123115605Y-104368000D01*
X124088532Y-105340927D01*
X124355387Y-105242264D01*
X124419234Y-105070407D01*
X134628735Y-105070407D01*
X134860717Y-105631846D01*
X135289894Y-106061773D01*
X135850928Y-106294735D01*
X136458407Y-106295265D01*
X137019846Y-106063283D01*
X137449773Y-105634106D01*
X137682735Y-105073072D01*
X137683265Y-104465593D01*
X137451283Y-103904154D01*
X137022106Y-103474227D01*
X136461072Y-103241265D01*
X135853593Y-103240735D01*
X135292154Y-103472717D01*
X134862227Y-103901894D01*
X134629265Y-104462928D01*
X134628735Y-105070407D01*
X124419234Y-105070407D01*
X124581908Y-104632539D01*
X124557856Y-103982540D01*
X124355387Y-103493736D01*
X124088532Y-103395073D01*
X123115605Y-104368000D01*
X122756395Y-104368000D01*
X121783468Y-103395073D01*
X121539000Y-103485459D01*
X121539000Y-103215468D01*
X121963073Y-103215468D01*
X122936000Y-104188395D01*
X123908927Y-103215468D01*
X123810264Y-102948613D01*
X123200539Y-102722092D01*
X122550540Y-102746144D01*
X122061736Y-102948613D01*
X121963073Y-103215468D01*
X121539000Y-103215468D01*
X121539000Y-101853750D01*
X128563000Y-101853750D01*
X128563000Y-102694309D01*
X128659673Y-102927698D01*
X128838301Y-103106327D01*
X129071690Y-103203000D01*
X129762250Y-103203000D01*
X129921000Y-103044250D01*
X129921000Y-101695000D01*
X130175000Y-101695000D01*
X130175000Y-103044250D01*
X130333750Y-103203000D01*
X131024310Y-103203000D01*
X131257699Y-103106327D01*
X131436327Y-102927698D01*
X131533000Y-102694309D01*
X131533000Y-101853750D01*
X144311000Y-101853750D01*
X144311000Y-102694309D01*
X144407673Y-102927698D01*
X144586301Y-103106327D01*
X144819690Y-103203000D01*
X145510250Y-103203000D01*
X145669000Y-103044250D01*
X145669000Y-101695000D01*
X145923000Y-101695000D01*
X145923000Y-103044250D01*
X146081750Y-103203000D01*
X146772310Y-103203000D01*
X147005699Y-103106327D01*
X147184327Y-102927698D01*
X147281000Y-102694309D01*
X147281000Y-101853750D01*
X153455000Y-101853750D01*
X153455000Y-102694309D01*
X153551673Y-102927698D01*
X153730301Y-103106327D01*
X153963690Y-103203000D01*
X154654250Y-103203000D01*
X154813000Y-103044250D01*
X154813000Y-101695000D01*
X155067000Y-101695000D01*
X155067000Y-103044250D01*
X155225750Y-103203000D01*
X155916310Y-103203000D01*
X156149699Y-103106327D01*
X156328327Y-102927698D01*
X156425000Y-102694309D01*
X156425000Y-101853750D01*
X162599000Y-101853750D01*
X162599000Y-102694309D01*
X162695673Y-102927698D01*
X162874301Y-103106327D01*
X163107690Y-103203000D01*
X163798250Y-103203000D01*
X163957000Y-103044250D01*
X163957000Y-101695000D01*
X164211000Y-101695000D01*
X164211000Y-103044250D01*
X164369750Y-103203000D01*
X165060310Y-103203000D01*
X165293699Y-103106327D01*
X165472327Y-102927698D01*
X165569000Y-102694309D01*
X165569000Y-101853750D01*
X165410250Y-101695000D01*
X164211000Y-101695000D01*
X163957000Y-101695000D01*
X162757750Y-101695000D01*
X162599000Y-101853750D01*
X156425000Y-101853750D01*
X156266250Y-101695000D01*
X155067000Y-101695000D01*
X154813000Y-101695000D01*
X153613750Y-101695000D01*
X153455000Y-101853750D01*
X147281000Y-101853750D01*
X147122250Y-101695000D01*
X145923000Y-101695000D01*
X145669000Y-101695000D01*
X144469750Y-101695000D01*
X144311000Y-101853750D01*
X131533000Y-101853750D01*
X131374250Y-101695000D01*
X130175000Y-101695000D01*
X129921000Y-101695000D01*
X128721750Y-101695000D01*
X128563000Y-101853750D01*
X121539000Y-101853750D01*
X121539000Y-100441691D01*
X128563000Y-100441691D01*
X128563000Y-101282250D01*
X128721750Y-101441000D01*
X129921000Y-101441000D01*
X129921000Y-100091750D01*
X130175000Y-100091750D01*
X130175000Y-101441000D01*
X131374250Y-101441000D01*
X131533000Y-101282250D01*
X131533000Y-100720532D01*
X132123073Y-100720532D01*
X132221736Y-100987387D01*
X132831461Y-101213908D01*
X133481460Y-101189856D01*
X133970264Y-100987387D01*
X134068927Y-100720532D01*
X133096000Y-99747605D01*
X132123073Y-100720532D01*
X131533000Y-100720532D01*
X131533000Y-100441691D01*
X131436327Y-100208302D01*
X131257699Y-100029673D01*
X131024310Y-99933000D01*
X130333750Y-99933000D01*
X130175000Y-100091750D01*
X129921000Y-100091750D01*
X129762250Y-99933000D01*
X129071690Y-99933000D01*
X128838301Y-100029673D01*
X128659673Y-100208302D01*
X128563000Y-100441691D01*
X121539000Y-100441691D01*
X121539000Y-99303461D01*
X131450092Y-99303461D01*
X131474144Y-99953460D01*
X131676613Y-100442264D01*
X131943468Y-100540927D01*
X132916395Y-99568000D01*
X133275605Y-99568000D01*
X134248532Y-100540927D01*
X134515387Y-100442264D01*
X134515599Y-100441691D01*
X144311000Y-100441691D01*
X144311000Y-101282250D01*
X144469750Y-101441000D01*
X145669000Y-101441000D01*
X145669000Y-100091750D01*
X145923000Y-100091750D01*
X145923000Y-101441000D01*
X147122250Y-101441000D01*
X147281000Y-101282250D01*
X147281000Y-100441691D01*
X153455000Y-100441691D01*
X153455000Y-101282250D01*
X153613750Y-101441000D01*
X154813000Y-101441000D01*
X154813000Y-100091750D01*
X155067000Y-100091750D01*
X155067000Y-101441000D01*
X156266250Y-101441000D01*
X156425000Y-101282250D01*
X156425000Y-100441691D01*
X162599000Y-100441691D01*
X162599000Y-101282250D01*
X162757750Y-101441000D01*
X163957000Y-101441000D01*
X163957000Y-100091750D01*
X164211000Y-100091750D01*
X164211000Y-101441000D01*
X165410250Y-101441000D01*
X165569000Y-101282250D01*
X165569000Y-100441691D01*
X165472327Y-100208302D01*
X165293699Y-100029673D01*
X165060310Y-99933000D01*
X164369750Y-99933000D01*
X164211000Y-100091750D01*
X163957000Y-100091750D01*
X163798250Y-99933000D01*
X163107690Y-99933000D01*
X162874301Y-100029673D01*
X162695673Y-100208302D01*
X162599000Y-100441691D01*
X156425000Y-100441691D01*
X156328327Y-100208302D01*
X156149699Y-100029673D01*
X155916310Y-99933000D01*
X155225750Y-99933000D01*
X155067000Y-100091750D01*
X154813000Y-100091750D01*
X154654250Y-99933000D01*
X153963690Y-99933000D01*
X153730301Y-100029673D01*
X153551673Y-100208302D01*
X153455000Y-100441691D01*
X147281000Y-100441691D01*
X147184327Y-100208302D01*
X147005699Y-100029673D01*
X146772310Y-99933000D01*
X146081750Y-99933000D01*
X145923000Y-100091750D01*
X145669000Y-100091750D01*
X145510250Y-99933000D01*
X144819690Y-99933000D01*
X144586301Y-100029673D01*
X144407673Y-100208302D01*
X144311000Y-100441691D01*
X134515599Y-100441691D01*
X134741908Y-99832539D01*
X134717856Y-99182540D01*
X134515387Y-98693736D01*
X134248532Y-98595073D01*
X133275605Y-99568000D01*
X132916395Y-99568000D01*
X131943468Y-98595073D01*
X131676613Y-98693736D01*
X131450092Y-99303461D01*
X121539000Y-99303461D01*
X121539000Y-96568000D01*
X128660676Y-96568000D01*
X128660676Y-98568000D01*
X128697423Y-98763294D01*
X128812842Y-98942660D01*
X128988951Y-99062990D01*
X129198000Y-99105324D01*
X130898000Y-99105324D01*
X131093294Y-99068577D01*
X131272660Y-98953158D01*
X131392990Y-98777049D01*
X131435324Y-98568000D01*
X131435324Y-98220000D01*
X132195342Y-98220000D01*
X132123073Y-98415468D01*
X133096000Y-99388395D01*
X134068927Y-98415468D01*
X133996658Y-98220000D01*
X141191995Y-98220000D01*
X141192000Y-98220001D01*
X141400113Y-98178604D01*
X141441510Y-98170369D01*
X141653034Y-98029034D01*
X147590067Y-92092000D01*
X150825933Y-92092000D01*
X146846628Y-96071305D01*
X146646000Y-96030676D01*
X144946000Y-96030676D01*
X144750706Y-96067423D01*
X144571340Y-96182842D01*
X144451010Y-96358951D01*
X144408676Y-96568000D01*
X144408676Y-98568000D01*
X144445423Y-98763294D01*
X144560842Y-98942660D01*
X144736951Y-99062990D01*
X144946000Y-99105324D01*
X146646000Y-99105324D01*
X146841294Y-99068577D01*
X147020660Y-98953158D01*
X147140990Y-98777049D01*
X147183324Y-98568000D01*
X147183324Y-97578744D01*
X151654067Y-93108000D01*
X159783683Y-93108000D01*
X159701144Y-93306778D01*
X159701083Y-93376850D01*
X156327324Y-96750608D01*
X156327324Y-96568000D01*
X156290577Y-96372706D01*
X156175158Y-96193340D01*
X155999049Y-96073010D01*
X155790000Y-96030676D01*
X154090000Y-96030676D01*
X153894706Y-96067423D01*
X153715340Y-96182842D01*
X153595010Y-96358951D01*
X153552676Y-96568000D01*
X153552676Y-98568000D01*
X153589423Y-98763294D01*
X153704842Y-98942660D01*
X153880951Y-99062990D01*
X154090000Y-99105324D01*
X155790000Y-99105324D01*
X155985294Y-99068577D01*
X156164660Y-98953158D01*
X156284990Y-98777049D01*
X156327324Y-98568000D01*
X156327324Y-98220000D01*
X156431995Y-98220000D01*
X156432000Y-98220001D01*
X156640113Y-98178604D01*
X156681510Y-98170369D01*
X156893034Y-98029034D01*
X159896297Y-95025770D01*
X160058930Y-95188688D01*
X160362778Y-95314856D01*
X160432849Y-95314917D01*
X162696676Y-97578743D01*
X162696676Y-98568000D01*
X162733423Y-98763294D01*
X162848842Y-98942660D01*
X163024951Y-99062990D01*
X163234000Y-99105324D01*
X164934000Y-99105324D01*
X165129294Y-99068577D01*
X165308660Y-98953158D01*
X165428990Y-98777049D01*
X165471324Y-98568000D01*
X165471324Y-96568000D01*
X165434577Y-96372706D01*
X165319158Y-96193340D01*
X165143049Y-96073010D01*
X164934000Y-96030676D01*
X163234000Y-96030676D01*
X163038706Y-96067423D01*
X163033099Y-96071031D01*
X161355083Y-94393015D01*
X161355143Y-94324221D01*
X161229505Y-94020154D01*
X161189555Y-93980134D01*
X161228688Y-93941070D01*
X161354856Y-93637222D01*
X161355143Y-93308221D01*
X161229505Y-93004154D01*
X161189555Y-92964134D01*
X161228688Y-92925070D01*
X161354856Y-92621222D01*
X161355143Y-92292221D01*
X161229505Y-91988154D01*
X161189555Y-91948134D01*
X161228688Y-91909070D01*
X161354856Y-91605222D01*
X161355143Y-91276221D01*
X161229505Y-90972154D01*
X160997070Y-90739312D01*
X160693222Y-90613144D01*
X160364221Y-90612857D01*
X160060154Y-90738495D01*
X160010562Y-90788000D01*
X147320005Y-90788000D01*
X147320000Y-90787999D01*
X147070491Y-90837630D01*
X147070489Y-90837631D01*
X147070490Y-90837631D01*
X146858966Y-90978966D01*
X146858964Y-90978969D01*
X140921932Y-96916000D01*
X131435324Y-96916000D01*
X131435324Y-96568000D01*
X131398577Y-96372706D01*
X131283158Y-96193340D01*
X131107049Y-96073010D01*
X130898000Y-96030676D01*
X129198000Y-96030676D01*
X129002706Y-96067423D01*
X128823340Y-96182842D01*
X128703010Y-96358951D01*
X128660676Y-96568000D01*
X121539000Y-96568000D01*
X121539000Y-95920532D01*
X121963073Y-95920532D01*
X122061736Y-96187387D01*
X122671461Y-96413908D01*
X123321460Y-96389856D01*
X123810264Y-96187387D01*
X123908927Y-95920532D01*
X122936000Y-94947605D01*
X121963073Y-95920532D01*
X121539000Y-95920532D01*
X121539000Y-95650541D01*
X121783468Y-95740927D01*
X122756395Y-94768000D01*
X123115605Y-94768000D01*
X124088532Y-95740927D01*
X124355387Y-95642264D01*
X124581908Y-95032539D01*
X124568508Y-94670407D01*
X134628735Y-94670407D01*
X134860717Y-95231846D01*
X135289894Y-95661773D01*
X135850928Y-95894735D01*
X136458407Y-95895265D01*
X137019846Y-95663283D01*
X137449773Y-95234106D01*
X137682735Y-94673072D01*
X137683265Y-94065593D01*
X137451283Y-93504154D01*
X137022106Y-93074227D01*
X136461072Y-92841265D01*
X135853593Y-92840735D01*
X135292154Y-93072717D01*
X134862227Y-93501894D01*
X134629265Y-94062928D01*
X134628735Y-94670407D01*
X124568508Y-94670407D01*
X124557856Y-94382540D01*
X124355387Y-93893736D01*
X124088532Y-93795073D01*
X123115605Y-94768000D01*
X122756395Y-94768000D01*
X121783468Y-93795073D01*
X121539000Y-93885459D01*
X121539000Y-93615468D01*
X121963073Y-93615468D01*
X122936000Y-94588395D01*
X123908927Y-93615468D01*
X123810264Y-93348613D01*
X123200539Y-93122092D01*
X122550540Y-93146144D01*
X122061736Y-93348613D01*
X121963073Y-93615468D01*
X121539000Y-93615468D01*
X121539000Y-83820000D01*
X127628023Y-83820000D01*
X127732841Y-84346955D01*
X128031337Y-84793686D01*
X128474802Y-85090000D01*
X128031337Y-85386314D01*
X127732841Y-85833045D01*
X127628023Y-86360000D01*
X127732841Y-86886955D01*
X128031337Y-87333686D01*
X128423737Y-87595879D01*
X128429631Y-87625510D01*
X128492915Y-87720221D01*
X128570966Y-87837034D01*
X131110964Y-90377031D01*
X131110966Y-90377034D01*
X131322490Y-90518369D01*
X131572000Y-90568000D01*
X132727607Y-90568000D01*
X132232154Y-90772717D01*
X131802227Y-91201894D01*
X131569265Y-91762928D01*
X131568735Y-92370407D01*
X131800717Y-92931846D01*
X132229894Y-93361773D01*
X132790928Y-93594735D01*
X133398407Y-93595265D01*
X133959846Y-93363283D01*
X134389773Y-92934106D01*
X134622735Y-92373072D01*
X134623265Y-91765593D01*
X134391283Y-91204154D01*
X133962106Y-90774227D01*
X133465457Y-90568000D01*
X139690327Y-90568000D01*
X139738930Y-90616688D01*
X140042778Y-90742856D01*
X140371779Y-90743143D01*
X140675846Y-90617505D01*
X140908688Y-90385070D01*
X141034856Y-90081222D01*
X141035143Y-89752221D01*
X140960586Y-89571779D01*
X146492857Y-89571779D01*
X146618495Y-89875846D01*
X146850930Y-90108688D01*
X147154778Y-90234856D01*
X147483779Y-90235143D01*
X147787846Y-90109505D01*
X147837438Y-90060000D01*
X159511995Y-90060000D01*
X159512000Y-90060001D01*
X159720113Y-90018604D01*
X159761510Y-90010369D01*
X159973034Y-89869034D01*
X160434067Y-89408000D01*
X171141795Y-89408000D01*
X171239914Y-89901279D01*
X171519334Y-90319461D01*
X171937516Y-90598881D01*
X172430795Y-90697000D01*
X173517205Y-90697000D01*
X174010484Y-90598881D01*
X174428666Y-90319461D01*
X174708086Y-89901279D01*
X174737964Y-89751070D01*
X177461780Y-89751070D01*
X177476740Y-89825277D01*
X177738370Y-90306026D01*
X178164059Y-90650059D01*
X178689000Y-90805000D01*
X179197000Y-90805000D01*
X179197000Y-89535000D01*
X179451000Y-89535000D01*
X179451000Y-90805000D01*
X179959000Y-90805000D01*
X180483941Y-90650059D01*
X180909630Y-90306026D01*
X181171260Y-89825277D01*
X181186220Y-89751070D01*
X181063720Y-89535000D01*
X179451000Y-89535000D01*
X179197000Y-89535000D01*
X177584280Y-89535000D01*
X177461780Y-89751070D01*
X174737964Y-89751070D01*
X174806205Y-89408000D01*
X174708086Y-88914721D01*
X174428666Y-88496539D01*
X174010484Y-88217119D01*
X173517205Y-88119000D01*
X172430795Y-88119000D01*
X171937516Y-88217119D01*
X171519334Y-88496539D01*
X171239914Y-88914721D01*
X171141795Y-89408000D01*
X160434067Y-89408000D01*
X162322067Y-87520000D01*
X177695968Y-87520000D01*
X177869334Y-87779461D01*
X178287516Y-88058881D01*
X178430452Y-88087313D01*
X178164059Y-88165941D01*
X177738370Y-88509974D01*
X177476740Y-88990723D01*
X177461780Y-89064930D01*
X177584280Y-89281000D01*
X179197000Y-89281000D01*
X179197000Y-89261000D01*
X179451000Y-89261000D01*
X179451000Y-89281000D01*
X181063720Y-89281000D01*
X181186220Y-89064930D01*
X181171260Y-88990723D01*
X180909630Y-88509974D01*
X180483941Y-88165941D01*
X180217548Y-88087313D01*
X180360484Y-88058881D01*
X180778666Y-87779461D01*
X181058086Y-87361279D01*
X181156205Y-86868000D01*
X181058086Y-86374721D01*
X180778666Y-85956539D01*
X180360484Y-85677119D01*
X179962725Y-85598000D01*
X180360484Y-85518881D01*
X180778666Y-85239461D01*
X181058086Y-84821279D01*
X181156205Y-84328000D01*
X181058086Y-83834721D01*
X180778666Y-83416539D01*
X180360484Y-83137119D01*
X179867205Y-83039000D01*
X178780795Y-83039000D01*
X178287516Y-83137119D01*
X177869334Y-83416539D01*
X177695968Y-83676000D01*
X174602032Y-83676000D01*
X174428666Y-83416539D01*
X174010484Y-83137119D01*
X173517205Y-83039000D01*
X172430795Y-83039000D01*
X171937516Y-83137119D01*
X171519334Y-83416539D01*
X171239914Y-83834721D01*
X171141795Y-84328000D01*
X171239914Y-84821279D01*
X171519334Y-85239461D01*
X171937516Y-85518881D01*
X172430795Y-85617000D01*
X173517205Y-85617000D01*
X174010484Y-85518881D01*
X174428666Y-85239461D01*
X174602032Y-84980000D01*
X177695968Y-84980000D01*
X177869334Y-85239461D01*
X178287516Y-85518881D01*
X178685275Y-85598000D01*
X178287516Y-85677119D01*
X177869334Y-85956539D01*
X177695968Y-86216000D01*
X162052000Y-86216000D01*
X161802490Y-86265631D01*
X161590966Y-86406966D01*
X161590964Y-86406969D01*
X159241932Y-88756000D01*
X147837673Y-88756000D01*
X147789070Y-88707312D01*
X147485222Y-88581144D01*
X147156221Y-88580857D01*
X146852154Y-88706495D01*
X146619312Y-88938930D01*
X146493144Y-89242778D01*
X146492857Y-89571779D01*
X140960586Y-89571779D01*
X140909505Y-89448154D01*
X140677070Y-89215312D01*
X140373222Y-89089144D01*
X140044221Y-89088857D01*
X139740154Y-89214495D01*
X139690562Y-89264000D01*
X131842067Y-89264000D01*
X129960183Y-87382115D01*
X130032663Y-87333686D01*
X130250785Y-87007244D01*
X130300355Y-87126924D01*
X130690642Y-87555183D01*
X131215108Y-87801486D01*
X131445000Y-87680819D01*
X131445000Y-86487000D01*
X131699000Y-86487000D01*
X131699000Y-87680819D01*
X131928892Y-87801486D01*
X132453358Y-87555183D01*
X132843645Y-87126924D01*
X133013476Y-86716890D01*
X132892155Y-86487000D01*
X131699000Y-86487000D01*
X131445000Y-86487000D01*
X131425000Y-86487000D01*
X131425000Y-86233000D01*
X131445000Y-86233000D01*
X131445000Y-86213000D01*
X131699000Y-86213000D01*
X131699000Y-86233000D01*
X132892155Y-86233000D01*
X133013476Y-86003110D01*
X132843645Y-85593076D01*
X132453358Y-85164817D01*
X132197238Y-85044537D01*
X132572663Y-84793686D01*
X132871159Y-84346955D01*
X132975977Y-83820000D01*
X132871159Y-83293045D01*
X132572663Y-82846314D01*
X132129198Y-82550000D01*
X132572663Y-82253686D01*
X132871159Y-81806955D01*
X132975977Y-81280000D01*
X132871159Y-80753045D01*
X132572663Y-80306314D01*
X132125932Y-80007818D01*
X131598977Y-79903000D01*
X131545023Y-79903000D01*
X131277942Y-79956126D01*
X131334068Y-79900000D01*
X141461932Y-79900000D01*
X149906964Y-88345031D01*
X149906966Y-88345034D01*
X150118490Y-88486369D01*
X150368000Y-88536000D01*
X152898327Y-88536000D01*
X152946930Y-88584688D01*
X153250778Y-88710856D01*
X153579779Y-88711143D01*
X153883846Y-88585505D01*
X154116688Y-88353070D01*
X154242856Y-88049222D01*
X154243143Y-87720221D01*
X154117505Y-87416154D01*
X153885070Y-87183312D01*
X153581222Y-87057144D01*
X153252221Y-87056857D01*
X152948154Y-87182495D01*
X152898562Y-87232000D01*
X150638067Y-87232000D01*
X143447818Y-80041750D01*
X145327000Y-80041750D01*
X145327000Y-80732309D01*
X145423673Y-80965698D01*
X145602301Y-81144327D01*
X145835690Y-81241000D01*
X146526250Y-81241000D01*
X146685000Y-81082250D01*
X146685000Y-79883000D01*
X145485750Y-79883000D01*
X145327000Y-80041750D01*
X143447818Y-80041750D01*
X142193034Y-78786966D01*
X142182146Y-78779691D01*
X145327000Y-78779691D01*
X145327000Y-79470250D01*
X145485750Y-79629000D01*
X146685000Y-79629000D01*
X146685000Y-78429750D01*
X146939000Y-78429750D01*
X146939000Y-79629000D01*
X146959000Y-79629000D01*
X146959000Y-79883000D01*
X146939000Y-79883000D01*
X146939000Y-81082250D01*
X147097750Y-81241000D01*
X147788310Y-81241000D01*
X148021699Y-81144327D01*
X148200327Y-80965698D01*
X148297000Y-80732309D01*
X148297000Y-80634968D01*
X148378314Y-80756663D01*
X148825045Y-81055159D01*
X149352000Y-81159977D01*
X149878955Y-81055159D01*
X150325686Y-80756663D01*
X150624182Y-80309932D01*
X150729000Y-79782977D01*
X150729000Y-79729023D01*
X150624182Y-79202068D01*
X150325686Y-78755337D01*
X149878955Y-78456841D01*
X149352000Y-78352023D01*
X148825045Y-78456841D01*
X148378314Y-78755337D01*
X148297000Y-78877032D01*
X148297000Y-78779691D01*
X148200327Y-78546302D01*
X148021699Y-78367673D01*
X147788310Y-78271000D01*
X147097750Y-78271000D01*
X146939000Y-78429750D01*
X146685000Y-78429750D01*
X146526250Y-78271000D01*
X145835690Y-78271000D01*
X145602301Y-78367673D01*
X145423673Y-78546302D01*
X145327000Y-78779691D01*
X142182146Y-78779691D01*
X141981510Y-78645631D01*
X141940113Y-78637396D01*
X141732000Y-78595999D01*
X141731995Y-78596000D01*
X131064005Y-78596000D01*
X131064000Y-78595999D01*
X130855887Y-78637396D01*
X130814490Y-78645631D01*
X130613854Y-78779691D01*
X130602966Y-78786966D01*
X129497256Y-79892676D01*
X128182000Y-79892676D01*
X127986706Y-79929423D01*
X127807340Y-80044842D01*
X127687010Y-80220951D01*
X127644676Y-80430000D01*
X127644676Y-82130000D01*
X127681423Y-82325294D01*
X127796842Y-82504660D01*
X127972951Y-82624990D01*
X128182000Y-82667324D01*
X128299215Y-82667324D01*
X128031337Y-82846314D01*
X127732841Y-83293045D01*
X127628023Y-83820000D01*
X121539000Y-83820000D01*
X121539000Y-77851000D01*
X164006093Y-77851000D01*
X163912135Y-77944794D01*
M02*
