G04 #@! TF.FileFunction,Soldermask,Bot*
%FSLAX46Y46*%
G04 Gerber Fmt 4.6, Leading zero omitted, Abs format (unit mm)*
G04 Created by KiCad (PCBNEW 4.0.7-e2-6376~58~ubuntu17.04.1) date Sun Jan  7 16:58:37 2018*
%MOMM*%
%LPD*%
G01*
G04 APERTURE LIST*
%ADD10C,0.100000*%
%ADD11R,2.000000X2.000000*%
%ADD12O,2.000000X2.000000*%
%ADD13R,1.100000X1.700000*%
%ADD14R,2.100000X2.400000*%
%ADD15R,2.400000X2.100000*%
%ADD16R,1.400000X1.650000*%
%ADD17C,2.000000*%
%ADD18R,2.100000X2.100000*%
%ADD19O,2.100000X2.100000*%
%ADD20C,2.500000*%
%ADD21C,2.150000*%
%ADD22O,3.700000X7.200000*%
%ADD23C,2.400000*%
%ADD24O,2.940000X1.924000*%
G04 APERTURE END LIST*
D10*
D11*
X156972000Y-116332000D03*
D12*
X164592000Y-108712000D03*
X159512000Y-116332000D03*
X162052000Y-108712000D03*
X162052000Y-116332000D03*
X159512000Y-108712000D03*
X164592000Y-116332000D03*
X156972000Y-108712000D03*
D13*
X157038000Y-106172000D03*
X158938000Y-106172000D03*
D14*
X164084000Y-101568000D03*
X164084000Y-97568000D03*
X145796000Y-101568000D03*
X145796000Y-97568000D03*
X130048000Y-101568000D03*
X130048000Y-97568000D03*
X172212000Y-101568000D03*
X172212000Y-97568000D03*
X154940000Y-101568000D03*
X154940000Y-97568000D03*
D15*
X152368000Y-118872000D03*
X148368000Y-118872000D03*
D16*
X157496000Y-113792000D03*
X159496000Y-113792000D03*
D11*
X150876000Y-109728000D03*
D17*
X148376000Y-109728000D03*
D18*
X129032000Y-81280000D03*
D19*
X131572000Y-81280000D03*
X129032000Y-83820000D03*
X131572000Y-83820000D03*
X129032000Y-86360000D03*
X131572000Y-86360000D03*
D20*
X170860000Y-81230000D03*
D21*
X169600000Y-78740000D03*
X165100000Y-78740000D03*
D20*
X163850000Y-81230000D03*
D22*
X180848000Y-112268000D03*
X170688000Y-112268000D03*
X175768000Y-112268000D03*
D18*
X181864000Y-98044000D03*
D19*
X181864000Y-100584000D03*
D18*
X146812000Y-79756000D03*
D19*
X149352000Y-79756000D03*
D23*
X122936000Y-94768000D03*
X136156000Y-94368000D03*
X136156000Y-104768000D03*
X133096000Y-107068000D03*
X133096000Y-99568000D03*
X133096000Y-92068000D03*
X122936000Y-104368000D03*
D24*
X172974000Y-84328000D03*
X172974000Y-89408000D03*
X179324000Y-84328000D03*
X179324000Y-86868000D03*
X179324000Y-89408000D03*
M02*
