M48
;DRILL file {KiCad 4.0.7-e2-6376~58~ubuntu17.04.1} date Sun Jan  7 16:50:32 2018
;FORMAT={-:-/ absolute / metric / decimal}
FMAT,2
METRIC,TZ
T1C0.400
T2C0.800
T3C0.990
T4C1.000
T5C1.270
T6C1.300
T7C2.100
%
G90
G05
M71
T1
X136.906Y-86.36
X139.7Y-107.696
X140.208Y-89.916
X145.222Y-106.68
X146.304Y-104.648
X146.304Y-118.872
X147.32Y-89.408
X147.828Y-98.552
X149.479Y-92.329
X149.86Y-98.552
X152.4Y-86.36
X152.4Y-98.044
X153.416Y-87.884
X160.528Y-91.44
X160.528Y-92.456
X160.528Y-93.472
X160.528Y-94.488
T2
X148.376Y-109.728
X150.876Y-109.728
X156.972Y-108.712
X156.972Y-116.332
X159.512Y-108.712
X159.512Y-116.332
X162.052Y-108.712
X162.052Y-116.332
X164.592Y-108.712
X164.592Y-116.332
T3
X165.1Y-78.74
X169.6Y-78.74
T4
X129.032Y-81.28
X129.032Y-83.82
X129.032Y-86.36
X131.572Y-81.28
X131.572Y-83.82
X131.572Y-86.36
X146.812Y-79.756
X149.352Y-79.756
X172.974Y-84.328
X172.974Y-89.408
X179.324Y-84.328
X179.324Y-86.868
X179.324Y-89.408
X181.864Y-98.044
X181.864Y-100.584
T5
X122.936Y-94.768
X122.936Y-104.368
X133.096Y-92.068
X133.096Y-99.568
X133.096Y-107.068
X136.156Y-94.368
X136.156Y-104.768
T6
X163.85Y-81.23
X170.86Y-81.23
T7
X170.688Y-112.268
X175.768Y-112.268
X180.848Y-112.268
T0
M30
